<?xml version="1.0" encoding="UTF-8" standalone="no"?>
<!-- Generator: Adobe Illustrator 18.1.1, SVG Export Plug-In . SVG Version: 6.00 Build 0)  -->

<svg
   xmlns:dc="http://purl.org/dc/elements/1.1/"
   xmlns:cc="http://creativecommons.org/ns#"
   xmlns:rdf="http://www.w3.org/1999/02/22-rdf-syntax-ns#"
   xmlns:svg="http://www.w3.org/2000/svg"
   xmlns="http://www.w3.org/2000/svg"
   xmlns:xlink="http://www.w3.org/1999/xlink"
   xmlns:sodipodi="http://sodipodi.sourceforge.net/DTD/sodipodi-0.dtd"
   xmlns:inkscape="http://www.inkscape.org/namespaces/inkscape"
   version="1.1"
   id="Capa_1"
   x="0px"
   y="0px"
   viewBox="0 0 24 24"
   xml:space="preserve"
   sodipodi:docname="exclamation2.svg"
   width="24"
   height="24"
   inkscape:version="0.92.3 (2405546, 2018-03-11)"><metadata
   id="metadata949"><rdf:RDF><cc:Work
       rdf:about=""><dc:format>image/svg+xml</dc:format><dc:type
         rdf:resource="http://purl.org/dc/dcmitype/StillImage" /><dc:title></dc:title></cc:Work></rdf:RDF></metadata><defs
   id="defs947"><linearGradient
     inkscape:collect="always"
     id="linearGradient955"><stop
       style="stop-color:#d4aa00;stop-opacity:1;"
       offset="0"
       id="stop951" /><stop
       style="stop-color:#d4aa00;stop-opacity:0;"
       offset="1"
       id="stop953" /></linearGradient><linearGradient
     inkscape:collect="always"
     xlink:href="#linearGradient955"
     id="linearGradient957"
     x1="-5.0336413"
     y1="-1.8872991"
     x2="-22.291842"
     y2="17.528175"
     gradientUnits="userSpaceOnUse" /><linearGradient
     inkscape:collect="always"
     xlink:href="#linearGradient955"
     id="linearGradient1210"
     gradientUnits="userSpaceOnUse"
     x1="-5.0336413"
     y1="-1.8872991"
     x2="-22.291842"
     y2="17.528175" /></defs><sodipodi:namedview
   pagecolor="#ffffff"
   bordercolor="#666666"
   borderopacity="1"
   objecttolerance="10"
   gridtolerance="10"
   guidetolerance="10"
   inkscape:pageopacity="0"
   inkscape:pageshadow="2"
   inkscape:window-width="1366"
   inkscape:window-height="739"
   id="namedview945"
   showgrid="false"
   showborder="false"
   inkscape:zoom="16"
   inkscape:cx="3.6611245"
   inkscape:cy="14.576667"
   inkscape:window-x="0"
   inkscape:window-y="260"
   inkscape:window-maximized="1"
   inkscape:current-layer="Capa_1"
   fit-margin-top="0"
   fit-margin-left="0"
   fit-margin-right="0"
   fit-margin-bottom="0" />

<g
   id="g914">
</g>
<g
   id="g916">
</g>
<g
   id="g918">
</g>
<g
   id="g920">
</g>
<g
   id="g922">
</g>
<g
   id="g924">
</g>
<g
   id="g926">
</g>
<g
   id="g928">
</g>
<g
   id="g930">
</g>
<g
   id="g932">
</g>
<g
   id="g934">
</g>
<g
   id="g936">
</g>
<g
   id="g938">
</g>
<g
   id="g940">
</g>
<g
   id="g942">
</g>
<g
   id="g1217"
   transform="translate(10.429681,16.353516)"><g
     transform="translate(-10.429681,-16.353516)"
     style="fill:url(#linearGradient957);fill-opacity:1"
     id="g912">
	<path
   inkscape:connector-curvature="0"
   id="path910"
   d="M 12,0 C 5.373,0 0,5.373 0,12 0,18.627 5.373,24 12,24 18.627,24 24,18.627 24,12 24,5.373 18.627,0 12,0 Z m 0,19.66 c -0.938,0 -1.58,-0.723 -1.58,-1.66 0,-0.964 0.669,-1.66 1.58,-1.66 0.963,0 1.58,0.696 1.58,1.66 0,0.938 -0.617,1.66 -1.58,1.66 z m 0.622,-6.339 c -0.239,0.815 -0.992,0.829 -1.243,0 -0.289,-0.956 -1.316,-4.585 -1.316,-6.942 0,-3.11 3.891,-3.125 3.891,0 -0.001,2.371 -1.083,6.094 -1.332,6.942 z"
   style="fill:url(#linearGradient1210);fill-opacity:1" />
</g><path
     inkscape:connector-curvature="0"
     id="path1198"
     d="m 1.3648508,-2.489113 c -0.250891,-0.124189 -0.327144,-0.271469 -0.55064598,-1.063559 -0.664465,-2.354862 -1.04293,-4.2896531 -1.147198,-5.8647013 -0.0767,-1.1585747 0.09689,-1.7887227 0.643137,-2.3346987 0.4799,-0.479662 1.07478698,-0.648108 1.71268798,-0.48496 0.564701,0.144426 0.973861,0.498107 1.24114,1.072852 0.194111,0.41741 0.235782,0.660945 0.231159,1.3509478 -0.0094,1.4036771 -0.421836,3.6124492 -1.172557,6.2796362 -0.174505,0.619988 -0.250011,0.795473 -0.406612,0.94501 -0.186151,0.177754 -0.337702,0.205108 -0.551111,0.09947 z"
     style="fill:#ffffff;fill-opacity:1;stroke:#ffffff;stroke-width:0.03125" /><path
     inkscape:connector-curvature="0"
     id="path1200"
     d="m 1.5625068,-12.296875 c -0.133701,-4.9e-5 -0.257218,0.01288 -0.375,0.03711 -0.01713,0.0034 -0.04774,0.0019 -0.0625,0.0059 -0.04019,0.01083 -0.07595,0.03503 -0.115235,0.04883 -0.07496,0.02544 -0.14937098,0.05778 -0.22070298,0.0957 -0.0693,0.03572 -0.136178,0.07245 -0.201172,0.117187 -0.395912,0.272524 -0.712194,0.695841 -0.861328,1.210938 -0.06573,0.22717 -0.07016,0.309243 -0.06836,0.9374996 2.45e-4,0.086621 0.01357,0.1776107 0.01563,0.2636719 0.0078,0.2791513 0.0217,0.567286 0.05469,0.8886719 0.02567,0.2619407 0.07197,0.5785227 0.117188,0.8730468 0.02898,0.1904904 0.0596,0.3838721 0.0957,0.5859376 0.02975,0.1646911 0.04058,0.2865674 0.07617,0.4667968 0.02253,0.1140684 0.06671,0.2792068 0.09375,0.40625 0.08083,0.3833354 0.176637,0.7912044 0.279296,1.2089844 0.246077,1.01458 0.501767,1.987896 0.61914098,2.261719 0.03892,0.0908 0.09578,0.1787 0.160156,0.253906 0.0136,0.01632 0.0326,0.02725 0.04687,0.04102 0.04125,0.0418 0.08219,0.08717 0.125,0.113281 0.06319,0.03853 0.132973,0.05138 0.205078,0.05273 0.05796,0.0011 0.116036,-0.008 0.173829,-0.0293 0.0075,-0.0027 0.01406,-0.0086 0.02148,-0.01172 0.05163,-0.02164 0.101553,-0.04945 0.148437,-0.08789 0.0063,-0.0052 0.01142,-0.01207 0.01758,-0.01758 0.03276,-0.02895 0.06728,-0.05485 0.0957,-0.0918 0.0047,-0.0061 0.01259,-0.03336 0.01758,-0.04102 0.0052,-0.0076 0.01256,-0.01166 0.01758,-0.01953 0.0081,-0.01277 0.02602,-0.07759 0.03516,-0.0957 0.06526,-0.134622 0.143353,-0.353611 0.236328,-0.652344 0.0061,-0.02016 0.01142,-0.03393 0.01758,-0.05469 0.08547,-0.278648 0.179338,-0.659826 0.277344,-1.03711 0.07187,-0.280521 0.135865,-0.545447 0.207032,-0.847656 0.07372,-0.310588 0.144002,-0.546795 0.216796,-0.882812 0.07915,-0.3653757 0.116018,-0.6348283 0.173828,-0.9511722 0.04874,-0.2610293 0.108943,-0.5530308 0.140626,-0.7675782 10e-4,-0.00687 9.46e-4,-0.012662 0.002,-0.019531 0.07245,-0.4988018 0.120186,-0.9630243 0.136718,-1.3847656 0.004,-0.069734 0.01867,-0.1529162 0.02149,-0.2207032 0.01305,-0.3147671 -0.006,-0.5821898 -0.04102,-0.8300778 -0.0308,-0.279799 -0.08807,-0.50458 -0.222656,-0.773438 -0.01126,-0.02248 -0.0271,-0.0406 -0.03906,-0.0625 -0.02477,-0.04414 -0.05401,-0.08682 -0.08203,-0.128906 -0.06991,-0.10808 -0.147597,-0.206648 -0.234375,-0.296875 -0.0099,-0.01034 -0.01524,-0.02297 -0.02539,-0.0332 -0.0097,-0.0098 -0.02143,-0.01589 -0.03125,-0.02539 -0.06451,-0.06161 -0.13129,-0.118543 -0.203124,-0.169922 -0.03372,-0.02443 -0.06852,-0.0466 -0.103516,-0.06836 -0.06898,-0.04263 -0.138762,-0.08215 -0.212891,-0.115234 -0.03375,-0.01482 -0.06876,-0.02643 -0.103515,-0.03906 -0.05821,-0.02181 -0.113151,-0.0506 -0.173828,-0.06641 -0.01977,-0.0052 -0.057,-0.0035 -0.08008,-0.0078 -0.124433,-0.02492 -0.253549,-0.03901 -0.388671,-0.03906 z"
     style="fill:#ffffff;fill-opacity:1;stroke:#ffffff;stroke-width:0.03125" /><path
     inkscape:connector-curvature="0"
     id="path1205"
     d="m 1.5800848,0.015625 c -0.0178,0 -0.03152,0.0036 -0.04883,0.0039 -0.08654,0.002 -0.170637,0.0024 -0.25586,0.01758 -0.13064,0.01899 -0.248148,0.05582 -0.35742198,0.105469 -0.01495,0.0066 -0.03215,0.0066 -0.04687,0.01367 -0.01917,0.0092 -0.03902,0.03191 -0.05859,0.04297 -0.08499,0.04925 -0.168809,0.110204 -0.25,0.183594 -0.07098,0.06223 -0.123346,0.120203 -0.183594,0.191406 -0.04461,0.05354 -0.08918,0.107632 -0.125,0.164063 -0.01932,0.0304 -0.05333,0.06019 -0.06836,0.08984 -0.02046,0.04038 -0.03184,0.09021 -0.04883,0.134765 -0.007,0.01713 -0.01317,0.03525 -0.01953,0.05273 -0.02632,0.07746 -0.04829,0.155268 -0.06445,0.240234 -0.0059,0.03085 -0.0093,0.06368 -0.01367,0.0957 -0.0137,0.09626 -0.02276,0.191001 -0.02344,0.289063 -1.3e-5,0.0034 0,0.0063 0,0.0098 0,0.0038 0.0019,0.0078 0.002,0.01172 4.07e-4,0.136442 0.01441,0.266964 0.04101,0.392578 0.0035,0.01807 0.0021,0.04995 0.0059,0.06445 0.0034,0.01335 0.01187,0.02392 0.01563,0.03711 0.0062,0.0218 0.0066,0.04736 0.01367,0.06836 0.02672,0.07959 0.06612,0.147112 0.101562,0.21875 0.01461,0.02886 0.02478,0.06019 0.04102,0.08789 0.202316,0.355898 0.515811,0.606046 0.92578098,0.71875 0.114715,0.03154 0.285952,0.03886 0.457031,0.03516 0.03918,-0.0012 0.07647,-0.0058 0.115234,-0.0098 0.06575,-0.005 0.140201,-0.0026 0.19336,-0.01367 0.06811,-0.0142 0.134222,-0.04299 0.201172,-0.06836 0.333189,-0.126241 0.641516,-0.374039 0.800781,-0.669922 0.02144,-0.03983 0.0249,-0.08731 0.04297,-0.128906 0.0434,-0.09308 0.07854,-0.19749 0.103515,-0.304688 0.01416,-0.06169 0.02721,-0.12056 0.03516,-0.183593 0.02001,-0.144005 0.02205,-0.286726 0.0098,-0.427735 -0.0047,-0.05246 -0.01464,-0.100691 -0.02344,-0.152343 -0.0201,-0.117318 -0.05021,-0.229314 -0.0918,-0.337891 -0.02117,-0.05719 -0.03975,-0.112112 -0.06641,-0.166016 -0.04827,-0.0948 -0.11061,-0.177917 -0.175782,-0.259765 -0.03204,-0.04093 -0.04978,-0.09412 -0.08594,-0.13086 -0.02601,-0.02643 -0.06342,-0.04035 -0.0918,-0.06445 -0.08406,-0.07533 -0.172768,-0.138308 -0.265625,-0.1875 -0.01534,-0.0078 -0.02927,-0.01619 -0.04492,-0.02344 -0.118257,-0.0564 -0.246131,-0.09834 -0.390625,-0.119141 -0.08008,-0.01479 -0.160229,-0.01418 -0.242187,-0.01758 -0.02205,-5.53e-4 -0.03973,-0.0039 -0.0625,-0.0039 z"
     style="fill:#ffffff;fill-opacity:1;stroke:#ffffff;stroke-width:0.03125" /></g></svg>