<?xml version="1.0" encoding="UTF-8" standalone="no"?>
<!-- Generator: Adobe Illustrator 18.1.1, SVG Export Plug-In . SVG Version: 6.00 Build 0)  -->

<svg
   xmlns:dc="http://purl.org/dc/elements/1.1/"
   xmlns:cc="http://creativecommons.org/ns#"
   xmlns:rdf="http://www.w3.org/1999/02/22-rdf-syntax-ns#"
   xmlns:svg="http://www.w3.org/2000/svg"
   xmlns="http://www.w3.org/2000/svg"
   xmlns:sodipodi="http://sodipodi.sourceforge.net/DTD/sodipodi-0.dtd"
   xmlns:inkscape="http://www.inkscape.org/namespaces/inkscape"
   version="1.1"
   id="Capa_1"
   x="0px"
   y="0px"
   viewBox="0 0 24 24"
   xml:space="preserve"
   sodipodi:docname="history.svg"
   width="24"
   height="24"
   inkscape:version="0.92.3 (2405546, 2018-03-11)"><metadata
   id="metadata185"><rdf:RDF><cc:Work
       rdf:about=""><dc:format>image/svg+xml</dc:format><dc:type
         rdf:resource="http://purl.org/dc/dcmitype/StillImage" /><dc:title></dc:title></cc:Work></rdf:RDF></metadata><defs
   id="defs183" /><sodipodi:namedview
   pagecolor="#ffffff"
   bordercolor="#666666"
   borderopacity="1"
   objecttolerance="10"
   gridtolerance="10"
   guidetolerance="10"
   inkscape:pageopacity="0"
   inkscape:pageshadow="2"
   inkscape:window-width="1366"
   inkscape:window-height="703"
   id="namedview181"
   showgrid="false"
   showborder="false"
   fit-margin-top="0"
   fit-margin-left="0"
   fit-margin-right="0"
   fit-margin-bottom="0"
   inkscape:zoom="5.8778251"
   inkscape:cx="25.815513"
   inkscape:cy="21.001186"
   inkscape:window-x="0"
   inkscape:window-y="260"
   inkscape:window-maximized="1"
   inkscape:current-layer="Capa_1" />

<g
   id="g150"
   transform="translate(0,-8)">
</g>
<g
   id="g152"
   transform="translate(0,-8)">
</g>
<g
   id="g154"
   transform="translate(0,-8)">
</g>
<g
   id="g156"
   transform="translate(0,-8)">
</g>
<g
   id="g158"
   transform="translate(0,-8)">
</g>
<g
   id="g160"
   transform="translate(0,-8)">
</g>
<g
   id="g162"
   transform="translate(0,-8)">
</g>
<g
   id="g164"
   transform="translate(0,-8)">
</g>
<g
   id="g166"
   transform="translate(0,-8)">
</g>
<g
   id="g168"
   transform="translate(0,-8)">
</g>
<g
   id="g170"
   transform="translate(0,-8)">
</g>
<g
   id="g172"
   transform="translate(0,-8)">
</g>
<g
   id="g174"
   transform="translate(0,-8)">
</g>
<g
   id="g176"
   transform="translate(0,-8)">
</g>
<g
   id="g178"
   transform="translate(0,-8)">
</g>
<g
   id="g5201"
   transform="scale(0.5)"><g
     transform="scale(1.5)"
     id="g148">
	<g
   id="news">
		<path
   inkscape:connector-curvature="0"
   id="path121"
   d="M 29,0 H 7 C 5.343,0 4,1.342 4,3 V 5 H 3 C 1.343,5 0,6.342 0,8 v 20 c 0,2.209 1.791,4 4,4 h 24 c 2.209,0 4,-1.791 4,-4 V 3 C 32,1.342 30.656,0 29,0 Z m 1,28 c 0,1.102 -0.898,2 -2,2 H 4 C 2.897,30 2,29.102 2,28 V 8 C 2,7.448 2.448,7 3,7 h 1 v 20 c 0,0.553 0.447,1 1,1 0.553,0 1,-0.447 1,-1 V 3 C 6,2.448 6.448,2 7,2 h 22 c 0.551,0 1,0.448 1,1 z"
   style="fill:#010002" />
		<path
   inkscape:connector-curvature="0"
   id="path123"
   d="m 19.498,13.005 h 8 c 0.277,0 0.5,-0.224 0.5,-0.5 0,-0.276 -0.223,-0.5 -0.5,-0.5 h -8 c -0.275,0 -0.5,0.224 -0.5,0.5 0,0.276 0.225,0.5 0.5,0.5 z"
   style="fill:#010002" />
		<path
   inkscape:connector-curvature="0"
   id="path125"
   d="m 19.498,10.005 h 8 c 0.277,0 0.5,-0.224 0.5,-0.5 0,-0.276 -0.223,-0.5 -0.5,-0.5 h -8 c -0.275,0 -0.5,0.224 -0.5,0.5 0,0.276 0.225,0.5 0.5,0.5 z"
   style="fill:#010002" />
		<path
   inkscape:connector-curvature="0"
   id="path127"
   d="m 19.498,7.005 h 8 c 0.277,0 0.5,-0.224 0.5,-0.5 0,-0.276 -0.223,-0.5 -0.5,-0.5 h -8 c -0.275,0 -0.5,0.224 -0.5,0.5 0,0.276 0.225,0.5 0.5,0.5 z"
   style="fill:#010002" />
		<path
   inkscape:connector-curvature="0"
   id="path129"
   d="m 16.5,27.004 h -8 c -0.276,0 -0.5,0.225 -0.5,0.5 0,0.277 0.224,0.5 0.5,0.5 h 8 c 0.275,0 0.5,-0.223 0.5,-0.5 0,-0.275 -0.224,-0.5 -0.5,-0.5 z"
   style="fill:#010002" />
		<path
   inkscape:connector-curvature="0"
   id="path131"
   d="m 16.5,24.004 h -8 c -0.276,0 -0.5,0.225 -0.5,0.5 0,0.277 0.224,0.5 0.5,0.5 h 8 c 0.275,0 0.5,-0.223 0.5,-0.5 0,-0.275 -0.224,-0.5 -0.5,-0.5 z"
   style="fill:#010002" />
		<path
   inkscape:connector-curvature="0"
   id="path133"
   d="m 16.5,21.004 h -8 c -0.276,0 -0.5,0.225 -0.5,0.5 0,0.277 0.224,0.5 0.5,0.5 h 8 c 0.275,0 0.5,-0.223 0.5,-0.5 0,-0.275 -0.224,-0.5 -0.5,-0.5 z"
   style="fill:#010002" />
		<path
   inkscape:connector-curvature="0"
   id="path135"
   d="m 27.5,27.004 h -8 c -0.277,0 -0.5,0.225 -0.5,0.5 0,0.277 0.223,0.5 0.5,0.5 h 8 c 0.275,0 0.5,-0.223 0.5,-0.5 0,-0.275 -0.225,-0.5 -0.5,-0.5 z"
   style="fill:#010002" />
		<path
   inkscape:connector-curvature="0"
   id="path137"
   d="m 27.5,24.004 h -8 c -0.277,0 -0.5,0.225 -0.5,0.5 0,0.277 0.223,0.5 0.5,0.5 h 8 c 0.275,0 0.5,-0.223 0.5,-0.5 0,-0.275 -0.225,-0.5 -0.5,-0.5 z"
   style="fill:#010002" />
		<path
   inkscape:connector-curvature="0"
   id="path139"
   d="m 27.5,21.004 h -8 c -0.277,0 -0.5,0.225 -0.5,0.5 0,0.277 0.223,0.5 0.5,0.5 h 8 c 0.275,0 0.5,-0.223 0.5,-0.5 0,-0.275 -0.225,-0.5 -0.5,-0.5 z"
   style="fill:#010002" />
		<path
   inkscape:connector-curvature="0"
   id="path141"
   d="m 27.5,15.004 h -19 c -0.276,0 -0.5,0.224 -0.5,0.5 0,0.276 0.224,0.5 0.5,0.5 h 19 c 0.275,0 0.5,-0.224 0.5,-0.5 0,-0.276 -0.225,-0.5 -0.5,-0.5 z"
   style="fill:#010002" />
		<path
   inkscape:connector-curvature="0"
   id="path143"
   d="m 27.5,18.004 h -19 c -0.276,0 -0.5,0.225 -0.5,0.5 0,0.277 0.224,0.5 0.5,0.5 h 19 c 0.275,0 0.5,-0.223 0.5,-0.5 0,-0.275 -0.225,-0.5 -0.5,-0.5 z"
   style="fill:#010002" />
		<path
   inkscape:connector-curvature="0"
   id="path145"
   d="m 9,13 h 7 c 0.553,0 1,-0.447 1,-1 V 5.004 c 0,-0.553 -0.447,-1 -1,-1 H 9 c -0.553,0 -1,0.447 -1,1 V 12 c 0,0.552 0.447,1 1,1 z m 1,-7 h 5 v 5 h -5 z"
   style="fill:#010002" />
	</g>
</g><path
     inkscape:connector-curvature="0"
     id="path187"
     d="M 4.7719219,44.614977 C 4.4482239,44.441377 3.9517854,44.013217 3.668725,43.663513 L 3.1540696,43.027685 3.1089288,27.295838 3.0637881,11.56399 3.5637019,11.064076 c 0.4336116,-0.433611 0.6257518,-0.499913 1.4487212,-0.499913 h 0.9488072 v 15.288586 15.288586 l 0.4485271,0.448528 c 0.5473886,0.547388 1.4740502,0.597714 2.1034372,0.114234 L 8.938522,41.377371 9.0235875,22.638445 9.108653,3.899519 9.5860003,3.48896 10.063347,3.078401 H 26.88882 c 11.968697,0 16.945141,0.05452 17.240045,0.188891 0.228013,0.103891 0.499572,0.375449 0.603463,0.603464 0.134857,0.295981 0.188891,5.8888545 0.188891,19.551763 0,15.871508 -0.03997,19.230615 -0.234243,19.684653 -0.283277,0.662062 -1.039051,1.39624 -1.690806,1.642489 -0.327725,0.123823 -6.344522,0.180955 -19.057321,0.180955 -17.7703657,0 -18.6039828,-0.01373 -19.1669271,-0.315639 z M 25.322133,41.834232 c 0.112286,-0.112286 0.204157,-0.364931 0.204157,-0.561432 0,-0.196501 -0.09187,-0.449146 -0.204157,-0.561432 -0.292989,-0.292989 -12.909172,-0.292989 -13.202162,0 -0.262427,0.262427 -0.262427,0.860437 0,1.122864 0.29299,0.292989 12.909173,0.292989 13.202162,0 z m 16.502703,0 c 0.112286,-0.112286 0.204157,-0.364931 0.204157,-0.561432 0,-0.756902 -0.07721,-0.765589 -6.805238,-0.765589 -6.728028,0 -6.805239,0.0087 -6.805239,0.765589 0,0.196501 0.09187,0.449146 0.204157,0.561432 0.29299,0.292989 12.909173,0.292989 13.202163,0 z M 25.197213,37.438868 c 0.210387,-0.112596 0.329077,-0.355885 0.329077,-0.674538 0,-0.318654 -0.11869,-0.561943 -0.329077,-0.674539 -0.209597,-0.112172 -2.583347,-0.176116 -6.53789,-0.176116 -5.417533,0 -6.242884,0.03407 -6.476161,0.267349 -0.344305,0.344304 -0.339395,0.732099 0.01422,1.122835 0.262954,0.290562 0.691001,0.311125 6.47616,0.311125 3.944744,0 6.314117,-0.06396 6.523674,-0.176116 z m 16.502702,0 c 0.210388,-0.112596 0.329078,-0.355885 0.329078,-0.674538 0,-0.318654 -0.11869,-0.561943 -0.329078,-0.674539 -0.209596,-0.112172 -2.583346,-0.176116 -6.537889,-0.176116 -5.417533,0 -6.242884,0.03407 -6.476161,0.267349 -0.147042,0.147041 -0.267349,0.409529 -0.267349,0.583306 0,0.173777 0.120307,0.436265 0.267349,0.583306 0.233277,0.233276 1.058628,0.267348 6.476161,0.267348 3.954543,0 6.328293,-0.06394 6.537889,-0.176116 z M 25.322133,32.817292 c 0.112286,-0.112287 0.204157,-0.364931 0.204157,-0.561433 0,-0.196501 -0.09187,-0.449145 -0.204157,-0.561432 -0.292989,-0.292989 -12.909172,-0.292989 -13.202162,0 -0.262427,0.262427 -0.262427,0.860438 0,1.122865 0.29299,0.292989 12.909173,0.292989 13.202162,0 z m 16.502703,0 c 0.112286,-0.112287 0.204157,-0.364931 0.204157,-0.561433 0,-0.756902 -0.07721,-0.765589 -6.805238,-0.765589 -6.728028,0 -6.805239,0.0087 -6.805239,0.765589 0,0.196502 0.09187,0.449146 0.204157,0.561433 0.29299,0.292989 12.909173,0.292989 13.202163,0 z m -0.124921,-4.395364 c 0.443931,-0.237586 0.443931,-1.111491 0,-1.349078 -0.219414,-0.117426 -5.133232,-0.176116 -14.745464,-0.176116 -13.175851,0 -14.443159,0.02423 -14.727512,0.281565 -0.381838,0.345558 -0.398994,0.797178 -0.04378,1.152396 0.238851,0.23885 1.808751,0.267349 14.727513,0.267349 9.642406,0 14.569804,-0.05868 14.78924,-0.176116 z m 0.124921,-4.621577 c 0.112286,-0.112287 0.204157,-0.364931 0.204157,-0.561432 0,-0.196502 -0.09187,-0.449146 -0.204157,-0.561432 -0.295843,-0.295843 -29.409024,-0.295843 -29.704865,0 -0.262427,0.262427 -0.262427,0.860437 0,1.122864 0.295841,0.295842 29.409022,0.295842 29.704865,0 z M 25.002843,19.140652 25.52629,18.700201 V 12.753008 6.8058152 L 25.108695,6.388221 24.691102,5.970627 H 18.800764 12.910425 L 12.41312,6.4679328 11.915814,6.9652387 v 5.8106263 5.810627 l 0.497306,0.497305 0.497305,0.497306 h 5.784487 5.784486 z m 16.821993,0.236294 c 0.323498,-0.323499 0.248044,-1.121431 -0.124921,-1.321035 -0.209474,-0.112108 -2.569746,-0.176117 -6.494113,-0.176117 -5.497882,0 -6.198704,0.03047 -6.47616,0.281564 -0.381839,0.345559 -0.398995,0.797179 -0.04378,1.152397 0.233469,0.233469 1.069984,0.267348 6.601081,0.267348 4.699395,0 6.386412,-0.05268 6.53789,-0.204157 z m -0.173961,-4.484091 c 0.411361,-0.288128 0.498792,-0.907478 0.173961,-1.232309 -0.29299,-0.29299 -12.909173,-0.29299 -13.202163,0 -0.324831,0.324831 -0.2374,0.944181 0.173961,1.232309 0.567797,0.397701 12.286444,0.397701 12.854241,0 z m 0.173961,-4.53285 c 0.243513,-0.243513 0.261746,-0.8022731 0.03775,-1.15689 C 41.613482,8.8087471 29.416598,8.7271213 28.823321,9.115852 c -0.43896,0.287618 -0.503834,0.6051186 -0.228688,1.119233 0.16935,0.316431 0.423028,0.329078 6.601081,0.329078 4.770354,0 6.47754,-0.05258 6.629122,-0.204158 z"
     style="fill:#ffffff;stroke-width:0.17013095" /><path
     inkscape:connector-curvature="0"
     id="path189"
     d="M 4.8553791,44.689479 C 4.2213501,44.406474 3.4890478,43.638369 3.2499585,43.005567 3.1269403,42.679972 3.0690041,37.569138 3.0690041,27.042703 V 11.558774 L 3.56631,11.061469 c 0.4307577,-0.430758 0.6242726,-0.497306 1.4461131,-0.497306 h 0.9488072 v 15.296663 15.296661 l 0.5234462,0.440452 C 7.2662091,42.255555 8.4117944,42.108718 8.8361153,41.29654 8.9721108,41.036236 9.0380201,35.657487 9.0674704,22.416041 L 9.1086534,3.899546 9.5860007,3.488973 10.063347,3.078401 H 26.88882 c 11.968697,0 16.945141,0.05452 17.240045,0.188891 0.228013,0.103891 0.499572,0.375449 0.603463,0.603464 0.134857,0.295981 0.188891,5.8888545 0.188891,19.551763 0,15.871508 -0.03997,19.230615 -0.234243,19.684653 -0.283277,0.662062 -1.039051,1.39624 -1.690806,1.642489 -0.328126,0.123974 -6.328145,0.178857 -19.054667,0.174296 C 8.8004752,44.918528 5.271399,44.875173 4.8553791,44.689479 Z M 25.197213,41.862273 c 0.367843,-0.196863 0.437471,-0.838354 0.12492,-1.150905 -0.267448,-0.267448 -12.580574,-0.293849 -13.077242,-0.02804 -0.39776,0.212876 -0.426696,0.722747 -0.06173,1.087713 0.233277,0.233277 1.058628,0.267349 6.476161,0.267349 3.954543,0 6.328293,-0.06394 6.53789,-0.176116 z m 16.502702,0 c 0.186729,-0.09993 0.329078,-0.354922 0.329078,-0.589473 0,-0.234551 -0.142349,-0.489538 -0.329078,-0.589473 -0.449176,-0.240392 -12.503145,-0.240392 -12.952321,0 -0.397761,0.212876 -0.426697,0.722747 -0.06173,1.087713 0.233277,0.233277 1.058628,0.267349 6.476161,0.267349 3.954543,0 6.328293,-0.06394 6.53789,-0.176116 z M 25.258941,37.347636 c 0.369581,-0.369581 0.336448,-1.044747 -0.06173,-1.257845 -0.209474,-0.112106 -2.569747,-0.176116 -6.494113,-0.176116 -5.497882,0 -6.198704,0.03047 -6.476161,0.281565 -0.418537,0.378771 -0.392172,0.833289 0.06699,1.154902 0.325323,0.227865 1.238166,0.264842 6.537889,0.264842 5.372952,0 6.193923,-0.03415 6.427121,-0.267348 z m 16.502703,0 c 0.36958,-0.369581 0.336447,-1.044747 -0.06173,-1.257845 -0.209474,-0.112106 -2.569746,-0.176116 -6.494113,-0.176116 -5.497882,0 -6.198704,0.03047 -6.47616,0.281565 -0.418538,0.378771 -0.392173,0.833289 0.06699,1.154902 0.325323,0.227865 1.238166,0.264842 6.537889,0.264842 5.372952,0 6.193922,-0.03415 6.427121,-0.267348 z M 25.322133,32.817292 c 0.112286,-0.112287 0.204157,-0.364931 0.204157,-0.561433 0,-0.756421 -0.08074,-0.765589 -6.742047,-0.765589 -5.531097,0 -6.367611,0.03388 -6.601081,0.267349 -0.353874,0.353874 -0.339507,0.864631 0.03038,1.080071 0.45301,0.263855 12.843618,0.244574 13.10859,-0.0204 z m 16.502703,0 c 0.312551,-0.312551 0.242923,-0.954042 -0.124921,-1.150906 -0.449176,-0.240391 -12.503145,-0.240391 -12.952321,0 -0.411857,0.22042 -0.431075,0.938485 -0.03135,1.171304 0.453011,0.263855 12.843617,0.244574 13.10859,-0.0204 z m -0.124921,-4.395364 c 0.350137,-0.187388 0.429137,-0.763177 0.162577,-1.184932 -0.140938,-0.222994 -1.990055,-0.260921 -14.654195,-0.300562 -12.812919,-0.04011 -14.539248,-0.01501 -14.892694,0.216586 -0.503316,0.329785 -0.512618,0.836309 -0.02167,1.180181 0.33497,0.234621 2.015541,0.264843 14.727512,0.264843 9.566052,0 14.459092,-0.05871 14.678472,-0.176116 z m 0,-4.593536 c 0.186729,-0.09993 0.329078,-0.354922 0.329078,-0.589473 0,-0.234551 -0.142349,-0.489538 -0.329078,-0.589473 -0.219436,-0.117438 -5.146834,-0.176117 -14.78924,-0.176117 -12.918762,0 -14.488662,0.0285 -14.727513,0.267349 -0.353874,0.353874 -0.339507,0.864631 0.03038,1.080072 0.415609,0.24207 29.034481,0.249486 29.486372,0.0076 z m -16.697072,-4.68774 0.523447,-0.440451 v -5.91626 -5.91626 L 25.077764,6.419154 24.629236,5.970627 H 18.769831 12.910425 L 12.41312,6.4679328 11.915814,6.9652387 v 5.8106263 5.810626 l 0.497306,0.497306 0.497305,0.497306 h 5.784487 5.784486 z m 16.697072,0.264334 c 0.350096,-0.187364 0.429132,-0.763085 0.162671,-1.18493 -0.249104,-0.394368 -12.445988,-0.475994 -13.039265,-0.08726 -0.466297,0.30553 -0.523284,0.795135 -0.137456,1.180963 0.233277,0.233276 1.058628,0.267348 6.476161,0.267348 3.954543,0 6.328293,-0.06394 6.537889,-0.176117 z m 0.048,-4.565848 c 0.381849,-0.317207 0.355048,-0.990928 -0.048,-1.206632 -0.209596,-0.112173 -2.583346,-0.176117 -6.537889,-0.176117 -5.417533,0 -6.242884,0.03407 -6.476161,0.267349 -0.321345,0.321345 -0.346921,0.816084 -0.05468,1.057813 0.368927,0.305164 1.092009,0.337438 7.034553,0.313981 4.641131,-0.01832 5.857306,-0.06959 6.082181,-0.256394 z m -0.048,-4.451092 c 0.181566,-0.09717 0.329078,-0.354753 0.329078,-0.5746268 0,-0.8527976 -0.09987,-0.8655006 -6.80472,-0.8655006 -5.040585,0 -6.296531,0.04495 -6.524025,0.2334954 -0.354958,0.2941835 -0.361076,0.7687073 -0.01438,1.1154 0.23327,0.233277 1.058621,0.267349 6.476154,0.267349 3.954543,0 6.328293,-0.06394 6.537889,-0.176117 z"
     style="fill:#ffffff;stroke-width:0.17013095" /><path
     inkscape:connector-curvature="0"
     id="path191"
     d="M 4.8553791,44.689479 C 4.2213501,44.406474 3.4890478,43.638369 3.2499585,43.005567 3.1269226,42.679926 3.0690041,37.552453 3.0690041,26.985847 V 11.445064 l 0.5234462,-0.44045 c 0.4223194,-0.355359 0.7017002,-0.440451 1.4461131,-0.440451 h 0.9226669 v 15.296663 15.296661 l 0.5234462,0.440452 c 0.7090075,0.59659 1.4076148,0.577135 2.0416051,-0.05686 L 9.0235875,41.043778 V 22.558395 4.073012 L 9.5208934,3.575707 10.018199,3.078401 h 16.848046 c 11.985241,0 16.967704,0.05452 17.26262,0.188891 0.228013,0.103891 0.499572,0.375449 0.603463,0.603464 0.134857,0.295981 0.188891,5.8888545 0.188891,19.551763 0,15.871508 -0.03997,19.230615 -0.234243,19.684653 -0.283277,0.662062 -1.039051,1.39624 -1.690806,1.642489 -0.328126,0.123974 -6.328145,0.178857 -19.054667,0.174296 C 8.8004752,44.918528 5.271399,44.875173 4.8553791,44.689479 Z m 20.2345079,-2.81701 c 0.536947,-0.204147 0.601956,-0.924423 0.107326,-1.189142 -0.209597,-0.112173 -2.583347,-0.176116 -6.53789,-0.176116 -5.417533,0 -6.242884,0.03407 -6.476161,0.267349 -0.412748,0.412747 -0.301951,0.932361 0.243045,1.139823 0.452252,0.172155 12.202926,0.133265 12.66368,-0.04191 z m 16.502703,0 c 0.310948,-0.118222 0.436403,-0.290611 0.436403,-0.599669 0,-0.309058 -0.125455,-0.481447 -0.436403,-0.599669 -0.466188,-0.177244 -11.968718,-0.23359 -12.60938,-0.06177 -0.64701,0.173525 -0.712964,1.147004 -0.08884,1.311288 0.600414,0.158043 12.27186,0.111917 12.698219,-0.05018 z M 25.192828,37.303427 c 0.483933,-0.391866 0.35907,-1.127511 -0.217602,-1.282034 -0.211562,-0.05669 -3.066323,-0.104118 -6.343917,-0.105396 -5.184456,-0.002 -6.009681,0.03299 -6.347058,0.269302 -0.241302,0.169013 -0.368073,0.408415 -0.335585,0.633731 0.106717,0.740104 0.546286,0.790789 6.881136,0.793447 5.543356,0.0023 6.00626,-0.02016 6.363026,-0.30905 z m 16.502703,0 c 0.483932,-0.391866 0.35907,-1.127511 -0.217603,-1.282034 -0.211561,-0.05669 -3.066323,-0.104118 -6.343916,-0.105396 -5.184457,-0.002 -6.009682,0.03299 -6.347058,0.269302 -0.241302,0.169013 -0.368074,0.408415 -0.335585,0.633731 0.106716,0.740104 0.546287,0.790789 6.881137,0.793447 5.543354,0.0023 6.006259,-0.02016 6.363025,-0.30905 z M 25.089887,32.855528 c 0.310949,-0.118222 0.436403,-0.29061 0.436403,-0.599669 0,-0.309058 -0.125454,-0.481446 -0.436403,-0.599669 -0.466188,-0.177244 -11.968717,-0.233589 -12.609379,-0.06177 -0.647011,0.173525 -0.712964,1.147004 -0.08884,1.311288 0.600414,0.158043 12.271861,0.111917 12.698219,-0.05018 z m 16.502703,0 c 0.310948,-0.118222 0.436403,-0.29061 0.436403,-0.599669 0,-0.309058 -0.125455,-0.481446 -0.436403,-0.599669 -0.466188,-0.177244 -11.968718,-0.233589 -12.60938,-0.06177 -0.64701,0.173525 -0.712964,1.147004 -0.08884,1.311288 0.600414,0.158043 12.27186,0.111917 12.698219,-0.05018 z m -0.263181,-4.364257 c 0.655653,-0.131131 0.901274,-0.785185 0.460463,-1.226142 -0.258827,-0.258912 -1.488665,-0.28772 -14.270525,-0.334282 -7.693009,-0.02802 -14.28641,0.0122 -14.652003,0.0894 -1.122583,0.237024 -1.283873,1.141451 -0.254905,1.429375 0.519568,0.145384 27.999023,0.185242 28.71697,0.04165 z M 41.5186,23.852282 c 0.32913,-0.09155 0.425327,-0.230278 0.425327,-0.613363 0,-0.383086 -0.0962,-0.521811 -0.425327,-0.613363 -0.525841,-0.146269 -28.169148,-0.192265 -28.89012,-0.04807 -0.825261,0.165053 -0.940084,1.155118 -0.151697,1.30801 0.639659,0.124049 28.591375,0.09208 29.041817,-0.03321 z M 25.002843,19.140652 25.52629,18.700201 V 12.812584 6.9249659 L 25.069133,6.4477964 24.611976,5.970627 H 18.7612 12.910425 L 12.41312,6.4679328 11.915814,6.9652387 v 5.8106263 5.810627 l 0.497306,0.497305 0.497305,0.497306 h 5.784487 5.784486 z m 16.475085,0.332733 c 0.508886,-0.13636 0.689866,-0.847143 0.311959,-1.225196 -0.253992,-0.254092 -0.929469,-0.28333 -6.545647,-0.28333 -6.610952,0 -6.825724,0.02444 -6.825724,0.776774 0,0.170381 0.170153,0.428963 0.378118,0.574627 0.324916,0.227581 1.216566,0.264516 6.337378,0.26252 3.277593,-0.0013 6.132355,-0.04871 6.343916,-0.105395 z m 0.285118,-4.647026 c 0.427302,-0.354629 0.334213,-1.012175 -0.170456,-1.20405 -0.472076,-0.179483 -11.97251,-0.232509 -12.623009,-0.0582 -0.451111,0.120879 -0.679381,0.808657 -0.385796,1.162405 0.285063,0.34348 1.353531,0.393867 7.522406,0.354748 4.126581,-0.02617 5.453281,-0.08595 5.656855,-0.254901 z m -0.06313,-4.438313 c 0.400471,-0.214325 0.430673,-0.8888208 0.0538,-1.2015944 -0.409413,-0.3397841 -12.644605,-0.3445057 -13.053767,-0.00504 -0.392318,0.325492 -0.350898,0.8044067 0.09668,1.1179054 0.325151,0.227745 1.232306,0.264843 6.476161,0.264843 3.878186,0 6.217837,-0.06411 6.42712,-0.176117 z"
     style="fill:#ffffff;stroke-width:0.17013095" /><path
     inkscape:connector-curvature="0"
     id="path193"
     d="M 4.8553791,44.689479 C 4.2213501,44.406474 3.4890478,43.638369 3.2499585,43.005567 3.1269226,42.679926 3.0690041,37.552453 3.0690041,26.985847 V 11.445064 l 0.5234462,-0.44045 c 0.4223194,-0.355359 0.7017002,-0.440451 1.4461131,-0.440451 h 0.9226669 v 15.28213 15.282129 l 0.4009313,0.376656 c 0.2205122,0.20716 0.6763141,0.421343 1.0128932,0.475962 0.524255,0.08508 0.6862429,0.02503 1.1302473,-0.418977 L 9.0235875,41.043778 V 22.518246 3.992715 L 9.500757,3.535558 9.9779265,3.078401 H 26.84611 c 11.999998,0 16.987828,0.05451 17.282755,0.188891 0.228013,0.103891 0.499572,0.375449 0.603463,0.603464 0.134857,0.295981 0.188891,5.8888545 0.188891,19.551763 0,15.871508 -0.03997,19.230615 -0.234243,19.684653 -0.283277,0.662062 -1.039051,1.39624 -1.690806,1.642489 -0.328126,0.123974 -6.328145,0.178857 -19.054667,0.174296 C 8.8004752,44.918528 5.271399,44.875173 4.8553791,44.689479 Z M 24.720613,41.928794 c 0.493164,-0.08151 0.664395,-0.201312 0.744627,-0.520976 0.05806,-0.231316 0.01557,-0.503775 -0.09596,-0.615335 -0.146456,-0.146496 -1.933945,-0.200207 -6.662837,-0.200207 -5.558408,0 -6.485599,0.03571 -6.626443,0.255197 -0.09007,0.140358 -0.144036,0.368112 -0.119931,0.506119 0.10708,0.613075 0.744735,0.679765 6.505788,0.680416 3.087877,3.41e-4 5.902519,-0.047 6.254758,-0.105214 z m 16.502702,0 c 0.493164,-0.08151 0.664396,-0.201312 0.744628,-0.520976 0.05802,-0.231183 0.01557,-0.50384 -0.0958,-0.615335 C 41.65827,40.578378 30.204406,40.393493 29.158,40.587254 c -0.295075,0.05464 -0.583906,0.222883 -0.641848,0.37388 -0.15018,0.391359 0.03897,0.87222 0.37822,0.961519 0.452771,0.11918 11.611383,0.124738 12.328944,0.0061 z M 25.253422,37.289611 c 0.159108,-0.132172 0.266454,-0.39821 0.238546,-0.5912 -0.107569,-0.743847 -0.531785,-0.78902 -6.977687,-0.743027 -5.474652,0.03906 -6.105129,0.07221 -6.367551,0.334801 -0.410142,0.410402 -0.08422,1.102464 0.568005,1.206085 0.262384,0.04169 3.125837,0.06631 6.36323,0.05472 4.797027,-0.01717 5.939697,-0.06554 6.175457,-0.261379 z m 16.502708,0 c 0.394722,-0.327899 0.277905,-0.896667 -0.23753,-1.156506 -0.530485,-0.267426 -11.807845,-0.314215 -12.49791,-0.05185 -0.90182,0.342872 -0.737874,1.197933 0.2661,1.387833 0.317811,0.06011 3.188337,0.09839 6.378948,0.08507 4.720263,-0.01972 5.855006,-0.06901 6.090392,-0.26454 z M 24.930832,32.87205 c 0.426862,-0.09128 0.510393,-0.191141 0.510393,-0.610192 0,-0.389484 -0.0947,-0.527394 -0.425328,-0.619362 -0.23393,-0.06507 -3.115548,-0.125941 -6.403596,-0.135267 -5.532895,-0.0157 -6.006631,0.006 -6.35899,0.29133 -0.432552,0.350261 -0.354167,0.97751 0.138357,1.107153 0.453679,0.11942 11.967832,0.08851 12.539164,-0.03366 z m 16.502702,0 c 0.426862,-0.09128 0.510393,-0.191141 0.510393,-0.610192 0,-0.389484 -0.09471,-0.527394 -0.425327,-0.619362 -0.23393,-0.06507 -3.115549,-0.125941 -6.403597,-0.135267 -5.532895,-0.0157 -6.006631,0.006 -6.358989,0.29133 -0.432552,0.350261 -0.354167,0.97751 0.138357,1.107153 0.453678,0.11942 11.967831,0.08851 12.539163,-0.03366 z m 0.314207,-4.592566 c 0.154688,-0.128423 0.281252,-0.367866 0.281252,-0.532095 0,-0.78078 0.29338,-0.765589 -14.784942,-0.765589 -7.822312,0 -14.42782,0.0576 -14.678907,0.127993 -0.519219,0.145572 -0.773711,0.708059 -0.480306,1.06159 0.108424,0.130643 0.478404,0.268478 0.822178,0.306298 0.343773,0.03782 6.910288,0.06123 14.592257,0.05203 11.57002,-0.01386 14.015489,-0.05681 14.248468,-0.250227 z m 0.11478,-4.615238 c 0.203516,-0.322065 0.203508,-0.528619 -3.5e-5,-0.850655 -0.141333,-0.223613 -1.972113,-0.255196 -14.792667,-0.255196 -13.328456,0 -14.656201,0.02482 -14.910175,0.278758 -0.452038,0.451968 -0.171602,0.964962 0.572655,1.047545 0.346295,0.03843 7.005978,0.06196 14.799296,0.05231 12.397276,-0.01536 14.189837,-0.04948 14.330926,-0.272757 z M 25.002843,19.140652 25.52629,18.700201 V 12.812584 6.9249659 L 25.069133,6.4477964 24.611976,5.970627 H 18.7612 12.910425 L 12.41312,6.4679328 11.915814,6.9652387 v 5.7844523 5.784453 l 0.52348,0.523479 0.523479,0.52348 h 5.758313 5.758312 z m 16.326566,0.333678 c 0.655688,-0.131138 0.901284,-0.785206 0.460403,-1.226141 -0.25406,-0.25409 -0.929583,-0.28333 -6.545841,-0.28333 -6.68976,0 -6.907522,0.02666 -6.791132,0.831509 0.104673,0.723818 0.576709,0.779577 6.622051,0.782227 3.146359,0.0014 5.960894,-0.04554 6.254519,-0.104265 z m 0.508978,-4.741089 c 0.143542,-0.138985 0.194058,-0.389281 0.130043,-0.644338 -0.148891,-0.59323 -0.546002,-0.628864 -6.999872,-0.628134 -5.761053,6.47e-4 -6.398708,0.06734 -6.505789,0.680417 -0.155709,0.89149 0.965048,1.015719 8.122033,0.900277 3.869118,-0.06241 5.072635,-0.133017 5.253585,-0.308222 z m 0.02422,-4.50934 C 42.121556,9.8139051 42.054321,9.3987704 41.698092,9.2081225 41.486265,9.0947564 39.113978,9.0301201 35.105793,9.0285064 c -5.770265,-0.00232 -6.27848,0.020848 -6.47925,0.2954168 -0.301491,0.412313 -0.196372,0.7669208 0.303878,1.0250998 0.327342,0.168941 1.82918,0.208642 6.597414,0.174404 5.269448,-0.03784 6.197199,-0.0817 6.334772,-0.299526 z"
     style="fill:#ffffff;stroke-width:0.17013095" /><path
     inkscape:connector-curvature="0"
     id="path195"
     d="M 4.8553791,44.689479 C 4.2213501,44.406474 3.4890478,43.638369 3.2499585,43.005567 3.1269226,42.679926 3.0690041,37.552453 3.0690041,26.985847 V 11.445064 l 0.5234462,-0.44045 C 4.0146315,10.649372 4.2942191,10.564163 5.0376588,10.564163 H 5.959421 l 0.043438,15.347552 0.043437,15.347553 0.5780851,0.389561 c 0.7739757,0.521567 1.3025311,0.491624 1.9019007,-0.107746 L 9.0235875,41.043778 V 22.518246 3.992715 L 9.500757,3.535558 9.9779265,3.078401 26.811582,3.080701 c 9.258509,0.0013 17.008978,0.04929 17.223263,0.10669 0.91909,0.246202 0.886374,-0.50008 0.886374,20.218652 0,15.885479 -0.03997,19.247057 -0.234243,19.701106 -0.283277,0.662062 -1.039051,1.39624 -1.690806,1.642489 -0.328126,0.123974 -6.328145,0.178857 -19.054667,0.174296 C 8.8004752,44.918528 5.271399,44.875173 4.8553791,44.689479 Z M 25.282717,41.674566 c 0.173118,-0.173253 0.237239,-0.408901 0.169411,-0.622608 -0.09526,-0.300136 -0.308357,-0.358605 -1.676263,-0.459927 -0.86192,-0.06384 -3.765562,-0.08991 -6.452538,-0.05792 -4.398671,0.05237 -4.915369,0.08814 -5.18611,0.359083 -0.387842,0.388127 -0.132718,0.843281 0.56238,1.003317 0.270709,0.06233 3.149984,0.100605 6.398387,0.08507 5.220882,-0.02498 5.938508,-0.0606 6.184733,-0.307013 z m 16.502699,0 c 0.169255,-0.169384 0.236882,-0.410036 0.172358,-0.613334 -0.145976,-0.459927 -1.460373,-0.554651 -7.652876,-0.551514 -5.213789,0.0026 -5.801316,0.07992 -5.801316,0.763082 0,0.723686 0.496687,0.775802 6.92697,0.726815 5.362997,-0.04086 6.109016,-0.07902 6.354864,-0.325049 z M 25.244955,37.296424 c 0.154734,-0.128423 0.281335,-0.367865 0.281335,-0.532094 0,-0.716702 -0.318756,-0.762864 -5.682726,-0.822949 -6.047071,-0.06774 -7.513301,0.02617 -7.765482,0.497378 -0.292259,0.546093 0.07297,0.975672 0.901821,1.06071 0.397257,0.04076 3.256107,0.06428 6.353,0.05228 4.497753,-0.01744 5.687322,-0.06881 5.912052,-0.255323 z m 15.31091,0.206235 c 1.007091,-0.0951 1.188795,-0.164547 1.348685,-0.515468 0.148475,-0.325867 0.127532,-0.462831 -0.106576,-0.697006 -0.26461,-0.264683 -0.870064,-0.291445 -6.593837,-0.291445 -6.042375,0 -6.312446,0.01363 -6.544048,0.330247 -0.132866,0.181635 -0.2404,0.373032 -0.238968,0.425327 0.009,0.329134 0.406795,0.594666 1.046253,0.698418 0.952862,0.154603 9.569143,0.193398 11.088491,0.04993 z m -15.196,-4.821472 c 0.203437,-0.322033 0.203447,-0.528589 4.2e-5,-0.850655 -0.137102,-0.217084 -1.044094,-0.263366 -6.073109,-0.309897 -3.251566,-0.03009 -6.162734,-0.0077 -6.469262,0.04985 -0.970885,0.182138 -1.157628,1.184057 -0.249332,1.337724 0.249403,0.0422 3.193283,0.0658 6.541954,0.05244 5.208806,-0.02077 6.111785,-0.06115 6.249707,-0.279471 z m 15.449352,0.231368 c 0.83209,-0.08697 1.063272,-0.176419 1.148294,-0.444299 0.06484,-0.204285 -0.0025,-0.444379 -0.172253,-0.614163 -0.248146,-0.248192 -0.967582,-0.278757 -6.561388,-0.278757 -5.593759,0 -6.313257,0.03057 -6.561505,0.278757 -0.391733,0.391647 -0.173811,0.958454 0.40227,1.046284 0.773662,0.117951 10.634765,0.128176 11.744582,0.01218 z m 0.938507,-4.633071 c 0.396051,-0.328782 0.349372,-0.822434 -0.101526,-1.0737 -0.298046,-0.166087 -3.509094,-0.214496 -14.503664,-0.218649 -7.766478,-0.0029 -14.322961,0.05142 -14.569964,0.120795 -0.530789,0.149074 -0.722542,0.538907 -0.484167,0.984315 0.240794,0.449926 0.497503,0.456983 15.921246,0.437624 11.137206,-0.01398 13.505288,-0.05714 13.738075,-0.250385 z m -1.692907,-4.422558 c 1.33389,-0.08526 1.722054,-0.1688 1.868557,-0.402152 0.143129,-0.227977 0.116922,-0.362537 -0.115975,-0.595458 -0.283083,-0.283112 -1.161081,-0.300921 -14.834923,-0.300921 -13.673813,0 -14.551845,0.01781 -14.834996,0.300921 -0.486348,0.486278 -0.10247,0.871445 0.986552,0.989862 1.24775,0.13568 24.823196,0.142461 26.930785,0.0077 z M 24.957306,19.147118 25.52629,18.713132 V 12.819049 6.9249659 L 25.069133,6.4477964 24.611976,5.970627 H 18.7612 12.910425 L 12.41312,6.4679328 11.915814,6.9652387 v 5.7469073 5.746907 l 0.543767,0.561025 0.543767,0.561025 h 5.692486 5.692488 z m 16.790617,0.115424 c 0.154588,-0.128422 0.28107,-0.367864 0.28107,-0.532094 0,-0.725951 -0.244485,-0.753736 -6.611515,-0.751391 -3.334783,0.0012 -6.228427,0.05887 -6.430319,0.128092 -0.772475,0.264857 -0.603895,1.220389 0.239415,1.357024 0.257359,0.0417 3.116704,0.06593 6.354102,0.05384 4.71431,-0.0176 5.942135,-0.06846 6.167247,-0.255471 z m 0.01373,-4.542323 c 0.343638,-0.343638 0.339088,-0.652224 -0.01393,-0.945269 -0.227195,-0.188584 -1.48589,-0.233496 -6.543921,-0.233496 -5.575176,0 -6.293227,0.0306 -6.541438,0.278759 -0.331272,0.331204 -0.197262,0.938624 0.232011,1.051618 0.159353,0.04195 3.059528,0.08515 6.444829,0.096 5.386117,0.01727 6.188497,-0.01366 6.422444,-0.247613 z m 0.100915,-4.496318 c 0.285538,-0.4519941 0.179638,-0.8540535 -0.269977,-1.0249969 -0.254103,-0.09661 -2.985205,-0.16592 -6.537889,-0.16592 -5.319965,0 -6.135731,0.034244 -6.368836,0.2673487 -0.147042,0.1470416 -0.267349,0.3238063 -0.267349,0.3928103 0,0.2462107 0.431032,0.6736429 0.76559,0.7591969 0.187144,0.04786 3.080083,0.07346 6.428753,0.05689 5.204425,-0.02575 6.111902,-0.06718 6.249708,-0.285324 z"
     style="fill:#ffffff;stroke-width:0.17013095" /><path
     inkscape:connector-curvature="0"
     id="path197"
     d="M 4.8553791,44.689479 C 4.2213501,44.406474 3.4890478,43.638369 3.2499585,43.005567 3.1269226,42.679926 3.0690041,37.552453 3.0690041,26.985847 V 11.445064 l 0.5234462,-0.44045 c 0.4223194,-0.355359 0.7017002,-0.440451 1.4461131,-0.440451 h 0.9226669 v 15.188864 c 0,16.650266 -0.061895,15.666771 1.0140099,16.112424 0.4157366,0.172205 0.6186008,0.172205 1.0343374,0 1.0824036,-0.448346 1.0140099,0.860034 1.0140099,-19.398148 V 3.992715 L 9.5032824,3.533138 9.9829776,3.073561 27.105793,3.118511 c 16.176262,0.04247 17.139606,0.06175 17.426587,0.348731 0.287427,0.287432 0.306412,1.335711 0.352797,19.479994 0.02696,10.546919 0.004,19.426669 -0.05093,19.732779 -0.124137,0.691278 -1.002743,1.71528 -1.733818,2.020744 -0.810516,0.338654 -37.4853094,0.327835 -38.2450539,-0.01128 z M 25.304751,41.652403 c 0.233115,-0.233181 0.259107,-0.367226 0.115466,-0.595458 -0.291346,-0.462923 -1.995167,-0.5767 -7.756438,-0.517952 -4.728022,0.04821 -5.254126,0.08193 -5.526372,0.354204 -0.425263,0.425307 -0.107578,0.860354 0.731499,1.001733 0.364733,0.06146 3.244319,0.09974 6.39908,0.08507 5.237903,-0.02436 5.762049,-0.0528 6.036765,-0.327592 z m 15.51573,0.241562 c 1.088372,-0.131312 1.469666,-0.517933 0.986981,-1.000768 -0.276858,-0.276944 -0.801407,-0.300921 -6.583229,-0.300921 -5.585292,0 -6.313278,0.03084 -6.560667,0.277882 -0.405405,0.404843 -0.06295,0.956888 0.648364,1.045176 0.92515,0.114829 10.527471,0.097 11.508551,-0.02137 z M 23.133696,37.502916 c 1.978601,-0.106388 2.093577,-0.132575 2.268586,-0.516678 0.147405,-0.323516 0.127144,-0.461817 -0.101089,-0.690049 -0.250332,-0.250333 -0.881329,-0.293927 -5.130209,-0.354424 -5.407774,-0.077 -7.61883,0.0404 -8.003378,0.424945 -0.565707,0.565707 -0.140187,0.972325 1.145524,1.094638 1.54944,0.147401 7.39235,0.172133 9.820566,0.04157 z M 41.797735,37.18569 c 0.288207,-0.394146 0.287549,-0.449459 -0.01019,-0.856703 -0.231501,-0.316651 -0.501694,-0.330247 -6.563666,-0.330247 -6.061926,0 -6.332172,0.01359 -6.563799,0.330247 -0.283242,0.387211 -0.2882,0.438405 -0.0751,0.775509 0.250222,0.395827 1.798739,0.484833 7.640959,0.439185 4.981909,-0.03893 5.356061,-0.06297 5.571789,-0.357991 z M 25.307224,32.632904 c 0.461043,-0.461043 0.09591,-0.864769 -0.904533,-1.000131 -1.079153,-0.146011 -10.917754,-0.175612 -11.620998,-0.03496 -0.631503,0.126302 -0.990713,0.642901 -0.694884,0.999353 0.300581,0.362178 0.862056,0.390768 7.098585,0.361467 5.302063,-0.02491 5.850181,-0.05408 6.12183,-0.325726 z m 15.513257,0.244121 c 1.084825,-0.130886 1.469651,-0.518005 0.990877,-0.996779 -0.266126,-0.266127 -0.826372,-0.303822 -5.399998,-0.363328 -6.044084,-0.07864 -7.574983,0.02086 -7.836396,0.509312 -0.240843,0.450019 0.04675,0.785076 0.74941,0.873092 0.911354,0.114156 10.519589,0.09552 11.496107,-0.0223 z m 0.942002,-4.609854 c 0.37381,-0.310233 0.33161,-0.813231 -0.08702,-1.037276 -0.251336,-0.134511 -4.508822,-0.189931 -14.728226,-0.191719 -13.443116,-0.0023 -14.395974,0.01674 -14.703058,0.294653 -0.372534,0.337139 -0.386022,0.399849 -0.162355,0.754822 0.255634,0.405706 2.839042,0.473008 16.708174,0.435275 10.135708,-0.02758 12.759887,-0.07931 12.972485,-0.255755 z m -0.116285,-4.574178 c 0.44443,-0.2448 0.49142,-0.577457 0.124577,-0.881909 -0.319171,-0.264889 -19.18618,-0.455007 -25.478363,-0.256738 -3.766087,0.11867 -4.057129,0.150336 -4.222547,0.459421 -0.323796,0.60502 0.07705,0.802324 1.775628,0.874007 0.856903,0.03616 7.376484,0.05457 14.487958,0.04091 9.926411,-0.01907 13.018873,-0.07382 13.312747,-0.235691 z M 24.957306,19.147118 25.52629,18.713132 V 12.819049 6.9249659 L 25.069133,6.4477964 24.611976,5.970627 h -5.824602 -5.824601 l -0.523479,0.5234797 -0.52348,0.5234799 v 5.6803804 5.68038 l 0.528017,0.601378 0.528017,0.601378 h 5.708237 5.708237 z m 16.790363,0.115424 c 0.378812,-0.314409 0.355486,-0.820693 -0.04775,-1.036501 -0.209596,-0.112173 -2.583346,-0.176116 -6.537889,-0.176116 -5.417533,0 -6.242884,0.03407 -6.476161,0.267348 -0.322917,0.322917 -0.330644,0.435473 -0.05468,0.796464 0.309152,0.404409 0.815062,0.433299 7.119373,0.406552 4.56714,-0.01938 5.772329,-0.07117 5.997116,-0.257747 z M 41.470432,14.88181 c 0.498404,-0.133616 0.672268,-0.704104 0.321488,-1.054882 -0.232761,-0.232762 -0.959191,-0.282136 -5.03086,-0.341935 -2.61735,-0.03844 -5.489774,-0.01509 -6.383166,0.05189 -1.403725,0.105242 -1.650177,0.170044 -1.814511,0.477104 -0.158588,0.296326 -0.126777,0.406649 0.191595,0.664451 0.352883,0.285748 0.833919,0.308952 6.360025,0.306805 3.288048,-0.0013 6.147992,-0.04782 6.355429,-0.103433 z m 0.317332,-4.684029 C 42.190136,9.7954086 41.957179,9.2653113 41.322168,9.1383089 40.654057,9.0046867 29.481025,9.0036261 28.98321,9.1371389 c -0.822585,0.2206138 -0.581259,1.1848841 0.32872,1.3134681 0.303985,0.04295 3.173259,0.06579 6.376166,0.05074 5.122751,-0.02407 5.856701,-0.0606 6.099668,-0.303563 z"
     style="fill:#ffffff;stroke-width:0.17013095" /><path
     inkscape:connector-curvature="0"
     id="path199"
     d="M 15.148302,12.6908 V 9.0329841 h 3.657815 3.657816 V 12.6908 16.348615 h -3.657816 -3.657815 z"
     style="fill:#ffffff;stroke-width:0.17013095" /><path
     inkscape:connector-curvature="0"
     id="path201"
     d="M 15.148302,12.6908 V 9.0329841 h 3.657815 3.657816 V 12.6908 16.348615 h -3.657816 -3.657815 z"
     style="fill:#ffffff;stroke-width:0.17013095" /><path
     inkscape:connector-curvature="0"
     id="path203"
     d="M 4.8553791,44.689479 C 4.2213501,44.406474 3.4890478,43.638369 3.2499585,43.005567 3.1269226,42.679926 3.0690041,37.552453 3.0690041,26.985847 V 11.445064 l 0.5234462,-0.44045 c 0.4223194,-0.355359 0.7017002,-0.440451 1.4461131,-0.440451 h 0.9226669 l 0.020129,14.928991 c 0.01107,8.210945 0.06849,15.158668 0.1275982,15.439384 0.1534879,0.728945 1.1823119,1.230447 1.9077776,0.92995 0.2802048,-0.116066 0.602236,-0.372785 0.715625,-0.570489 0.1571689,-0.274036 0.2174663,-4.749862 0.253731,-18.834197 L 9.0336601,3.983065 9.5083187,3.528313 9.9829773,3.073561 27.105793,3.118511 c 16.176262,0.04247 17.139606,0.06175 17.426587,0.348731 0.287427,0.287432 0.306412,1.335711 0.352797,19.479995 0.02696,10.546918 0.004,19.426668 -0.05093,19.732778 -0.124137,0.691278 -1.002743,1.71528 -1.733818,2.020744 -0.810516,0.338654 -37.4853097,0.327835 -38.2450542,-0.01128 z M 25.259515,41.707736 c 0.374175,-0.310538 0.331961,-0.643275 -0.111741,-0.880735 -0.477323,-0.255457 -7.670582,-0.41654 -10.72744,-0.240227 -1.786815,0.10306 -2.198241,0.176433 -2.325802,0.414785 -0.482832,0.902178 0.437985,1.022413 7.423063,0.969251 4.195485,-0.03193 5.537495,-0.09342 5.74192,-0.263074 z m 16.386683,0.01672 c 0.453205,-0.246771 0.490374,-0.575895 0.101488,-0.898686 -0.227232,-0.18861 -1.488884,-0.233494 -6.56347,-0.233494 -5.961649,0 -6.294163,0.01638 -6.517341,0.321231 -0.371028,0.506796 -0.03613,0.92173 0.815731,1.010686 0.397257,0.04148 3.210451,0.06041 6.251541,0.04206 3.986141,-0.02405 5.636087,-0.09153 5.912051,-0.241797 z m -16.581526,-4.37428 c 0.422707,-0.162208 0.541828,-0.748668 0.21788,-1.072674 -0.24766,-0.247702 -0.946142,-0.278758 -6.269798,-0.278758 -3.295099,0 -6.193181,0.05676 -6.440184,0.12613 -0.57474,0.161417 -0.744606,0.600659 -0.385674,0.997275 0.205039,0.226565 0.601885,0.327614 1.492748,0.380103 1.717902,0.101216 11.049795,-0.02343 11.385028,-0.152076 z m 16.483306,0.0079 c 0.380918,-0.146718 0.517043,-0.548744 0.314162,-0.927832 -0.146365,-0.273483 -0.517388,-0.32432 -3.189346,-0.436991 -3.041275,-0.128245 -9.278973,-0.01184 -9.785725,0.182625 -0.415918,0.159602 -0.508282,0.602878 -0.197236,0.946577 0.209948,0.231992 0.602653,0.326425 1.577813,0.379414 1.871687,0.101704 10.943178,-0.01393 11.280332,-0.143793 z M 25.323355,32.616785 c 0.217032,-0.217032 0.239438,-0.350275 0.09699,-0.576769 -0.278788,-0.443276 -2.286209,-0.571868 -8.031718,-0.514498 -4.663293,0.04656 -5.005617,0.07088 -5.224935,0.371061 -0.387286,0.530085 -0.03628,0.923969 0.901524,1.011663 0.443906,0.04151 3.320083,0.05642 6.391503,0.03312 4.938803,-0.03745 5.617029,-0.07497 5.866635,-0.324581 z m 16.322843,0.0928 c 0.210537,-0.115772 0.382795,-0.313264 0.382795,-0.438873 0,-0.603211 -0.447875,-0.665818 -5.33921,-0.746336 -6.996988,-0.115178 -8.586963,0.07891 -8.100028,0.988757 0.236431,0.441774 0.749112,0.47318 7.144392,0.437659 4.022946,-0.02235 5.63354,-0.08806 5.912051,-0.241207 z m 0.05022,-4.455913 c 0.363958,-0.194783 0.414657,-0.453221 0.16607,-0.846538 -0.140938,-0.222994 -1.990055,-0.260921 -14.654195,-0.300562 -12.812919,-0.04011 -14.539248,-0.01501 -14.892694,0.216585 -0.440794,0.28882 -0.471101,0.388011 -0.233579,0.764501 0.128776,0.20412 0.766708,0.276844 3.18735,0.363354 4.761441,0.170166 26.037214,0.0113 26.427048,-0.19734 z m -0.0307,-4.577103 c 0.199802,-0.106941 0.363276,-0.303881 0.363276,-0.437655 0,-0.656158 -0.286036,-0.669125 -14.886459,-0.67492 -7.766479,-0.0031 -14.322962,0.05116 -14.569965,0.120531 -0.506811,0.14234 -0.760469,0.603432 -0.484422,0.880572 0.319542,0.320806 4.162131,0.401235 16.86028,0.352905 8.857982,-0.03371 12.456815,-0.102038 12.717289,-0.24144 z M 24.957306,19.147118 25.52629,18.713132 V 12.819049 6.9249659 L 25.069133,6.4477964 24.611976,5.970627 H 18.82492 13.037864 l -0.561025,0.5437668 -0.561025,0.543767 v 5.6600932 5.660093 l 0.528017,0.601378 0.528017,0.601378 h 5.708237 5.708237 z m 16.843835,0.05423 c 0.343485,-0.343486 0.152958,-0.95115 -0.336413,-1.072952 -0.2043,-0.05085 -3.149566,-0.07017 -6.545035,-0.04293 -5.265524,0.04224 -6.197289,0.08706 -6.334773,0.304722 -0.199477,0.315805 -0.199719,0.364414 -0.0034,0.674887 0.258652,0.40896 1.675622,0.4935 7.460173,0.445092 4.687953,-0.03923 5.535246,-0.08466 5.759406,-0.308821 z m -0.374322,-4.381355 c 0.558047,-0.212169 0.725204,-0.63296 0.386135,-0.97203 -0.218564,-0.218564 -1.013676,-0.277337 -4.744398,-0.350691 -6.7079,-0.131894 -8.860546,0.08635 -8.601666,0.872055 0.181085,0.549606 0.873637,0.613222 6.703256,0.615735 3.413079,0.0015 5.99801,-0.06673 6.256673,-0.165069 z m 0.38213,-4.643394 C 42.151674,9.8338703 41.98713,9.4135915 41.426819,9.2005617 41.168185,9.1022287 38.545777,9.0329841 35.080404,9.0329841 c -5.069726,0 -5.959175,0.037488 -6.28377,0.2648435 -0.417256,0.2922573 -0.445176,0.3865636 -0.219843,0.7425834 0.271054,0.428259 1.517531,0.505773 7.296843,0.453768 4.873696,-0.04386 5.70613,-0.0884 5.935315,-0.317584 z"
     style="fill:#ffffff;stroke-width:0.17013095" /></g></svg>