<?xml version="1.0" encoding="UTF-8" standalone="no"?>
<!-- Generator: Adobe Illustrator 16.0.0, SVG Export Plug-In . SVG Version: 6.00 Build 0)  -->

<svg
   xmlns:dc="http://purl.org/dc/elements/1.1/"
   xmlns:cc="http://creativecommons.org/ns#"
   xmlns:rdf="http://www.w3.org/1999/02/22-rdf-syntax-ns#"
   xmlns:svg="http://www.w3.org/2000/svg"
   xmlns="http://www.w3.org/2000/svg"
   xmlns:xlink="http://www.w3.org/1999/xlink"
   xmlns:sodipodi="http://sodipodi.sourceforge.net/DTD/sodipodi-0.dtd"
   xmlns:inkscape="http://www.inkscape.org/namespaces/inkscape"
   version="1.1"
   id="Capa_1"
   x="0px"
   y="0px"
   width="24"
   height="24"
   viewBox="0 0 24 24"
   xml:space="preserve"
   sodipodi:docname="info.svg"
   inkscape:version="0.92.3 (2405546, 2018-03-11)"><metadata
   id="metadata128"><rdf:RDF><cc:Work
       rdf:about=""><dc:format>image/svg+xml</dc:format><dc:type
         rdf:resource="http://purl.org/dc/dcmitype/StillImage" /><dc:title></dc:title></cc:Work></rdf:RDF></metadata><defs
   id="defs126"><linearGradient
     inkscape:collect="always"
     id="linearGradient153"><stop
       style="stop-color:#0000ff;stop-opacity:1;"
       offset="0"
       id="stop149" /><stop
       style="stop-color:#0000ff;stop-opacity:0;"
       offset="1"
       id="stop151" /></linearGradient><linearGradient
     inkscape:collect="always"
     xlink:href="#linearGradient153"
     id="linearGradient155"
     x1="-180.77992"
     y1="-30.518711"
     x2="337.13013"
     y2="868.49902"
     gradientUnits="userSpaceOnUse" /><linearGradient
     inkscape:collect="always"
     xlink:href="#linearGradient153"
     id="linearGradient157"
     gradientUnits="userSpaceOnUse"
     x1="-180.77992"
     y1="-30.518711"
     x2="337.13013"
     y2="868.49902" /></defs><sodipodi:namedview
   pagecolor="#ffffff"
   bordercolor="#666666"
   borderopacity="1"
   objecttolerance="10"
   gridtolerance="10"
   guidetolerance="10"
   inkscape:pageopacity="0"
   inkscape:pageshadow="2"
   inkscape:window-width="1366"
   inkscape:window-height="703"
   id="namedview124"
   showgrid="false"
   showborder="false"
   fit-margin-top="0"
   fit-margin-left="0"
   fit-margin-right="0"
   fit-margin-bottom="0"
   inkscape:zoom="1.8698707"
   inkscape:cx="143.59281"
   inkscape:cy="26.740827"
   inkscape:window-x="0"
   inkscape:window-y="260"
   inkscape:window-maximized="1"
   inkscape:current-layer="Capa_1" />

<g
   id="g93"
   transform="translate(0,-414.534)">
</g>
<g
   id="g95"
   transform="translate(0,-414.534)">
</g>
<g
   id="g97"
   transform="translate(0,-414.534)">
</g>
<g
   id="g99"
   transform="translate(0,-414.534)">
</g>
<g
   id="g101"
   transform="translate(0,-414.534)">
</g>
<g
   id="g103"
   transform="translate(0,-414.534)">
</g>
<g
   id="g105"
   transform="translate(0,-414.534)">
</g>
<g
   id="g107"
   transform="translate(0,-414.534)">
</g>
<g
   id="g109"
   transform="translate(0,-414.534)">
</g>
<g
   id="g111"
   transform="translate(0,-414.534)">
</g>
<g
   id="g113"
   transform="translate(0,-414.534)">
</g>
<g
   id="g115"
   transform="translate(0,-414.534)">
</g>
<g
   id="g117"
   transform="translate(0,-414.534)">
</g>
<g
   id="g119"
   transform="translate(0,-414.534)">
</g>
<g
   id="g121"
   transform="translate(0,-414.534)">
</g>
<g
   id="g96"
   transform="scale(0.50000002)"><g
     style="fill:url(#linearGradient155);fill-opacity:1"
     transform="scale(0.10945609,0.1094556)"
     id="g91">
	<path
   style="fill:url(#linearGradient157);fill-opacity:1"
   inkscape:connector-curvature="0"
   id="path89"
   d="M 409.133,109.203 C 389.525,75.611 362.928,49.014 329.335,29.407 295.736,9.801 259.058,0 219.273,0 179.492,0 142.803,9.801 109.21,29.407 75.615,49.011 49.018,75.608 29.41,109.203 9.801,142.8 0,179.489 0,219.267 c 0,39.78 9.804,76.463 29.407,110.062 19.607,33.592 46.204,60.189 79.799,79.798 33.597,19.605 70.283,29.407 110.063,29.407 39.78,0 76.47,-9.802 110.065,-29.407 33.593,-19.602 60.189,-46.206 79.795,-79.798 19.603,-33.596 29.403,-70.284 29.403,-110.062 0.001,-39.782 -9.8,-76.472 -29.399,-110.064 z M 182.727,54.813 c 0,-2.666 0.855,-4.853 2.57,-6.565 1.712,-1.711 3.903,-2.57 6.567,-2.57 h 54.82 c 2.662,0 4.853,0.859 6.561,2.57 1.711,1.712 2.573,3.899 2.573,6.565 v 45.682 c 0,2.664 -0.862,4.854 -2.573,6.564 -1.708,1.712 -3.898,2.568 -6.561,2.568 h -54.82 c -2.664,0 -4.854,-0.856 -6.567,-2.568 -1.715,-1.709 -2.57,-3.9 -2.57,-6.564 z m 109.632,301.496 c 0,2.662 -0.863,4.853 -2.57,6.561 -1.704,1.714 -3.895,2.57 -6.563,2.57 H 155.317 c -2.667,0 -4.854,-0.856 -6.567,-2.57 -1.712,-1.708 -2.568,-3.898 -2.568,-6.564 v -45.682 c 0,-2.67 0.856,-4.853 2.568,-6.567 1.713,-1.708 3.903,-2.57 6.567,-2.57 h 27.41 v -91.358 h -27.41 c -2.667,0 -4.853,-0.855 -6.567,-2.568 -1.712,-1.711 -2.568,-3.901 -2.568,-6.567 v -45.679 c 0,-2.666 0.856,-4.853 2.568,-6.567 1.715,-1.713 3.905,-2.568 6.567,-2.568 h 91.367 c 2.662,0 4.853,0.855 6.561,2.568 1.711,1.714 2.573,3.901 2.573,6.567 v 146.179 h 27.401 c 2.669,0 4.859,0.855 6.57,2.566 1.704,1.712 2.566,3.901 2.566,6.567 v 45.683 h 0.004 z" />
</g><path
     inkscape:connector-curvature="0"
     id="path88"
     d="m 16.36476,36.447391 v -3.208779 h 1.871787 1.871787 V 27.890649 22.542686 H 18.236547 16.36476 V 19.333908 16.12513 h 5.615361 5.615362 v 8.556741 8.556741 h 2.139185 2.139186 v 3.208779 3.208778 H 24.119307 16.36476 Z"
     style="fill:#ffffff;stroke-width:0.53479636" /><path
     inkscape:connector-curvature="0"
     id="path90"
     d="M 20.571824,11.490228 C 20.375732,11.294136 20.215294,9.8501861 20.215294,8.2814501 V 5.429203 h 3.743574 3.743574 v 3.208778 3.208778 h -3.387043 c -1.862874,0 -3.547483,-0.160439 -3.743575,-0.356531 z"
     style="fill:#ffffff;stroke-width:0.53479636" /></g></svg>