<?xml version="1.0" encoding="UTF-8" standalone="no"?>
<!-- Generator: Adobe Illustrator 19.0.0, SVG Export Plug-In . SVG Version: 6.00 Build 0)  -->

<svg
   xmlns:dc="http://purl.org/dc/elements/1.1/"
   xmlns:cc="http://creativecommons.org/ns#"
   xmlns:rdf="http://www.w3.org/1999/02/22-rdf-syntax-ns#"
   xmlns:svg="http://www.w3.org/2000/svg"
   xmlns="http://www.w3.org/2000/svg"
   xmlns:xlink="http://www.w3.org/1999/xlink"
   xmlns:sodipodi="http://sodipodi.sourceforge.net/DTD/sodipodi-0.dtd"
   xmlns:inkscape="http://www.inkscape.org/namespaces/inkscape"
   version="1.1"
   id="Capa_1"
   x="0px"
   y="0px"
   viewBox="0 0 41.568279 48"
   xml:space="preserve"
   sodipodi:docname="logo.svg"
   inkscape:version="0.92.3 (2405546, 2018-03-11)"
   width="41.568279"
   height="48"><metadata
   id="metadata61"><rdf:RDF><cc:Work
       rdf:about=""><dc:format>image/svg+xml</dc:format><dc:type
         rdf:resource="http://purl.org/dc/dcmitype/StillImage" /><dc:title></dc:title></cc:Work></rdf:RDF></metadata><defs
   id="defs59"><linearGradient
     id="linearGradient3533"><stop
       offset="0"
       id="stop3535"
       stop-color="#3a3a3a" /><stop
       offset="1"
       id="stop3537"
       stop-color="#ffffff" /></linearGradient><linearGradient
     id="linearGradient3624"><stop
       id="stop3628"
       offset="0"
       stop-color="#398fe5" /><stop
       offset="1"
       id="stop3630"
       stop-color="#acc1d5" /></linearGradient><linearGradient
     id="linearGradient3615"><stop
       offset="0"
       id="stop3619"
       stop-color="#ffffff" /><stop
       id="stop3621"
       offset="1"
       stop-color="#398fe5" /></linearGradient><radialGradient
     xlink:href="#linearGradient3364"
     id="radialGradient2333"
     gradientUnits="userSpaceOnUse"
     gradientTransform="matrix(7.6237907,4.4015976,-5.0675166,8.7771962,2328.4492,-5270.6109)"
     cx="82.9272"
     cy="578.88593"
     fx="82.9272"
     fy="578.88593"
     r="19.966738" /><linearGradient
     id="linearGradient3351"><stop
       offset="0"
       id="stop3353"
       stop-opacity="0.867347"
       stop-color="#ffffff" /><stop
       offset="1"
       id="stop3355"
       stop-opacity="0"
       stop-color="#ffffff" /></linearGradient><linearGradient
     id="linearGradient3364"><stop
       offset="0"
       id="stop3366"
       stop-color="#007fff" /><stop
       id="stop3413"
       offset="0.392857"
       stop-color="#1c8eff" /><stop
       offset="1"
       id="stop3368"
       stop-color="#1a4a7a" /></linearGradient><linearGradient
     id="linearGradient6692"><stop
       offset="0"
       id="stop6694"
       stop-color="#b8ff71" /><stop
       id="stop6700"
       offset="1"
       stop-color="#66cc00" /></linearGradient><radialGradient
     xlink:href="#linearGradient6692"
     id="radialGradient2331"
     gradientUnits="userSpaceOnUse"
     gradientTransform="matrix(0.9225535,0.5499376,-0.6128212,1.0614374,210.79224,-49.879453)"
     cx="317.86237"
     cy="249.47238"
     fx="317.86237"
     fy="249.47238"
     r="141.81195" /><radialGradient
     xlink:href="#linearGradient4328"
     id="radialGradient2335"
     gradientUnits="userSpaceOnUse"
     gradientTransform="matrix(1.0565445,0,0,0.5952981,10.2201,208.24643)"
     cx="333.362"
     cy="244.68217"
     fx="333.362"
     fy="244.68217"
     r="179.38509" /><linearGradient
     id="linearGradient4328"><stop
       offset="0"
       id="stop4330"
       stop-color="#398fe5" /><stop
       offset="1"
       id="stop4332"
       stop-color="#0066cc" /></linearGradient><radialGradient
     xlink:href="#linearGradient4328"
     id="radialGradient2337"
     gradientUnits="userSpaceOnUse"
     gradientTransform="matrix(1.0565445,0,0,0.5956187,10.2201,263.97431)"
     cx="318.06638"
     cy="365.75668"
     fx="318.06638"
     fy="365.75668"
     r="179.50987" /><radialGradient
     xlink:href="#linearGradient3351"
     id="radialGradient3357"
     cx="290.86432"
     cy="314.29395"
     fx="290.86432"
     fy="314.29395"
     r="130.08176"
     gradientTransform="matrix(1.4674635,0,0,1.0734203,-134.66628,-8.6146276)"
     gradientUnits="userSpaceOnUse" /><radialGradient
     xlink:href="#linearGradient3364"
     id="radialGradient3361"
     cx="298.10294"
     cy="315.40961"
     fx="298.10294"
     fy="315.40961"
     r="149.30214"
     gradientTransform="matrix(1.131046,0,0,1.131204,-29.352716,-17.655402)"
     gradientUnits="userSpaceOnUse" /><radialGradient
     xlink:href="#linearGradient6692"
     id="radialGradient3373"
     gradientUnits="userSpaceOnUse"
     gradientTransform="matrix(0.9225535,0.5499376,-0.6128212,1.0614374,-0.1554987,-133.93797)"
     cx="317.86237"
     cy="249.47238"
     fx="317.86237"
     fy="249.47238"
     r="141.81195" /><radialGradient
     xlink:href="#linearGradient4328"
     id="radialGradient3375"
     gradientUnits="userSpaceOnUse"
     gradientTransform="matrix(1.0565445,0,0,0.5952981,-200.72763,124.1879)"
     cx="333.362"
     cy="244.68217"
     fx="333.362"
     fy="244.68217"
     r="179.38509" /><radialGradient
     xlink:href="#linearGradient4328"
     id="radialGradient3377"
     gradientUnits="userSpaceOnUse"
     gradientTransform="matrix(1.0565445,0,0,0.5956187,-200.72763,179.91578)"
     cx="318.06638"
     cy="365.75668"
     fx="318.06638"
     fy="365.75668"
     r="179.50987" /><radialGradient
     xlink:href="#linearGradient4328"
     id="radialGradient3383"
     gradientUnits="userSpaceOnUse"
     gradientTransform="matrix(1.0565445,0,0,0.5952981,-200.72763,124.1879)"
     cx="333.362"
     cy="244.68217"
     fx="333.362"
     fy="244.68217"
     r="179.38509" /><radialGradient
     xlink:href="#linearGradient4328"
     id="radialGradient3385"
     gradientUnits="userSpaceOnUse"
     gradientTransform="matrix(1.0565445,0,0,0.5956187,-200.72763,179.91578)"
     cx="318.06638"
     cy="365.75668"
     fx="318.06638"
     fy="365.75668"
     r="179.50987" /><radialGradient
     xlink:href="#linearGradient3364"
     id="radialGradient3392"
     gradientUnits="userSpaceOnUse"
     gradientTransform="matrix(1.131046,0,0,1.131204,-29.352716,-17.655402)"
     cx="298.10294"
     cy="315.40961"
     fx="298.10294"
     fy="315.40961"
     r="149.30214" /><radialGradient
     xlink:href="#linearGradient6692"
     id="radialGradient3394"
     gradientUnits="userSpaceOnUse"
     gradientTransform="matrix(0.9225535,0.5499376,-0.6128212,1.0614374,210.79224,-49.879453)"
     cx="317.86237"
     cy="249.47238"
     fx="317.86237"
     fy="249.47238"
     r="141.81195" /><radialGradient
     xlink:href="#linearGradient3351"
     id="radialGradient3396"
     gradientUnits="userSpaceOnUse"
     gradientTransform="matrix(1.4674635,0,0,1.0734203,-134.66628,-8.6146276)"
     cx="290.86432"
     cy="314.29395"
     fx="290.86432"
     fy="314.29395"
     r="130.08176" /><radialGradient
     xlink:href="#linearGradient3351"
     id="radialGradient3686"
     gradientUnits="userSpaceOnUse"
     gradientTransform="matrix(1.4674635,0,0,1.0734203,-127.41403,-8.614628)"
     cx="290.86432"
     cy="314.29395"
     fx="290.86432"
     fy="314.29395"
     r="130.08176" /><radialGradient
     xlink:href="#linearGradient6692"
     id="radialGradient3732"
     gradientUnits="userSpaceOnUse"
     gradientTransform="matrix(0.9225535,0.5499376,-0.6128212,1.0614374,218.04449,-49.879453)"
     spreadMethod="reflect"
     cx="317.86237"
     cy="249.47238"
     fx="317.86237"
     fy="249.47238"
     r="141.81195" /><radialGradient
     xlink:href="#linearGradient3364"
     id="radialGradient3813"
     gradientUnits="userSpaceOnUse"
     gradientTransform="matrix(1.131046,0,0,1.131204,-22.100471,-17.655402)"
     cx="298.10294"
     cy="315.40961"
     fx="298.10294"
     fy="315.40961"
     r="149.30214" /><radialGradient
     xlink:href="#linearGradient3351"
     id="radialGradient3969"
     gradientUnits="userSpaceOnUse"
     gradientTransform="matrix(0.2436217,0.8776417,-1.1344403,0.3149057,586.4121,-25.658023)"
     cx="298.66852"
     cy="309.10764"
     fx="298.66852"
     fy="309.10764"
     r="130.08176" /><radialGradient
     xlink:href="#linearGradient6692"
     id="radialGradient3976"
     gradientUnits="userSpaceOnUse"
     gradientTransform="matrix(0.9225535,0.5499376,-0.6128212,1.0614374,218.04449,-49.879453)"
     spreadMethod="reflect"
     cx="317.86237"
     cy="249.47238"
     fx="317.86237"
     fy="249.47238"
     r="141.81195" /><radialGradient
     xlink:href="#linearGradient3364"
     id="radialGradient3979"
     gradientUnits="userSpaceOnUse"
     gradientTransform="matrix(1.131046,0,0,1.131204,-22.100471,-17.655402)"
     cx="298.10294"
     cy="315.40961"
     fx="298.10294"
     fy="315.40961"
     r="149.30214" /><radialGradient
     xlink:href="#linearGradient3533"
     id="radialGradient3539"
     cx="361.18896"
     cy="641.82562"
     fx="361.18896"
     fy="641.82562"
     r="143.60872"
     gradientTransform="matrix(1.2871291,0,0,0.588703,-103.70783,273.98098)"
     gradientUnits="userSpaceOnUse" /><radialGradient
     xlink:href="#linearGradient3364"
     id="radialGradient4429"
     gradientUnits="userSpaceOnUse"
     gradientTransform="matrix(1.131046,0,0,1.131204,-22.100471,282.3446)"
     cx="298.10294"
     cy="315.40961"
     fx="298.10294"
     fy="315.40961"
     r="149.30214" /><radialGradient
     xlink:href="#linearGradient3364"
     id="radialGradient4466"
     gradientUnits="userSpaceOnUse"
     gradientTransform="matrix(1.131046,0,0,0.5900932,-22.100471,489.57569)"
     cx="298.10294"
     cy="315.40961"
     fx="298.10294"
     fy="315.40961"
     r="149.30214" /><radialGradient
     xlink:href="#linearGradient3533"
     id="radialGradient4475"
     cx="374.42188"
     cy="655.5625"
     fx="374.42188"
     fy="655.5625"
     r="225.89062"
     gradientTransform="matrix(1.0526127,0,0,0.7540853,-19.699324,101.21241)"
     gradientUnits="userSpaceOnUse" /></defs><sodipodi:namedview
   pagecolor="#ffffff"
   bordercolor="#666666"
   borderopacity="1"
   objecttolerance="10"
   gridtolerance="10"
   guidetolerance="10"
   inkscape:pageopacity="0"
   inkscape:pageshadow="2"
   inkscape:window-width="1366"
   inkscape:window-height="703"
   id="namedview57"
   showgrid="false"
   showborder="false"
   inkscape:zoom="3.4892909"
   inkscape:cx="54.031032"
   inkscape:cy="44.705297"
   inkscape:window-x="0"
   inkscape:window-y="260"
   inkscape:window-maximized="1"
   inkscape:current-layer="Capa_1"
   fit-margin-top="0"
   fit-margin-left="0"
   fit-margin-right="0"
   fit-margin-bottom="0" />








<g
   id="g26"
   transform="translate(248.84941,-452.52255)">
</g>
<g
   id="g28"
   transform="translate(248.84941,-452.52255)">
</g>
<g
   id="g30"
   transform="translate(248.84941,-452.52255)">
</g>
<g
   id="g32"
   transform="translate(248.84941,-452.52255)">
</g>
<g
   id="g34"
   transform="translate(248.84941,-452.52255)">
</g>
<g
   id="g36"
   transform="translate(248.84941,-452.52255)">
</g>
<g
   id="g38"
   transform="translate(248.84941,-452.52255)">
</g>
<g
   id="g40"
   transform="translate(248.84941,-452.52255)">
</g>
<g
   id="g42"
   transform="translate(248.84941,-452.52255)">
</g>
<g
   id="g44"
   transform="translate(248.84941,-452.52255)">
</g>
<g
   id="g46"
   transform="translate(248.84941,-452.52255)">
</g>
<g
   id="g48"
   transform="translate(248.84941,-452.52255)">
</g>
<g
   id="g50"
   transform="translate(248.84941,-452.52255)">
</g>
<g
   id="g52"
   transform="translate(248.84941,-452.52255)">
</g>
<g
   id="g54"
   transform="translate(248.84941,-452.52255)">
</g>
<g
   id="g5764"
   transform="matrix(0.13229445,0,0,0.13229445,19.871744,216.30072)">
</g><g
   id="g5766"
   transform="matrix(0.13229445,0,0,0.13229445,19.871744,216.30072)">
</g><g
   id="g5768"
   transform="matrix(0.13229445,0,0,0.13229445,19.871744,216.30072)">
</g><g
   id="g5770"
   transform="matrix(0.13229445,0,0,0.13229445,19.871744,216.30072)">
</g><g
   id="g5772"
   transform="matrix(0.13229445,0,0,0.13229445,19.871744,216.30072)">
</g><g
   id="g5774"
   transform="matrix(0.13229445,0,0,0.13229445,19.871744,216.30072)">
</g><g
   id="g5776"
   transform="matrix(0.13229445,0,0,0.13229445,19.871744,216.30072)">
</g><g
   id="g5778"
   transform="matrix(0.13229445,0,0,0.13229445,19.871744,216.30072)">
</g><g
   id="g5780"
   transform="matrix(0.13229445,0,0,0.13229445,19.871744,216.30072)">
</g><g
   id="g5782"
   transform="matrix(0.13229445,0,0,0.13229445,19.871744,216.30072)">
</g><g
   id="g5784"
   transform="matrix(0.13229445,0,0,0.13229445,19.871744,216.30072)">
</g><g
   id="g5786"
   transform="matrix(0.13229445,0,0,0.13229445,19.871744,216.30072)">
</g><g
   id="g5788"
   transform="matrix(0.13229445,0,0,0.13229445,19.871744,216.30072)">
</g><g
   id="g5790"
   transform="matrix(0.13229445,0,0,0.13229445,19.871744,216.30072)">
</g><g
   id="g5792"
   transform="matrix(0.13229445,0,0,0.13229445,19.871744,216.30072)">
</g><g
   id="g5886"
   transform="translate(248.84942,-452.52257)"><g
     transform="matrix(0.86600586,0,0,0.86600586,-58.647403,-136.43855)"
     id="g5849"><polygon
       style="fill:#cc8342"
       points="433.475,399.384 252.062,504.123 70.648,399.384 70.648,189.889 252.062,85.157 433.475,189.889 "
       id="polygon5752"
       transform="matrix(0.13229445,0,0,0.13229445,-228.97767,668.82327)" /><polyline
       style="fill:#a86743"
       points="252.062,85.157 433.475,189.889 433.475,399.384 252.062,504.123 "
       id="polyline5754"
       transform="matrix(0.13229445,0,0,0.13229445,-228.97767,668.82327)" /><polygon
       style="fill:#4f2a19"
       points="70.648,189.889 70.648,190.015 252.062,294.754 433.475,190.015 433.475,189.889 252.062,85.157 "
       id="polygon5756"
       transform="matrix(0.13229445,0,0,0.13229445,-228.97767,668.82327)" /><polyline
       style="fill:#30150a"
       points="252.062,294.754 433.475,190.015 433.475,189.889 252.062,85.157 "
       id="polyline5758"
       transform="matrix(0.13229445,0,0,0.13229445,-228.97767,668.82327)" /></g><g
     transform="matrix(0.04748846,0,0,0.04748846,-235.28047,456.57656)"
     id="g5511"><title
       id="title5503">Layer 1</title><g
       id="layer2" /><g
       id="layer1"><g
         id="g7821"><path
           style="fill:url(#radialGradient3979);fill-rule:nonzero;stroke-width:0.27755299;stroke-miterlimit:4"
           inkscape:connector-curvature="0"
           stroke-miterlimit="4"
           d="M 149.32919,0 C 122.8483,0 98.018127,6.965637 76.44754,19.077545 c -0.01352,0.0075 -0.04065,-0.0076 -0.05408,0 C 62.435394,26.920685 49.947906,37.008026 39.223221,48.747589 14.960282,75.306793 0,110.53656 0,149.32306 c 0,82.43628 66.91922,149.32284 149.32919,149.32297 2.59366,0 5.1106,-0.2475 7.67172,-0.37836 4.12119,-0.21075 8.18351,-0.54193 12.20993,-1.08099 37.33634,-4.9964 70.31476,-23.69696 93.62781,-51.0174 22.25946,-26.08554 35.76563,-59.88745 35.76563,-96.84622 0,-18.86127 -3.60748,-36.82953 -9.99494,-53.449311 -3.13272,-8.151428 -7.00476,-15.9552 -11.45358,-23.346954 C 257.87543,40.492402 227.00809,16.327485 190.28122,5.836793 177.24301,2.112611 163.55731,1.0000001e-6 149.32919,1.0000001e-6 Z"
           id="path6109" /><path
           style="fill:url(#radialGradient3976);fill-rule:nonzero;stroke-width:0.27755299;stroke-miterlimit:4"
           inkscape:connector-curvature="0"
           stroke-miterlimit="4"
           d="m 128.18387,4.702423 c -0.53748,0 -1.38773,0.098083 -1.75241,0.584442 -0.35199,0.469391 -0.68988,1.079346 -1.0708,1.460266 -0.22821,0.228271 -0.4672,0.876404 -1.07093,0.876404 -0.34829,0 -1.5018,-0.187927 -1.75229,0 -0.46414,0.348328 -1.11886,0.678986 -1.26556,1.265747 -0.18838,0.753693 -0.82657,0.631866 -1.36279,1.168274 -0.30271,0.302826 -1.01059,0.861359 -1.4603,0.973816 -0.58786,0.146881 -1.10376,0.29187 -1.75235,0.292023 -0.49353,0 -1.17893,-0.118927 -1.655,0 -0.77731,0.194397 -1.18423,0.904724 -1.84958,1.071014 -0.60495,0.151276 -0.87906,0.393219 -1.16827,0.778961 -0.3736,0.498108 -1.24225,0.778809 -1.84967,0.778809 -0.93274,0 -0.97327,0.170227 -1.655,0.681549 -0.48425,0.363251 -1.33057,0.486816 -1.94708,0.486816 -0.82767,0 -2.00037,0.02658 -2.72577,0.389343 -0.4939,0.247223 -1.14872,0.34082 -1.36289,0.876495 -0.34195,0.854858 -0.62854,0.947052 -1.46026,1.363251 -0.48389,0.242004 -1.550419,0.576599 -1.947087,0.973358 -0.30246,0.302734 -0.470337,1.380341 -0.876007,1.460663 0.02863,0.01718 0.637848,0.548737 0.778717,0.584045 0.598663,0.149872 1.377437,0.09744 2.044377,0.09744 0.80606,0 1.50955,0.09741 2.33636,0.09741 0.71097,0 1.13358,-0.486877 1.75235,-0.486877 0.82867,0 1.65356,-3.05e-4 2.43378,0.194763 0.65042,0.162537 1.26327,0.389465 1.94693,0.389465 0.724,0 1.13202,-0.03961 1.75238,-0.194763 0.78729,-0.196899 1.26138,-0.156708 1.655,-0.681488 0.34628,-0.461945 0.63815,-0.746307 1.07086,-1.071136 0.34582,-0.259369 1.65506,-1.655151 1.94699,-1.655304 0.72555,0 1.25586,-0.216248 1.94693,-0.389282 0.47498,-0.118774 0.49359,-1.264465 0.97363,-1.168427 0.28198,0.05646 0.86063,0.758606 1.16815,0.681549 0.2677,-0.06702 0.59903,-0.13974 0.87623,-0.0972 0.27719,0.04211 0.50167,0.253967 0.58413,0.584076 0.1622,0.648865 0.34931,0.628052 0.68137,1.070984 0.16278,0.217102 0.97125,1.177856 0.87616,1.557953 -0.11554,0.462769 -0.22577,1.238647 -0.0971,1.752411 0.12882,0.516022 0.15335,1.085968 0.38925,1.557922 0.15772,0.315521 0.60324,1.049744 0.68152,1.363037 0.15247,0.610504 0.49173,0.594238 0.77887,1.168427 0.3418,0.684052 0.17176,0.982086 -0.0973,1.655121 -0.23025,0.575775 -0.56592,1.242126 -0.38959,1.947388 0.0365,0.145447 0.0612,0.341034 0.0975,0.486877 0.10873,0.435638 0.17117,0.671509 0.29208,0.778748 0.12067,0.1073 0.29035,0.0975 0.77863,0.0975 0.57449,0 1.36636,0.0034 1.655,0.291931 0.39026,0.390533 0.77893,0.609833 0.77893,1.168427 0,0.401978 -0.22214,1.474213 -0.58429,1.655212 -0.26169,0.131012 -1.07071,0.833984 -1.07071,1.265686 0,0.542267 0.0973,1.154358 0.0973,1.655212 0,0.109406 -0.0266,0.283661 0,0.389587 0.16159,0.646454 0.2991,1.474213 0.58414,2.044586 0.22439,0.44873 0.72763,0.845459 0.97357,1.46051 0.21725,0.543396 0.23868,1.35376 0.48672,1.849976 0.27405,0.548279 0.54819,0.999329 0.77878,1.460388 0.27316,0.546356 0.43744,1.605896 0.87616,2.0448 0.517,0.517029 0.72372,0.867737 1.16837,1.460388 0.3814,0.508881 0.86596,1.158203 1.26532,1.55777 0.35482,0.355042 0.71667,0.814087 1.16848,1.265778 0.92966,0.930023 1.49106,1.475861 2.62833,2.044708 0.58243,0.291351 1.25894,0.580719 1.84964,0.876251 0.66769,0.333954 1.23209,0.778137 1.75238,1.168427 0.59161,0.443787 1.20673,1.08551 2.04443,0.876221 0.72599,-0.18161 1.84323,-0.04544 2.53107,-0.389587 0.22626,-0.113007 0.47534,-0.186646 0.68143,-0.389221 0.2063,-0.202667 0.38128,-0.503143 0.19464,-0.876526 -0.15164,-0.303375 -0.4867,-0.796143 -0.4867,-1.265564 0,-0.797791 -0.19464,-1.515747 -0.19464,-2.33667 0,-0.581635 -0.0349,-1.029358 0.0973,-1.558014 0.1044,-0.417969 0.13395,-1.021301 0,-1.557709 -0.16485,-0.660278 -0.0309,-1.292542 -0.19464,-1.947418 -0.13592,-0.543915 -0.0973,-1.244476 -0.0973,-1.849792 0,-0.567413 -0.0323,-1.039032 0.0973,-1.5578 0.15247,-0.609985 0.0974,-1.246002 0.0974,-1.849976 0,-0.517883 -0.0867,-1.09259 0.0973,-1.46051 0.18793,-0.376007 0.43403,-1.280579 0.97352,-1.460602 0.45538,-0.151672 2.04443,-0.49585 2.04443,-1.070862 0,-0.641205 -0.061,-1.119995 -0.19479,-1.655212 -0.15381,-0.615295 -0.55738,-1.221619 -0.19465,-1.947296 0.41697,-0.83432 1.23334,-1.060516 1.75238,-1.752563 0.29541,-0.394165 0.8071,-0.80722 1.26535,-1.265839 0.34449,-0.344299 1.10083,-0.643707 1.26572,-0.973572 0.21356,-0.427155 0.48679,-1.06311 0.48679,-1.557953 0,-0.348572 0.15149,-1.579376 -0.1948,-1.752563 -0.50384,-0.251831 -1.07077,-0.163361 -1.07077,-0.77887 0,-0.409149 0.44147,-1.356049 0.29206,-1.655212 -0.23612,-0.472595 -0.49942,-0.879425 -1.26566,-1.070923 -0.60373,-0.151001 -1.43396,-0.267426 -2.04428,-0.389465 -0.36969,-0.07391 -1.21075,-0.182587 -1.36292,-0.486786 -0.1734,-0.346954 -0.34256,-1.291199 -0.68142,-1.460663 -0.55231,-0.276215 -1.17615,-0.291962 -1.84979,-0.291962 -0.1702,0 -2.27082,-0.503357 -1.55744,-0.681396 0.70908,-0.177429 0.68808,-0.305725 0.97336,-0.876465 0.1619,-0.323792 0.48715,-0.875793 0.1947,-1.265686 -0.40729,-0.543488 -0.96176,-0.767273 -1.36291,-1.168488 -0.53247,-0.532684 -1.76578,-0.778839 -2.5311,-0.778839 -0.10901,0 -0.18625,0.02646 -0.29205,0 -0.4314,-0.10788 -0.83338,-0.541412 -1.16822,-0.876312 -0.49621,-0.496582 -1.39517,-0.713989 -2.04437,-0.876221 -0.49136,-0.122833 -0.79208,-0.53894 -1.36285,-0.681732 -0.56305,-0.140564 -1.16657,-0.145264 -1.75235,-0.291931 -0.7649,-0.191345 -1.58109,-0.335876 -2.33652,-0.48703 -0.28049,-0.05594 -2.26114,-0.202667 -2.14172,-0.681396 0.0731,-0.292938 0.44924,-0.973572 0.87616,-0.973572 0.58578,0 1.27774,0.114502 1.84976,0 0.74649,-0.149414 1.51242,-0.292328 2.33655,-0.292114 0.7517,0 1.50842,0.048553 2.23883,0.194702 0.91299,0.182739 1.92434,0.06723 2.8233,0.292084 0.70618,0.176544 1.79416,0.292053 2.53107,0.292053 1.03808,0 2.24722,-0.097443 3.30999,-0.097443 1.6236,0 3.07383,-0.389282 4.6728,-0.389282 0.92523,0 1.24151,-0.564087 1.94708,-0.681549 0.35751,-0.059662 0.66174,-0.162781 0.77872,-0.292267 0.11715,-0.129089 0.0151,-0.263916 -0.48673,-0.389465 -0.6106,-0.152588 -1.3147,0.060638 -1.94699,-0.097321 -0.47519,-0.118774 -1.23004,-0.29187 -1.75229,-0.29187 -0.75125,0 -1.39441,-0.097443 -2.14172,-0.097443 -0.53479,0 -1.0174,0.156799 -1.5575,0.291962 -0.71164,0.17804 -1.39529,0 -2.14178,0 -0.76413,0 -1.57245,0 -2.33652,0 -1.04602,0 -2.14462,-0.194519 -3.1152,-0.194519 -0.6326,0 -1.25138,-0.097443 -1.75238,-0.097443 -0.99451,0 -2.14731,-0.00281 -2.92057,-0.389435 -0.72082,-0.360718 -1.24374,-0.578888 -2.04437,-0.779053 -0.37006,-0.09256 -1.22827,-1.071136 -1.55759,-1.071136 z m 62.11014,1.168396 c -1.22025,0.254272 -2.48011,0.401001 -3.60202,0.681793 -1.41922,0.354706 -2.29425,1.008392 -3.60193,0.681396 -0.90979,-0.227448 -1.77384,-0.296295 -2.72586,-0.486877 0.30899,0.309204 0.1604,0.712189 -0.0974,1.071014 -0.25775,0.358978 -0.67977,0.631775 -0.87622,0.778961 -0.0287,0.021515 -2.24459,0.269165 -2.33642,0.292175 -0.52753,0.131866 -0.32199,0.486969 0,0.876251 0.32214,0.389526 0.81558,0.739471 0.97366,0.7789 1.20371,0.301147 2.72287,1.020782 3.79657,1.55777 0.46149,0.230865 0.67752,0.413086 0.77872,0.681641 0.10138,0.268402 0.0887,0.646515 0.19476,1.071075 0.20938,0.837799 0.33185,1.090759 1.07095,1.460449 0.64634,0.323273 2.09677,0.389526 2.82312,0.389526 1.17682,0 2.91709,0.583069 3.79673,0.87616 0.74148,0.247192 1.84256,1.064026 2.33636,1.557861 0.51288,0.513153 1.00208,0.816803 1.55774,1.557953 0.64343,0.858002 1.29459,1.328766 2.14163,1.752411 0.73221,0.366272 1.87692,0.354401 2.33643,0.584137 0.83615,0.418243 1.85211,1.073578 2.43387,1.655273 0.68612,0.686401 1.23147,1.328827 1.75222,1.849976 0.6764,0.676514 0.83884,1.432404 1.655,2.044647 0.83545,0.626831 1.5062,1.116821 2.14179,1.752625 0.73721,0.737274 1.3959,1.103821 2.04443,1.752411 0.51013,0.510345 1.01517,1.251709 1.84964,1.460602 1.13526,0.283813 1.8573,-0.440002 2.82324,-0.681549 0.47318,-0.118561 2.18592,1.663849 2.43363,1.850037 0.57419,0.430328 1.12866,1.283936 1.36307,1.752472 0.26651,0.533386 1.16958,1.267273 1.55758,1.655212 0.75016,0.750244 0.92835,0.902374 1.84964,1.363037 0.37763,0.188812 0.80826,0.220062 1.16809,0.09732 0.36017,-0.122314 0.60813,-0.388458 0.68155,-0.681702 0.2034,-0.81369 0.5156,-1.24765 0.29203,-2.141846 -0.13163,-0.526917 -0.0499,-1.12677 0.19464,-1.557861 0.24487,-0.431 0.64312,-0.652069 1.36306,-0.292084 0.51423,0.257446 0.84144,1.098877 1.07093,1.557922 0.32348,0.647583 0.77871,1.503998 0.77871,2.433868 0,0.825623 0,1.364105 0,2.239594 0,0.354553 4.09458,2.634552 4.1861,2.726288 0.52484,0.524628 1.2323,0.854034 1.84958,1.265594 0.67947,0.453125 1.11856,0.900177 2.04434,1.36319 0.525,0.262543 0.80795,0.749573 0.97366,1.265686 0.16553,0.516113 0.20456,1.031494 0.0974,1.460449 -0.12018,0.481232 0.28653,1.580048 0.0973,2.336823 -0.14664,0.587036 -0.25498,1.052307 -0.19471,1.363098 0.0601,0.310822 0.31122,0.447662 0.97342,0.778839 0.96048,0.480255 1.32352,1.242188 2.33643,1.849976 0.52985,0.318024 0.94546,4.032928 1.26566,4.673584 0.36886,0.737854 0.78295,1.735382 0.58407,2.531464 -0.21594,0.863922 -0.58407,1.504883 -0.58407,2.434082 0,0.662262 -0.51911,1.589874 -0.68152,2.239441 -0.1547,0.619843 -0.44931,1.274261 -0.58414,1.752533 -0.13474,0.47821 -0.10953,0.793488 0.58414,1.071014 0.90182,0.36087 2.38571,0.7789 3.30987,0.7789 0.97791,0 1.94312,0 2.92056,0 0.46439,0 0.93308,0.932068 1.36295,1.947296 0.43002,1.015228 0.79126,2.106812 0.87628,2.531525 0.18,0.901184 0.41584,1.292053 0.97345,1.849915 0.7313,0.731628 1.80036,1.360596 2.04441,2.336731 0.27841,1.114471 0.66299,1.399689 0.19467,2.336792 -0.22785,0.456024 -1.82767,0.816559 -2.33643,1.070984 -0.73035,0.365295 -1.95785,0.498566 -3.01788,0.778992 -0.52994,0.140198 -1.0112,0.34491 -1.36301,0.584137 -0.35159,0.239105 -0.58407,0.555481 -0.58407,0.973633 0,0.953156 0.3836,1.351563 0.77893,2.141998 0.4299,0.860382 0.82739,1.524963 1.36288,2.23941 0.0874,0.116425 0.189,0.28656 0.29205,0.389465 0.59372,0.593933 0.53119,1.519867 1.07093,2.239349 0.74396,0.992798 1.11123,1.833557 1.65481,2.921112 0.52341,1.046936 1.70462,1.851868 2.3364,3.115417 0.35293,0.706207 0.97366,2.050812 0.97366,3.018494 0,0.76337 0.4028,1.51386 0.58408,2.23941 0.13824,0.55328 0.69983,1.09067 1.26556,1.46051 0.56592,0.36969 1.13922,0.64981 1.655,0.77884 0.91101,0.22781 1.96774,0.0973 2.92059,0.0973 1.00895,0 1.62711,-0.29187 2.53107,-0.29187 0.52118,0 1.2605,-1.35635 1.55765,-1.75272 0.65048,-0.86749 1.02905,-1.39029 1.2655,-2.33661 0.1275,-0.51034 0.26038,-1.019405 0.29215,-1.558101 0.0315,-0.5383 -0.0711,-1.044403 -0.48679,-1.460266 -0.35428,-0.354523 -0.41455,-0.703827 -0.38943,-1.071228 0.0251,-0.366974 0.13543,-0.732025 0.38943,-1.070862 0.13638,-0.182007 0.19464,-2.515106 0.19464,-2.628876 0,-0.09436 -1.23627,-1.648529 -1.4602,-1.947235 -0.54685,-0.729279 -0.68528,-1.662354 -1.07093,-2.434174 -0.41592,-0.832306 -0.48672,-1.562897 -0.48672,-2.628784 0,-0.823456 0,-1.610626 0,-2.434174 0,-1.113861 -0.50943,-1.482971 -1.07095,-2.044586 -0.59101,-0.591217 -0.56702,-1.100037 -0.77869,-1.947418 -0.14545,-0.581299 -0.0782,-0.922119 0.0973,-1.168243 0.17563,-0.246368 0.51443,-0.410339 0.87613,-0.681702 0.59918,-0.449341 0.77884,-1.397308 0.77884,-2.141876 -1.3e-4,-0.537476 -0.16861,-1.081238 -0.19464,-1.460571 -0.0262,-0.379425 0.058,-0.671753 0.48672,-0.778839 0.39444,-0.09885 0.84106,0.225708 1.16815,0.584076 0.32721,0.358429 0.54773,0.795288 0.68143,0.973724 0.5072,0.676453 0.61114,1.066742 1.26572,1.5578 0.87936,0.659882 2.16266,0.98407 2.92059,1.363251 0.80121,0.400757 1.53409,0.809753 2.14163,1.265594 0.75284,0.56485 1.38141,1.08963 1.84958,1.557739 0.44714,0.447266 0.57742,1.321747 0.97366,1.850037 0.41513,0.553741 0.8812,0.686401 1.36283,1.168488 0.51983,0.519928 0.81537,1.53363 1.07095,2.044586 0.28311,0.566437 0.48019,0.786346 0.68127,0.7789 0.20145,-0.0074 0.45142,-0.274414 0.87629,-0.486786 0.26867,-0.134583 -0.41843,-2.160553 -0.48679,-2.434174 -0.19016,-0.760895 -1.26325,-1.844971 -1.55756,-2.434113 -0.3143,-0.628693 -0.21289,-0.897522 0,-0.876404 0.21259,0.02142 0.55945,0.267578 0.77872,0.486877 0.64401,0.644165 1.25861,0.862183 1.75235,1.849976 0.21387,0.427673 1.02698,1.027008 1.4603,1.46051 0.63446,0.634735 0.54645,1.212799 0.77878,2.142151 0.0822,0.328644 0.2872,0.407227 0.48678,0.389221 0.19943,-0.01764 0.44678,-0.181549 0.68158,-0.389221 0.46936,-0.415802 0.95212,-1.028748 1.07071,-1.265747 0.29111,-0.582458 0.3783,-1.232269 0.58408,-1.850006 0.26812,-0.804718 0.13705,-1.499329 -0.0972,-2.142059 -0.23456,-0.642792 -0.62705,-1.226685 -0.87628,-1.849976 -0.22284,-0.557159 -0.56733,-1.043182 -0.87613,-1.557861 -0.93613,-1.560364 -1.71125,-3.033142 -2.53101,-4.673431 -0.0402,-0.08026 -0.058,-0.113922 -0.0974,-0.194855 C 257.85113,40.531522 227.02093,16.3616 190.29401,5.870817 Z M 95.279113,18.722992 c -0.490021,0 -1.27179,0.928284 -1.557495,1.071228 -0.626862,0.313385 -1.281372,1.033997 -1.849884,1.460297 -0.591248,0.443604 -1.091187,0.842773 -1.654755,1.265747 -0.643188,0.482544 -1.069824,0.58429 -2.044464,0.58429 -0.92453,2.44e-4 -0.945282,0.423798 -1.654999,0.778961 -0.830139,0.41507 -1.597656,1.735077 -1.947052,2.43396 -0.329163,0.658752 -0.801636,1.483246 -1.168152,1.849976 -0.445618,0.44577 -1.239807,0.717194 -1.752319,0.973724 -0.611206,0.30542 -0.389343,1.512115 -0.389343,2.141998 0,0.420898 -1.640808,0.486938 -1.752319,0.486938 -0.223358,0 -1.517151,-1.906799 -1.655029,-2.0448 -0.688538,-0.688843 -0.3302,-0.812714 -1.362946,-1.071075 -0.559113,-0.13974 -1.013672,-0.0921 -1.265564,-0.194672 -0.251801,-0.1026 -0.389374,-0.378052 -0.389374,-1.070953 0,-0.75116 0.899139,-1.093994 1.265564,-1.460602 0.445526,-0.445343 1.322479,-0.758667 1.752319,-0.973541 0.626282,-0.313385 0.89035,-0.89032 1.362885,-1.36322 0.586914,-0.587006 0.681488,-1.262085 0.681488,-2.141968 0,-0.274475 -1.385101,-0.838623 -1.654999,-0.973602 -0.618103,-0.309204 -1.010651,-0.992188 -1.752319,-1.363159 -0.01343,0.0077 -0.08398,-0.0074 -0.09741,0 -13.957886,7.842957 -26.463501,17.859406 -37.188141,29.598938 -0.119644,0.60144 -0.175522,1.324799 -0.389481,1.752441 -0.408691,0.817963 -0.982132,0.98233 -1.557617,1.558044 -0.430817,0.430847 -0.659592,1.236267 -0.973434,1.655273 -0.452011,0.602539 -1.137375,0.845306 -1.654938,1.362946 -0.501678,0.50177 -0.486679,1.642975 -0.486679,2.336914 0,0.656708 0.290161,0.898438 0.583984,0.876099 0.293762,-0.02228 0.549103,-0.319244 0.7789,-0.778809 0.284241,-0.568878 1.708542,-1.451935 2.239059,-1.849976 0.72789,-0.546204 1.764465,-0.900421 2.141693,-1.655212 0.341034,-0.682159 0.666306,-1.107483 0.87616,-1.947235 0.27887,-1.115997 0.895889,-1.597168 1.46019,-2.72644 0.201721,0.630249 0.531403,1.407715 1.168289,2.0448 0.291306,0.291504 0.42749,0.713623 0.38942,1.071075 -0.03813,0.357391 -0.250381,0.695374 -0.38942,0.97345 -0.219086,0.438599 -1.100647,1.100861 -1.557693,1.557983 -0.553543,0.553833 -0.858154,0.548126 -1.168091,1.168518 -0.334763,0.669525 -0.89093,0.837097 -1.070862,1.557648 -0.168213,0.673187 -0.513123,1.176697 -0.681412,1.849792 -0.240219,0.961121 -0.08084,1.541321 -0.778915,2.239594 -0.473389,0.47348 -0.741272,1.407318 -0.876251,1.947388 -0.239273,0.957916 -0.669235,1.207764 -1.265472,1.654968 -0.649841,0.487793 -0.884598,1.493958 -1.070953,2.239655 -0.243835,0.975708 -1.404755,2.030518 -1.84964,2.920898 -0.382187,0.764679 -0.682388,0.878052 -1.070786,1.655273 -0.26976,0.539917 -0.308823,1.430054 -0.486862,2.141846 -0.197479,0.790222 -0.642151,1.537811 -1.168167,2.239349 -0.0872,0.116638 -0.286453,0.189301 -0.389343,0.292175 -0.519745,0.52002 -0.87616,1.719727 -0.87616,2.434113 0,0.66507 -0.896759,1.834686 -1.070847,2.531433 -0.237,0.947906 -0.422943,1.722107 -0.778961,2.434052 -0.439194,0.878876 -0.855362,1.224274 -1.265533,2.044739 -0.451157,0.902832 -0.714249,1.428833 -1.070786,2.142059 -0.286407,0.573273 -0.291992,1.396088 -0.291992,2.142151 0,0.655792 -0.228607,1.693146 -0.389374,2.336609 -0.178375,0.713379 0,1.69754 0,2.434265 0,0.954346 -0.341293,1.509521 -0.876266,2.044586 -0.626968,0.627136 -1.02803,0.996887 -1.265518,1.947388 -0.15033,0.601593 -0.55275,1.397761 -0.876114,2.044431 -0.427963,0.85602 -0.479828,1.35352 -1.071014,2.14215 -0.445694,0.59439 -0.768982,1.51856 -0.973465,2.33667 -0.21727,0.86939 -0.287735,1.54908 -0.681366,2.33676 -0.396393,0.79313 -0.481842,1.34321 -0.681488,2.142 -0.193481,0.77466 -0.519043,1.33045 -0.778839,1.85004 -0.375458,0.75104 -0.389206,1.55667 -0.584106,2.33685 -0.212585,0.85086 -0.291992,1.87232 -0.291992,2.72592 0,0.74842 -0.389481,1.66257 -0.389481,2.53159 0,0.89774 -0.09396,1.64124 -0.292007,2.43417 -0.191086,0.76468 -0.09743,1.58188 -0.09743,2.43412 0,1.21158 -0.291992,2.37036 -0.291992,3.60251 0,0.94729 0.374084,1.10717 0.584106,1.94732 0.184814,0.74009 0.110886,1.61243 0.291946,2.33652 0.08847,0.35382 0.194855,0.64206 0.194855,1.07141 0.294159,1.17737 1.070892,1.52548 1.070892,2.72605 0,0.94378 0.09897,1.36962 0.29187,2.14209 0.18837,0.75335 0,1.75085 0,2.53143 0,0.77936 -0.301437,1.79019 -0.486664,2.53152 -0.02498,0.0998 0,0.189 0,0.29203 0,0.93133 -0.292007,1.91714 -0.292007,2.92089 0,0.28586 0.576187,1.6395 0.778671,2.04474 0.375809,0.75162 0.580017,1.83301 0.77887,2.62909 0.294037,1.17655 0.625488,2.19611 1.070831,3.31027 0.354599,0.88651 0.396851,1.57627 0.778793,2.53122 0.249985,0.62473 -0.03831,1.79389 0.09738,2.33692 0.189606,0.75845 0.194717,1.647 0.194717,2.43408 0,0.88721 0.19487,1.59003 0.19487,2.43405 -1.68e-4,0.84302 0.104782,1.58804 0.291946,2.33676 0.223801,0.89606 0.09737,1.55802 0.389404,2.142 0.493988,0.9884 0.957581,1.20215 1.168228,2.0448 0.210587,0.8429 0.501602,1.61685 0.681519,2.3367 0.21048,0.84256 1.067612,1.54587 1.265472,2.33682 0.27182,1.08734 1.256348,2.05545 1.752274,3.21308 0.307098,0.71667 0.311493,1.59631 0.584213,2.14203 0.258591,0.51733 1.454285,0.96899 1.84964,1.26565 0.369461,0.27713 0.367584,0.58887 0.48674,0.87635 0.119202,0.28759 0.317459,0.54187 0.87616,0.68154 0.668762,0.16718 1.109879,0.83246 1.55751,1.16825 0.589478,0.44235 -0.308014,-1.42716 -0.486603,-2.14191 -0.202103,-0.80853 -1.013855,-1.65735 -1.362976,-2.23935 -0.326599,-0.54471 -0.04542,-1.84326 -0.292099,-2.33682 -0.401794,-0.80383 -0.762039,-1.49094 -0.973602,-2.3367 -0.224945,-0.90024 -0.6521,-1.73319 -0.876099,-2.62894 -0.228256,-0.91406 -0.574585,-1.53873 -0.973465,-2.3367 -0.476868,-0.95419 -1.070786,-1.3042 -1.070786,-2.43417 0,-0.72556 -0.556702,-1.98966 -0.87616,-2.62879 -0.336243,-0.67257 -0.194748,-2.02679 -0.194748,-2.82364 0,-0.78237 -0.292114,-1.42175 -0.292114,-2.23925 0,-0.96561 -0.26384,-1.93189 -0.486786,-2.82364 -0.204895,-0.82032 -0.486572,-1.55393 -0.486572,-2.43424 0,-0.65063 0.170349,-0.87085 0.291946,-0.7789 0.121552,0.092 0.194626,0.51795 0.194626,1.07123 0,0.60571 0.821548,1.24075 0.973648,1.84979 0.214523,0.85855 0.364624,1.75052 0.584045,2.62888 0.172623,0.69076 -0.188187,1.68066 0,2.43426 0.215378,0.86213 0.681595,1.36182 0.681595,2.33661 0,0.814 0.291885,1.40549 0.291885,2.14215 0,0.53284 0.64624,1.61121 0.778854,2.14194 0.208817,0.83572 0.37767,1.7052 0.58403,2.53149 0.174957,0.69928 0.573456,1.61191 0.778854,2.43415 0.166916,0.668 0.583984,1.49255 1.070847,2.1419 0.423569,0.56482 0.504471,1.59305 0.778961,2.142 0.435654,0.87189 0.645096,1.38773 1.070724,2.23941 0.345413,0.69089 0.599335,1.22922 0.778854,1.94733 0.20311,0.81262 0.909164,1.91577 1.265518,2.62888 0.33931,0.67849 0.720306,1.4212 0.876282,2.04464 0.230026,0.92115 0.45401,1.97913 0.876099,2.82355 0.34166,0.68368 0.676529,1.35321 0.97348,1.94739 0.424988,0.85025 0.981339,1.46798 1.557571,2.04468 0.704056,0.70394 1.681061,1.04385 2.531113,1.46026 0.85022,0.41675 1.534378,0.88019 1.752319,1.75266 0.188538,0.75396 0.802734,1.60559 1.070908,2.14206 0.396561,0.79312 1.141479,1.53112 1.752319,2.14209 1.616119,1.61651 2.979889,3.33981 5.062317,4.3815 0.7052,0.3525 1.174042,0.56109 2.044495,0.7788 0.877777,0.21955 1.591675,0.30921 2.336304,0.68146 0.750824,0.3757 1.448883,0.48694 2.336487,0.48694 0.352997,0 1.244598,0.82224 1.849701,0.9736 0.539307,0.13504 1.412537,-0.18252 2.141632,0 1.00238,0.25052 1.31958,-0.6438 2.336487,-0.38937 0.941528,0.23532 2.384491,2.39709 3.212463,3.01816 0.733307,0.55017 1.496979,1.13012 2.336548,1.84997 0.767731,0.65839 1.301483,1.03141 2.239014,1.26575 0.746918,0.18695 1.163849,0.28967 1.752319,0.58414 0.629974,0.31512 1.68869,0.0974 2.433899,0.0974 0.714111,0 1.429688,1.04052 1.84964,1.4606 0.997803,0.99805 2.171967,1.56567 2.823059,2.43417 0.572021,0.76288 0.899536,1.77582 1.557678,2.43406 0.592255,0.59231 1.422974,1.32562 2.141754,2.0447 0.594666,0.59479 1.273315,1.00483 1.460205,1.75226 0.19989,0.79996 1.159973,1.1644 1.752411,1.46066 0.652893,0.32645 1.533142,0.52936 2.141754,0.68149 0.542908,0.13587 1.42099,1.33386 1.849609,1.65528 0.326843,0.2453 2.004944,-0.19468 2.531158,-0.19468 0.685699,0 1.527588,0.99851 1.947144,1.55786 0.477753,0.63749 0.775269,1.16828 1.654785,1.16828 0.906128,0 1.66449,-0.39887 2.239075,-0.97382 0.455841,-0.45556 0.584076,-1.69259 0.584076,-2.33655 0,-0.59863 1.545959,0.76722 1.849699,1.07108 0.47507,0.47519 1.09772,1.19519 1.4603,1.55774 0.68482,0.68497 1.61725,1.57968 1.94708,2.23941 0.33082,0.6618 0.13895,1.54397 0.48673,2.23941 0.38852,0.77746 0.70541,1.23248 1.16827,1.84982 0.49338,0.65814 0.48673,1.18863 0.48673,2.23941 0,0.84522 0.19464,1.51251 0.19464,2.33676 0,0.72071 -0.61548,1.00202 -0.77878,1.65528 -0.1954,0.78164 -0.48672,1.32748 -0.48672,2.33679 0,0.69983 -1.26551,1.40344 -1.26551,2.43408 0,0.77905 0.78089,1.95593 0.97336,2.72613 0.22089,0.88385 0.46735,2.00586 0.87628,2.82373 0.47123,0.94269 1.20209,0.81678 1.46015,1.84986 0.22171,0.8869 0.27832,1.79474 0.48678,2.62878 0.19629,0.78559 0.68885,1.10004 0.87622,1.84998 0.16303,0.65277 0.66462,1.2489 1.07096,1.65521 0.5018,0.50195 1.3573,0.99652 2.04419,1.1684 1.24478,0.31103 1.70532,0.81329 2.33651,1.65527 0.55439,0.73938 0.83426,1.52631 1.65485,2.14209 0.8161,0.61212 1.17682,0.6897 1.75229,1.26556 0.13138,0.13135 0.23523,0.18915 0.38952,0.29212 0.77652,0.51788 0.99091,1.17694 1.94706,1.65527 0.77572,0.388 1.44024,1.03919 2.14166,1.46045 0.88928,0.53375 1.35348,0.9201 2.23914,1.36304 0.76226,0.38141 1.34799,1.11212 2.04443,1.46051 0.75775,0.37915 1.3186,0.69207 2.23901,0.87628 0.74533,0.14923 1.70105,0.42523 2.33658,0.58429 0.96497,0.24133 1.89145,0.41034 2.62836,0.77881 0.69247,0.34619 1.45004,1.15808 1.84964,1.55804 0.57538,0.57532 1.53888,1.01276 2.23923,1.36286 0.52859,0.2647 1.25808,0.72662 1.75219,0.97387 0.98429,0.49219 1.3714,1.19886 2.23917,1.84973 0.66833,0.50159 1.12506,1.12531 1.65484,1.65522 0.64585,0.64624 1.03611,1.52313 1.55765,2.04449 0.62238,0.62286 0.88282,1.29236 1.07096,2.04474 0.2359,0.94446 0.88699,1.48224 1.2655,2.23962 0.37311,0.7464 1.44726,1.18311 1.94699,1.84992 0.48477,0.64636 1.43143,0.9447 1.94699,1.46039 0.67688,0.67706 1.2706,0.88275 1.84979,1.65527 0.56299,0.75067 1.16577,0.97101 1.55753,1.3631 0.5534,0.55347 1.35431,0.82318 1.84964,1.07092 0.14917,0.0745 0.24054,0.13825 0.38956,0.19495 4.12097,-0.21082 8.1423,-0.53217 12.16882,-1.07123 0.0324,-0.0776 0.17166,-0.10266 0.19485,-0.19464 0.25647,-1.02661 1.50913,-1.82593 2.04428,-2.62885 0.55356,-0.83075 1.43165,-0.92895 2.14167,-1.07098 0.84457,-0.16901 1.21869,-0.73212 1.84964,-1.36304 0.6438,-0.64416 1.25937,-1.25732 1.84973,-2.04468 0.58233,-0.77667 0.79147,-1.31524 1.26562,-1.94726 0.56089,-0.74823 0.67896,-1.45563 1.07087,-2.23957 0.44836,-0.89721 0.92227,-1.58093 1.65499,-1.94732 0.85236,-0.42645 1.09757,-1.07758 1.84964,-1.26557 1.00553,-0.2517 1.44147,-0.65258 2.33631,-0.8764 0.72516,-0.18146 1.91815,-1.91827 2.33658,-2.33679 0.6145,-0.61475 1.03277,-1.02014 1.65484,-1.85004 0.22956,-0.30609 0.41538,-0.70727 0.68152,-0.97363 0.20584,-0.25739 0.37836,-0.42407 0.5842,-0.68158 0.34531,-0.43183 0.36111,-1.83362 0.48657,-2.33667 0.1788,-0.71552 0.54294,-1.67005 0.87631,-2.33692 0.34247,-0.68505 0.22983,-1.62756 0.58405,-2.3366 0.39422,-0.7884 0.64218,-1.47925 0.97366,-2.14209 0.37027,-0.74091 0.12113,-1.60529 0.48657,-2.33667 0.37604,-0.75202 0.60053,-1.49323 0.87622,-2.04468 0.39472,-0.7898 0.25153,-1.05048 1.26532,-1.5578 0.54221,-0.27094 1.0987,-1.19599 1.55774,-1.65509 0.42838,-0.42865 0.66736,-1.72406 0.87629,-2.14209 0.36514,-0.73041 1.28091,-1.37848 1.75228,-1.8501 0.37278,-0.37293 0.72467,-1.21155 1.07087,-1.55774 0.41418,-0.41418 0.47873,-1.62335 0.58398,-2.04474 0.16818,-0.67175 0.1214,-1.45868 0.29233,-2.14197 0.18805,-0.75287 -0.54709,-1.32586 -0.87631,-1.65533 -0.62482,-0.62482 -1.04297,-1.43933 -1.84958,-2.04471 -0.69376,-0.52038 -1.17725,-0.78778 -1.55765,-1.16818 -0.50046,-0.50055 -1.38858,-0.74289 -2.04456,-1.07095 -0.55978,-0.28015 -1.07028,-0.3895 -1.94693,-0.3895 -0.82321,0 -1.70782,0 -2.53109,0 -0.88788,0 -1.35575,0.19461 -2.14179,0.19461 -0.8389,1.5e-4 -1.40054,0.19489 -2.23892,0.19489 -0.77182,0 -1.56482,0 -2.33643,0 -0.69864,0 -1.22564,-0.3895 -2.04452,-0.3895 -0.8389,0 -0.91403,-0.56955 -1.36286,-1.16843 -0.40185,-0.5361 -1.46737,-0.68155 -2.14172,-0.68155 -0.9151,0 -1.76199,-0.0974 -2.82315,-0.0974 -1.22586,0 -1.42911,0.32514 -2.33658,0.77896 -0.642,0.32114 -1.25561,0.76902 -1.655,1.16843 -0.46502,0.46521 -1.49191,0.75266 -2.04422,0.97363 -0.72607,0.29044 -1.65268,0.17099 -2.33648,0 -0.46579,-0.11648 -0.60883,-0.42407 -0.68143,-0.77902 -0.0728,-0.35458 0,-0.80139 0,-1.26572 0,-0.90152 0.5303,-1.30905 1.07086,-1.84979 0.35165,-0.35193 0.29205,-1.59457 0.29205,-2.14206 0,-1.08795 0.11792,-1.22442 -0.29205,-2.04467 -0.35208,-0.7042 -1.06729,-0.97007 -1.46039,-1.3631 -0.46585,-0.46604 -0.81677,-1.3039 -1.2655,-1.75257 -0.42914,-0.42916 -0.87531,-1.26391 -1.16818,-1.84988 -0.29032,-0.58102 -1.11658,-0.89911 -1.65503,-1.16855 -0.66953,-0.33468 -1.68872,-0.44638 -2.23902,-0.58407 -0.67318,-0.16831 -1.63851,0 -2.33657,0 -0.77161,0 -1.46723,0 -2.23899,0 -0.82455,0 -1.46307,0.19476 -2.23907,0.19476 -0.58136,0 -1.14197,0.38931 -1.94708,0.38931 -0.63446,0 -1.22168,-0.88248 -1.65488,-1.46045 -0.56781,-0.75726 -1.26444,-0.87481 -1.75226,-1.36307 -0.52081,-0.52105 -1.14984,-0.66299 -1.55774,-1.07098 -0.48303,-0.48337 -1.8071,-0.7196 -2.43371,-0.87625 -0.92078,-0.23023 -1.69165,-0.45654 -2.33649,-0.77896 -0.88828,-0.44425 -0.922,-0.87067 -1.36286,-1.75263 -0.37524,-0.75055 -0.68158,-1.16491 -0.68158,-1.94714 0,-0.61987 -0.37838,-1.63333 -0.58401,-2.04468 -0.14859,-0.29748 -0.39264,-0.62228 -0.48669,-0.77905 -0.30143,-0.60303 -0.0414,-0.93634 0.0973,-1.16828 0.13885,-0.23196 0.18844,-0.34246 -0.38926,-0.48678 -0.0702,-0.0175 -1.41992,1.25976 -1.55767,1.36319 -0.61539,0.46149 -1.07764,0.36658 -1.94715,0.58398 -1.28247,0.32083 -1.41812,0.26468 -2.53097,-0.29211 -0.46296,-0.23139 -0.53968,-0.50653 -0.68152,-0.68146 -0.14194,-0.17496 -0.27527,-0.27197 -0.97342,-0.0974 -0.71097,0.17782 -1.2395,0.66849 -1.84982,0.97375 -0.68876,0.34445 -1.04541,0.41907 -1.65497,0.87616 -0.62958,0.47251 -1.75424,0.82913 -2.33646,1.26584 -0.5372,0.40296 -1.96234,-0.34848 -2.23913,-0.48672 -0.73005,-0.36551 -0.74985,-1.63752 -0.87616,-2.142 -0.17041,-0.68195 -0.36481,-0.76499 -0.58408,-0.58429 -0.21893,0.18048 -0.4856,0.67944 -0.68143,1.07101 -0.25168,0.50357 -0.6174,0.64545 -0.97342,0.68149 -0.35608,0.0361 -0.65039,-0.0331 -0.97366,-0.19485 -0.0913,-0.0457 0.0974,-2.04566 0.0974,-2.33655 0,-0.37964 -1.22653,-1.42145 -1.363,-1.55792 -0.36863,-0.36878 -0.60172,-0.27958 -0.77878,0 -0.17691,0.27972 -0.32102,0.73974 -0.48673,1.07098 -0.37918,0.75876 -0.39553,1.68616 -0.58413,2.62888 -0.15927,0.79721 -0.19458,1.63028 -0.19458,2.43417 0,0.55676 -0.48258,0.96942 -0.87613,1.36313 -0.36566,0.36587 -0.42517,-0.14151 -0.38944,-0.87634 0.0357,-0.73475 0.19867,-1.63483 0.0973,-2.142 -0.164,-0.82016 -0.48028,-1.53186 -0.68152,-2.33667 -0.16711,-0.66889 -0.13406,-1.33933 -0.38943,-1.85004 -0.24353,-0.48733 -0.67206,-0.0815 -1.07077,0.48694 -0.39871,0.56808 -0.81305,1.34372 -0.97342,1.55777 -0.62207,0.82944 -1.96008,1.60751 -2.43381,2.23944 -0.224,0.29855 -1.49371,0.79553 -1.84979,0.97357 -0.81818,0.40912 -1.84778,1.62946 -2.53107,2.14191 -0.64978,0.48773 -0.58407,1.87164 -0.58407,2.62903 -6e-5,0.95495 0.31988,0.82031 -0.1947,1.84982 -0.24274,0.48541 -0.6344,0.46225 -0.97358,0.29208 -0.3392,-0.1701 -0.55206,-0.45462 -0.68142,-0.5841 -0.54139,-0.54135 -0.96238,-0.77619 -1.75238,-0.97367 -0.862921,-0.21572 -1.533118,0.21277 -2.239081,0.38923 -0.954285,0.23883 -1.8237,0.65084 -2.725708,0.87646 -0.730865,0.18283 -1.78891,-0.0335 -2.43396,-0.1947 -0.546082,-0.13648 -1.065521,-0.87091 -1.557556,-1.3631 -0.620575,-0.62082 -0.834717,-0.82083 -1.460297,-1.65536 -0.473724,-0.63193 -0.627289,-1.07883 -1.265533,-1.55762 -0.783966,-0.58817 -0.958099,-0.26117 -1.362885,-1.07117 -0.347931,-0.69604 -0.582794,-1.1669 -0.973511,-1.5578 -0.394012,-0.39407 -0.292053,-1.36743 -0.292053,-2.14191 0,-0.75869 -0.194824,-1.71472 -0.194824,-2.53152 0,-0.78778 -0.155518,-1.5958 -0.291931,-2.14206 -0.171051,-0.68423 -0.09732,-1.65546 -0.09732,-2.33685 0,-0.57321 -0.973602,-1.14395 -1.460358,-1.26554 -0.806976,-0.20181 -1.377014,-0.38946 -2.628418,-0.38946 -1.042511,0 -1.883423,0 -2.920563,0 -0.771759,0 -1.564667,0 -2.336426,0 -0.58606,0 -0.733917,-0.12369 -1.070831,-0.29233 -0.133392,0 -0.876282,-2.05414 -0.876282,-2.33652 0,-0.84545 -0.194641,-1.51242 -0.194641,-2.33691 0,-0.80786 -0.148376,-1.56723 -0.292114,-2.14185 -0.158569,-0.63497 -0.106384,-1.39904 -0.292053,-2.14215 -0.168274,-0.67328 0,-1.63858 0,-2.3367 0,-0.84448 0.194733,-1.24722 0.194733,-2.14206 0,-0.59918 0.09732,-1.43789 0.09732,-2.14202 0,-0.90592 -0.510712,-1.56986 -1.265564,-1.9473 -0.658844,-0.32956 -1.453064,-0.19476 -2.238983,-0.19476 -0.804382,0 -1.314301,0.20684 -2.044464,0.38937 -0.82724,0.207 -1.23349,1.13644 -1.557526,1.46075 -0.551514,0.55146 -0.600189,1.4267 -0.778839,2.14194 -0.17099,0.6839 -0.09732,1.65534 -0.09732,2.33682 0,0.38163 -0.854767,1.47184 -0.973663,1.94703 -0.215607,0.86322 -1.3992,1.3814 -1.946869,1.65527 -0.812164,0.40631 -2.210968,-0.0832 -2.823181,-0.38944 -0.500916,-0.25061 -1.394348,-1.69677 -1.654938,-2.04443 -0.421051,-0.56165 -0.883972,-0.98142 -1.265717,-1.36343 -0.519623,-0.5196 -0.98822,-0.79841 -1.557434,-1.55771 -0.44278,-0.59052 -0.763702,-1.23529 -0.973663,-1.65528 -0.369019,-0.73825 -0.471619,-1.23535 -0.876099,-2.04467 -0.36673,-0.73368 -0.848572,-1.50232 -1.265564,-2.33652 -0.46048,-0.9213 -0.476593,-1.353 -1.070984,-1.94739 -0.615387,-0.61575 -0.778717,-1.47443 -0.778717,-2.33691 0,-0.86408 -0.292053,-1.77179 -0.292053,-2.62888 0,-0.78207 -0.292114,-1.51895 -0.292114,-2.33667 1.53e-4,-0.78238 0,-1.51904 0,-2.3367 1.53e-4,-0.72256 0.486786,-1.31848 0.486786,-2.14206 0,-0.8985 -0.194672,-1.29639 -0.194672,-2.14209 0,-1.01651 0.08179,-1.51858 0.486786,-2.53143 0.260742,-0.65216 1.01059,-1.14493 1.265533,-1.65521 0.306244,-0.61264 0.629486,-1.06638 1.070953,-1.65522 0.445984,-0.595 1.131256,-0.94082 1.849609,-1.16827 0.718201,-0.22766 1.462921,-0.41461 2.141632,-0.58411 1.055634,-0.26416 1.943542,-0.14715 2.920654,0.0973 1.059296,0.26496 2.093872,0.38944 3.212555,0.38944 0.538879,0 0.797821,0.26453 1.07077,0.48672 0.27301,0.22242 0.540833,0.42478 1.070892,0.29218 0.539825,-0.1351 0.389496,-1.8775 0.389496,-2.33679 0,-0.55115 -0.215149,-0.84043 -0.194733,-1.07089 0.02029,-0.23056 0.265808,-0.42511 0.778778,-0.68171 0.89801,-0.44888 1.029572,-0.58416 2.141815,-0.58416 0.982574,0 1.901611,0.19479 2.823029,0.19479 0.545837,-9e-5 1.33963,0.62122 1.849823,0.87622 0.49649,0.24841 0.805908,0.2507 1.16806,0.29218 0.362305,0.0414 0.693085,0.17752 1.070923,0.68148 0.51767,0.69046 1.258148,1.16089 1.752319,1.65522 0.539551,0.53982 1.570679,0.83398 2.044434,1.07092 0.34726,0.17386 0.290833,1.94229 0.389465,2.33685 0.187897,0.75214 0.63385,1.36499 0.973419,2.04465 0.474274,0.94873 0.696472,1.98447 1.070831,2.92105 0.268097,0.67023 0.519409,1.33078 0.778961,1.84988 0.409607,0.81971 0.645508,1.19913 1.362701,1.5578 0.590637,0.29529 1.200714,0.32462 1.849823,0.48685 0.768646,0.19226 1.392426,-0.49362 1.752319,-0.97381 0.277496,-0.36997 0.202209,-0.9263 0.09732,-1.46027 -0.104706,-0.53406 -0.304443,-1.05917 -0.486755,-1.36319 -0.575897,-0.96005 -0.403412,-1.89148 -0.778809,-3.01831 -0.295746,-0.88748 -0.910126,-1.73279 -1.362976,-2.33676 -0.451874,-0.60269 -0.535583,-1.65561 -0.876099,-2.3367 -0.36377,-0.72751 -0.592773,-1.29996 -0.778809,-2.0448 -0.18335,-0.73322 -0.231415,-1.50968 -0.389435,-2.142 -0.24408,-0.97656 0.32373,-1.784 0.973419,-2.43396 0.481873,-0.48193 0.545502,-0.81909 0.68158,-1.36325 0.778046,-0.77829 1.195038,-1.70841 1.654999,-2.62863 0.392548,-0.78574 0.584167,-1.42261 0.584167,-2.33692 0,-0.47827 0.441467,-0.97854 0.97345,-1.46054 0.532043,-0.48178 1.15686,-0.95822 1.460266,-1.36301 0.565491,-0.75405 1.341064,-1.51434 1.752319,-2.33676 0.346741,-0.69394 1.033997,-1.21548 1.265594,-2.14199 0.158508,-0.63508 0.106323,-1.39908 0.292053,-2.14209 0.206451,-0.82639 0.385254,-1.54129 0.583984,-2.33667 0.199005,-0.79572 0.189636,-1.48069 0,-2.23951 -0.184753,-0.73932 -0.492828,-1.47268 -0.778778,-2.04467 -0.386139,-0.7725 -0.920563,-1.21256 -1.362854,-1.65528 -0.348816,-0.34881 -0.291931,-1.77701 -0.291931,-2.33655 0,-0.49642 1.488861,-0.48693 1.94693,-0.48693 0.710541,0 1.552887,-0.46119 2.044373,-0.5842 0.454773,-0.11368 1.088867,-1.20438 1.362793,-1.75253 0.342224,-0.6847 0.575073,-1.32673 0.778931,-2.14219 0.220123,-0.88116 -0.194794,-1.56158 -0.194794,-2.33651 0,-0.66553 0.737885,-1.3913 1.265564,-1.65521 0.758972,-0.37973 1.21167,-0.6818 2.141815,-0.6818 0.901036,0 1.660736,0.19477 2.531066,0.19477 1.04029,0 1.27262,-0.3061 1.655,-1.07084 0.28833,-0.57708 0.19464,-1.64898 0.19464,-2.33685 0,-0.78876 -0.0496,-1.56167 -0.19464,-2.14215 -0.11813,-0.47272 0.0926,-0.95496 0.19464,-1.36304 -0.13055,-0.52301 0.93872,-2.10687 1.07087,-2.23925 0.50845,-0.50861 1.06921,-1.02146 1.75235,-1.36316 0.5852,-0.29267 1.26379,-0.77686 1.84979,-1.36307 0.6311,-0.63153 1.17218,-1.3671 1.55758,-1.75253 0.56986,-0.57038 0.65174,-1.13855 1.16813,-1.65528 0.24356,-0.24341 0.13266,1.77951 0,2.04465 -0.18961,0.37942 -0.0926,0.64645 0.0973,0.97382 0.19,0.32696 0.50622,0.66165 0.58422,0.97351 0.12668,0.50647 -0.0837,0.84622 -0.0974,1.07107 -0.0137,0.22461 0.0937,0.3895 0.77872,0.3895 0.96011,0 1.20395,-0.26596 1.55771,-0.97379 0.37747,-0.75519 1.05402,-0.83923 1.75229,-1.3631 0.52872,-0.3966 0.8276,-1.02215 1.36285,-1.55789 0.62915,-0.62933 1.06323,-0.76809 1.655,-1.55777 0.50952,-0.67914 1.18903,-0.69189 1.94702,-1.07092 1.0651,-0.53293 0.57749,-1.2641 1.75229,-1.55789 0.72516,-0.18137 1.18219,-0.8067 1.46036,-1.36301 0.29071,-0.58163 -0.48673,-1.42337 -0.48673,-2.04474 0,-0.99252 -0.26837,-1.36395 -0.77887,-2.04458 -0.27545,-0.36741 -0.54382,-0.43421 -0.77887,-0.38962 -0.23492,0.0446 -0.39492,0.20019 -0.58398,0.38962 -0.46405,0.46414 -0.68155,1.65481 -0.97357,2.23925 -0.4061,0.81235 -0.20175,1.34397 -0.87622,1.85007 -0.49308,0.36969 -1.79334,-1.00452 -2.14179,-1.26584 -0.6112,-0.45862 -1.52655,-0.58423 -2.33627,-0.58423 -0.49979,0 -0.75024,0.19165 -0.97351,0.29206 -0.22336,0.10052 -0.44275,0.0882 -0.77887,-0.58408 -0.26889,-0.53815 -0.17532,-1.67496 -0.29199,-2.14206 -0.1059,-0.42319 -0.3649,-0.600708 -0.48685,-0.778839 -0.12198,-0.178101 -0.042,-0.444855 0.3894,-0.876373 0.56449,-0.564606 0.87616,-0.321686 0.87616,-1.363281 0,-0.784576 0.67948,-1.361969 1.26566,-1.655029 0.76068,-0.380493 0.35068,-0.973602 1.4602,-0.973602 0.77274,0 1.57575,-0.252502 2.04444,-0.486786 0.44238,-0.221497 0.70364,-0.523407 0.68143,-0.778961 -0.022,-0.255493 -0.26255,-0.389465 -0.77887,-0.389465 -0.97394,0 -1.53669,0.584137 -2.53107,0.584137 -0.6145,0 -1.60019,0.670685 -2.14179,0.7789 -0.78021,0.156097 -1.52465,0.08914 -2.33627,0.292175 -0.83588,0.208893 -1.48288,0.857544 -2.33661,1.070862 -0.75259,0.188293 -1.69336,1.419556 -1.84964,2.044739 -0.24332,0.974091 -1.03757,1.816589 -1.75226,2.531523 -0.71353,0.71363 -1.06063,0.73551 -1.75238,0.38944 -0.0919,-0.0458 1.04679,-1.996402 1.26563,-2.434116 0.50348,-1.007019 0.6676,-1.641052 1.55759,-2.531586 0.67569,-0.675629 1.38247,-1.09024 1.94708,-1.655151 0.66311,-0.663147 0.97897,-1.340057 1.84964,-1.55777 0.88736,-0.221893 1.88382,-0.09729 2.82321,-0.09729 0.89142,-2.14e-4 1.4743,-0.389679 2.23901,-0.389679 0.71174,0 1.51249,-0.988068 2.14173,-1.460205 0.72113,-0.541199 1.89422,-0.51535 2.72592,-0.681763 0.94601,-0.189148 1.33856,-0.438019 1.65485,-1.070953 0.34848,-0.69696 1.26889,-0.58725 1.75253,-1.071136 0.34552,-0.345764 0.38733,-0.71286 0.48672,-0.973572 0.0992,-0.260498 0.18155,-0.459076 0.68134,-0.584137 0.76639,-0.191559 1.60953,-0.134674 2.2391,-0.291962 0.6731,-0.168243 1.54117,0 2.23914,0 0.54804,0 0.91071,-0.08267 1.07086,-0.292084 0.16016,-0.209534 0.1948,-0.568665 0.1948,-0.973663 0,-0.760681 -0.43918,-1.41275 -0.97361,-1.947388 -0.61352,-0.613708 -0.94351,-1.205688 -1.363,-2.044678 -0.36167,-0.723724 -0.69211,-1.579285 -0.97342,-2.14209 -0.33206,-0.664276 -0.58423,-1.460571 -0.87622,-2.044556 -0.39264,-0.785889 -1.20127,-1.201019 -1.84964,-1.363251 -0.66477,-0.166046 -1.47174,-0.887573 -1.84973,-1.265686 -0.45987,-0.460052 -0.91202,-0.927399 -1.36286,-1.265686 -0.64657,-0.485046 -0.953,-0.54303 -1.26562,-1.168427 -0.29523,-0.590729 -0.70514,-1.118408 -1.07071,-1.849915 -0.28403,-0.567871 -0.69586,-0.904785 -0.97366,-1.460449 -0.2952,-0.59082 -0.0852,-1.533539 -0.29206,-1.947296 -0.27945,-0.559204 -0.48822,-1.463409 -0.77871,-2.044586 -0.32761,-0.655334 -0.53534,-0.778442 -0.87616,-1.460754 -0.43473,-0.869476 0.0983,-1.361877 -0.48694,-1.947144 -0.55469,-0.554962 -0.58683,-1.023743 -1.26557,-1.363281 -0.41629,-0.207977 -0.58114,-0.399078 -0.77871,-0.486633 -0.19764,-0.08752 -0.40799,-0.03952 -0.87607,0.194763 -0.0844,0.04202 -0.69534,1.488037 -0.77893,1.655151 -0.35324,0.706757 -0.84857,0.848572 -1.55759,1.55777 -0.6539,0.654144 -1.03174,1.090149 -1.36301,1.752625 -0.29281,0.585876 -1.46743,0.192871 -1.84964,0.0975 -0.35287,-0.08829 -0.41867,-0.446198 -0.38934,-0.876312 0.0294,-0.430267 0.0883,-0.912628 0,-1.2659 -0.16824,-0.673218 0,-1.638428 0,-2.336609 1.5e-4,-0.334595 0.36527,-0.343262 0.77887,-0.389526 0.41373,-0.04636 0.9317,-0.15274 1.16821,-0.389465 0.29242,-0.292786 0.46622,-0.456451 0.48676,-0.68161 0.0203,-0.225037 -0.11237,-0.501923 -0.48676,-0.87616 -0.43686,-0.436951 -1.53238,-0.261414 -2.04437,-0.389618 -1.08499,-0.271271 -1.51331,-0.161407 -2.33658,-0.778809 -0.7287,-0.5466 -1.15289,-1.009918 -1.36288,-1.849884 -0.13742,-0.550323 -1.29801,-0.446228 -1.84964,-0.584229 -0.77765,-0.194611 -1.58283,-0.194611 -2.43369,-0.194611 -0.729828,-2.14e-4 -1.285034,0.588928 -2.044373,0.778839 -0.426361,0.10675 -0.785675,-0.07123 -1.070862,-0.09735 -0.285126,-0.02625 -0.519928,0.03473 -0.681427,0.681458 -0.214294,0.856873 -0.559479,1.410919 -0.876221,2.044586 -0.260529,0.520996 -0.292084,1.379211 -0.292084,2.142151 0,0.94873 -0.25705,1.113495 0,2.141998 0.174835,0.699554 -0.06497,1.622833 -0.194794,2.141998 -0.198151,0.79303 0.197418,1.547241 0,2.336853 -0.252716,1.011108 -0.533813,1.365906 -0.0972,2.23941 0.404999,0.810059 0.830933,0.987488 1.070801,1.947174 0.192749,0.771667 -0.292084,1.563263 -0.292084,2.336823 0,0.668732 -0.979401,1.46814 -1.265564,1.849884 -0.35849,0.478302 -0.778717,1.290924 -0.778717,1.947174 -9.2e-5,0.533844 -1.267426,0.925934 -1.557739,1.071136 -0.773315,0.386719 -1.18576,1.029236 -1.654938,1.655151 -0.364746,0.486328 -0.389374,1.643066 -0.389374,2.239502 0,0.761963 -0.194794,1.527161 -0.194794,2.3367 0,0.772034 0,1.56485 0,2.336914 0,0.790344 0.191772,1.180084 0,1.947083 -0.184326,0.737549 -1.073792,1.218567 -1.557526,1.46051 -0.455841,0.228058 -0.890503,-0.02478 -1.168243,-0.389465 -0.277649,-0.364655 -0.486755,-0.885864 -0.486755,-1.168243 9.2e-5,-0.823669 0,-1.708038 0,-2.531677 9.2e-5,-0.657776 -0.194641,-1.435211 -0.194641,-2.141876 0,-0.823547 0,-1.610718 0,-2.434296 0,-0.952789 -0.299011,-1.390411 -0.486847,-2.141876 -0.1185,-0.473999 -1.195984,-1.196136 -1.557587,-1.557861 -0.530518,-0.530548 -1.250488,-0.966125 -1.849731,-1.265839 -0.492767,-0.246277 -1.204254,-0.912323 -1.557617,-1.265686 -0.742615,-0.74295 -1.198883,-1.034973 -1.557556,-1.752625 -0.37088,-0.741943 -1.339813,-0.876221 -2.141785,-0.876221 -0.849854,6.1e-5 -1.681427,-0.190216 -2.336395,-0.681427 -0.471252,-0.353485 -0.584167,-1.541595 -0.584167,-2.044861 0,-0.976868 -0.117279,-1.755768 -0.291931,-2.628723 -0.143402,-0.716736 -0.05926,-1.710236 0.09732,-2.3367 0.21933,-0.878052 1.172028,-1.565613 1.460175,-2.142059 0.402893,-0.80603 1.682373,-1.390381 2.336487,-2.044647 0.628845,-0.629059 0.966705,-1.552643 1.752319,-2.142151 0.994965,-0.746552 2.028687,-1.306213 3.115173,-1.849976 0.57428,-0.287109 0.649994,-1.10498 0.876221,-1.557648 0.405121,-0.810516 0.655823,-1.532104 1.168243,-2.044739 0.628174,-0.62851 1.179077,-1.179047 1.752319,-1.752716 0.497162,-0.497192 1.890472,-0.389343 2.141754,-0.389343 0.343201,0 0.96991,1.842682 1.07077,2.044708 0.213135,0.426147 0.374969,0.662201 0.68158,0.778839 0.306488,0.116882 0.778534,0.08267 1.168182,0 0.779175,-0.164978 1.676453,-0.576233 2.7258,-0.87616 0.584442,-0.167114 1.283447,-1.274658 1.84964,-1.558044 0.551025,-0.27536 0.584076,-1.562622 0.584076,-2.239319 0,-0.888336 -0.09723,-1.355804 -0.09723,-2.141937 0,-0.441559 -1.289337,-0.936707 -1.557648,-1.071075 -0.375946,-0.187988 -0.411041,-0.6203 -0.291992,-1.070923 0.118744,-0.450836 0.413513,-0.900635 0.584076,-1.070984 0.482391,-0.482697 1.316864,-0.816132 1.94693,-0.973755 0.837494,-0.209351 1.604675,-0.169525 2.239075,-0.486847 0.684784,-0.342346 0.86673,-0.769318 1.363061,-1.265686 0.77118,-0.771454 0.84873,-1.253448 1.07071,-2.141998 0.16324,-0.653076 0.0765,-1.668823 0.19464,-2.141937 0.19675,-0.787018 0.94666,-1.521759 1.26566,-1.947449 0.23437,-0.312561 0.33102,-0.586792 0.58417,-0.7789 0.25296,-0.1922 0.57791,-0.292114 1.16827,-0.292114 0.5618,0 0.92654,0.02493 1.16812,0.194855 0.24155,0.169586 0.38324,0.474548 0.58411,0.87616 0.28839,0.577148 0.0974,1.649048 0.0974,2.336914 0,0.826904 -0.64255,1.129211 -1.07092,1.557678 -0.38758,0.387665 1.35785,1.213287 1.55764,1.36319 0.31009,0.232391 0.13779,0.732483 -0.19464,1.265686 -0.33261,0.533234 -0.81588,1.047607 -0.87622,1.168427 -0.25387,0.507629 -0.89798,1.016968 -1.2655,1.752625 -0.48911,0.978302 -0.58579,1.120026 -1.94714,1.460449 -0.88266,0.22052 -1.60373,0.899292 -2.14164,1.168182 -0.384362,0.192352 -0.399895,0.464081 -0.292168,0.778992 0.107908,0.314972 0.274198,0.663818 0.389428,0.7789 0.67487,0.674988 0.96625,0.655487 1.84973,0.876312 1.04932,0.262543 1.42261,-0.05023 2.04429,0.778961 0.42248,0.563385 0.59707,0.804565 0.87622,1.363098 0.39639,0.793335 0.85421,1.27533 1.07092,2.141937 0.096,0.384491 1.54181,0.527649 2.04428,0.778961 0.65399,0.327057 1.67325,0.39856 2.23917,0.681641 0.71658,0.358368 1.04596,0.57782 1.84964,0.77887 0.64898,0.162262 0.86154,0.483093 1.65493,0.68158 0.4737,0.11853 0.76697,0.15448 0.97358,0 0.2066,-0.154633 0.28451,-0.457092 0.38934,-0.876251 0.0869,-0.348022 -0.29453,-0.77951 -0.68149,-1.070923 -0.38675,-0.291565 -0.7699,-0.433838 -0.87616,-0.487 -0.81543,-0.407867 -1.13306,-0.549042 -1.655,-1.070953 -0.42322,-0.423645 -0.61279,-0.794617 -0.58407,-1.071136 0.0288,-0.276215 0.27606,-0.470764 0.58407,-0.778748 0.29956,-0.299622 0.6214,-0.204865 0.97367,0 0.35202,0.204712 0.74728,0.552612 0.87606,0.681488 0.33741,0.337555 0.73392,0.243927 1.07087,0 0.33706,-0.243958 0.54107,-0.704041 0.58419,-0.876312 0.15464,-0.61908 0.29193,-1.026245 0.29193,-1.947327 0,-0.963165 -0.64321,-1.126465 -0.38934,-2.14209 0.10694,-0.428192 -0.25641,-0.747955 -0.68158,-0.973572 -0.42502,-0.225525 -0.92444,-0.401367 -1.16809,-0.584259 -0.78354,-0.587585 -1.16177,-0.57077 -1.55771,-1.363068 -0.28519,-0.570587 -0.0915,-0.872742 0.1948,-0.973328 0.28631,-0.101013 0.6557,-0.05542 0.87622,0 0.88525,0.22113 1.04611,0.656464 1.65478,1.265594 0.69293,0.692963 0.68845,1.074341 1.46036,1.460449 0.74423,0.372192 0.74185,0.973663 1.55749,0.973663 0.5185,0 0.58429,-1.570313 0.58429,-2.0448 0,-0.832245 -0.38949,-1.448303 -0.38949,-2.336761 0,-0.352539 0.82217,-0.962433 0.97357,-1.265686 0.23016,-0.460663 0.20743,-0.863464 0,-1.168427 -0.20758,-0.305023 -0.56784,-0.56778 -0.77884,-0.778809 -0.55499,-0.555206 -1.0311,-0.796692 -1.36294,-1.460602 -0.38025,-0.760895 -1.18729,-1.089996 -1.84964,-1.752411 -0.10007,-0.200378 -0.43177,0.009 -0.77887,0.09726 -0.3469,0.08816 -0.68943,0.06552 -0.87616,-0.681458 -0.17899,-0.717041 0.22778,-1.689728 0.38943,-2.336945 0.18411,-0.736084 0.60172,-0.946136 0.77887,-1.655182 0.13886,-0.555969 0.44388,-0.716675 0.58408,-0.876099 0.14019,-0.159576 0.17025,-0.341095 -0.0974,-0.876465 -0.18711,-0.374329 -1.18378,-0.786499 -1.55759,-0.973511 -0.61945,-0.310028 -1.00864,-0.813904 -1.36301,-1.168549 -0.34128,-0.34137 -0.19455,-1.815491 -0.19455,-2.3367 0,-0.38974 -0.18768,-0.702362 -0.48694,-0.876312 -0.29904,-0.173553 -0.65722,-0.231232 -0.97335,-0.389282 -0.56009,-0.280334 -1.20231,-0.292114 -2.04459,-0.292114 -0.67276,0 -1.71079,-0.135864 -2.33627,-0.292023 -0.71906,-0.180023 -1.65967,0.171417 -2.14167,0.292023 -0.67318,0.168304 -1.6387,0 -2.33651,0 -0.79792,0 -1.08341,-0.295227 -1.84964,-0.486938 -0.493866,-0.123474 -1.632324,0.864777 -2.044434,1.070923 -0.417755,0.209106 -0.596863,0.05441 -0.681274,-0.29187 -0.08472,-0.34668 -0.0975,-0.832184 -0.0975,-1.168518 0,-0.772064 0,-1.564697 0,-2.336823 0,-0.328644 -0.240021,-0.504211 -0.584076,-0.584137 -0.343964,-0.07986 -0.772186,-0.09741 -1.070923,-0.09741 z m 84.403657,9.444458 c -0.41461,0.08579 -0.76428,0.428802 -0.87622,0.87616 -0.12988,0.519775 -0.19336,1.260376 -0.29199,1.655304 -0.0309,0.12384 -1.92533,-0.242432 -3.01795,0.194824 -0.46209,0.184875 -1.12475,0.475922 -1.55765,0.584137 -0.59423,0.148468 -0.41626,0.574341 -0.2919,1.071075 0.15515,0.620819 1.90131,0.743011 2.43372,0.876312 0.37268,0.09308 0.87402,0.776611 1.2655,1.168396 0.38956,0.389832 1.05155,0.666992 1.46027,0.973511 0.31811,0.238617 0.65384,0.945923 1.07086,1.36319 0.43289,0.433167 1.17893,0.635345 1.75229,0.778809 0.69421,0.173737 1.12881,-0.19458 1.84973,-0.19458 0.58816,0 1.10165,0.291992 1.75235,0.291992 0.6741,0 1.14355,-0.291992 1.75229,-0.291992 0.49576,0 0.69742,-0.800049 0.97351,-1.168274 0.36191,-0.482849 0.3895,-1.229675 0.38943,-1.850128 0,-0.573944 -0.18792,-1.141357 -0.29208,-1.557861 -0.12375,-0.495239 -1.10202,-0.7435 -1.36294,-1.265778 -0.32743,-0.655243 -0.34702,-0.820221 -1.07078,-1.363037 -0.49359,-0.370117 -1.38806,-0.791504 -1.75235,-0.973572 -0.5787,-0.289429 -1.00094,-0.53183 -1.46035,-0.876373 -0.30399,-0.22821 -0.76587,-0.292114 -1.2656,-0.292114 -0.32736,0 -0.74319,0 -1.07086,0 -0.14432,-0.03604 -0.25125,-0.0285 -0.38928,0 z m 34.26749,12.56012 c -0.62775,0.08231 -0.77878,1.027679 -0.77863,1.849915 0,0.828949 -1.11087,1.587799 -1.46036,1.849823 -0.48074,0.360626 1.94962,1.315216 2.14179,1.363312 0.82156,0.205414 1.50442,0.904358 2.33633,1.070923 0.6001,0.120056 1.59409,0.773956 2.33652,1.070923 0.42584,0.170532 0.55844,0.794922 0.68136,1.460602 0.1233,0.665436 0.19465,1.342651 0.19465,1.752625 0,0.846832 -0.005,1.733398 0.19479,2.531525 0.2081,0.832245 0.44244,1.15033 0.1947,2.141785 -0.11828,0.473877 -0.17572,0.835571 -0.1947,1.168488 -0.0189,0.332977 0.0332,0.617401 0.38934,0.973572 0.63965,0.639984 2.44058,0.298859 3.21274,1.071075 0.76425,0.764679 1.36099,1.282623 2.23898,2.336761 0.45038,0.540588 -0.0416,1.516083 0.58408,2.141998 0.4295,0.429657 1.85361,0.510345 2.33643,0.389526 0.3403,-0.08518 0.50308,-2.011902 0.58416,-2.336914 0.10184,-0.40744 0.70072,-0.620605 1.36292,-0.681458 0.66214,-0.06082 1.42322,0.03024 1.75229,0.194763 0.58526,0.292694 0.6474,1.20694 0.48687,1.849884 -0.12106,0.484436 -0.0188,0.803131 0.19464,1.071136 0.21347,0.267731 0.52866,0.507874 0.87613,0.681641 0.64069,0.320221 1.49753,0.209564 1.94709,0.0972 0.71426,-0.17865 1.0346,-1.193115 1.36285,-1.849976 0.22263,-0.445221 0.31766,-0.780731 0.38944,-1.070923 0.0718,-0.290131 0.12152,-0.547516 0.58413,-0.778961 0.65467,-0.327545 0.95954,-0.834686 0.77872,-1.558044 -0.19675,-0.787781 -0.41763,-1.516602 -0.77872,-2.239197 -0.48034,-0.960663 -1.4945,-1.315735 -2.33642,-1.947205 -0.64322,-0.482941 -0.57758,-0.655365 -0.77893,-1.460541 -0.13504,-0.541504 -1.06266,-0.969482 -1.65485,-1.265839 -0.5452,-0.272583 -0.90247,-1.230042 -1.55759,-1.557861 -0.95181,-0.475922 -1.86453,-0.619385 -2.72592,-1.265533 -0.87579,-0.657013 -1.64493,-0.893036 -2.5311,-1.558014 -0.85638,-0.642426 -1.60782,-1.413025 -2.33642,-2.141937 -0.7186,-0.718781 -1.422,-1.032776 -1.94699,-1.5578 -0.6446,-0.644836 -1.65421,-1.022034 -2.33643,-1.363159 -0.88177,-0.440826 -1.37677,-0.959686 -2.14172,-1.265778 -0.92401,-0.369598 -1.58167,-0.468597 -2.43396,-0.68161 -0.29102,-0.07257 -0.61869,-0.332245 -0.87592,-0.486725 -0.11014,-0.02759 -0.20258,-0.01169 -0.2923,0 z M 128.86533,86.9758 c -0.26038,0.260559 -0.74134,0.03009 -1.0708,0.194672 -0.35315,0.176819 -0.50458,0.850037 -0.58408,1.168579 -0.13083,0.522644 -0.0852,1.009827 -0.19479,1.557861 -0.12464,0.62265 0.0622,1.61142 0.19479,2.141846 0.10492,0.419983 -0.56903,0.943268 -0.77899,1.363098 -0.21598,0.432465 -0.49301,0.787354 -0.77863,1.168427 -0.33545,0.447418 -0.2843,1.421173 -0.38952,1.947235 -0.12525,0.626831 -0.15604,1.111115 -0.292,1.655365 -0.10321,0.412476 -0.0974,0.82016 -0.0974,1.265747 0,0.336945 0.80017,0.54599 1.07093,0.68155 0.29034,0.14517 0.44394,-0.200135 0.58407,-0.584199 0.14005,-0.384338 0.25708,-0.841339 0.4867,-1.071075 0.46981,-0.469849 0.71338,-0.681549 1.36294,-0.681549 0.42511,0 0.8804,-0.09732 1.36286,-0.09732 0.26992,0 0.82412,0.16861 1.07095,0.292023 0.46854,0.234344 0.75455,0.462463 1.07077,0.77887 0.37656,0.37677 0.2659,0.821075 0.87631,0.973816 0.49661,0.124084 0.81091,0.389434 1.36276,0.389434 0.56604,0 1.08902,0 1.65515,0 0.41172,0 0.84931,0 1.26542,0 0.59335,0 0.58422,-0.377501 0.58422,-0.973876 0,-0.523712 0.0759,-0.887787 0.19465,-1.362946 0.12115,-0.485352 -0.10483,-0.808441 -0.19465,-1.168549 -0.10571,-0.422821 -0.79971,-0.897003 -1.07101,-1.168213 -0.60498,-0.605194 -1.26907,-0.501007 -1.4602,-1.265991 -0.0891,-0.355621 0.0974,-0.88443 0.0974,-1.265533 0,-0.370911 0.0973,-0.751617 0.0973,-1.168335 0,-0.498413 -0.31293,-0.723419 -0.48664,-1.071014 -0.21475,-0.429413 -0.61502,-0.389374 -1.07101,-0.389435 -0.42847,0 -1.03632,-0.109955 -1.46021,-0.194824 -0.47924,-0.09592 -0.7452,-0.06378 -1.0707,-0.389526 -0.35669,-0.356476 -0.68158,-0.3013 -0.68158,-0.87619 0,-0.300751 -0.20624,-0.629944 -0.292,-0.973572 -0.10214,-0.408447 -0.18509,-0.552673 -0.48687,-0.778961 -0.18119,-0.135956 -0.67261,-0.09741 -0.87613,-0.09741 z m 144.76132,3.699921 c -0.49732,0.07175 -0.51398,1.877106 -1.07086,2.434204 -0.5145,0.514587 -1.03974,0.650238 -1.46027,1.070679 -0.72269,0.723053 -1.59317,1.398895 -2.33646,2.142303 -0.63684,0.637085 -0.74139,1.901947 -1.07083,2.726288 -0.23584,0.589691 0,1.880985 0,2.531525 0,0.827 -0.94928,2.12991 -1.26559,2.92065 -0.19846,0.49646 -0.36542,0.72321 -0.68143,0.87641 -0.31598,0.15335 -0.72897,0.1579 -1.26556,0.29211 -0.87189,0.21793 -1.57672,0.39893 -2.33643,0.77905 -0.55478,0.27729 -0.9815,1.47623 -1.2655,2.04465 -0.2941,0.58838 -0.13184,1.6955 -0.29202,2.33661 -0.25983,1.03955 -0.19971,2.21463 0,3.21292 0.16317,0.8165 0.29126,1.55444 0.48672,2.33698 0.21149,0.84585 -0.15643,1.59921 -0.29208,2.14178 -0.20456,0.81857 -0.48596,1.55484 -0.68149,2.33692 -0.19852,0.7947 0.77887,1.58865 0.77887,2.43417 0,0.89105 0.22842,1.71478 0,2.62888 -0.14874,0.59448 0.13348,1.46377 0.48672,2.33667 0.35321,0.87289 0.83313,1.77496 0.97342,2.3367 0.0967,0.38693 -2.01706,2.95037 -2.23901,3.50518 -0.28189,0.70481 -0.69196,1.64032 -1.16815,2.43418 -0.48123,0.80237 0.0974,1.70764 0.0974,2.53152 0,0.85852 0.19455,1.80832 0.19455,2.72623 0,1.12775 0.19479,2.28516 0.19479,3.40784 0,1.00964 -1.02472,2.44366 -1.26556,3.40759 -0.22876,0.91537 0.0164,2.07724 0.38949,2.82385 0.27817,0.55664 -0.22695,1.97757 -0.38949,2.62857 -0.27414,1.09647 0.29205,2.32468 0.29205,3.40775 0,0.15436 0,0.33246 0,0.48697 0,1.50314 1.22775,3.51086 1.55759,5.16021 0.18036,0.90241 -0.32581,1.40088 -0.48673,2.04474 -0.24676,0.98703 0.28766,1.73508 0.48673,2.53138 0.32257,1.29052 0.0634,2.40463 -0.48673,3.50518 -0.27749,0.55533 -0.28323,0.97715 -0.1947,1.46051 0.0887,0.48352 0.29349,0.97702 0.4867,1.46054 0.37353,0.9339 0.0392,2.20118 0.29208,3.21299 0.21527,0.86126 -0.0974,2.42794 -0.0974,3.40777 0,0.70639 -0.28482,1.04007 -0.48673,1.46045 -0.2019,0.42035 -0.31112,0.89713 -0.0974,1.75263 0.0513,0.20587 0.0457,0.47552 0.0974,0.68139 0.17984,0.71918 1.67798,2.23242 2.33628,2.72629 0.4595,0.3446 0.59396,0.71454 0.68146,1.07114 0.0879,0.35662 0.0976,0.71264 0.0976,1.26577 0,1.16819 0.12705,1.87931 0.87601,2.62879 0.45813,0.45831 1.34259,0.39468 1.84988,1.07107 0.41626,0.55512 0.38925,2.11328 0.38925,2.82349 0,0.86682 0.0226,1.36469 0.29215,1.84988 0.26935,0.4852 0.76587,0.96067 1.36288,1.55787 0.25721,0.25732 0.52146,0.42416 0.77878,0.68148 0.61121,0.61158 0.72104,1.69489 1.36286,2.33676 0.59549,0.59577 1.52243,1.34549 2.33663,1.75263 0.49115,0.24567 1.0029,0.0755 1.46009,-0.19476 0.45709,-0.2703 0.84076,-0.63056 1.16836,-0.87638 0.9595,-0.71954 1.6716,-1.39639 2.14169,-2.3367 0.63697,-1.2742 1.75995,-2.66687 2.04422,-4.08923 0.10941,-0.54712 0.26239,-0.90079 0.58423,-1.16843 0.32175,-0.26755 0.82523,-0.46139 1.26551,-0.68155 0.7861,-0.39309 1.52877,-1.24997 1.94699,-1.94732 0.46069,-0.7681 1.28921,-1.28427 2.14181,-1.07089 0.65793,0.16458 1.11692,0.65039 1.46012,1.16818 0.34329,0.518 0.64907,1.03778 0.77902,1.55807 0.20819,0.83301 -0.63446,1.85309 -0.97366,2.53131 -0.56821,1.13697 -0.30207,1.99298 -1.07077,3.01831 -0.6865,0.91553 -1.03019,2.25507 -1.4603,3.11567 -0.58084,1.16217 -0.43161,2.93716 -0.68143,4.18679 -0.11111,0.55558 -0.50808,1.65992 -0.77884,2.3367 -0.31549,0.78885 -0.68152,2.28858 -0.68152,3.11564 0,1.09518 -1.14392,1.99572 -1.65487,3.01825 -0.6059,1.21197 -1.05896,2.45303 -1.55762,3.69995 -0.37747,0.94394 -0.83801,1.94851 -1.36288,2.82354 -0.46622,0.77747 -0.8599,1.58988 -1.07093,2.43418 -0.19439,0.77792 -0.70849,1.41714 -1.07077,2.142 -0.34314,0.68627 -0.40484,1.39358 -0.77887,2.14209 -0.69473,1.38952 -2.24527,3.80297 -3.40729,4.96554 -1.00177,1.00223 -2.30136,2.36368 -2.82321,3.40768 -0.34247,0.68528 -0.55581,1.20929 -0.87631,1.85013 -0.46713,0.93482 -1.09082,1.98728 -1.65478,3.11557 -0.39435,0.78891 -1.07639,1.1792 -1.46042,1.94748 -0.3982,0.79651 -0.57914,1.12534 -0.68128,1.55765 22.25946,-26.08563 35.8252,-59.91901 35.8252,-96.87796 0,-18.86142 -3.63977,-36.83344 -10.0271,-53.453308 -0.65097,0.05121 -1.80274,0.292084 -2.53137,0.292084 -0.46906,2.44e-4 -0.81714,0.362091 -1.07068,0.778809 -0.25367,0.416901 -0.40366,0.933472 -0.48682,1.26593 -0.23074,0.923126 -0.18133,1.971255 0.0974,2.920895 0.27875,0.9495 0.74475,1.81571 1.26547,2.3367 0.39469,0.39469 0.63337,0.7779 0.58417,1.07089 -0.0492,0.29319 -0.3439,0.48697 -0.97351,0.48697 -0.68179,6e-5 -1.08005,-0.10882 -1.36291,-0.29205 -0.28281,-0.18326 -0.43094,-0.431 -0.77881,-0.77896 -0.65967,-0.66003 -1.2601,-1.21417 -2.14179,-1.65512 -0.77933,-0.38983 -1.4454,-0.7229 -2.14163,-1.07108 -0.50064,-0.25039 -0.92627,-1.657802 -1.1683,-2.141933 -0.38053,-0.761261 -0.68128,-1.528381 -0.68128,-2.434387 -6e-5,-0.615448 -0.62768,-1.547028 -0.87628,-2.044525 -0.301,-0.602234 -0.71869,-1.242523 -1.0708,-1.947174 -0.39362,-0.787476 -0.75397,-1.32016 -1.46051,-1.849884 -0.0899,-0.06769 -0.12338,-0.107758 -0.19458,-0.0975 z M 89.048706,171.78076 c -0.108154,0.0474 -0.241669,0.14417 -0.389435,0.29206 -0.430878,0.43075 -0.330261,0.34686 -1.070831,-0.0974 0.160339,0 2.032715,2.2522 2.433716,2.92099 0.188812,0.31467 0.727875,0.41208 1.265533,0.38938 0.537842,-0.023 1.055359,-0.13321 1.363068,-0.19477 0.689209,-0.13784 0.86969,-0.54901 0.778717,-0.97357 -0.091,-0.4248 -0.453522,-0.90832 -0.778717,-1.07116 -0.844055,-0.42228 -1.421631,-0.74494 -2.336517,-0.97348 -0.756805,-0.18946 -0.941376,-0.43454 -1.265534,-0.29206 z m 1.752319,6.52329 c -0.575836,0.104 -1.442352,0.46884 -1.752319,0.77896 -0.244324,0.24438 -0.04236,0.70184 0.194641,1.16833 0.237,0.46653 0.574829,0.8577 0.681458,1.07117 0.298431,0.5968 2.067169,0.77881 2.725952,0.77881 0.553467,0 0.804291,-0.25006 0.876007,-0.58414 0.0719,-0.33426 -0.01266,-0.73214 -0.09729,-1.07107 -0.152405,-0.6098 -0.905457,-1.19766 -1.265594,-1.5578 -0.366547,-0.36679 -0.04187,-0.0836 -0.87619,-0.58426 -0.115265,-0.0288 -0.294769,-0.0348 -0.486664,0 z m -7.885468,5.25787 c -1.113312,-0.003 -2.157959,0.0322 -3.212616,0.87631 -1.280182,1.02411 -2.830566,2.88465 -3.699249,3.21292 0.192108,0.48056 0.345825,0.89667 0.681366,1.07087 0.335449,0.17453 0.843933,0.16229 1.362976,-0.0973 0.850647,-0.42539 1.416687,-0.61097 2.141754,-0.97352 0.751678,-0.37597 1.330566,-0.68154 2.141754,-0.68154 1.040955,0 1.735718,0.36087 2.628357,0.58413 0.674927,0.1687 1.18927,0.39978 1.947052,0.7789 0.787933,0.39408 1.510468,0.73163 2.141754,1.36325 0.613373,0.61332 1.745514,0.91962 2.336395,1.36289 0.607117,0.45563 1.727081,0.94842 2.336517,1.55792 0.394958,0.39514 1.230194,1.24799 1.84964,1.55795 0.6539,0.32691 1.211945,0.2601 1.752289,0.0973 0.540253,-0.16308 1.098907,-0.38946 1.849731,-0.38961 0.547638,0 1.475983,0.0545 2.336393,0.0974 0.86029,0.0428 1.6138,0.0413 1.94693,-0.29212 0.207,-0.20691 0.49176,-0.48816 0.58417,-0.77881 0.0924,-0.29058 -0.007,-0.53738 -0.58417,-0.68139 -0.82297,-0.20603 -1.54812,-0.46021 -2.43368,-0.68179 -1.225589,-0.30637 -0.83759,-0.85679 -1.849643,-1.36301 -1.146484,-0.57343 -1.486115,-0.73657 -2.823242,-1.07117 -0.875916,-0.21899 -2.203857,-0.35388 -2.920563,-1.07086 -0.644806,-0.64508 -0.99057,-1.80975 -1.654877,-2.14215 -1.161835,-0.581 -2.050354,-1.38361 -3.407288,-1.65518 -1.354248,-0.27085 -3.010376,-0.68158 -4.38092,-0.68134 -0.404083,0 -0.699646,8.3e-4 -1.07083,0 z m 25.992863,8.86005 c -0.2211,-0.02 -0.46106,0.0421 -0.68158,0.0974 -0.905,0.22632 -3.26813,0.0137 -3.40735,0.29205 -0.15427,0.25724 -0.35242,0.5105 -0.48657,0.7789 -0.31308,0.62622 -0.26053,0.8291 -0.0975,0.97373 0.16309,0.14447 0.47003,0.17788 0.77887,0.48678 0.11566,0.11588 0.39038,0.495 0.48676,0.87631 0.0963,0.38141 0.003,0.77717 -0.38941,0.97367 -0.0877,0.0438 -1.98251,1.00009 -1.94699,1.07098 0.25668,0.5134 0.5202,0.68143 1.65485,0.68143 0.94433,0 1.5939,0.12433 2.43387,0.29223 0.56506,0.11301 1.80108,0.42609 2.33633,0.29218 1.2659,-0.31665 2.21204,-0.65457 3.018,-1.4606 0.67988,-0.68024 0.6905,-0.36731 1.94703,-0.68146 0.43466,-0.10883 0.95547,-0.0894 1.2655,-0.19476 0.31018,-0.10532 0.48678,-0.32569 0.48678,-0.87641 0,-0.58456 -0.67373,-1.363 -1.46035,-1.363 -0.68875,0 -1.60529,0.0249 -2.23896,-0.29203 -0.88098,-0.44082 -0.88726,-1.19562 -1.94705,-1.46054 -0.49765,-0.12463 -1.08911,-0.42639 -1.75223,-0.48685 z m 11.09787,3.40765 c -0.30664,-0.0767 -0.46964,0.3678 -0.48655,0.87656 -0.0172,0.50851 0.14356,1.06149 0.19455,1.26559 0.11292,0.45194 1.69718,0.68143 2.23917,0.68143 0.5416,0 0.97528,0.0158 1.16818,-0.0973 0.19287,-0.11322 0.13565,-0.31268 -0.0975,-0.7789 -0.32858,-0.65753 -0.52103,-1.4289 -1.16809,-1.75263 -0.53427,-0.26699 -1.26737,-0.19452 -1.84979,-0.19476 z m 8.76165,0.68155 c -0.15954,0.11816 -0.24957,0.547 -0.1947,0.97376 0.055,0.42681 0.27713,0.7994 0.97357,0.97372 0.68616,0.17166 1.6984,0.11066 2.14173,0 0.35995,-0.0901 0.22027,-0.38361 -0.0974,-0.77911 -0.31757,-0.39524 -0.73877,-0.80756 -1.07077,-0.97336 -0.39866,-0.19956 -1.15949,-0.19501 -1.655,-0.19501 -0.0403,-0.0201 -0.0517,-0.0335 -0.0974,0 z m -31.833828,0.97376 c -0.129578,0.008 -0.358093,0.0974 -0.486786,0.0974 -0.129578,-0.10624 -1.502838,-0.0274 -2.141632,0.29232 -0.446411,0.22303 -0.737885,0.43976 -0.876221,0.68131 -0.138123,0.24152 -0.145447,0.58514 0.09729,1.07107 0.25354,0.50708 0.285706,0.84189 0.389557,1.07102 0.103485,0.22894 0.301117,0.34311 0.876221,0.48688 0.93396,0.23342 1.774658,0.52432 2.628296,0.0974 0.659882,-0.33011 0.97348,-1.28348 0.973633,-2.04468 0,-0.93951 -0.262817,-1.45322 -1.070923,-1.65533 -0.124878,-0.0312 -0.259857,-0.10511 -0.389435,-0.0974 z m 35.922578,3.50509 c -0.4978,0.10578 -0.41141,0.85419 0.0975,1.36319 0.60718,0.6073 1.24314,0.4007 1.65485,0.19476 0.44836,-0.22433 0.27771,-0.59613 -0.0973,-0.87631 -0.37506,-0.28018 -0.94492,-0.48111 -0.97357,-0.48678 -0.29355,-0.14692 -0.51551,-0.23005 -0.68149,-0.19486 z m 3.01785,4.28409 c -0.26135,0.20251 -1.07071,0.86642 -1.07071,1.26584 0,0.38025 0.39588,0.37729 0.87607,0.29208 0.4802,-0.0855 0.9928,-0.25305 1.07092,-0.29208 0.45084,-0.22562 -0.36288,-0.93665 -0.77877,-1.26584 -0.0147,0.007 -0.0729,-0.012 -0.0975,0 z m 0.58423,3.50525 c 0.0163,0.027 0.0786,0.16498 0.0973,0.19461 0.0726,-0.0607 0.10874,-0.18961 0.0975,-0.19461 -0.009,-0.004 -0.10931,-0.0428 -0.19476,0 z m 0.0973,0.19461 c -0.34387,0.28839 -1.42349,1.02145 -1.55755,1.5578 -0.11411,0.4566 1.901,-0.0742 1.94699,-0.0972 0.45208,-0.22616 -0.091,-0.98779 -0.38944,-1.4606 z m 4.0889,1.07092 c -0.0445,0.46155 -0.52957,1.72055 -0.0974,2.0448 0.63739,0.47821 0.9281,0.3422 1.07086,0.0973 0.14273,-0.24484 0.12762,-0.62097 0,-0.87616 -0.24378,-0.48776 -0.52612,-0.80905 -0.97342,-1.2659 z"
           id="path6111" /><path
           style="fill:url(#radialGradient3969);fill-rule:nonzero;stroke-width:20;stroke-linecap:round;stroke-linejoin:round;stroke-miterlimit:4;stroke-dashoffset:50;marker-start:none;marker-mid:none;marker-end:none"
           inkscape:connector-curvature="0"
           stroke-miterlimit="4"
           d="m 273.73496,93.712463 c 0,0 -39.08072,-3.787323 -65.96912,15.659397 -26.8884,19.44671 -41.5845,62.12747 -72.81531,75.06372 C 72.488922,210.30801 23.888504,197.20224 23.888504,197.20224 -4.674683,128.24463 28.109207,49.09729 97.066833,20.534119 166.02444,-8.029052 245.17178,24.754822 273.73495,93.712464 Z"
           id="path3339" /></g></g></g></g></svg>