<?xml version="1.0" encoding="UTF-8" standalone="no"?>
<!-- Generator: Adobe Illustrator 19.0.0, SVG Export Plug-In . SVG Version: 6.00 Build 0)  -->

<svg
   xmlns:dc="http://purl.org/dc/elements/1.1/"
   xmlns:cc="http://creativecommons.org/ns#"
   xmlns:rdf="http://www.w3.org/1999/02/22-rdf-syntax-ns#"
   xmlns:svg="http://www.w3.org/2000/svg"
   xmlns="http://www.w3.org/2000/svg"
   xmlns:sodipodi="http://sodipodi.sourceforge.net/DTD/sodipodi-0.dtd"
   xmlns:inkscape="http://www.inkscape.org/namespaces/inkscape"
   version="1.1"
   id="Layer_1"
   x="0px"
   y="0px"
   viewBox="0 0 12 12"
   xml:space="preserve"
   sodipodi:docname="cross_red.svg"
   width="12"
   height="12"
   inkscape:version="0.92.3 (2405546, 2018-03-11)"><metadata
   id="metadata1018"><rdf:RDF><cc:Work
       rdf:about=""><dc:format>image/svg+xml</dc:format><dc:type
         rdf:resource="http://purl.org/dc/dcmitype/StillImage" /><dc:title></dc:title></cc:Work></rdf:RDF></metadata><defs
   id="defs1016" /><sodipodi:namedview
   pagecolor="#ffffff"
   bordercolor="#666666"
   borderopacity="1"
   objecttolerance="10"
   gridtolerance="10"
   guidetolerance="10"
   inkscape:pageopacity="0"
   inkscape:pageshadow="2"
   inkscape:window-width="1366"
   inkscape:window-height="703"
   id="namedview1014"
   showgrid="false"
   fit-margin-top="0"
   fit-margin-left="0"
   fit-margin-right="0"
   fit-margin-bottom="0"
   showborder="false"
   inkscape:zoom="1.7430481"
   inkscape:cx="39.29923"
   inkscape:cy="73.435604"
   inkscape:window-x="0"
   inkscape:window-y="260"
   inkscape:window-maximized="1"
   inkscape:current-layer="Layer_1" />
<path
   id="XMLID_90_"
   d="M 0.18530763,10.025545 1.9744745,11.814702 C 2.093058,11.933327 2.2540227,12 2.4217347,12 2.5894888,12 2.7504115,11.93333 2.8689948,11.814702 L 5.9999843,8.6837266 9.1309735,11.814702 C 9.2495992,11.933327 9.4105217,12 9.5782337,12 c 0.167754,0 0.3286768,-0.06667 0.4473023,-0.185298 l 1.789167,-1.789157 c 0.247034,-0.2470354 0.247034,-0.6475284 0,-0.8945604 L 8.6837558,6.0000066 11.814703,2.8689866 C 11.933371,2.7503616 12,2.5894836 12,2.4217286 c 0,-0.167795 -0.06663,-0.328675 -0.185297,-0.4473 L 10.025578,0.18526863 c -0.2469922,-0.247032 -0.6475697,-0.247032 -0.8945622,4.3e-5 L 6.0000263,3.3162466 2.8689948,0.18531163 c -0.2469925,-0.247035 -0.6475699,-0.247035 -0.8945624,0 L 0.18530763,1.9744286 C 0.0666399,2.0930536 1.054262e-5,2.2539336 1.054262e-5,2.4216866 c 0,0.167755 0.06662935738,0.328635 0.18529708738,0.44726 l 3.13094717,3.131018 -3.13094717,3.13102 c -0.24707684,0.247032 -0.24707684,0.647525 0,0.8945604 z"
   inkscape:connector-curvature="0"
   style="fill:#ff0000;stroke-width:0.0421704" />
<g
   id="g983"
   transform="translate(2.5e-4,-272.56001)">
</g>
<g
   id="g985"
   transform="translate(2.5e-4,-272.56001)">
</g>
<g
   id="g987"
   transform="translate(2.5e-4,-272.56001)">
</g>
<g
   id="g989"
   transform="translate(2.5e-4,-272.56001)">
</g>
<g
   id="g991"
   transform="translate(2.5e-4,-272.56001)">
</g>
<g
   id="g993"
   transform="translate(2.5e-4,-272.56001)">
</g>
<g
   id="g995"
   transform="translate(2.5e-4,-272.56001)">
</g>
<g
   id="g997"
   transform="translate(2.5e-4,-272.56001)">
</g>
<g
   id="g999"
   transform="translate(2.5e-4,-272.56001)">
</g>
<g
   id="g1001"
   transform="translate(2.5e-4,-272.56001)">
</g>
<g
   id="g1003"
   transform="translate(2.5e-4,-272.56001)">
</g>
<g
   id="g1005"
   transform="translate(2.5e-4,-272.56001)">
</g>
<g
   id="g1007"
   transform="translate(2.5e-4,-272.56001)">
</g>
<g
   id="g1009"
   transform="translate(2.5e-4,-272.56001)">
</g>
<g
   id="g1011"
   transform="translate(2.5e-4,-272.56001)">
</g>
</svg>