<?xml version="1.0" encoding="UTF-8" standalone="no"?>
<svg
   xmlns:dc="http://purl.org/dc/elements/1.1/"
   xmlns:cc="http://creativecommons.org/ns#"
   xmlns:rdf="http://www.w3.org/1999/02/22-rdf-syntax-ns#"
   xmlns:svg="http://www.w3.org/2000/svg"
   xmlns="http://www.w3.org/2000/svg"
   xmlns:sodipodi="http://sodipodi.sourceforge.net/DTD/sodipodi-0.dtd"
   xmlns:inkscape="http://www.inkscape.org/namespaces/inkscape"
   height="36.000004pt"
   viewBox="-40 0 36.000001 36.000114"
   width="36pt"
   version="1.1"
   id="svg72"
   sodipodi:docname="delete.svg"
   inkscape:version="0.92.4 5da689c313, 2019-01-14">
  <metadata
     id="metadata78">
    <rdf:RDF>
      <cc:Work
         rdf:about="">
        <dc:format>image/svg+xml</dc:format>
        <dc:type
           rdf:resource="http://purl.org/dc/dcmitype/StillImage" />
        <dc:title></dc:title>
      </cc:Work>
    </rdf:RDF>
  </metadata>
  <defs
     id="defs76" />
  <sodipodi:namedview
     pagecolor="#ffffff"
     bordercolor="#666666"
     borderopacity="1"
     objecttolerance="10"
     gridtolerance="10"
     guidetolerance="10"
     inkscape:pageopacity="0"
     inkscape:pageshadow="2"
     inkscape:window-width="1920"
     inkscape:window-height="1019"
     id="namedview74"
     showgrid="false"
     showborder="false"
     fit-margin-top="0"
     fit-margin-left="0"
     fit-margin-right="0"
     fit-margin-bottom="0"
     inkscape:zoom="5.7611241"
     inkscape:cx="58.614066"
     inkscape:cy="3.8950274"
     inkscape:window-x="0"
     inkscape:window-y="0"
     inkscape:window-maximized="1"
     inkscape:current-layer="svg72" />
  <g
     id="g84"
     transform="matrix(0.10380557,0,0,0.08430914,-35.847764,0)">
    <path
       inkscape:connector-curvature="0"
       id="path64"
       d="m 192.40098,154.70443 c -5.52344,0 -10,4.47657 -10,10 v 189 c 0,5.51954 4.47656,10 10,10 5.52343,0 10,-4.48046 10,-10 v -189 c 0,-5.52343 -4.47657,-10 -10,-10 z m 0,0" />
    <path
       inkscape:connector-curvature="0"
       id="path66"
       d="m 74.400978,154.70443 c -5.52344,0 -10,4.47657 -10,10 v 189 c 0,5.51954 4.47656,10 10,10 5.52344,0 10,-4.48046 10,-10 v -189 c 0,-5.52343 -4.47656,-10 -10,-10 z m 0,0" />
    <path
       inkscape:connector-curvature="0"
       id="path68"
       d="m -11.599024,127.1224 v 246.37891 c 0,14.5625 5.3398433,28.23828 14.6679683,38.05078 9.2851557,9.83984 22.2070317,15.42578 35.7304687,15.44922 H 228.00254 c 13.52734,-0.0234 26.44922,-5.60938 35.73047,-15.44922 9.32812,-9.8125 14.66797,-23.48828 14.66797,-38.05078 V 127.1224 C 296.94395,122.20053 308.95957,104.28647 306.4791,85.259126 303.99473,66.235689 287.7877,52.00522 268.6002,52.001314 h -51.19922 v -12.5 c 0.0586,-10.511719 -4.09766,-20.605469 -11.53907,-28.03125 -7.4414,-7.4218751 -17.55078,-11.55468758 -28.0625,-11.46875008 H 89.002538 C 78.490818,-0.08462358 68.381448,4.0481889 60.940038,11.470064 53.498632,18.895845 49.342382,28.989595 49.400976,39.501314 v 12.5 H -1.7982427 c -19.1875003,0.0039 -35.3945313,14.234375 -37.8789073,33.257812 -2.480468,19.027344 9.535157,36.941404 28.078126,41.863274 z M 228.00254,407.00131 H 38.799413 c -17.097656,0 -30.3984367,-14.6875 -30.3984367,-33.5 v -245.5 H 258.40098 v 245.5 c 0,18.8125 -13.30078,33.5 -30.39844,33.5 z M 69.400978,39.501314 c -0.0664,-5.207031 1.98047,-10.21875 5.67578,-13.894531 3.69141,-3.675781 8.71484,-5.695313 13.92578,-5.605469 h 88.796872 c 5.21094,-0.08984 10.23438,1.929688 13.92579,5.605469 3.69531,3.671875 5.74218,8.6875 5.67578,13.894531 v 12.5 H 69.400978 Z m -71.1992207,32.5 H 268.6002 c 9.9414,0 18,8.058594 18,18 0,9.941406 -8.0586,17.999996 -18,17.999996 H -1.7982427 c -9.9414073,0 -18.0000003,-8.05859 -18.0000003,-17.999996 0,-9.941406 8.058593,-18 18.0000003,-18 z m 0,0" />
    <path
       inkscape:connector-curvature="0"
       id="path70"
       d="m 133.40098,154.70443 c -5.52344,0 -10,4.47657 -10,10 v 189 c 0,5.51954 4.47656,10 10,10 5.52343,0 10,-4.48046 10,-10 v -189 c 0,-5.52343 -4.47657,-10 -10,-10 z m 0,0" />
  </g>
</svg>
