<?xml version="1.0" encoding="UTF-8" standalone="no"?>
<svg
   xmlns:dc="http://purl.org/dc/elements/1.1/"
   xmlns:cc="http://creativecommons.org/ns#"
   xmlns:rdf="http://www.w3.org/1999/02/22-rdf-syntax-ns#"
   xmlns:svg="http://www.w3.org/2000/svg"
   xmlns="http://www.w3.org/2000/svg"
   xmlns:sodipodi="http://sodipodi.sourceforge.net/DTD/sodipodi-0.dtd"
   xmlns:inkscape="http://www.inkscape.org/namespaces/inkscape"
   version="1.1"
   id="Capa_1"
   x="0px"
   y="0px"
   viewBox="0 0 512 512"
   xml:space="preserve"
   sodipodi:docname="camera_disabled.svg"
   width="512"
   height="512"
   inkscape:version="1.0.1 (3bc2e813f5, 2020-09-07)"><metadata
   id="metadata945"><rdf:RDF><cc:Work
       rdf:about=""><dc:format>image/svg+xml</dc:format><dc:type
         rdf:resource="http://purl.org/dc/dcmitype/StillImage" /><dc:title /></cc:Work></rdf:RDF></metadata><defs
   id="defs943">
	

		
		
		
	</defs><sodipodi:namedview
   pagecolor="#ffffff"
   bordercolor="#666666"
   borderopacity="1"
   objecttolerance="10"
   gridtolerance="10"
   guidetolerance="10"
   inkscape:pageopacity="0"
   inkscape:pageshadow="2"
   inkscape:window-width="1366"
   inkscape:window-height="739"
   id="namedview941"
   showgrid="false"
   showborder="true"
   fit-margin-top="0"
   fit-margin-left="-0.3"
   fit-margin-right="0"
   fit-margin-bottom="0"
   inkscape:zoom="0.70710681"
   inkscape:cx="219.53194"
   inkscape:cy="259.42559"
   inkscape:window-x="0"
   inkscape:window-y="0"
   inkscape:window-maximized="1"
   inkscape:current-layer="Capa_1"
   showguides="true"
   inkscape:guide-bbox="true"
   inkscape:document-rotation="0"><sodipodi:guide
     position="-51.953545,91.021149"
     orientation="-0.70710678,0.70710678"
     id="guide2797"
     inkscape:locked="false" /></sodipodi:namedview>

<g
   id="g910"
   transform="matrix(1.1013612,0,0,1.1013612,-0.37597036,-486.86991)">
</g>
<g
   id="g912"
   transform="matrix(1.1013612,0,0,1.1013612,-0.37597036,-486.86991)">
</g>
<g
   id="g914"
   transform="matrix(1.1013612,0,0,1.1013612,-0.37597036,-486.86991)">
</g>
<g
   id="g916"
   transform="matrix(1.1013612,0,0,1.1013612,-0.37597036,-486.86991)">
</g>
<g
   id="g918"
   transform="matrix(1.1013612,0,0,1.1013612,-0.37597036,-486.86991)">
</g>
<g
   id="g920"
   transform="matrix(1.1013612,0,0,1.1013612,-0.37597036,-486.86991)">
</g>
<g
   id="g922"
   transform="matrix(1.1013612,0,0,1.1013612,-0.37597036,-486.86991)">
</g>
<g
   id="g924"
   transform="matrix(1.1013612,0,0,1.1013612,-0.37597036,-486.86991)">
</g>
<g
   id="g926"
   transform="matrix(1.1013612,0,0,1.1013612,-0.37597036,-486.86991)">
</g>
<g
   id="g928"
   transform="matrix(1.1013612,0,0,1.1013612,-0.37597036,-486.86991)">
</g>
<g
   id="g930"
   transform="matrix(1.1013612,0,0,1.1013612,-0.37597036,-486.86991)">
</g>
<g
   id="g932"
   transform="matrix(1.1013612,0,0,1.1013612,-0.37597036,-486.86991)">
</g>
<g
   id="g934"
   transform="matrix(1.1013612,0,0,1.1013612,-0.37597036,-486.86991)">
</g>
<g
   id="g936"
   transform="matrix(1.1013612,0,0,1.1013612,-0.37597036,-486.86991)">
</g>
<g
   id="g938"
   transform="matrix(1.1013612,0,0,1.1013612,-0.37597036,-486.86991)">
</g>
<g
   id="g8034"><path
     style="fill:#6e6e6e;fill-opacity:1;stroke:#6e6e6e;stroke-width:20.9463;stroke-miterlimit:4;stroke-dasharray:none;stroke-opacity:1"
     inkscape:connector-curvature="0"
     id="path900"
     d="m 12.792797,167.08775 v 249.16174 c 0,38.03109 26.603892,68.91705 59.362418,68.91705 H 439.84484 c 32.75855,0 59.36236,-30.88596 59.36236,-68.91705 V 167.08775 c 0,-36.18726 -25.31332,-65.57495 -56.48358,-65.57495 h -79.01755 l -1.88608,-9.56542 C 354.17634,53.57053 325.09073,26.833461 291.141,26.833461 h -70.38121 c -33.85048,0 -62.93607,26.737069 -70.67899,65.113919 l -1.8861,9.56542 H 69.276435 c -31.170233,0 -56.483638,29.503 -56.483638,65.57495 z M 157.92299,129.74809 c 5.65828,0 10.52243,-4.49459 11.81291,-10.94843 l 4.07,-20.513743 c 5.16194,-25.469356 24.41998,-43.217263 46.95387,-43.217263 h 70.38121 c 22.53386,0 41.79192,17.747907 46.95388,43.217263 l 4.07003,20.513743 c 1.29041,6.33854 6.15464,10.94843 11.81293,10.94843 h 88.64652 c 17.76898,0 32.16295,16.71061 32.16295,37.33966 v 249.16174 c 0,22.47288 -15.68446,40.68175 -35.04174,40.68175 H 72.155215 c -19.357312,0 -35.041696,-18.20887 -35.041696,-40.68175 V 167.08775 c 0,-20.62905 14.393897,-37.33966 32.162916,-37.33966 z" /><path
     style="fill:#6e6e6e;fill-opacity:1;stroke:#6e6e6e;stroke-width:20.1643;stroke-miterlimit:4;stroke-dasharray:none;stroke-opacity:1"
     inkscape:connector-curvature="0"
     id="path904"
     d="m 256.00002,415.83185 c 63.80449,0 115.79335,-55.93426 115.79335,-124.58069 0,-68.64648 -51.98886,-124.58062 -115.79335,-124.58062 -63.8045,0 -115.79335,55.81311 -115.79335,124.58062 0,68.76758 51.98885,124.58069 115.79335,124.58069 z m 0,-219.49921 c 48.61296,0 88.22349,42.61644 88.22349,94.91852 0,52.30215 -39.61053,94.9186 -88.22349,94.9186 -48.61295,0 -88.2235,-42.61645 -88.2235,-94.9186 0,-52.30208 39.61055,-94.91852 88.2235,-94.91852 z" /><path
     style="fill:none;stroke:#db5860;stroke-width:63.1959;stroke-linecap:butt;stroke-linejoin:miter;stroke-miterlimit:4;stroke-dasharray:none;stroke-opacity:1"
     d="M 26.042137,488.70107 475.61523,42.196708"
     id="path1254" /></g></svg>
