<?xml version="1.0" encoding="UTF-8" standalone="no"?>
<svg
   xmlns:dc="http://purl.org/dc/elements/1.1/"
   xmlns:cc="http://creativecommons.org/ns#"
   xmlns:rdf="http://www.w3.org/1999/02/22-rdf-syntax-ns#"
   xmlns:svg="http://www.w3.org/2000/svg"
   xmlns="http://www.w3.org/2000/svg"
   xmlns:sodipodi="http://sodipodi.sourceforge.net/DTD/sodipodi-0.dtd"
   xmlns:inkscape="http://www.inkscape.org/namespaces/inkscape"
   version="1.1"
   id="Capa_1"
   x="0px"
   y="0px"
   viewBox="0 0 512 512"
   style="enable-background:new 0 0 512 512;"
   xml:space="preserve"
   sodipodi:docname="clean.svg"
   inkscape:version="1.0.1 (3bc2e813f5, 2020-09-07)"><metadata
   id="metadata55"><rdf:RDF><cc:Work
       rdf:about=""><dc:format>image/svg+xml</dc:format><dc:type
         rdf:resource="http://purl.org/dc/dcmitype/StillImage" /><dc:title /></cc:Work></rdf:RDF></metadata><defs
   id="defs53">
	

	

	
















		
	
		
	
		
	</defs><sodipodi:namedview
   pagecolor="#ffffff"
   bordercolor="#666666"
   borderopacity="1"
   objecttolerance="10"
   gridtolerance="10"
   guidetolerance="10"
   inkscape:pageopacity="0"
   inkscape:pageshadow="2"
   inkscape:window-width="1366"
   inkscape:window-height="739"
   id="namedview51"
   showgrid="false"
   inkscape:zoom="0.79135193"
   inkscape:cx="322.4361"
   inkscape:cy="286.90481"
   inkscape:window-x="0"
   inkscape:window-y="0"
   inkscape:window-maximized="1"
   inkscape:current-layer="Capa_1"
   inkscape:document-rotation="0" />

















<path
   d="m 492.35397,19.548588 c -19.6381,-19.63810103 -51.59282,-19.6390822 -71.23092,0 L 307.36728,133.30436 378.5982,204.53528 492.35397,90.779507 c 19.6381,-19.638101 19.6381,-51.592818 0,-71.230919 z"
   id="path2"
   style="fill:#db5860;fill-opacity:1;stroke:none;stroke-width:0.981169;stroke-opacity:1" /><path
   d="m 360.49366,228.80352 -77.20133,-77.20035 c -25.09438,-25.09439 -65.11039,-27.54535 -93.07959,-5.7006 l -3.55282,2.77475 176.75861,176.75861 2.77475,-3.55282 c 21.84573,-27.96822 19.39379,-67.98423 -5.69962,-93.07959 z"
   id="path8"
   style="fill:#db5860;fill-opacity:1;stroke:none;stroke-width:0.981169;stroke-opacity:1" /><path
   d="M 162.86755,167.25968 10.67742,286.12342 c -3.3820905,2.64131 -5.4690373,6.60719 -5.7319906,10.89098 -0.2619722,4.28476 1.3255595,8.47436 4.3603158,11.51009 l 48.9338498,48.93385 81.349715,-73.82513 c 6.12838,-5.56028 15.6212,-5.07657 21.16186,1.02729 5.56028,6.1274 5.1011,15.60157 -1.0263,21.16185 l -80.27436,72.84887 53.97608,53.97608 72.84887,-80.27436 c 5.56028,-6.1274 15.03543,-6.58658 21.16185,-1.0263 6.12937,5.58482 6.58659,15.03544 1.02631,21.16186 l -73.82514,81.34972 48.93385,48.93385 c 3.03476,3.03475 7.22533,4.62228 11.5101,4.36031 4.28379,-0.26295 8.24869,-2.3499 10.89098,-5.73199 L 344.83715,349.22928 Z"
   id="path14"
   style="fill:#db5860;fill-opacity:1;stroke:none;stroke-width:0.981169;stroke-opacity:1" />
</svg>
