<?xml version="1.0" encoding="UTF-8" standalone="no"?>
<svg
   xmlns:dc="http://purl.org/dc/elements/1.1/"
   xmlns:cc="http://creativecommons.org/ns#"
   xmlns:rdf="http://www.w3.org/1999/02/22-rdf-syntax-ns#"
   xmlns:svg="http://www.w3.org/2000/svg"
   xmlns="http://www.w3.org/2000/svg"
   xmlns:sodipodi="http://sodipodi.sourceforge.net/DTD/sodipodi-0.dtd"
   xmlns:inkscape="http://www.inkscape.org/namespaces/inkscape"
   version="1.1"
   id="Capa_1"
   x="0px"
   y="0px"
   viewBox="0 0 512.00001 512.00001"
   xml:space="preserve"
   sodipodi:docname="settings-2.svg"
   width="512"
   height="512"
   inkscape:version="1.0.1 (3bc2e813f5, 2020-09-07)"><metadata
   id="metadata3467"><rdf:RDF><cc:Work
       rdf:about=""><dc:format>image/svg+xml</dc:format><dc:type
         rdf:resource="http://purl.org/dc/dcmitype/StillImage" /><dc:title /></cc:Work></rdf:RDF></metadata><defs
   id="defs3465" /><sodipodi:namedview
   pagecolor="#ffffff"
   bordercolor="#666666"
   borderopacity="1"
   objecttolerance="10"
   gridtolerance="10"
   guidetolerance="10"
   inkscape:pageopacity="0"
   inkscape:pageshadow="2"
   inkscape:window-width="1366"
   inkscape:window-height="739"
   id="namedview3463"
   showgrid="false"
   inkscape:zoom="0.94962159"
   inkscape:cx="386.84916"
   inkscape:cy="274.17305"
   inkscape:window-x="0"
   inkscape:window-y="0"
   inkscape:window-maximized="1"
   inkscape:current-layer="Capa_1"
   inkscape:document-rotation="0" />
<g
   id="g3430"
   style="fill:#6e6e6e;fill-opacity:1"
   transform="matrix(1.1874452,0,0,1.1874452,2.6781594,2.6787531)">
	<g
   id="g3428"
   style="fill:#6e6e6e;fill-opacity:1">
		<path
   d="m 416.8,269.44 -45.013,-35.307 c 0.853,-6.827 1.493,-13.76 1.493,-20.8 0,-7.04 -0.64,-13.973 -1.493,-20.8 l 45.12,-35.307 c 4.053,-3.2 5.227,-8.96 2.56,-13.653 L 376.8,69.653 c -2.667,-4.587 -8.213,-6.507 -13.013,-4.587 l -53.12,21.44 C 299.68,78.079 287.627,70.933 274.614,65.493 l -8,-56.533 C 265.653,3.947 261.28,0 255.947,0 h -85.333 c -5.333,0 -9.707,3.947 -10.56,8.96 l -8,56.533 c -13.013,5.44 -25.067,12.48 -36.053,21.013 l -53.12,-21.44 c -4.8,-1.813 -10.347,0 -13.013,4.587 L 7.2,143.573 c -2.667,4.587 -1.493,10.347 2.56,13.653 l 45.013,35.307 c -0.853,6.827 -1.493,13.76 -1.493,20.8 0,7.04 0.64,13.973 1.493,20.8 L 9.76,269.44 c -4.053,3.2 -5.227,8.96 -2.56,13.653 l 42.667,73.92 c 2.667,4.587 8.213,6.507 13.013,4.587 L 116,340.16 c 10.987,8.427 23.04,15.573 36.053,21.013 l 8,56.533 c 0.853,5.013 5.227,8.96 10.56,8.96 h 85.333 c 5.333,0 9.707,-3.947 10.56,-8.96 l 8,-56.533 c 13.013,-5.44 25.067,-12.48 36.053,-21.013 l 53.12,21.44 c 4.8,1.813 10.347,0 13.013,-4.587 l 42.667,-73.92 c 2.668,-4.586 1.494,-10.346 -2.559,-13.653 z M 213.28,288 c -41.28,0 -74.667,-33.387 -74.667,-74.667 0,-41.28 33.387,-74.666 74.667,-74.666 41.28,0 74.667,33.387 74.667,74.667 0,41.28 -33.387,74.666 -74.667,74.666 z"
   id="path3426"
   style="fill:#6e6e6e;fill-opacity:1" />
	</g>
</g>
<g
   id="g3432">
</g>
<g
   id="g3434">
</g>
<g
   id="g3436">
</g>
<g
   id="g3438">
</g>
<g
   id="g3440">
</g>
<g
   id="g3442">
</g>
<g
   id="g3444">
</g>
<g
   id="g3446">
</g>
<g
   id="g3448">
</g>
<g
   id="g3450">
</g>
<g
   id="g3452">
</g>
<g
   id="g3454">
</g>
<g
   id="g3456">
</g>
<g
   id="g3458">
</g>
<g
   id="g3460">
</g>
</svg>
