<?xml version="1.0" encoding="UTF-8" standalone="no"?>
<!-- Generator: Adobe Illustrator 16.0.0, SVG Export Plug-In . SVG Version: 6.00 Build 0)  -->

<svg
   xmlns:dc="http://purl.org/dc/elements/1.1/"
   xmlns:cc="http://creativecommons.org/ns#"
   xmlns:rdf="http://www.w3.org/1999/02/22-rdf-syntax-ns#"
   xmlns:svg="http://www.w3.org/2000/svg"
   xmlns="http://www.w3.org/2000/svg"
   xmlns:sodipodi="http://sodipodi.sourceforge.net/DTD/sodipodi-0.dtd"
   xmlns:inkscape="http://www.inkscape.org/namespaces/inkscape"
   version="1.1"
   id="Capa_1"
   x="0px"
   y="0px"
   width="23.99629"
   height="24.016451"
   viewBox="0 0 23.99629 24.016451"
   xml:space="preserve"
   sodipodi:docname="about.svg"
   inkscape:version="0.92.5 (2060ec1f9f, 2020-04-08)"><metadata
   id="metadata933"><rdf:RDF><cc:Work
       rdf:about=""><dc:format>image/svg+xml</dc:format><dc:type
         rdf:resource="http://purl.org/dc/dcmitype/StillImage" /><dc:title /></cc:Work></rdf:RDF></metadata><defs
   id="defs931">
	
</defs><sodipodi:namedview
   pagecolor="#ffffff"
   bordercolor="#666666"
   borderopacity="1"
   objecttolerance="10"
   gridtolerance="10"
   guidetolerance="10"
   inkscape:pageopacity="0"
   inkscape:pageshadow="2"
   inkscape:window-width="1366"
   inkscape:window-height="739"
   id="namedview929"
   showgrid="false"
   showborder="false"
   fit-margin-top="0"
   fit-margin-left="0"
   fit-margin-right="0"
   fit-margin-bottom="0"
   inkscape:zoom="8.0000001"
   inkscape:cx="-11.089885"
   inkscape:cy="21.17809"
   inkscape:window-x="0"
   inkscape:window-y="0"
   inkscape:window-maximized="1"
   inkscape:current-layer="Capa_1" />

<g
   id="g898"
   transform="translate(239.5083,-10.347359)">
</g>
<g
   id="g900"
   transform="translate(239.5083,-10.347359)">
</g>
<g
   id="g902"
   transform="translate(239.5083,-10.347359)">
</g>
<g
   id="g904"
   transform="translate(239.5083,-10.347359)">
</g>
<g
   id="g906"
   transform="translate(239.5083,-10.347359)">
</g>
<g
   id="g908"
   transform="translate(239.5083,-10.347359)">
</g>
<g
   id="g910"
   transform="translate(239.5083,-10.347359)">
</g>
<g
   id="g912"
   transform="translate(239.5083,-10.347359)">
</g>
<g
   id="g914"
   transform="translate(239.5083,-10.347359)">
</g>
<g
   id="g916"
   transform="translate(239.5083,-10.347359)">
</g>
<g
   id="g918"
   transform="translate(239.5083,-10.347359)">
</g>
<g
   id="g920"
   transform="translate(239.5083,-10.347359)">
</g>
<g
   id="g922"
   transform="translate(239.5083,-10.347359)">
</g>
<g
   id="g924"
   transform="translate(239.5083,-10.347359)">
</g>
<g
   id="g926"
   transform="translate(239.5083,-10.347359)">
</g>
<ellipse
   style="fill:#37abc8;fill-opacity:1;stroke:#37abc8;stroke-width:0.089;stroke-opacity:1;stroke-miterlimit:4;stroke-dasharray:none"
   id="path939"
   cx="11.998145"
   cy="12.008225"
   rx="11.953516"
   ry="11.963586" /><path
   style="fill:#ffffff;stroke-width:0.40259773"
   inkscape:connector-curvature="0"
   id="path894"
   d="m 11.827314,5.6932365 c 2.182771,0 4.331738,1.0061128 4.331738,3.4126472 0,2.2192483 -2.540932,3.0727113 -3.086624,3.8746213 -0.409672,0.596498 -0.272847,1.434657 -1.398439,1.434657 -0.733224,0 -1.091385,-0.596901 -1.091385,-1.143054 0,-2.032363 2.983603,-2.492324 2.983603,-4.1658216 0,-0.9211286 -0.612496,-1.4672811 -1.636273,-1.4672811 -2.1827713,0 -1.330428,2.2522746 -2.9836036,2.2522746 -0.5968012,0 -1.1090924,-0.3584629 -1.1090924,-1.0407506 -4.024e-4,-1.6739009 1.9091198,-3.1572928 3.990076,-3.1572928 z m -0.08491,9.8299375 c 0.766224,0 1.398438,0.630735 1.398438,1.40002 0,0.769285 -0.631007,1.400019 -1.398438,1.400019 -0.767431,0 -1.398841,-0.629928 -1.398841,-1.400019 0,-0.768883 0.63141,-1.40002 1.398841,-1.40002 z" /></svg>