<?xml version="1.0" encoding="UTF-8" standalone="no"?>
<!-- Created with Inkscape (http://www.inkscape.org/) -->

<svg
   xmlns:dc="http://purl.org/dc/elements/1.1/"
   xmlns:cc="http://creativecommons.org/ns#"
   xmlns:rdf="http://www.w3.org/1999/02/22-rdf-syntax-ns#"
   xmlns:svg="http://www.w3.org/2000/svg"
   xmlns="http://www.w3.org/2000/svg"
   xmlns:sodipodi="http://sodipodi.sourceforge.net/DTD/sodipodi-0.dtd"
   xmlns:inkscape="http://www.inkscape.org/namespaces/inkscape"
   version="1.1"
   id="svg1069"
   width="23.995125"
   height="24.004246"
   viewBox="0 0 23.995125 24.004246"
   sodipodi:docname="settings_3svg.svg"
   inkscape:version="0.92.4 5da689c313, 2019-01-14">
  <metadata
     id="metadata1075">
    <rdf:RDF>
      <cc:Work
         rdf:about="">
        <dc:format>image/svg+xml</dc:format>
        <dc:type
           rdf:resource="http://purl.org/dc/dcmitype/StillImage" />
        <dc:title></dc:title>
      </cc:Work>
    </rdf:RDF>
  </metadata>
  <defs
     id="defs1073" />
  <sodipodi:namedview
     pagecolor="#ffffff"
     bordercolor="#666666"
     borderopacity="1"
     objecttolerance="10"
     gridtolerance="10"
     guidetolerance="10"
     inkscape:pageopacity="0"
     inkscape:pageshadow="2"
     inkscape:window-width="1366"
     inkscape:window-height="739"
     id="namedview1071"
     showgrid="false"
     showborder="false"
     fit-margin-top="0"
     fit-margin-left="0"
     fit-margin-right="0"
     fit-margin-bottom="0"
     inkscape:zoom="3.6875"
     inkscape:cx="-9.476931"
     inkscape:cy="-2.2075679"
     inkscape:window-x="0"
     inkscape:window-y="0"
     inkscape:window-maximized="1"
     inkscape:current-layer="svg1069" />
  <path
     style="opacity:0.95;fill:#ffffff;fill-opacity:1;stroke:#333333;stroke-width:0.18215948;stroke-linecap:round;stroke-linejoin:round;stroke-miterlimit:4;stroke-dasharray:none;stroke-opacity:1"
     d="m 12.037667,0.09769312 c -0.72043,0.0637 -1.845694,-0.17097 -2.124115,0.73052 -0.08137,0.50962998 0.01515,1.11913998 -0.387221,1.48686998 -0.15736,0.21026 -0.218698,0.60361 -0.5623,0.63599 -0.231156,0.1825 -0.482289,0.4504 -0.805519,0.37943 -0.33519,0.2264 -0.769547,0.14283 -1.104717,-0.0131 -0.637006,0.0746 -1.03032,-0.57076 -1.534985,-0.83449 -0.885643,-0.28862 -1.407803,0.72336 -2.066783,1.10551 -0.25976,0.24133 -0.32452,0.57765 -0.62658,0.79417 -0.43543,0.45528 -0.40057,1.2532 0.17952,1.56982 0.43169,0.5212 0.62511,1.299 0.50516,1.9344 -0.16048,0.28253 -0.0479,0.67728 -0.35903,0.91801 -0.26574,0.43697 -0.71175,0.56803 -1.12615,0.76234 -0.49764,0.39004 -1.38447003,0.0415 -1.77627003,0.5985699 -0.25861,0.96381 -0.12396,2.0252 -0.10444,3.02506 0.0509,0.34442 0.16638,0.76134 0.54628,0.8123 0.39988003,0.23671 0.91536003,0.015 1.32806003,0.27835 1.07706,0.33161 1.66943,1.62912 1.41067,2.66993 -0.16334,0.19954 -0.0658,0.46544 -0.29147,0.64159 -0.17812,0.26318 -0.30377,0.55768 -0.54204,0.80265 -0.47979,0.64849 0.33827,1.30054 0.7343,1.74015 0.54098,0.48923 1.03633,1.14605 1.70793,1.42206 0.23833,-0.12983 0.561824,-0.003 0.682754,-0.29128 0.406567,-0.31367 0.790035,-0.72877 1.343883,-0.71643 0.670515,-0.32887 1.506075,0.0717 2.058292,0.51022 0.156853,0.14124 0.119739,0.39965 0.359038,0.4728 0.497527,0.61075 0.0069,1.60837 0.705143,2.08371 0.874823,0.43838 1.919873,0.26337 2.864969,0.24421 0.659557,0.0141 1.164474,-0.57496 1.060705,-1.22434 0.136064,-0.91849 0.774338,-1.93921 1.77666,-2.0214 0.363739,-0.22429 0.812774,-0.0589 1.166487,0.0473 0.759153,0.0202 1.164413,1.0138 1.994591,0.87519 0.4616,-0.16783 0.782731,-0.57119 1.168225,-0.87538 0.50432,-0.48329 1.01909,-0.97579 1.28636,-1.62094 0.144599,-0.71118 -0.730744,-1.06353 -0.890067,-1.70137 -0.100989,-0.22757 -0.0049,-0.49343 -0.179905,-0.69117 -0.04673,-0.84613 0.412368,-1.65862 1.11958,-2.10125 0.305264,0.0339 0.411929,-0.37354 0.763246,-0.3152 0.591382,0.0245 1.440793,-0.10369 1.514329,-0.83661 0.05748,-1.0154 0.169703,-2.08796 -0.111765,-3.07367 -0.246291,-0.5252799 -0.897473,-0.31832 -1.285587,-0.5717499 -0.232806,0.0157 -0.388499,-0.16382 -0.634686,-0.13137 -0.42064,-0.20941 -0.754834,-0.56503 -0.952802,-0.96218 -0.424334,-0.53524 -0.424871,-1.41725 -0.12354,-1.9942 0.231967,-0.27004 0.338997,-0.6292 0.631791,-0.88078 0.499512,-0.69929 -0.151216,-1.47883 -0.657434,-1.94804 -0.499489,-0.48119 -0.952777,-1.06089 -1.592345,-1.33975 -0.659633,-0.16168 -0.98362,0.57179 -1.534211,0.74575 -0.125378,0.13168 -0.358502,0.0285 -0.45652,0.20544 -0.334935,-0.0571 -0.579653,0.23864 -0.92597,0.071 -0.681696,-0.0739 -1.347245,-0.54339 -1.630535,-1.13561 -0.102377,-0.27247 -0.348146,-0.49327 -0.331433,-0.83892 0.03397,-0.5178 -0.09363,-1.33088998 -0.748962,-1.35222998 -0.449202,-0.1603 -0.970143,-0.0669 -1.440591,-0.0918 z m 7.358542,2.90314998 c 0.09152,-0.13657 0.180927,-0.13633 0,0 z m -7.380163,5.3821 c 0.391366,-0.0266 0.744155,0.13023 1.08889,0.2282 0.620271,0.0714 1.143014,0.59122 1.609108,0.96643 0.332946,0.16294 0.165699,0.5772199 0.500916,0.7067799 0.221257,0.23884 0.09768,0.58093 0.319466,0.79533 0.07607,1.0594 0.150917,2.20776 -0.611329,3.06518 -0.47404,0.62985 -1.178494,1.1764 -1.950002,1.33815 -0.35881,3e-5 -0.689909,0.20436 -1.078465,0.1302 -0.307061,0.0394 -0.57734,-0.14573 -0.847792,-0.16049 -0.201682,-0.11921 -0.435966,-0.0458 -0.596853,-0.26311 -0.569432,-0.0889 -0.972318,-0.61227 -1.328054,-1.03395 -0.01774,-0.31189 -0.432129,-0.39167 -0.438374,-0.75366 -0.338183,-0.85301 -0.406908,-1.899 0.01158,-2.72529 0.246346,-0.36263 0.317564,-0.8099699 0.679663,-1.1234499 0.674731,-0.73941 1.661428,-1.11848 2.641244,-1.17032 z m -1.846149,6.8379199 c 6.6e-4,-0.004 0.01304,-0.006 0,0 z m -0.08223,0.13213 c -0.0079,-0.0194 0.04552,-0.0747 0,0 z m 1.435381,0.35725 c 0.0025,0.0119 -0.0022,-0.007 0,0 z m -8.415191,2.52892 c -0.003,0.003 -0.0212,-0.009 0,0 z m 17.973515,1.20852 c 0.08741,0.13502 -0.194278,-0.16337 0,0 z m -5.019582,0.98456 c -0.01137,0.0188 0.01702,-0.0484 0,0 z"
     id="path1626"
     inkscape:connector-curvature="0" />
</svg>
