<?xml version="1.0" encoding="UTF-8" standalone="no"?>
<!-- Generator: Adobe Illustrator 18.1.1, SVG Export Plug-In . SVG Version: 6.00 Build 0)  -->

<svg
   xmlns:dc="http://purl.org/dc/elements/1.1/"
   xmlns:cc="http://creativecommons.org/ns#"
   xmlns:rdf="http://www.w3.org/1999/02/22-rdf-syntax-ns#"
   xmlns:svg="http://www.w3.org/2000/svg"
   xmlns="http://www.w3.org/2000/svg"
   xmlns:sodipodi="http://sodipodi.sourceforge.net/DTD/sodipodi-0.dtd"
   xmlns:inkscape="http://www.inkscape.org/namespaces/inkscape"
   version="1.1"
   id="Capa_1"
   x="0px"
   y="0px"
   viewBox="0 0 11.999962 12.000047"
   xml:space="preserve"
   sodipodi:docname="app_play.svg"
   width="11.999962"
   height="12.000047"
   inkscape:version="0.92.4 5da689c313, 2019-01-14"><metadata
   id="metadata931"><rdf:RDF><cc:Work
       rdf:about=""><dc:format>image/svg+xml</dc:format><dc:type
         rdf:resource="http://purl.org/dc/dcmitype/StillImage" /><dc:title></dc:title></cc:Work></rdf:RDF></metadata><defs
   id="defs929" /><sodipodi:namedview
   pagecolor="#ffffff"
   bordercolor="#666666"
   borderopacity="1"
   objecttolerance="10"
   gridtolerance="10"
   guidetolerance="10"
   inkscape:pageopacity="0"
   inkscape:pageshadow="2"
   inkscape:window-width="1360"
   inkscape:window-height="703"
   id="namedview927"
   showgrid="false"
   showborder="false"
   fit-margin-top="0"
   fit-margin-left="0"
   fit-margin-right="0"
   fit-margin-bottom="0"
   inkscape:zoom="1.6269004"
   inkscape:cx="-82.73211"
   inkscape:cy="-34.834767"
   inkscape:window-x="0"
   inkscape:window-y="0"
   inkscape:window-maximized="1"
   inkscape:current-layer="Capa_1" />
<g
   id="Play"
   style="fill:#ffffff;stroke:#4d4d4d"
   transform="matrix(0.0607014,0,0,0.05146676,-1.0458834,0.02595018)">
	<path
   style="clip-rule:evenodd;fill:#ffffff;fill-rule:evenodd;stroke:#4d4d4d"
   d="M 203.791,99.628 49.307,2.294 C 44.74,-0.425 39.069,0.028 34.786,0.028 17.654,0.028 17.73,13.255 17.73,16.606 v 198.94 c 0,2.833 -0.075,16.579 17.056,16.579 4.283,0 9.955,0.451 14.521,-2.267 L 203.79,132.525 c 12.68,-7.545 10.489,-16.449 10.489,-16.449 0,0 2.192,-8.904 -10.488,-16.448 z"
   id="path893"
   inkscape:connector-curvature="0" />
</g>
<g
   id="g896"
   transform="matrix(0.24221467,0,0,0.20479051,-4.195635,-35.668245)">
</g>
<g
   id="g898"
   transform="matrix(0.24221467,0,0,0.20479051,-4.195635,-35.668245)">
</g>
<g
   id="g900"
   transform="matrix(0.24221467,0,0,0.20479051,-4.195635,-35.668245)">
</g>
<g
   id="g902"
   transform="matrix(0.24221467,0,0,0.20479051,-4.195635,-35.668245)">
</g>
<g
   id="g904"
   transform="matrix(0.24221467,0,0,0.20479051,-4.195635,-35.668245)">
</g>
<g
   id="g906"
   transform="matrix(0.24221467,0,0,0.20479051,-4.195635,-35.668245)">
</g>
<g
   id="g908"
   transform="matrix(0.24221467,0,0,0.20479051,-4.195635,-35.668245)">
</g>
<g
   id="g910"
   transform="matrix(0.24221467,0,0,0.20479051,-4.195635,-35.668245)">
</g>
<g
   id="g912"
   transform="matrix(0.24221467,0,0,0.20479051,-4.195635,-35.668245)">
</g>
<g
   id="g914"
   transform="matrix(0.24221467,0,0,0.20479051,-4.195635,-35.668245)">
</g>
<g
   id="g916"
   transform="matrix(0.24221467,0,0,0.20479051,-4.195635,-35.668245)">
</g>
<g
   id="g918"
   transform="matrix(0.24221467,0,0,0.20479051,-4.195635,-35.668245)">
</g>
<g
   id="g920"
   transform="matrix(0.24221467,0,0,0.20479051,-4.195635,-35.668245)">
</g>
<g
   id="g922"
   transform="matrix(0.24221467,0,0,0.20479051,-4.195635,-35.668245)">
</g>
<g
   id="g924"
   transform="matrix(0.24221467,0,0,0.20479051,-4.195635,-35.668245)">
</g>
</svg>