<?xml version="1.0" encoding="UTF-8" standalone="no"?>
<svg
   xmlns:dc="http://purl.org/dc/elements/1.1/"
   xmlns:cc="http://creativecommons.org/ns#"
   xmlns:rdf="http://www.w3.org/1999/02/22-rdf-syntax-ns#"
   xmlns:svg="http://www.w3.org/2000/svg"
   xmlns="http://www.w3.org/2000/svg"
   xmlns:sodipodi="http://sodipodi.sourceforge.net/DTD/sodipodi-0.dtd"
   xmlns:inkscape="http://www.inkscape.org/namespaces/inkscape"
   height="8.999999pt"
   viewBox="0 0 9.000001 8.999999"
   width="9.000001pt"
   version="1.1"
   id="svg5741"
   sodipodi:docname="app_actions.svg"
   inkscape:version="0.92.5 (2060ec1f9f, 2020-04-08)">
  <metadata
     id="metadata5747">
    <rdf:RDF>
      <cc:Work
         rdf:about="">
        <dc:format>image/svg+xml</dc:format>
        <dc:type
           rdf:resource="http://purl.org/dc/dcmitype/StillImage" />
        <dc:title />
      </cc:Work>
    </rdf:RDF>
  </metadata>
  <defs
     id="defs5745" />
  <sodipodi:namedview
     pagecolor="#ffffff"
     bordercolor="#666666"
     borderopacity="1"
     objecttolerance="10"
     gridtolerance="10"
     guidetolerance="10"
     inkscape:pageopacity="0"
     inkscape:pageshadow="2"
     inkscape:window-width="1366"
     inkscape:window-height="739"
     id="namedview5743"
     showgrid="false"
     showborder="true"
     fit-margin-top="0"
     fit-margin-left="0"
     fit-margin-right="0"
     fit-margin-bottom="0"
     inkscape:zoom="8.9398501"
     inkscape:cx="-15.591871"
     inkscape:cy="19.009452"
     inkscape:window-x="0"
     inkscape:window-y="0"
     inkscape:window-maximized="1"
     inkscape:current-layer="svg5741"
     showguides="false" />
  <path
     d="M 7.3555147,3.879237 H 5.2449172 c -0.068563,0 -0.1241526,-0.055592 -0.1241526,-0.1241528 V 1.644485 c 0,-0.3428152 -0.2779494,-0.6207628 -0.6207638,-0.6207628 -0.3428146,0 -0.6207639,0.2779476 -0.6207639,0.6207628 v 2.1105988 c 0,0.068567 -0.05559,0.1241527 -0.1241527,0.1241527 H 1.6444865 c -0.3428146,0 -0.6207641,0.2779476 -0.6207641,0.6207625 0,0.3428152 0.2779495,0.6207635 0.6207641,0.6207635 H 3.755084 c 0.068562,0 0.1241527,0.055591 0.1241527,0.1241527 v 2.1105991 c 0,0.342815 0.2779494,0.6207625 0.6207637,0.6207625 0.3428147,0 0.6207639,-0.2779475 0.6207639,-0.6207625 V 5.2449164 c 0,-0.068568 0.05559,-0.1241527 0.1241527,-0.1241527 h 2.1105975 c 0.3428142,0 0.620764,-0.2779486 0.620764,-0.6207637 0,-0.342815 -0.2779498,-0.6207625 -0.6207638,-0.620763 z m 0,0"
     id="path5739"
     style="fill:none;fill-opacity:1;stroke:#91a069;stroke-width:0.75;stroke-opacity:1;stroke-miterlimit:4;stroke-dasharray:none"
     inkscape:connector-curvature="0" />
</svg>
