<?xml version="1.0" encoding="UTF-8" standalone="no"?>
<!-- Generator: Adobe Illustrator 19.0.0, SVG Export Plug-In . SVG Version: 6.00 Build 0)  -->

<svg
   xmlns:dc="http://purl.org/dc/elements/1.1/"
   xmlns:cc="http://creativecommons.org/ns#"
   xmlns:rdf="http://www.w3.org/1999/02/22-rdf-syntax-ns#"
   xmlns:svg="http://www.w3.org/2000/svg"
   xmlns="http://www.w3.org/2000/svg"
   xmlns:sodipodi="http://sodipodi.sourceforge.net/DTD/sodipodi-0.dtd"
   xmlns:inkscape="http://www.inkscape.org/namespaces/inkscape"
   version="1.1"
   id="Capa_1"
   x="0px"
   y="0px"
   viewBox="0 0 26.545199 24.006175"
   xml:space="preserve"
   sodipodi:docname="camera.svg"
   width="26.545198"
   height="24.006176"
   inkscape:version="0.92.5 (2060ec1f9f, 2020-04-08)"><metadata
   id="metadata945"><rdf:RDF><cc:Work
       rdf:about=""><dc:format>image/svg+xml</dc:format><dc:type
         rdf:resource="http://purl.org/dc/dcmitype/StillImage" /><dc:title></dc:title></cc:Work></rdf:RDF></metadata><defs
   id="defs943">
	

		
		
		
	</defs><sodipodi:namedview
   pagecolor="#ffffff"
   bordercolor="#666666"
   borderopacity="1"
   objecttolerance="10"
   gridtolerance="10"
   guidetolerance="10"
   inkscape:pageopacity="0"
   inkscape:pageshadow="2"
   inkscape:window-width="1366"
   inkscape:window-height="739"
   id="namedview941"
   showgrid="false"
   showborder="false"
   fit-margin-top="0"
   fit-margin-left="-0.3"
   fit-margin-right="0"
   fit-margin-bottom="0"
   inkscape:zoom="4"
   inkscape:cx="46.244958"
   inkscape:cy="38.39102"
   inkscape:window-x="0"
   inkscape:window-y="0"
   inkscape:window-maximized="1"
   inkscape:current-layer="Capa_1"
   showguides="true"
   inkscape:guide-bbox="true"><sodipodi:guide
     position="-51.953545,91.021149"
     orientation="-0.70710678,0.70710678"
     id="guide2797"
     inkscape:locked="false" /></sodipodi:namedview>
<g
   id="g3423"
   style="stroke-width:0.85000002;stroke-miterlimit:4;stroke-dasharray:none"
   transform="matrix(0.99977169,0,0,1.0142481,-0.06185977,-0.08981398)"><path
     style="fill:none;stroke:#5eaa1a;stroke-width:0.85000002;stroke-miterlimit:4;stroke-dasharray:none;stroke-opacity:1"
     inkscape:connector-curvature="0"
     id="path900"
     d="m 0.1868054,7.496365 v 12.404966 c 0,1.893448 1.4221135,3.431159 3.1732235,3.431159 H 23.014911 c 1.751111,0 3.173223,-1.537711 3.173223,-3.431159 V 7.496365 c 0,-1.8016485 -1.353129,-3.2647676 -3.019337,-3.2647676 h -4.22389 L 18.844086,3.7553661 C 18.435494,1.8447054 16.88072,0.51355229 15.065934,0.51355229 H 11.3037 c -1.8094799,0 -3.3642534,1.33115311 -3.7781518,3.24181381 L 7.4247264,4.2315974 h -4.218583 c -1.6662076,0 -3.019338,1.4688602 -3.019338,3.2647676 z M 7.9447531,5.6373425 c 0.3024642,0 0.5624775,-0.2237709 0.6314606,-0.5450874 L 8.7937761,4.0709417 C 9.0697087,2.8029037 10.099149,1.9192922 11.3037,1.9192922 h 3.762234 c 1.20455,0 2.233991,0.8836115 2.509924,2.1516495 l 0.217562,1.0213134 c 0.06898,0.3155756 0.328997,0.5450874 0.631461,0.5450874 h 4.73861 c 0.949843,0 1.719271,0.831968 1.719271,1.8590225 v 12.404966 c 0,1.118854 -0.838411,2.025413 -1.873157,2.025413 H 3.3600289 c -1.0347468,0 -1.8731571,-0.906559 -1.8731571,-2.025413 V 7.496365 c 0,-1.0270545 0.7694271,-1.8590225 1.7192716,-1.8590225 z" /><path
     style="fill:none;stroke:#5eaa1a;stroke-width:0.85000002;stroke-miterlimit:4;stroke-dasharray:none;stroke-opacity:1"
     inkscape:connector-curvature="0"
     id="path904"
     d="m 13.18747,19.762222 c 3.410675,0 6.189744,-3.004972 6.189744,-6.692885 0,-3.687913 -2.779069,-6.69288 -6.189744,-6.69288 -3.4106757,0 -6.1897442,2.998464 -6.1897442,6.69288 0,3.694422 2.7790685,6.692885 6.1897442,6.692885 z m 0,-11.7922197 c 2.59861,0 4.715995,2.2894957 4.715995,5.0993347 0,2.809844 -2.117385,5.099341 -4.715995,5.099341 -2.59861,0 -4.7159952,-2.289497 -4.7159952,-5.099341 0,-2.809839 2.1173852,-5.0993347 4.7159952,-5.0993347 z" /></g>
<g
   id="g910"
   transform="matrix(1.1013612,0,0,1.1013612,-0.37597036,-474.86373)">
</g>
<g
   id="g912"
   transform="matrix(1.1013612,0,0,1.1013612,-0.37597036,-474.86373)">
</g>
<g
   id="g914"
   transform="matrix(1.1013612,0,0,1.1013612,-0.37597036,-474.86373)">
</g>
<g
   id="g916"
   transform="matrix(1.1013612,0,0,1.1013612,-0.37597036,-474.86373)">
</g>
<g
   id="g918"
   transform="matrix(1.1013612,0,0,1.1013612,-0.37597036,-474.86373)">
</g>
<g
   id="g920"
   transform="matrix(1.1013612,0,0,1.1013612,-0.37597036,-474.86373)">
</g>
<g
   id="g922"
   transform="matrix(1.1013612,0,0,1.1013612,-0.37597036,-474.86373)">
</g>
<g
   id="g924"
   transform="matrix(1.1013612,0,0,1.1013612,-0.37597036,-474.86373)">
</g>
<g
   id="g926"
   transform="matrix(1.1013612,0,0,1.1013612,-0.37597036,-474.86373)">
</g>
<g
   id="g928"
   transform="matrix(1.1013612,0,0,1.1013612,-0.37597036,-474.86373)">
</g>
<g
   id="g930"
   transform="matrix(1.1013612,0,0,1.1013612,-0.37597036,-474.86373)">
</g>
<g
   id="g932"
   transform="matrix(1.1013612,0,0,1.1013612,-0.37597036,-474.86373)">
</g>
<g
   id="g934"
   transform="matrix(1.1013612,0,0,1.1013612,-0.37597036,-474.86373)">
</g>
<g
   id="g936"
   transform="matrix(1.1013612,0,0,1.1013612,-0.37597036,-474.86373)">
</g>
<g
   id="g938"
   transform="matrix(1.1013612,0,0,1.1013612,-0.37597036,-474.86373)">
</g>
</svg>