<?xml version="1.0" encoding="UTF-8" standalone="no"?>
<!-- Generator: Adobe Illustrator 19.0.0, SVG Export Plug-In . SVG Version: 6.00 Build 0)  -->

<svg
   xmlns:dc="http://purl.org/dc/elements/1.1/"
   xmlns:cc="http://creativecommons.org/ns#"
   xmlns:rdf="http://www.w3.org/1999/02/22-rdf-syntax-ns#"
   xmlns:svg="http://www.w3.org/2000/svg"
   xmlns="http://www.w3.org/2000/svg"
   xmlns:sodipodi="http://sodipodi.sourceforge.net/DTD/sodipodi-0.dtd"
   xmlns:inkscape="http://www.inkscape.org/namespaces/inkscape"
   version="1.1"
   id="Capa_1"
   x="0px"
   y="0px"
   viewBox="0 0 47.999996 44"
   xml:space="preserve"
   sodipodi:docname="camera_2.svg"
   width="47.999996"
   height="44"
   inkscape:version="0.92.4 5da689c313, 2019-01-14"><metadata
   id="metadata945"><rdf:RDF><cc:Work
       rdf:about=""><dc:format>image/svg+xml</dc:format><dc:type
         rdf:resource="http://purl.org/dc/dcmitype/StillImage" /><dc:title></dc:title></cc:Work></rdf:RDF></metadata><defs
   id="defs943">
	

		
		
		
	</defs><sodipodi:namedview
   pagecolor="#ffffff"
   bordercolor="#666666"
   borderopacity="1"
   objecttolerance="10"
   gridtolerance="10"
   guidetolerance="10"
   inkscape:pageopacity="0"
   inkscape:pageshadow="2"
   inkscape:window-width="1366"
   inkscape:window-height="739"
   id="namedview941"
   showgrid="false"
   showborder="false"
   fit-margin-top="0"
   fit-margin-left="0"
   fit-margin-right="0"
   fit-margin-bottom="0"
   inkscape:zoom="0.78647591"
   inkscape:cx="-389.13442"
   inkscape:cy="-153.68157"
   inkscape:window-x="0"
   inkscape:window-y="432"
   inkscape:window-maximized="1"
   inkscape:current-layer="Capa_1" />
<g
   id="g903"><path
     style="fill:#ffffff;stroke-width:1.88976378;stroke:#ffffff;stroke-miterlimit:4;stroke-dasharray:none"
     inkscape:connector-curvature="0"
     id="path900"
     d="M 0,13.46442 V 37.38396 C 0,41.03495 2.625306,44 5.857959,44 h 36.28408 c 3.232653,0 5.857959,-2.96505 5.857959,-6.61604 V 13.46442 c 0,-3.47398 -2.497959,-6.2952 -5.573877,-6.2952 H 34.62857 L 34.442448,6.25094 C 33.688162,2.56676 30.817958,0 27.467754,0 H 20.522448 C 17.18204,0 14.311836,2.56676 13.547755,6.25094 L 13.361632,7.16922 H 5.5738773 C 2.4979591,7.16922 0,10.00151 0,13.46442 Z M 14.321632,9.87981 c 0.558367,0 1.038367,-0.43148 1.165714,-1.05105 l 0.401633,-1.96932 c 0.509388,-2.44506 2.409796,-4.14886 4.633469,-4.14886 h 6.945306 c 2.223673,0 4.124082,1.7038 4.633469,4.14886 l 0.401633,1.96932 c 0.127347,0.6085 0.607347,1.05105 1.165714,1.05105 h 8.747755 c 1.753469,0 3.173877,1.60422 3.173877,3.58461 v 23.91954 c 0,2.1574 -1.547755,3.90545 -3.457959,3.90545 H 5.857959 c -1.910204,0 -3.4579591,-1.74805 -3.4579591,-3.90545 V 13.46442 c 0,-1.98039 1.4204081,-3.58461 3.1738774,-3.58461 z" /><path
     style="fill:#ffffff;stroke-width:1.88976378;stroke:#ffffff;stroke-miterlimit:4;stroke-dasharray:none"
     inkscape:connector-curvature="0"
     id="path904"
     d="m 23.999999,37.04099 c 5.554286,0 10.08,-5.1114 10.08,-11.38447 0,-6.27307 -4.525714,-11.38446 -10.08,-11.38446 -5.554285,0 -10.08,5.10033 -10.08,11.38446 0,6.28414 4.525715,11.38447 10.08,11.38447 z m 0,-20.05834 c 4.231837,0 7.68,3.89439 7.68,8.67387 0,4.77949 -3.448163,8.67388 -7.68,8.67388 -4.231836,0 -7.68,-3.89439 -7.68,-8.67388 0,-4.77948 3.448164,-8.67387 7.68,-8.67387 z" /></g>
<g
   id="g910"
   transform="translate(0,-410.99999)">
</g>
<g
   id="g912"
   transform="translate(0,-410.99999)">
</g>
<g
   id="g914"
   transform="translate(0,-410.99999)">
</g>
<g
   id="g916"
   transform="translate(0,-410.99999)">
</g>
<g
   id="g918"
   transform="translate(0,-410.99999)">
</g>
<g
   id="g920"
   transform="translate(0,-410.99999)">
</g>
<g
   id="g922"
   transform="translate(0,-410.99999)">
</g>
<g
   id="g924"
   transform="translate(0,-410.99999)">
</g>
<g
   id="g926"
   transform="translate(0,-410.99999)">
</g>
<g
   id="g928"
   transform="translate(0,-410.99999)">
</g>
<g
   id="g930"
   transform="translate(0,-410.99999)">
</g>
<g
   id="g932"
   transform="translate(0,-410.99999)">
</g>
<g
   id="g934"
   transform="translate(0,-410.99999)">
</g>
<g
   id="g936"
   transform="translate(0,-410.99999)">
</g>
<g
   id="g938"
   transform="translate(0,-410.99999)">
</g>
</svg>