<?xml version="1.0" encoding="UTF-8" standalone="no"?>
<!-- Generator: Adobe Illustrator 19.0.0, SVG Export Plug-In . SVG Version: 6.00 Build 0)  -->

<svg
   xmlns:dc="http://purl.org/dc/elements/1.1/"
   xmlns:cc="http://creativecommons.org/ns#"
   xmlns:rdf="http://www.w3.org/1999/02/22-rdf-syntax-ns#"
   xmlns:svg="http://www.w3.org/2000/svg"
   xmlns="http://www.w3.org/2000/svg"
   xmlns:sodipodi="http://sodipodi.sourceforge.net/DTD/sodipodi-0.dtd"
   xmlns:inkscape="http://www.inkscape.org/namespaces/inkscape"
   version="1.1"
   id="Capa_1"
   x="0px"
   y="0px"
   viewBox="0 0 24 24"
   xml:space="preserve"
   sodipodi:docname="disk.svg"
   width="24"
   height="24"
   inkscape:version="0.92.5 (2060ec1f9f, 2020-04-08)"
   inkscape:export-xdpi="96"
   inkscape:export-ydpi="96"><metadata
   id="metadata858"><rdf:RDF><cc:Work
       rdf:about=""><dc:format>image/svg+xml</dc:format><dc:type
         rdf:resource="http://purl.org/dc/dcmitype/StillImage" /><dc:title></dc:title></cc:Work></rdf:RDF></metadata><defs
   id="defs856">
	
	
	
</defs><sodipodi:namedview
   pagecolor="#ffffff"
   bordercolor="#666666"
   borderopacity="1"
   objecttolerance="10"
   gridtolerance="10"
   guidetolerance="10"
   inkscape:pageopacity="0"
   inkscape:pageshadow="2"
   inkscape:window-width="1366"
   inkscape:window-height="731"
   id="namedview854"
   showgrid="false"
   showborder="true"
   fit-margin-top="0"
   fit-margin-left="0"
   fit-margin-right="0"
   fit-margin-bottom="-0.3"
   inkscape:zoom="4.5416668"
   inkscape:cx="-3.1268656"
   inkscape:cy="2.0635535"
   inkscape:window-x="0"
   inkscape:window-y="0"
   inkscape:window-maximized="1"
   inkscape:current-layer="Capa_1" />

<g
   id="g823"
   transform="translate(-8.2464375,-22.829711)">
</g>
<g
   id="g825"
   transform="translate(-8.2464375,-22.829711)">
</g>
<g
   id="g827"
   transform="translate(-8.2464375,-22.829711)">
</g>
<g
   id="g829"
   transform="translate(-8.2464375,-22.829711)">
</g>
<g
   id="g831"
   transform="translate(-8.2464375,-22.829711)">
</g>
<g
   id="g833"
   transform="translate(-8.2464375,-22.829711)">
</g>
<g
   id="g835"
   transform="translate(-8.2464375,-22.829711)">
</g>
<g
   id="g837"
   transform="translate(-8.2464375,-22.829711)">
</g>
<g
   id="g839"
   transform="translate(-8.2464375,-22.829711)">
</g>
<g
   id="g841"
   transform="translate(-8.2464375,-22.829711)">
</g>
<g
   id="g843"
   transform="translate(-8.2464375,-22.829711)">
</g>
<g
   id="g845"
   transform="translate(-8.2464375,-22.829711)">
</g>
<g
   id="g847"
   transform="translate(-8.2464375,-22.829711)">
</g>
<g
   id="g849"
   transform="translate(-8.2464375,-22.829711)">
</g>
<g
   id="g851"
   transform="translate(-8.2464375,-22.829711)">
</g>
<g
   id="g1005"
   transform="matrix(0.94044416,0,0,0.94044416,0.71467014,0.71467014)"
   style="fill:none;stroke:#8d5fd3;stroke-width:2.07845044"><path
     id="path920"
     d="M 12,0.27929688 A 11.720572,11.720572 0 0 0 0.27929688,12 11.720572,11.720572 0 0 0 12,23.720703 11.720572,11.720572 0 0 0 23.720703,12 11.720572,11.720572 0 0 0 12,0.27929688 Z M 12,8.59375 A 3.4069197,3.4069195 0 0 1 15.40625,12 3.4069197,3.4069195 0 0 1 12,15.40625 3.4069197,3.4069195 0 0 1 8.59375,12 3.4069197,3.4069195 0 0 1 12,8.59375 Z"
     style="fill:none;stroke:#8d5fd3;stroke-width:2.07845044;stroke-miterlimit:4;stroke-dasharray:none;stroke-opacity:0.94117647"
     inkscape:connector-curvature="0" /><ellipse
     cy="12"
     cx="12"
     id="ellipse998"
     style="fill:none;fill-opacity:0;stroke:#8d5fd3;stroke-width:2.07845044;stroke-miterlimit:4;stroke-dasharray:none;stroke-opacity:0.94117647"
     rx="3.4069197"
     ry="3.4069195" /></g></svg>