<?xml version="1.0" encoding="UTF-8" standalone="no"?>
<!-- Generator: Adobe Illustrator 18.1.1, SVG Export Plug-In . SVG Version: 6.00 Build 0)  -->

<svg
   xmlns:dc="http://purl.org/dc/elements/1.1/"
   xmlns:cc="http://creativecommons.org/ns#"
   xmlns:rdf="http://www.w3.org/1999/02/22-rdf-syntax-ns#"
   xmlns:svg="http://www.w3.org/2000/svg"
   xmlns="http://www.w3.org/2000/svg"
   xmlns:sodipodi="http://sodipodi.sourceforge.net/DTD/sodipodi-0.dtd"
   xmlns:inkscape="http://www.inkscape.org/namespaces/inkscape"
   version="1.1"
   id="Capa_1"
   x="0px"
   y="0px"
   viewBox="0 0 24 24"
   xml:space="preserve"
   sodipodi:docname="history.svg"
   width="24"
   height="24"
   inkscape:version="0.92.5 (2060ec1f9f, 2020-04-08)"><metadata
   id="metadata185"><rdf:RDF><cc:Work
       rdf:about=""><dc:format>image/svg+xml</dc:format><dc:type
         rdf:resource="http://purl.org/dc/dcmitype/StillImage" /><dc:title /></cc:Work></rdf:RDF></metadata><defs
   id="defs183">
	

		
		
		
		
		
		
		
		
		
		
		
		
		
	</defs><sodipodi:namedview
   pagecolor="#ffffff"
   bordercolor="#666666"
   borderopacity="1"
   objecttolerance="10"
   gridtolerance="10"
   guidetolerance="10"
   inkscape:pageopacity="0"
   inkscape:pageshadow="2"
   inkscape:window-width="1366"
   inkscape:window-height="739"
   id="namedview181"
   showgrid="false"
   showborder="false"
   fit-margin-top="0"
   fit-margin-left="0"
   fit-margin-right="0"
   fit-margin-bottom="0"
   inkscape:zoom="5.8778251"
   inkscape:cx="25.815513"
   inkscape:cy="7.8319689"
   inkscape:window-x="0"
   inkscape:window-y="0"
   inkscape:window-maximized="1"
   inkscape:current-layer="Capa_1" />

<g
   id="g150"
   transform="translate(0,-8)">
</g>
<g
   id="g152"
   transform="translate(0,-8)">
</g>
<g
   id="g154"
   transform="translate(0,-8)">
</g>
<g
   id="g156"
   transform="translate(0,-8)">
</g>
<g
   id="g158"
   transform="translate(0,-8)">
</g>
<g
   id="g160"
   transform="translate(0,-8)">
</g>
<g
   id="g162"
   transform="translate(0,-8)">
</g>
<g
   id="g164"
   transform="translate(0,-8)">
</g>
<g
   id="g166"
   transform="translate(0,-8)">
</g>
<g
   id="g168"
   transform="translate(0,-8)">
</g>
<g
   id="g170"
   transform="translate(0,-8)">
</g>
<g
   id="g172"
   transform="translate(0,-8)">
</g>
<g
   id="g174"
   transform="translate(0,-8)">
</g>
<g
   id="g176"
   transform="translate(0,-8)">
</g>
<g
   id="g178"
   transform="translate(0,-8)">
</g>
<g
   id="g1276"><path
     inkscape:connector-curvature="0"
     id="path121"
     d="M 21.75,0 H 5.25 C 4.00725,0 3,1.0065 3,2.25 v 1.5 H 2.25 C 1.00725,3.75 0,4.7565 0,6 v 15 c 0,1.65675 1.34325,3 3,3 h 18 c 1.65675,0 3,-1.34325 3,-3 V 2.25 C 24,1.0065 22.992,0 21.75,0 Z m 0.75,21 c 0,0.8265 -0.6735,1.5 -1.5,1.5 H 3 C 2.17275,22.5 1.5,21.8265 1.5,21 V 6 C 1.5,5.586 1.836,5.25 2.25,5.25 H 3 v 15 C 3,20.66475 3.33525,21 3.75,21 4.16475,21 4.5,20.66475 4.5,20.25 v -18 C 4.5,1.836 4.836,1.5 5.25,1.5 h 16.5 c 0.41325,0 0.75,0.336 0.75,0.75 z"
     style="fill:#008080;stroke-width:0.75" /><path
     inkscape:connector-curvature="0"
     id="path123"
     d="m 14.6235,9.75375 h 6 c 0.20775,0 0.375,-0.168 0.375,-0.375 0,-0.207 -0.16725,-0.375 -0.375,-0.375 h -6 c -0.20625,0 -0.375,0.168 -0.375,0.375 0,0.207 0.16875,0.375 0.375,0.375 z"
     style="fill:#008080;stroke-width:0.75" /><path
     inkscape:connector-curvature="0"
     id="path125"
     d="m 14.6235,7.50375 h 6 c 0.20775,0 0.375,-0.168 0.375,-0.375 0,-0.207 -0.16725,-0.375 -0.375,-0.375 h -6 c -0.20625,0 -0.375,0.168 -0.375,0.375 0,0.207 0.16875,0.375 0.375,0.375 z"
     style="fill:#008080;stroke-width:0.75" /><path
     inkscape:connector-curvature="0"
     id="path127"
     d="m 14.6235,5.25375 h 6 c 0.20775,0 0.375,-0.168 0.375,-0.375 0,-0.207 -0.16725,-0.375 -0.375,-0.375 h -6 c -0.20625,0 -0.375,0.168 -0.375,0.375 0,0.207 0.16875,0.375 0.375,0.375 z"
     style="fill:#008080;stroke-width:0.75" /><path
     inkscape:connector-curvature="0"
     id="path129"
     d="m 12.375,20.253 h -6 C 6.168,20.253 6,20.42175 6,20.628 c 0,0.20775 0.168,0.375 0.375,0.375 h 6 c 0.20625,0 0.375,-0.16725 0.375,-0.375 0,-0.20625 -0.168,-0.375 -0.375,-0.375 z"
     style="fill:#008080;stroke-width:0.75" /><path
     inkscape:connector-curvature="0"
     id="path131"
     d="m 12.375,18.003 h -6 C 6.168,18.003 6,18.17175 6,18.378 c 0,0.20775 0.168,0.375 0.375,0.375 h 6 c 0.20625,0 0.375,-0.16725 0.375,-0.375 0,-0.20625 -0.168,-0.375 -0.375,-0.375 z"
     style="fill:#008080;stroke-width:0.75" /><path
     inkscape:connector-curvature="0"
     id="path133"
     d="m 12.375,15.753 h -6 C 6.168,15.753 6,15.92175 6,16.128 c 0,0.20775 0.168,0.375 0.375,0.375 h 6 c 0.20625,0 0.375,-0.16725 0.375,-0.375 0,-0.20625 -0.168,-0.375 -0.375,-0.375 z"
     style="fill:#008080;stroke-width:0.75" /><path
     inkscape:connector-curvature="0"
     id="path135"
     d="m 20.625,20.253 h -6 c -0.20775,0 -0.375,0.16875 -0.375,0.375 0,0.20775 0.16725,0.375 0.375,0.375 h 6 c 0.20625,0 0.375,-0.16725 0.375,-0.375 0,-0.20625 -0.16875,-0.375 -0.375,-0.375 z"
     style="fill:#008080;stroke-width:0.75" /><path
     inkscape:connector-curvature="0"
     id="path137"
     d="m 20.625,18.003 h -6 c -0.20775,0 -0.375,0.16875 -0.375,0.375 0,0.20775 0.16725,0.375 0.375,0.375 h 6 c 0.20625,0 0.375,-0.16725 0.375,-0.375 0,-0.20625 -0.16875,-0.375 -0.375,-0.375 z"
     style="fill:#008080;stroke-width:0.75" /><path
     inkscape:connector-curvature="0"
     id="path139"
     d="m 20.625,15.753 h -6 c -0.20775,0 -0.375,0.16875 -0.375,0.375 0,0.20775 0.16725,0.375 0.375,0.375 h 6 c 0.20625,0 0.375,-0.16725 0.375,-0.375 0,-0.20625 -0.16875,-0.375 -0.375,-0.375 z"
     style="fill:#008080;stroke-width:0.75" /><path
     inkscape:connector-curvature="0"
     id="path141"
     d="M 20.625,11.253 H 6.375 C 6.168,11.253 6,11.421 6,11.628 c 0,0.207 0.168,0.375 0.375,0.375 h 14.25 c 0.20625,0 0.375,-0.168 0.375,-0.375 0,-0.207 -0.16875,-0.375 -0.375,-0.375 z"
     style="fill:#008080;stroke-width:0.75" /><path
     inkscape:connector-curvature="0"
     id="path143"
     d="M 20.625,13.503 H 6.375 C 6.168,13.503 6,13.67175 6,13.878 c 0,0.20775 0.168,0.375 0.375,0.375 h 14.25 c 0.20625,0 0.375,-0.16725 0.375,-0.375 0,-0.20625 -0.16875,-0.375 -0.375,-0.375 z"
     style="fill:#008080;stroke-width:0.75" /><path
     inkscape:connector-curvature="0"
     id="path145"
     d="M 6.75,9.75 H 12 c 0.41475,0 0.75,-0.33525 0.75,-0.75 V 3.753 C 12.75,3.33825 12.41475,3.003 12,3.003 H 6.75 C 6.33525,3.003 6,3.33825 6,3.753 V 9 C 6,9.414 6.33525,9.75 6.75,9.75 Z M 7.5,4.5 h 3.75 V 8.25 H 7.5 Z"
     style="fill:#008080;stroke-width:0.75" /><path
     inkscape:connector-curvature="0"
     id="path187"
     d="M 2.3859609,22.307489 C 2.224112,22.220689 1.9758927,22.006608 1.8343625,21.831756 L 1.5770348,21.513842 1.5544644,13.647919 1.531894,5.781995 1.7818509,5.532038 C 1.9986567,5.3152325 2.0947268,5.2820815 2.5062115,5.2820815 h 0.4744036 v 7.6442935 7.644293 l 0.2242636,0.224264 c 0.2736943,0.273694 0.7370251,0.298857 1.0517186,0.05712 L 4.469261,20.688685 4.5117937,11.319223 4.5543265,1.9497595 4.7930001,1.74448 5.0316735,1.5392005 H 13.44441 c 5.984348,0 8.47257,0.02726 8.620022,0.094445 0.114007,0.051945 0.249786,0.1877245 0.301732,0.301732 0.06743,0.1479905 0.09445,2.9444273 0.09445,9.7758815 0,7.935753 -0.01999,9.615307 -0.117121,9.842326 -0.141639,0.331031 -0.519526,0.69812 -0.845403,0.821245 -0.163863,0.06191 -3.172261,0.09048 -9.528661,0.09048 -8.8851824,0 -9.3019909,-0.0069 -9.5834631,-0.157819 z M 12.661067,20.917116 c 0.05614,-0.05614 0.102078,-0.182466 0.102078,-0.280716 0,-0.09825 -0.04594,-0.224573 -0.102078,-0.280716 -0.146495,-0.146495 -6.4545865,-0.146495 -6.6010815,0 -0.1312135,0.131213 -0.1312135,0.430218 0,0.561432 0.146495,0.146494 6.4545865,0.146494 6.6010815,0 z m 8.251351,0 c 0.05614,-0.05614 0.102079,-0.182466 0.102079,-0.280716 0,-0.378451 -0.0386,-0.382795 -3.402619,-0.382795 -3.364014,0 -3.40262,0.0043 -3.40262,0.382795 0,0.09825 0.04594,0.224573 0.102079,0.280716 0.146495,0.146494 6.454586,0.146494 6.601081,0 z m -8.313811,-2.197682 c 0.105193,-0.0563 0.164538,-0.177943 0.164538,-0.337269 0,-0.159327 -0.05935,-0.280972 -0.164538,-0.33727 -0.104799,-0.05609 -1.291674,-0.08806 -3.2689455,-0.08806 -2.7087665,0 -3.121442,0.01703 -3.2380805,0.133675 -0.1721525,0.172152 -0.1696975,0.366049 0.00711,0.561418 0.131477,0.145281 0.3455005,0.155562 3.23808,0.155562 1.972372,0 3.157058,-0.03198 3.261837,-0.08806 z m 8.251351,0 c 0.105194,-0.0563 0.164539,-0.177943 0.164539,-0.337269 0,-0.159327 -0.05935,-0.280972 -0.164539,-0.33727 -0.104798,-0.05609 -1.291673,-0.08806 -3.268945,-0.08806 -2.708766,0 -3.121442,0.01703 -3.23808,0.133675 -0.07352,0.07352 -0.133675,0.204764 -0.133675,0.291653 0,0.08689 0.06015,0.218132 0.133675,0.291653 0.116638,0.116638 0.529314,0.133674 3.23808,0.133674 1.977272,0 3.164147,-0.03197 3.268945,-0.08806 z m -8.188891,-2.310788 c 0.05614,-0.05614 0.102078,-0.182465 0.102078,-0.280717 0,-0.09825 -0.04594,-0.224572 -0.102078,-0.280715 -0.146495,-0.146495 -6.4545865,-0.146495 -6.6010815,0 -0.1312135,0.131213 -0.1312135,0.430218 0,0.561432 0.146495,0.146494 6.4545865,0.146494 6.6010815,0 z m 8.251351,0 c 0.05614,-0.05614 0.102079,-0.182465 0.102079,-0.280717 0,-0.37845 -0.0386,-0.382794 -3.402619,-0.382794 -3.364014,0 -3.40262,0.0044 -3.40262,0.382794 0,0.09825 0.04594,0.224573 0.102079,0.280717 0.146495,0.146494 6.454586,0.146494 6.601081,0 z m -0.06246,-2.197682 c 0.221965,-0.118793 0.221965,-0.555745 0,-0.674539 -0.109707,-0.05871 -2.566616,-0.08806 -7.372732,-0.08806 -6.587926,0 -7.22158,0.01212 -7.3637565,0.140783 -0.190919,0.172779 -0.199497,0.398589 -0.02189,0.576198 0.1194255,0.119425 0.9043755,0.133674 7.3637565,0.133674 4.821203,0 7.284902,-0.02934 7.39462,-0.08806 z m 0.06246,-2.310788 c 0.05614,-0.05614 0.102079,-0.182466 0.102079,-0.280716 0,-0.09825 -0.04594,-0.224573 -0.102079,-0.280716 -0.147921,-0.147922 -14.704512,-0.147922 -14.8524325,0 -0.1312135,0.131213 -0.1312135,0.430218 0,0.561432 0.1479205,0.147921 14.7045105,0.147921 14.8524325,0 z M 12.501421,9.570326 12.763145,9.3501005 V 6.376504 3.4029076 L 12.554348,3.1941105 12.345551,2.9853135 H 9.400382 6.4552125 L 6.20656,3.2339664 5.957907,3.4826193 V 6.3879325 9.293246 l 0.248653,0.2486525 0.2486525,0.248653 h 2.8922435 2.892243 z m 8.410997,0.118147 C 21.074167,9.5267235 21.03644,9.1277575 20.849957,9.0279555 20.74522,8.9719015 19.565084,8.939897 17.602901,8.939897 c -2.748941,0 -3.099352,0.015235 -3.23808,0.140782 -0.190919,0.1727795 -0.199497,0.3985895 -0.02189,0.5761985 0.116734,0.1167345 0.534992,0.133674 3.30054,0.133674 2.349698,0 3.193206,-0.02634 3.268945,-0.1020785 z m -0.08698,-2.2420455 c 0.205681,-0.144064 0.249396,-0.453739 0.08698,-0.6161545 -0.146495,-0.146495 -6.454587,-0.146495 -6.601082,0 -0.162415,0.1624155 -0.1187,0.4720905 0.08698,0.6161545 0.283898,0.1988505 6.143222,0.1988505 6.42712,0 z m 0.08698,-2.266425 c 0.121756,-0.1217565 0.130873,-0.4011366 0.01888,-0.578445 -0.124552,-0.197184 -6.222994,-0.2379969 -6.519632,-0.043632 -0.219481,0.143809 -0.251918,0.3025593 -0.114344,0.5596165 0.08468,0.1582155 0.211514,0.164539 3.30054,0.164539 2.385177,0 3.23877,-0.02629 3.314561,-0.102079 z"
     style="fill:none;stroke-width:0.08506548" /><path
     inkscape:connector-curvature="0"
     id="path189"
     d="M 2.4276896,22.344739 C 2.1106751,22.203237 1.7445239,21.819184 1.6249792,21.502783 1.5634701,21.339986 1.534502,18.784569 1.534502,13.521352 V 5.779387 L 1.783155,5.5307345 c 0.2153788,-0.215379 0.3121363,-0.248653 0.7230566,-0.248653 h 0.4744036 v 7.6483315 7.648331 l 0.2617231,0.220226 c 0.3907663,0.328807 0.9635589,0.255389 1.1757193,-0.1507 0.067998,-0.130152 0.1009525,-2.819526 0.1156776,-9.440249 L 4.5543267,1.949773 4.7930003,1.7444865 5.0316735,1.5392005 H 13.44441 c 5.984348,0 8.47257,0.02726 8.620022,0.094445 0.114007,0.051945 0.249786,0.1877245 0.301732,0.301732 0.06743,0.1479905 0.09445,2.9444273 0.09445,9.7758815 0,7.935753 -0.01999,9.615307 -0.117121,9.842326 -0.141639,0.331031 -0.519526,0.69812 -0.845403,0.821245 -0.164063,0.06199 -3.164073,0.08943 -9.527334,0.08715 C 4.4002426,22.45928 2.6357045,22.43759 2.4276946,22.344741 Z M 12.598607,20.931136 c 0.183921,-0.09843 0.218735,-0.419177 0.06246,-0.575452 -0.133724,-0.133724 -6.2902875,-0.146925 -6.5386215,-0.01402 -0.19888,0.106438 -0.213348,0.361373 -0.030865,0.543857 0.1166385,0.116638 0.529314,0.133674 3.2380805,0.133674 1.977272,0 3.164146,-0.03197 3.268945,-0.08806 z m 8.251351,0 c 0.09336,-0.04997 0.164539,-0.177461 0.164539,-0.294736 0,-0.117276 -0.07118,-0.244769 -0.164539,-0.294736 -0.224588,-0.120196 -6.251573,-0.120196 -6.476161,0 -0.19888,0.106438 -0.213348,0.361373 -0.03087,0.543856 0.116639,0.116639 0.529314,0.133675 3.238081,0.133675 1.977271,0 3.164146,-0.03197 3.268945,-0.08806 z m -8.220487,-2.257318 c 0.18479,-0.18479 0.168224,-0.522374 -0.03087,-0.628923 -0.104737,-0.05605 -1.284874,-0.08806 -3.247057,-0.08806 -2.748941,0 -3.099352,0.01524 -3.2380805,0.140783 -0.2092685,0.189385 -0.196086,0.416644 0.033495,0.577451 0.1626615,0.113932 0.619083,0.132421 3.2689445,0.132421 2.686476,0 3.096962,-0.01707 3.213561,-0.133674 z m 8.251351,0 c 0.18479,-0.18479 0.168224,-0.522374 -0.03086,-0.628923 -0.104737,-0.05605 -1.284873,-0.08806 -3.247056,-0.08806 -2.748941,0 -3.099352,0.01524 -3.23808,0.140783 -0.209269,0.189385 -0.196087,0.416644 0.0335,0.577451 0.162661,0.113932 0.619083,0.132421 3.268944,0.132421 2.686476,0 3.096961,-0.01707 3.213561,-0.133674 z m -8.219755,-2.265172 c 0.05614,-0.05614 0.102078,-0.182465 0.102078,-0.280717 0,-0.37821 -0.04037,-0.382794 -3.3710235,-0.382794 -2.7655485,0 -3.1838055,0.01694 -3.3005405,0.133675 -0.176937,0.176937 -0.1697535,0.432315 0.01519,0.540035 0.226505,0.131927 6.421809,0.122287 6.554295,-0.0102 z m 8.251351,0 c 0.156276,-0.156275 0.121461,-0.477021 -0.06246,-0.575453 -0.224588,-0.120195 -6.251573,-0.120195 -6.476161,0 -0.205928,0.11021 -0.215537,0.469243 -0.01567,0.585652 0.226506,0.131927 6.421809,0.122287 6.554295,-0.0102 z m -0.06246,-2.197682 c 0.175068,-0.09369 0.214568,-0.381588 0.08129,-0.592466 -0.07047,-0.111497 -0.995027,-0.13046 -7.327097,-0.150281 -6.40646,-0.02005 -7.2696245,-0.0075 -7.4463475,0.108293 -0.251658,0.164893 -0.256309,0.418155 -0.010835,0.590091 0.167485,0.11731 1.0077705,0.132421 7.3637565,0.132421 4.783025,0 7.229545,-0.02936 7.339235,-0.08806 z m 0,-2.296768 c 0.09336,-0.04997 0.164539,-0.177461 0.164539,-0.294736 0,-0.117276 -0.07118,-0.244769 -0.164539,-0.294737 -0.109718,-0.05872 -2.573417,-0.08806 -7.39462,-0.08806 -6.4593815,0 -7.2443315,0.01425 -7.363757,0.133675 -0.176937,0.176937 -0.1697535,0.432315 0.01519,0.540036 0.2078045,0.121035 14.517241,0.124743 14.743186,0.0038 z m -8.348536,-2.34387 0.261723,-0.2202255 v -2.95813 -2.95813 L 12.538882,3.209577 12.314618,2.9853135 H 9.3849155 6.4552125 L 6.20656,3.2339664 5.957907,3.4826193 v 2.9053132 2.905313 l 0.248653,0.248653 0.2486525,0.248653 h 2.8922435 2.892243 z m 8.348536,0.132167 c 0.175048,-0.093682 0.214566,-0.3815425 0.08133,-0.592465 -0.124552,-0.197184 -6.222994,-0.237997 -6.519632,-0.04363 -0.233149,0.152765 -0.261642,0.3975675 -0.06873,0.5904815 0.116638,0.116638 0.529314,0.133674 3.23808,0.133674 1.977272,0 3.164147,-0.03197 3.268945,-0.088058 z m 0.024,-2.282924 c 0.190924,-0.1586035 0.177524,-0.495464 -0.024,-0.603316 -0.104798,-0.056086 -1.291673,-0.088058 -3.268945,-0.088058 -2.708766,0 -3.121442,0.017035 -3.23808,0.1336745 -0.160673,0.1606725 -0.173461,0.408042 -0.02734,0.5289065 0.184463,0.152582 0.546004,0.168719 3.517276,0.1569905 2.320566,-0.00916 2.928653,-0.034795 3.041091,-0.128197 z m -0.024,-2.225546 c 0.09078,-0.048585 0.164539,-0.1773765 0.164539,-0.2873134 0,-0.4263988 -0.04993,-0.4327503 -3.40236,-0.4327503 -2.520293,0 -3.148266,0.022475 -3.262013,0.1167477 -0.177479,0.1470918 -0.180538,0.3843537 -0.0072,0.5577 0.116635,0.1166385 0.529311,0.1336745 3.238077,0.1336745 1.977272,0 3.164147,-0.03197 3.268945,-0.088059 z"
     style="fill:none;stroke-width:0.08506548" /><path
     inkscape:connector-curvature="0"
     id="path191"
     d="M 2.4276896,22.344739 C 2.1106751,22.203237 1.7445239,21.819184 1.6249792,21.502783 1.5634613,21.339963 1.534502,18.776226 1.534502,13.492924 V 5.722532 L 1.7962251,5.502307 C 2.0073848,5.3246275 2.1470753,5.2820815 2.5192817,5.2820815 h 0.4613335 v 7.6483315 7.648331 l 0.2617231,0.220226 c 0.3545037,0.298295 0.7038074,0.288567 1.0208025,-0.02843 L 4.5117937,20.521889 V 11.279198 2.036506 l 0.248653,-0.2486525 0.2486528,-0.248653 h 8.4240235 c 5.99262,0 8.483852,0.02726 8.631309,0.094445 0.114007,0.051945 0.249786,0.1877245 0.301732,0.301732 0.06743,0.1479905 0.09445,2.9444273 0.09445,9.7758815 0,7.935753 -0.01999,9.615307 -0.117121,9.842326 -0.141639,0.331031 -0.519526,0.69812 -0.845403,0.821245 -0.164063,0.06199 -3.164073,0.08943 -9.527334,0.08715 C 4.4002426,22.45928 2.6357045,22.43759 2.4276946,22.344741 Z M 12.544944,20.936234 c 0.268473,-0.102073 0.300978,-0.462211 0.05366,-0.594571 -0.104799,-0.05609 -1.291674,-0.08806 -3.2689455,-0.08806 -2.7087665,0 -3.121442,0.01703 -3.2380805,0.133675 -0.206374,0.206374 -0.1509755,0.46618 0.1215225,0.569911 0.226126,0.08608 6.1014635,0.06663 6.3318395,-0.02096 z m 8.251351,0 c 0.155474,-0.05911 0.218201,-0.145305 0.218201,-0.299834 0,-0.154529 -0.06273,-0.240724 -0.218201,-0.299835 -0.233094,-0.08862 -5.984359,-0.116795 -6.30469,-0.03089 -0.323505,0.08676 -0.356482,0.573502 -0.04442,0.655644 0.300207,0.07902 6.13593,0.05596 6.349109,-0.02509 z m -8.199881,-2.284521 c 0.241967,-0.195933 0.179535,-0.563755 -0.108801,-0.641017 -0.105781,-0.02834 -1.533162,-0.05206 -3.1719585,-0.0527 -2.592228,-0.001 -3.0048405,0.01649 -3.173529,0.134651 -0.120651,0.08451 -0.1840365,0.204208 -0.1677925,0.316866 0.053359,0.370052 0.273143,0.395394 3.440568,0.396723 2.771678,0.0011 3.00313,-0.01008 3.181513,-0.154525 z m 8.251352,0 c 0.241966,-0.195933 0.179535,-0.563755 -0.108802,-0.641017 -0.105781,-0.02834 -1.533161,-0.05206 -3.171958,-0.0527 -2.592228,-0.001 -3.004841,0.01649 -3.173529,0.134651 -0.120651,0.08451 -0.184037,0.204208 -0.167792,0.316866 0.05336,0.370052 0.273143,0.395394 3.440568,0.396723 2.771677,0.0011 3.00313,-0.01008 3.181513,-0.154525 z m -8.302822,-2.223949 c 0.155474,-0.05911 0.218201,-0.145305 0.218201,-0.299835 0,-0.154528 -0.06273,-0.240722 -0.218201,-0.299834 -0.233094,-0.08862 -5.984359,-0.116794 -6.30469,-0.03088 -0.3235055,0.08676 -0.356482,0.573502 -0.04442,0.655644 0.300207,0.07902 6.135931,0.05596 6.34911,-0.02509 z m 8.251351,0 c 0.155474,-0.05911 0.218201,-0.145305 0.218201,-0.299835 0,-0.154528 -0.06273,-0.240722 -0.218201,-0.299834 -0.233094,-0.08862 -5.984359,-0.116794 -6.30469,-0.03088 -0.323505,0.08676 -0.356482,0.573502 -0.04442,0.655644 0.300207,0.07902 6.13593,0.05596 6.349109,-0.02509 z m -0.131591,-2.182129 c 0.327827,-0.06556 0.450637,-0.392592 0.230232,-0.613071 -0.129414,-0.129455 -0.744333,-0.14386 -7.135263,-0.167141 -3.846504,-0.01401 -7.1432045,0.0061 -7.326001,0.0447 -0.5612915,0.118513 -0.6419365,0.570726 -0.1274525,0.714688 0.259784,0.07269 13.9995115,0.09262 14.3584845,0.02082 z m 0.0946,-2.319494 c 0.164565,-0.04577 0.212663,-0.115139 0.212663,-0.306681 0,-0.191543 -0.0481,-0.260906 -0.212663,-0.306682 -0.262921,-0.07313 -14.084574,-0.09613 -14.44506,-0.02403 -0.4126305,0.08253 -0.470042,0.577559 -0.075849,0.654005 0.3198295,0.06203 14.295687,0.04604 14.520909,-0.01661 z M 12.501421,9.570326 12.763145,9.3501005 V 6.406292 3.462483 L 12.534567,3.2238982 12.305988,2.9853135 H 9.3806 6.4552125 L 6.20656,3.2339664 5.957907,3.4826193 V 6.3879325 9.293246 l 0.248653,0.2486525 0.2486525,0.248653 h 2.8922435 2.892243 z m 8.237543,0.1663665 c 0.254443,-0.06818 0.344933,-0.4235715 0.155979,-0.612598 -0.126995,-0.127046 -0.464734,-0.141665 -3.272823,-0.141665 -3.305476,0 -3.412862,0.01222 -3.412862,0.388387 0,0.08519 0.08508,0.2144815 0.189059,0.2873135 0.162458,0.1137905 0.608283,0.132258 3.168689,0.13126 1.638796,-6.5e-4 3.066177,-0.024355 3.171958,-0.052697 z m 0.142559,-2.323513 C 21.095174,7.235865 21.048629,6.907092 20.796295,6.8111545 20.560257,6.721413 14.81004,6.6949 14.48479,6.7820545 14.259235,6.842494 14.1451,7.186383 14.291892,7.363257 c 0.142532,0.17174 0.676766,0.1969335 3.761203,0.177374 2.063291,-0.013085 2.726641,-0.042975 2.828428,-0.1274505 z M 20.849958,5.194023 c 0.200235,-0.1071625 0.215336,-0.4444104 0.0269,-0.6007972 -0.204707,-0.1698921 -6.322303,-0.1722529 -6.526884,-0.00252 -0.196159,0.162746 -0.175449,0.4022033 0.04834,0.5589527 0.162576,0.1138725 0.616153,0.1324215 3.238081,0.1324215 1.939093,0 3.108918,-0.032055 3.21356,-0.088058 z"
     style="fill:none;stroke-width:0.08506548" /><path
     inkscape:connector-curvature="0"
     id="path193"
     d="M 2.4276896,22.344739 C 2.1106751,22.203237 1.7445239,21.819184 1.6249792,21.502783 1.5634613,21.339963 1.534502,18.776226 1.534502,13.492924 V 5.722532 L 1.7962251,5.502307 C 2.0073848,5.3246275 2.1470753,5.2820815 2.5192817,5.2820815 h 0.4613335 v 7.6410655 7.641064 l 0.2004656,0.188328 c 0.1102561,0.10358 0.3381571,0.210671 0.5064466,0.237981 0.2621275,0.04254 0.3431215,0.01252 0.5651236,-0.209489 L 4.5117937,20.521889 V 11.259123 1.9963575 L 4.7503785,1.767779 4.9889632,1.5392005 h 8.4340918 c 5.999999,0 8.493914,0.027255 8.641378,0.094445 0.114006,0.051945 0.249786,0.1877245 0.301731,0.301732 0.06743,0.1479905 0.09445,2.9444273 0.09445,9.7758815 0,7.935753 -0.01998,9.615307 -0.117121,9.842326 -0.141638,0.331031 -0.519526,0.69812 -0.845403,0.821245 -0.164063,0.06199 -3.164073,0.08943 -9.527333,0.08715 -7.5705144,-0.0027 -9.3350525,-0.02439 -9.5430624,-0.117239 z m 9.9326174,-1.380342 c 0.246582,-0.04076 0.332197,-0.100656 0.372313,-0.260488 0.02903,-0.115658 0.0078,-0.251887 -0.04798,-0.307667 -0.07323,-0.07325 -0.966973,-0.100104 -3.3314185,-0.100104 -2.779204,0 -3.2427995,0.01786 -3.3132215,0.127599 -0.045035,0.07018 -0.072018,0.184056 -0.059965,0.253059 0.05354,0.306538 0.3723675,0.339883 3.252894,0.340208 1.543938,1.71e-4 2.951259,-0.0235 3.127378,-0.05261 z m 8.25135,0 c 0.246582,-0.04076 0.332198,-0.100656 0.372314,-0.260488 0.02901,-0.115591 0.0078,-0.25192 -0.0479,-0.307667 -0.106936,-0.107053 -5.833868,-0.199496 -6.357071,-0.102615 -0.147537,0.02732 -0.291953,0.111442 -0.320924,0.18694 -0.07509,0.19568 0.01948,0.43611 0.18911,0.48076 0.226386,0.05959 5.805691,0.06237 6.164472,0.003 z m -7.984946,-2.319592 c 0.07955,-0.06609 0.133227,-0.199105 0.119273,-0.2956 -0.05378,-0.371923 -0.265892,-0.39451 -3.4888435,-0.371513 -2.737326,0.01953 -3.0525645,0.0361 -3.1837755,0.1674 -0.205071,0.205201 -0.04211,0.551232 0.2840025,0.603043 0.131192,0.02084 1.5629185,0.03315 3.181615,0.02736 2.3985135,-0.0086 2.9698485,-0.03277 3.0877285,-0.13069 z m 8.251354,0 c 0.197361,-0.163949 0.138952,-0.448333 -0.118765,-0.578253 -0.265243,-0.133713 -5.903923,-0.157107 -6.248955,-0.02593 -0.45091,0.171436 -0.368937,0.598967 0.13305,0.693917 0.158906,0.03006 1.594168,0.0492 3.189474,0.04254 2.360132,-0.0099 2.927503,-0.0345 3.045196,-0.13227 z m -8.412649,-2.20878 c 0.213431,-0.04564 0.255197,-0.09557 0.255197,-0.305096 0,-0.194742 -0.04735,-0.263697 -0.212665,-0.309681 -0.116965,-0.03254 -1.557774,-0.06297 -3.2017975,-0.06763 -2.7664475,-0.0078 -3.0033155,0.003 -3.179495,0.145665 -0.216276,0.17513 -0.1770835,0.488755 0.069178,0.553576 0.2268395,0.05971 5.9839165,0.04425 6.2695825,-0.01683 z m 8.251351,0 c 0.213431,-0.04564 0.255196,-0.09557 0.255196,-0.305096 0,-0.194742 -0.04735,-0.263697 -0.212663,-0.309681 -0.116965,-0.03254 -1.557775,-0.06297 -3.201799,-0.06763 -2.766447,-0.0078 -3.003315,0.003 -3.179494,0.145665 -0.216276,0.17513 -0.177084,0.488755 0.06918,0.553576 0.226839,0.05971 5.983916,0.04425 6.269582,-0.01683 z m 0.157103,-2.296283 c 0.07734,-0.06421 0.140626,-0.183933 0.140626,-0.266047 0,-0.39039 0.14669,-0.382795 -7.392471,-0.382795 -3.9111555,0 -7.2139095,0.0288 -7.339453,0.064 -0.2596095,0.07279 -0.3868555,0.354029 -0.240153,0.530795 0.054212,0.06532 0.239202,0.134239 0.411089,0.153149 0.1718865,0.01891 3.455144,0.03061 7.296128,0.02601 5.78501,-0.0069 7.007745,-0.0284 7.124234,-0.125114 z m 0.05739,-2.307619 c 0.101758,-0.161032 0.101754,-0.264309 -1.7e-5,-0.425327 -0.07067,-0.111807 -0.986056,-0.127598 -7.396333,-0.127598 -6.6642285,0 -7.328101,0.01241 -7.455088,0.139379 -0.226019,0.225984 -0.085801,0.482481 0.2863275,0.523772 0.1731475,0.01921 3.502989,0.03098 7.3996485,0.02615 6.198637,-0.0077 7.094918,-0.02474 7.165462,-0.136378 z M 12.501421,9.570326 12.763145,9.3501005 V 6.406292 3.462483 L 12.534567,3.2238982 12.305988,2.9853135 H 9.3806 6.4552125 L 6.20656,3.2339664 5.957907,3.4826193 V 6.3748455 9.267072 l 0.26174,0.2617395 0.2617395,0.26174 h 2.8791565 2.879156 z m 8.163283,0.166839 c 0.327844,-0.065569 0.450642,-0.392603 0.230202,-0.6130705 -0.12703,-0.127045 -0.464792,-0.141665 -3.272921,-0.141665 -3.34488,0 -3.453761,0.01333 -3.395566,0.4157545 0.05234,0.361909 0.288355,0.3897885 3.311026,0.3911135 1.573179,7e-4 2.980447,-0.02277 3.127259,-0.052133 z m 0.254489,-2.3705445 c 0.07177,-0.069492 0.09703,-0.1946405 0.06502,-0.322169 -0.07445,-0.296615 -0.273001,-0.314432 -3.499936,-0.314067 -2.880526,3.235e-4 -3.199354,0.03367 -3.252894,0.3402085 -0.07785,0.445745 0.482524,0.5078595 4.061016,0.4501385 1.934559,-0.031205 2.536317,-0.066509 2.626792,-0.154111 z m 0.01211,-2.25467 c 0.129475,-0.204998 0.09586,-0.4125653 -0.08226,-0.5078893 -0.105913,-0.056683 -1.292057,-0.089001 -3.29615,-0.089808 -2.885132,-0.00116 -3.13924,0.010424 -3.239625,0.1477084 -0.150745,0.2061565 -0.09819,0.3834604 0.15194,0.5125499 0.163671,0.08447 0.91459,0.104321 3.298706,0.087202 2.634724,-0.01892 3.0986,-0.04085 3.167386,-0.149763 z"
     style="fill:none;stroke-width:0.08506548" /><path
     inkscape:connector-curvature="0"
     id="path195"
     d="M 2.4276896,22.344739 C 2.1106751,22.203237 1.7445239,21.819184 1.6249792,21.502783 1.5634613,21.339963 1.534502,18.776226 1.534502,13.492924 V 5.722532 L 1.7962251,5.502307 C 2.0073158,5.324686 2.1471096,5.2820815 2.5188294,5.2820815 h 0.4608811 l 0.021719,7.6737765 0.021718,7.673776 0.2890426,0.19478 c 0.3869878,0.260784 0.6512655,0.245812 0.9509503,-0.05387 L 4.5117937,20.521889 V 11.259123 1.9963575 L 4.7503785,1.767779 4.9889632,1.5392005 l 8.4168278,0.00115 c 4.629255,6.5e-4 8.504489,0.024645 8.611632,0.053345 0.459544,0.123101 0.443187,-0.25004 0.443187,10.1093255 0,7.94274 -0.01998,9.623529 -0.117122,9.850553 -0.141638,0.331031 -0.519525,0.69812 -0.845403,0.821245 -0.164063,0.06199 -3.164072,0.08943 -9.527333,0.08715 -7.5705144,-0.0027 -9.3350525,-0.02438 -9.5430624,-0.117228 z M 12.641359,20.837283 c 0.08656,-0.08663 0.118619,-0.204451 0.0847,-0.311304 -0.04763,-0.150068 -0.154178,-0.179303 -0.838131,-0.229964 -0.43096,-0.03192 -1.882781,-0.04496 -3.2262695,-0.02896 -2.1993355,0.02619 -2.4576845,0.04407 -2.593055,0.179542 -0.193921,0.194063 -0.066359,0.42164 0.28119,0.501658 0.1353545,0.03117 1.574992,0.0503 3.1991935,0.04254 2.610441,-0.01249 2.969254,-0.0303 3.092367,-0.153506 z m 8.251349,0 c 0.08463,-0.08469 0.118441,-0.205018 0.08618,-0.306667 -0.07299,-0.229964 -0.730186,-0.277326 -3.826438,-0.275757 -2.606894,0.0013 -2.900658,0.03996 -2.900658,0.381541 0,0.361843 0.248344,0.387901 3.463485,0.363407 2.681498,-0.02043 3.054508,-0.03951 3.177431,-0.162524 z m -8.27023,-2.189071 c 0.07737,-0.06421 0.140667,-0.183933 0.140667,-0.266047 0,-0.358351 -0.159378,-0.381432 -2.841363,-0.411475 -3.0235355,-0.03387 -3.7566505,0.01309 -3.882741,0.248689 -0.1461295,0.273047 0.036485,0.487836 0.4509105,0.530355 0.1986285,0.02038 1.6280535,0.03214 3.1765,0.02614 2.2488765,-0.0087 2.8436615,-0.03441 2.9560265,-0.127661 z m 7.655454,0.103117 c 0.503546,-0.04755 0.594398,-0.08227 0.674343,-0.257733 0.07424,-0.162934 0.06377,-0.231416 -0.05329,-0.348504 -0.132305,-0.132341 -0.435032,-0.145722 -3.296918,-0.145722 -3.021188,0 -3.156223,0.0068 -3.272024,0.165123 -0.06643,0.09082 -0.1202,0.186516 -0.119484,0.212664 0.0045,0.164567 0.203397,0.297333 0.523126,0.349209 0.476431,0.0773 4.784572,0.0967 5.544246,0.02497 z m -7.597999,-2.410736 c 0.101718,-0.161016 0.101723,-0.264294 2.1e-5,-0.425327 -0.06855,-0.108542 -0.522048,-0.131683 -3.036555,-0.154948 -1.625783,-0.01505 -3.081367,-0.0038 -3.234631,0.02492 -0.4854425,0.09107 -0.578814,0.592028 -0.124666,0.668861 0.1247015,0.0211 1.5966415,0.0329 3.270977,0.02622 2.604403,-0.01038 3.055893,-0.03057 3.124854,-0.139735 z m 7.724675,0.115685 c 0.416045,-0.04349 0.531636,-0.08821 0.574147,-0.22215 0.03242,-0.102142 -0.0012,-0.222189 -0.08613,-0.307081 -0.124073,-0.124096 -0.483791,-0.139379 -3.280694,-0.139379 -2.796879,0 -3.156629,0.01529 -3.280753,0.139379 -0.195866,0.195823 -0.0869,0.479226 0.201136,0.523142 0.386831,0.05897 5.317382,0.06409 5.87229,0.0061 z m 0.469254,-2.316536 c 0.198025,-0.164391 0.174686,-0.411217 -0.05076,-0.53685 -0.149023,-0.08304 -1.754547,-0.107248 -7.251832,-0.109324 -3.883239,-0.0015 -7.1614805,0.02571 -7.284982,0.0604 -0.2653945,0.07454 -0.361271,0.269454 -0.2420835,0.492158 0.120397,0.224963 0.2487515,0.228491 7.9606225,0.218812 5.568603,-0.007 6.752644,-0.02857 6.869038,-0.125193 z m -0.846454,-2.211279 c 0.666945,-0.04263 0.861027,-0.0844 0.934279,-0.201076 0.07156,-0.113988 0.05846,-0.181268 -0.05799,-0.297729 -0.141542,-0.141556 -0.580541,-0.15046 -7.417462,-0.15046 -6.8369065,0 -7.2759225,0.0089 -7.417498,0.15046 -0.243174,0.243139 -0.051235,0.435723 0.493276,0.494931 0.623875,0.06784 12.411598,0.07123 13.465392,0.0038 z M 12.478653,9.573559 12.763145,9.356566 V 6.4095245 3.462483 L 12.534567,3.2238982 12.305988,2.9853135 H 9.3806 6.4552125 L 6.20656,3.2339664 5.957907,3.4826193 V 6.356073 9.2295265 L 6.2297905,9.510039 6.501674,9.7905515 h 2.846243 2.846244 z m 8.395308,0.057712 c 0.07729,-0.064211 0.140535,-0.183932 0.140535,-0.266047 0,-0.3629755 -0.122242,-0.376868 -3.305757,-0.3756955 -1.667392,6e-4 -3.114213,0.029435 -3.215159,0.064046 -0.386238,0.1324285 -0.301948,0.6101945 0.119707,0.678512 0.12868,0.02085 1.558352,0.032965 3.177051,0.02692 2.357155,-0.0088 2.971068,-0.03423 3.083623,-0.1277355 z m 0.0069,-2.2711615 c 0.171818,-0.171819 0.169543,-0.326112 -0.007,-0.4726345 -0.113597,-0.094292 -0.742944,-0.116748 -3.27196,-0.116748 -2.787588,0 -3.146613,0.0153 -3.270719,0.1393795 -0.165636,0.165602 -0.09863,0.469312 0.116006,0.525809 0.07968,0.020975 1.529764,0.042575 3.222414,0.048 2.693058,0.00863 3.094248,-0.00683 3.211222,-0.1238065 z m 0.05046,-2.248159 c 0.142769,-0.225997 0.08982,-0.4270267 -0.134988,-0.5124984 -0.127052,-0.048305 -1.492603,-0.08296 -3.268945,-0.08296 -2.659982,0 -3.067865,0.017122 -3.184418,0.1336743 -0.07352,0.073521 -0.133674,0.1619032 -0.133674,0.1964052 0,0.1231053 0.215516,0.3368214 0.382795,0.3795984 0.09357,0.02393 1.540041,0.03673 3.214376,0.028445 2.602213,-0.012875 3.055951,-0.03359 3.124854,-0.142662 z"
     style="fill:none;stroke-width:0.08506548" /><path
     inkscape:connector-curvature="0"
     id="path197"
     d="M 2.4276896,22.344739 C 2.1106751,22.203237 1.7445239,21.819184 1.6249792,21.502783 1.5634613,21.339963 1.534502,18.776226 1.534502,13.492924 V 5.722532 L 1.7962251,5.502307 C 2.0073848,5.3246275 2.1470753,5.2820815 2.5192817,5.2820815 h 0.4613335 v 7.5944325 c 0,8.325133 -0.030947,7.833385 0.5070049,8.056212 0.2078683,0.0861 0.3093004,0.0861 0.5171687,0 0.5412018,-0.224173 0.5070049,0.430017 0.5070049,-9.699074 V 1.9963575 L 4.7516412,1.766569 4.9914888,1.5367805 13.552896,1.5592555 c 8.088131,0.021235 8.569803,0.030875 8.713294,0.1743655 0.143714,0.143716 0.153206,0.6678555 0.176399,9.739997 0.01348,5.273459 0.002,9.713334 -0.02547,9.866389 -0.06207,0.345639 -0.501372,0.85764 -0.866909,1.010372 -0.405258,0.169327 -18.7426552,0.163918 -19.1225274,-0.0056 z M 12.652376,20.826201 c 0.116557,-0.11659 0.129553,-0.183613 0.05773,-0.297729 -0.145673,-0.231461 -0.997584,-0.28835 -3.8782195,-0.258976 -2.364011,0.0241 -2.627063,0.04096 -2.763186,0.177102 -0.2126315,0.212654 -0.053789,0.430177 0.3657495,0.500867 0.1823665,0.03073 1.6221595,0.04987 3.19954,0.04253 2.618952,-0.01218 2.881025,-0.0264 3.018383,-0.163796 z m 7.757864,0.120781 c 0.544186,-0.06566 0.734833,-0.258966 0.493491,-0.500384 -0.138429,-0.138472 -0.400703,-0.15046 -3.291615,-0.15046 -2.792645,0 -3.156639,0.01542 -3.280333,0.138941 -0.202702,0.202421 -0.03148,0.478444 0.324182,0.522588 0.462575,0.05741 5.263735,0.0485 5.754275,-0.01069 z m -8.843392,-2.195524 c 0.989301,-0.05319 1.046789,-0.06629 1.134293,-0.258339 0.0737,-0.161758 0.06357,-0.230909 -0.05054,-0.345025 -0.125166,-0.125166 -0.440664,-0.146963 -2.565104,-0.177212 -2.703887,-0.0385 -3.809415,0.0202 -4.001689,0.212473 -0.2828535,0.282853 -0.070093,0.486162 0.572762,0.547319 0.77472,0.0737 3.696175,0.08607 4.910283,0.02079 z m 9.33202,-0.158613 c 0.144103,-0.197073 0.143774,-0.224729 -0.0051,-0.428352 -0.11575,-0.158325 -0.250847,-0.165123 -3.281832,-0.165123 -3.030963,0 -3.166086,0.0068 -3.2819,0.165123 -0.141621,0.193606 -0.1441,0.219203 -0.03755,0.387755 0.125111,0.197913 0.89937,0.242416 3.82048,0.219592 2.490954,-0.01947 2.67803,-0.03148 2.785894,-0.178995 z m -8.245256,-2.276393 c 0.230522,-0.230521 0.04795,-0.432384 -0.452266,-0.500065 -0.539577,-0.07301 -5.4588775,-0.08781 -5.8104995,-0.01748 -0.3157515,0.06315 -0.4953565,0.32145 -0.347442,0.499676 0.1502905,0.181089 0.431028,0.195384 3.5492925,0.180733 2.651032,-0.01245 2.925091,-0.02704 3.060915,-0.162864 z m 7.756628,0.122061 c 0.542413,-0.06544 0.734826,-0.259003 0.495439,-0.49839 -0.133063,-0.133063 -0.413186,-0.151911 -2.699999,-0.181664 -3.022042,-0.03932 -3.787491,0.01043 -3.918198,0.254656 -0.120421,0.22501 0.02337,0.392538 0.374705,0.436546 0.455677,0.05708 5.259794,0.04776 5.748053,-0.01115 z m 0.471002,-2.304927 c 0.186904,-0.155117 0.165804,-0.406616 -0.04351,-0.518638 -0.125668,-0.06726 -2.254411,-0.09497 -7.364112,-0.09586 -6.7215585,-0.0012 -7.1979875,0.0084 -7.3515295,0.147327 -0.186267,0.168569 -0.193011,0.199924 -0.081178,0.377411 0.127817,0.202853 1.419521,0.236504 8.3540865,0.217637 5.067854,-0.01379 6.379944,-0.03965 6.486243,-0.127877 z m -0.05814,-2.287089 c 0.222215,-0.1224 0.24571,-0.288729 0.06229,-0.440955 -0.159586,-0.132444 -9.59309,-0.227503 -12.739182,-0.128369 -1.8830435,0.05934 -2.0285645,0.07517 -2.1112735,0.229711 -0.161898,0.30251 0.038525,0.401162 0.887814,0.437003 0.4284515,0.01808 3.6882425,0.02728 7.2439795,0.02046 4.963205,-0.0095 6.509436,-0.03691 6.656373,-0.117845 z M 12.478653,9.573559 12.763145,9.356566 V 6.4095245 3.462483 L 12.534567,3.2238982 12.305988,2.9853135 H 9.393687 6.4813865 L 6.219647,3.2470534 5.957907,3.5087933 v 2.8401902 2.84019 l 0.2640085,0.300689 0.2640085,0.300689 h 2.8541185 2.8541185 z m 8.395181,0.057712 c 0.189407,-0.1572045 0.177743,-0.4103465 -0.02388,-0.5182505 -0.104797,-0.056086 -1.291673,-0.088058 -3.268944,-0.088058 -2.708766,0 -3.121442,0.017035 -3.23808,0.133674 -0.161459,0.1614585 -0.165322,0.2177365 -0.02734,0.398232 0.154576,0.2022045 0.407531,0.2166495 3.559686,0.203276 2.28357,-0.00969 2.886164,-0.035585 2.998558,-0.1288735 z M 20.735216,7.440905 C 20.984418,7.374097 21.07135,7.088853 20.89596,6.913464 20.77958,6.797083 20.416365,6.772396 18.38053,6.7424965 c -1.308675,-0.01922 -2.744887,-0.00754 -3.191583,0.025945 -0.701862,0.052621 -0.825088,0.085022 -0.907255,0.238552 -0.07929,0.148163 -0.06339,0.2033245 0.0958,0.3322255 0.176442,0.142874 0.41696,0.154476 3.180013,0.1534025 1.644024,-6.5e-4 3.073996,-0.02391 3.177714,-0.051717 z m 0.158666,-2.3420145 c 0.201186,-0.2011862 0.08471,-0.4662349 -0.232798,-0.5297361 -0.334056,-0.066811 -5.920572,-0.067341 -6.169479,-5.85e-4 -0.411292,0.110307 -0.290629,0.5924421 0.16436,0.6567341 0.151993,0.021475 1.586629,0.032895 3.188083,0.02537 2.561376,-0.012035 2.928351,-0.0303 3.049834,-0.1517815 z"
     style="fill:none;stroke-width:0.08506548" /><path
     inkscape:connector-curvature="0"
     id="path199"
     d="M 7.574151,6.3454 V 4.516492 h 1.828908 1.828908 V 6.3454 8.1743075 H 9.403059 7.574151 Z"
     style="fill:none;stroke-width:0.08506548" /><path
     inkscape:connector-curvature="0"
     id="path201"
     d="M 7.574151,6.3454 V 4.516492 H 9.4030585 11.231967 V 6.3454 8.1743075 H 9.4030585 7.574151 Z"
     style="fill:none;stroke-width:0.08506548" /><path
     inkscape:connector-curvature="0"
     id="path203"
     d="M 2.4276896,22.344739 C 2.1106751,22.203237 1.7445239,21.819184 1.6249792,21.502783 1.5634613,21.339963 1.534502,18.776226 1.534502,13.492924 V 5.722532 L 1.7962251,5.502307 C 2.0073848,5.3246275 2.1470753,5.2820815 2.5192817,5.2820815 h 0.4613335 l 0.010064,7.4644955 c 0.00554,4.105472 0.034245,7.579334 0.063799,7.719692 0.076744,0.364473 0.5911559,0.615223 0.9538887,0.464975 0.1401024,-0.05803 0.301118,-0.186393 0.3578125,-0.285245 0.078584,-0.137018 0.1087332,-2.374931 0.1268655,-9.417098 L 4.51683,1.9915325 4.7541593,1.7641565 4.9914886,1.5367805 13.552896,1.5592555 c 8.088131,0.021235 8.569803,0.030875 8.713294,0.1743655 0.143714,0.143716 0.153206,0.6678555 0.176399,9.739997 0.01348,5.273459 0.002,9.713334 -0.02547,9.866389 -0.06207,0.345639 -0.501372,0.85764 -0.866909,1.010372 -0.405258,0.169327 -18.7426553,0.163918 -19.1225276,-0.0056 z M 12.629758,20.853868 c 0.187087,-0.155269 0.16598,-0.321638 -0.05587,-0.440368 -0.238661,-0.127728 -3.835291,-0.20827 -5.36372,-0.120113 -0.8934075,0.05153 -1.0991205,0.08822 -1.162901,0.207392 -0.241416,0.451089 0.2189925,0.511207 3.7115315,0.484626 2.0977425,-0.01597 2.7687475,-0.04671 2.8709595,-0.131537 z m 8.193341,0.0084 c 0.226602,-0.123386 0.245187,-0.287948 0.05074,-0.449343 -0.113616,-0.0943 -0.744442,-0.116747 -3.281735,-0.116747 -2.980825,0 -3.147082,0.0082 -3.258671,0.160615 -0.185514,0.253398 -0.01807,0.460865 0.407866,0.505343 0.198628,0.02074 1.605225,0.03021 3.12577,0.02103 1.993071,-0.01202 2.818044,-0.04576 2.956026,-0.120898 z m -8.290763,-2.18714 c 0.211353,-0.0811 0.270914,-0.374334 0.10894,-0.536337 -0.12383,-0.123851 -0.473071,-0.139379 -3.134899,-0.139379 -1.6475495,0 -3.0965905,0.02838 -3.220092,0.06306 -0.28737,0.08071 -0.372303,0.300329 -0.192837,0.498637 0.1025195,0.113283 0.3009425,0.163807 0.746374,0.190052 0.858951,0.05061 5.524898,-0.01171 5.692514,-0.07604 z m 8.241653,0.0039 c 0.190459,-0.07336 0.258521,-0.274372 0.157081,-0.463916 -0.07318,-0.136742 -0.258694,-0.16216 -1.594673,-0.218496 -1.520637,-0.06412 -4.639486,-0.0059 -4.892862,0.09131 -0.207959,0.0798 -0.254141,0.301439 -0.09862,0.473288 0.104974,0.115996 0.301326,0.163213 0.788906,0.189707 0.935843,0.05085 5.471589,-0.007 5.640166,-0.0719 z m -8.112311,-2.370646 c 0.108516,-0.108516 0.119719,-0.175137 0.04849,-0.288384 C 12.570774,15.79836 11.567063,15.734064 8.6943085,15.762749 6.362662,15.786029 6.1915,15.798189 6.081841,15.94828 c -0.193643,0.265042 -0.01814,0.461984 0.450762,0.505831 0.221953,0.02075 1.6600415,0.02821 3.1957515,0.01656 2.4694015,-0.01872 2.8085145,-0.03749 2.9333175,-0.162291 z m 8.161421,0.0464 c 0.105268,-0.05789 0.191397,-0.156632 0.191397,-0.219436 0,-0.301606 -0.223937,-0.332909 -2.669605,-0.373168 -3.498494,-0.05759 -4.293481,0.03946 -4.050014,0.494378 0.118216,0.220887 0.374556,0.23659 3.572196,0.21883 2.011473,-0.01118 2.81677,-0.04403 2.956026,-0.120604 z m 0.02511,-2.227956 c 0.181979,-0.09739 0.207328,-0.226611 0.08303,-0.423269 -0.07047,-0.111497 -0.995028,-0.13046 -7.327098,-0.150281 -6.406459,-0.02005 -7.2696235,-0.0075 -7.4463465,0.108292 -0.220397,0.144411 -0.2355505,0.194006 -0.1167895,0.382251 0.064388,0.10206 0.383354,0.138422 1.593675,0.181677 2.38072,0.08508 13.018607,0.0057 13.213524,-0.09867 z m -0.01535,-2.288552 c 0.0999,-0.05347 0.181638,-0.15194 0.181638,-0.218827 0,-0.328079 -0.143018,-0.334563 -7.44323,-0.33746 -3.883239,-0.0015 -7.1614805,0.02558 -7.284982,0.06026 -0.2534055,0.07117 -0.3802345,0.301716 -0.242211,0.440286 0.159771,0.160404 2.0810655,0.200618 8.43014,0.176453 4.428991,-0.01686 6.228407,-0.05102 6.358644,-0.12072 z M 12.478653,9.573559 12.763145,9.356566 V 6.4095245 3.462483 L 12.534567,3.2238982 12.305988,2.9853135 H 9.41246 6.518932 L 6.2384195,3.2571969 5.957907,3.5290804 V 6.359127 9.1891735 l 0.2640085,0.300689 0.2640085,0.300689 H 9.3400425 12.194161 Z M 20.90057,9.600674 C 21.072313,9.428931 20.97705,9.125099 20.732364,9.064198 20.630214,9.038773 19.157581,9.029113 17.459846,9.042733 c -2.632761,0.02112 -3.098644,0.04353 -3.167386,0.152361 -0.09974,0.1579025 -0.09986,0.182207 -0.0017,0.3374435 0.129326,0.20448 0.837811,0.24675 3.730086,0.222546 2.343977,-0.019615 2.767624,-0.04233 2.879703,-0.1544105 z M 20.713409,7.4099965 c 0.279024,-0.1060845 0.362602,-0.31648 0.193068,-0.486015 -0.109282,-0.109282 -0.506838,-0.1386685 -2.372199,-0.1753455 -3.35395,-0.065947 -4.430273,0.043175 -4.300833,0.4360275 0.09054,0.274803 0.436818,0.306611 3.351628,0.3078675 1.70654,7.5e-4 2.999005,-0.033365 3.128336,-0.082534 z m 0.191065,-2.321697 c 0.171363,-0.1713644 0.08909,-0.3815037 -0.191065,-0.4880187 -0.129317,-0.049167 -1.440521,-0.083789 -3.173207,-0.083789 -2.534863,0 -2.979587,0.018744 -3.141885,0.1324218 -0.208628,0.1461286 -0.222588,0.1932818 -0.109921,0.3712917 0.135527,0.2141295 0.758765,0.2528865 3.648421,0.226884 2.436848,-0.02193 2.853065,-0.0442 2.967658,-0.158792 z"
     style="fill:none;stroke:none;stroke-width:0.08506548" /></g></svg>