<?xml version="1.0" encoding="UTF-8" standalone="no"?>
<svg
   xmlns:dc="http://purl.org/dc/elements/1.1/"
   xmlns:cc="http://creativecommons.org/ns#"
   xmlns:rdf="http://www.w3.org/1999/02/22-rdf-syntax-ns#"
   xmlns:svg="http://www.w3.org/2000/svg"
   xmlns="http://www.w3.org/2000/svg"
   xmlns:sodipodi="http://sodipodi.sourceforge.net/DTD/sodipodi-0.dtd"
   xmlns:inkscape="http://www.inkscape.org/namespaces/inkscape"
   version="1.1"
   id="Capa_1"
   x="0px"
   y="0px"
   viewBox="0 0 23.515307 24"
   xml:space="preserve"
   sodipodi:docname="ignore_update.svg"
   width="23.515306"
   height="24"
   inkscape:version="1.0 (4035a4fb49, 2020-05-01)"><metadata
   id="metadata977"><rdf:RDF><cc:Work
       rdf:about=""><dc:format>image/svg+xml</dc:format><dc:type
         rdf:resource="http://purl.org/dc/dcmitype/StillImage" /><dc:title /></cc:Work></rdf:RDF></metadata><defs
   id="defs975" /><sodipodi:namedview
   inkscape:document-rotation="0"
   pagecolor="#ffffff"
   bordercolor="#666666"
   borderopacity="1"
   objecttolerance="10"
   gridtolerance="10"
   guidetolerance="10"
   inkscape:pageopacity="0"
   inkscape:pageshadow="2"
   inkscape:window-width="1366"
   inkscape:window-height="739"
   id="namedview973"
   showgrid="false"
   showborder="true"
   fit-margin-top="0"
   fit-margin-left="0"
   fit-margin-right="0"
   fit-margin-bottom="0"
   inkscape:zoom="9.4874926"
   inkscape:cx="25.836555"
   inkscape:cy="15.198259"
   inkscape:window-x="0"
   inkscape:window-y="0"
   inkscape:window-maximized="1"
   inkscape:current-layer="Capa_1" />

<g
   id="g942"
   transform="translate(-99.310818,-31.505501)">
</g>
<g
   id="g944"
   transform="translate(-99.310818,-31.505501)">
</g>
<g
   id="g946"
   transform="translate(-99.310818,-31.505501)">
</g>
<g
   id="g948"
   transform="translate(-99.310818,-31.505501)">
</g>
<g
   id="g950"
   transform="translate(-99.310818,-31.505501)">
</g>
<g
   id="g952"
   transform="translate(-99.310818,-31.505501)">
</g>
<g
   id="g954"
   transform="translate(-99.310818,-31.505501)">
</g>
<g
   id="g956"
   transform="translate(-99.310818,-31.505501)">
</g>
<g
   id="g958"
   transform="translate(-99.310818,-31.505501)">
</g>
<g
   id="g960"
   transform="translate(-99.310818,-31.505501)">
</g>
<g
   id="g962"
   transform="translate(-99.310818,-31.505501)">
</g>
<g
   id="g964"
   transform="translate(-99.310818,-31.505501)">
</g>
<g
   id="g966"
   transform="translate(-99.310818,-31.505501)">
</g>
<g
   id="g968"
   transform="translate(-99.310818,-31.505501)">
</g>
<g
   id="g970"
   transform="translate(-99.310818,-31.505501)">
</g>
<g
   id="g982"><g
     id="g6"
     transform="matrix(0.90262437,0,0,0.97767784,0.02353571,-0.4674393)"
     style="fill:#91a069;fill-opacity:1;stroke:#91a069;stroke-width:0.0521502;stroke-miterlimit:4;stroke-dasharray:none;stroke-opacity:1"><path
       d="m 25,17 h -2 c -0.6,0 -1,0.4 -1,1 v 2.5 C 22,20.8 21.8,21 21.5,21 H 4.5 C 4.2,21 4,20.8 4,20.5 V 18 C 4,17.4 3.6,17 3,17 H 1 c -0.6,0 -1,0.4 -1,1 v 6 c 0,0.6 0.4,1 1,1 h 24 c 0.6,0 1,-0.4 1,-1 v -6 c 0,-0.6 -0.4,-1 -1,-1 z"
       id="path2"
       inkscape:connector-curvature="0"
       style="fill:#91a069;fill-opacity:1;stroke:#91a069;stroke-width:0.0521502;stroke-miterlimit:4;stroke-dasharray:none;stroke-opacity:1" /><path
       d="m 12.3,16.7 c 0.2,0.2 0.5,0.3 0.7,0.3 0.2,0 0.5,-0.1 0.7,-0.3 l 6,-6 C 19.9,10.5 20,10.3 20,10 20,9.7 19.9,9.5 19.7,9.3 L 18.3,7.9 C 18.1,7.7 17.9,7.6 17.6,7.6 c -0.3,0 -0.5,0.1 -0.7,0.3 l -1,1 C 15.6,9.2 15,9 15,8.5 V 2 C 15,1.4 14.6,1 14,1 H 12 C 11.4,1 11,1.4 11,2 V 8.6 C 11,9 10.5,9.3 10.1,9 L 9.1,8 C 8.9,7.8 8.7,7.7 8.4,7.7 8.1,7.7 7.9,7.8 7.7,8 L 6.3,9.4 C 6.1,9.6 6,9.8 6,10.1 c 0,0.3 0.1,0.5 0.3,0.7 z"
       id="path4"
       inkscape:connector-curvature="0"
       style="fill:#91a069;fill-opacity:1;stroke:#91a069;stroke-width:0.0521502;stroke-miterlimit:4;stroke-dasharray:none;stroke-opacity:1" /></g><g
     transform="matrix(-0.05511385,0,0,0.05511385,23.515284,-1.6640481e-7)"
     style="fill:#ff0000"
     id="g940">
	<g
   style="fill:#ff0000"
   id="g938">
		<path
   style="fill:#ff0000"
   id="path936"
   d="M 213.333,0 C 95.467,0 0,95.467 0,213.333 0,331.199 95.467,426.666 213.333,426.666 331.199,426.666 426.667,331.2 426.667,213.333 426.667,95.466 331.2,0 213.333,0 Z M 42.667,213.333 c 0,-94.293 76.373,-170.667 170.667,-170.667 39.467,0 75.627,13.547 104.533,35.947 L 78.613,317.867 C 56.213,288.96 42.667,252.8 42.667,213.333 Z M 213.333,384 C 173.866,384 137.706,370.453 108.8,348.053 L 348.053,108.8 C 370.453,137.707 384,173.867 384,213.333 384,307.627 307.627,384 213.333,384 Z" />
	</g>
</g></g></svg>
