<?xml version="1.0" encoding="UTF-8" standalone="no"?>
<!-- Generator: Adobe Illustrator 19.0.0, SVG Export Plug-In . SVG Version: 6.00 Build 0)  -->

<svg
   xmlns:dc="http://purl.org/dc/elements/1.1/"
   xmlns:cc="http://creativecommons.org/ns#"
   xmlns:rdf="http://www.w3.org/1999/02/22-rdf-syntax-ns#"
   xmlns:svg="http://www.w3.org/2000/svg"
   xmlns="http://www.w3.org/2000/svg"
   xmlns:sodipodi="http://sodipodi.sourceforge.net/DTD/sodipodi-0.dtd"
   xmlns:inkscape="http://www.inkscape.org/namespaces/inkscape"
   version="1.1"
   id="Capa_1"
   x="0px"
   y="0px"
   viewBox="0 0 20 24"
   xml:space="preserve"
   sodipodi:docname="lock.svg"
   width="20"
   height="24"
   inkscape:version="0.92.4 5da689c313, 2019-01-14"><metadata
   id="metadata937"><rdf:RDF><cc:Work
       rdf:about=""><dc:format>image/svg+xml</dc:format><dc:type
         rdf:resource="http://purl.org/dc/dcmitype/StillImage" /><dc:title></dc:title></cc:Work></rdf:RDF></metadata><defs
   id="defs935">
	

	

		
	
		
	</defs><sodipodi:namedview
   pagecolor="#ffffff"
   bordercolor="#666666"
   borderopacity="1"
   objecttolerance="10"
   gridtolerance="10"
   guidetolerance="10"
   inkscape:pageopacity="0"
   inkscape:pageshadow="2"
   inkscape:window-width="1360"
   inkscape:window-height="703"
   id="namedview933"
   showgrid="false"
   showborder="false"
   fit-margin-top="0"
   fit-margin-left="0"
   fit-margin-right="0"
   fit-margin-bottom="0"
   inkscape:zoom="0.90509668"
   inkscape:cx="-149.6013"
   inkscape:cy="29.679244"
   inkscape:window-x="0"
   inkscape:window-y="0"
   inkscape:window-maximized="1"
   inkscape:current-layer="Capa_1" />
<path
   style="fill:#ffffff;stroke:#ffffff;stroke-width:0.47244796"
   inkscape:connector-curvature="0"
   id="path939"
   d="M 19.221328,9.0590556 H 17.594031 V 7.0984108 c 0,-3.7838458 -3.406592,-6.86218682 -7.5940312,-6.86218682 -4.1874394,0 -7.5940309,3.07834102 -7.5940309,6.86218682 V 9.0590556 H 0.77867292 c -0.29982928,0 -0.54244894,0.2192386 -0.54244894,0.4901724 v 12.25395 c 0,1.081301 0.97307212,1.960598 2.16974492,1.960598 H 17.594081 c 1.196623,0 2.169695,-0.879297 2.169695,-1.960645 V 9.549228 c 0,-0.2709338 -0.24262,-0.4901724 -0.542448,-0.4901724 z M 11.624143,19.298274 c 0.01694,0.138316 -0.03229,0.277138 -0.135066,0.381037 -0.102774,0.103851 -0.250044,0.163222 -0.404179,0.163222 H 8.9151528 c -0.1541362,0 -0.301406,-0.05937 -0.4041797,-0.163222 C 8.4081996,19.575458 8.3589226,19.436637 8.3759075,19.298274 L 8.718097,16.517704 C 8.1624267,16.152475 7.8303058,15.574718 7.8303058,14.940945 c 0,-1.081303 0.9730724,-1.960646 2.1697452,-1.960646 1.196672,0 2.169744,0.879297 2.169744,1.960646 0,0.633773 -0.33212,1.21153 -0.887792,1.576759 z M 14.339439,9.0590556 H 5.6605606 V 7.0984108 c 0,-2.1621453 1.946704,-3.9212433 4.3394392,-3.9212433 2.3927352,0 4.3394392,1.759098 4.3394392,3.9212433 z" /><path
   d="M 19.221328,9.0590556 H 17.594031 V 7.0984108 c 0,-3.7838458 -3.406592,-6.86218682 -7.5940312,-6.86218682 -4.1874394,0 -7.5940309,3.07834102 -7.5940309,6.86218682 V 9.0590556 H 0.77867292 c -0.29982928,0 -0.54244894,0.2192386 -0.54244894,0.4901724 v 12.25395 c 0,1.081301 0.97307212,1.960598 2.16974492,1.960598 H 17.594081 c 1.196623,0 2.169695,-0.879297 2.169695,-1.960645 V 9.549228 c 0,-0.2709338 -0.24262,-0.4901724 -0.542448,-0.4901724 z M 11.624143,19.298274 c 0.01694,0.138316 -0.03229,0.277138 -0.135066,0.381037 -0.102774,0.103851 -0.250044,0.163222 -0.404179,0.163222 H 8.9151528 c -0.1541362,0 -0.301406,-0.05937 -0.4041797,-0.163222 C 8.4081996,19.575458 8.3589226,19.436637 8.3759075,19.298274 L 8.718097,16.517704 C 8.1624267,16.152475 7.8303058,15.574718 7.8303058,14.940945 c 0,-1.081303 0.9730724,-1.960646 2.1697452,-1.960646 1.196672,0 2.169744,0.879297 2.169744,1.960646 0,0.633773 -0.33212,1.21153 -0.887792,1.576759 z M 14.339439,9.0590556 H 5.6605606 V 7.0984108 c 0,-2.1621453 1.946704,-3.9212433 4.3394392,-3.9212433 2.3927352,0 4.3394392,1.759098 4.3394392,3.9212433 z"
   id="path896"
   inkscape:connector-curvature="0"
   style="fill:#ffffff;stroke:#ffffff;stroke-width:0.04834057" />
<g
   id="g902"
   transform="translate(-236.96506,-257.22244)">
</g>
<g
   id="g904"
   transform="translate(-236.96506,-257.22244)">
</g>
<g
   id="g906"
   transform="translate(-236.96506,-257.22244)">
</g>
<g
   id="g908"
   transform="translate(-236.96506,-257.22244)">
</g>
<g
   id="g910"
   transform="translate(-236.96506,-257.22244)">
</g>
<g
   id="g912"
   transform="translate(-236.96506,-257.22244)">
</g>
<g
   id="g914"
   transform="translate(-236.96506,-257.22244)">
</g>
<g
   id="g916"
   transform="translate(-236.96506,-257.22244)">
</g>
<g
   id="g918"
   transform="translate(-236.96506,-257.22244)">
</g>
<g
   id="g920"
   transform="translate(-236.96506,-257.22244)">
</g>
<g
   id="g922"
   transform="translate(-236.96506,-257.22244)">
</g>
<g
   id="g924"
   transform="translate(-236.96506,-257.22244)">
</g>
<g
   id="g926"
   transform="translate(-236.96506,-257.22244)">
</g>
<g
   id="g928"
   transform="translate(-236.96506,-257.22244)">
</g>
<g
   id="g930"
   transform="translate(-236.96506,-257.22244)">
</g>
</svg>