<?xml version="1.0" encoding="UTF-8" standalone="no"?>
<!-- Created with Inkscape (http://www.inkscape.org/) -->

<svg
   xmlns:dc="http://purl.org/dc/elements/1.1/"
   xmlns:cc="http://creativecommons.org/ns#"
   xmlns:rdf="http://www.w3.org/1999/02/22-rdf-syntax-ns#"
   xmlns:svg="http://www.w3.org/2000/svg"
   xmlns="http://www.w3.org/2000/svg"
   xmlns:sodipodi="http://sodipodi.sourceforge.net/DTD/sodipodi-0.dtd"
   xmlns:inkscape="http://www.inkscape.org/namespaces/inkscape"
   width="124.22764mm"
   height="105.90699mm"
   viewBox="0 0 124.22764 105.90699"
   version="1.1"
   id="svg10215"
   inkscape:version="0.92.4 5da689c313, 2019-01-14"
   sodipodi:docname="logo.svg">
  <defs
     id="defs10209" />
  <sodipodi:namedview
     id="base"
     pagecolor="#ffffff"
     bordercolor="#666666"
     borderopacity="1.0"
     inkscape:pageopacity="0.0"
     inkscape:pageshadow="2"
     inkscape:zoom="0.7"
     inkscape:cx="179.12496"
     inkscape:cy="181.16896"
     inkscape:document-units="mm"
     inkscape:current-layer="layer1"
     showgrid="false"
     showborder="false"
     fit-margin-top="0"
     fit-margin-left="0"
     fit-margin-right="0"
     fit-margin-bottom="0"
     inkscape:window-width="1360"
     inkscape:window-height="644"
     inkscape:window-x="0"
     inkscape:window-y="0"
     inkscape:window-maximized="1" />
  <metadata
     id="metadata10212">
    <rdf:RDF>
      <cc:Work
         rdf:about="">
        <dc:format>image/svg+xml</dc:format>
        <dc:type
           rdf:resource="http://purl.org/dc/dcmitype/StillImage" />
        <dc:title></dc:title>
      </cc:Work>
    </rdf:RDF>
  </metadata>
  <g
     inkscape:label="Layer 1"
     inkscape:groupmode="layer"
     id="layer1"
     transform="translate(39.435244,-39.939363)">
    <g
       id="g6109">
      <path
         inkscape:connector-curvature="0"
         id="path5119-7-5-9"
         d="m 11.4852,74.887018 c 19.34984,0 19.31458,0 19.31458,0"
         style="fill:#2b1100;stroke:#2b1100;stroke-width:0.79374999;stroke-linecap:butt;stroke-linejoin:miter;stroke-miterlimit:4;stroke-dasharray:none;stroke-opacity:1" />
      <rect
         ry="19.843748"
         y="41.356544"
         x="-32.172707"
         height="103.1531"
         width="111.0906"
         id="rect12"
         style="fill:#a05a2c;fill-opacity:1;stroke:#552200;stroke-width:1.32291663;stroke-miterlimit:4;stroke-dasharray:none" />
      <path
         inkscape:connector-curvature="0"
         id="path5119-5-2-7"
         d="m -29.78979,123.17348 c 50.09748,0 50.00623,0 50.00623,0"
         style="fill:#2b1100;stroke:#2b1100;stroke-width:0.79374999;stroke-linecap:butt;stroke-linejoin:miter;stroke-miterlimit:4;stroke-dasharray:none;stroke-opacity:1" />
      <path
         inkscape:connector-curvature="0"
         id="path5119"
         d="m -30.25281,56.233905 c 50.09749,0 50.00624,0 50.00624,0"
         style="fill:#2b1100;stroke:#2b1100;stroke-width:0.79374999;stroke-linecap:butt;stroke-linejoin:miter;stroke-miterlimit:4;stroke-dasharray:none;stroke-opacity:1" />
      <path
         inkscape:connector-curvature="0"
         id="path5119-5"
         d="m -14.1513,83.580029 c 50.097485,0 50.006236,0 50.006236,0"
         style="fill:#2b1100;stroke:#2b1100;stroke-width:0.79374999;stroke-linecap:butt;stroke-linejoin:miter;stroke-miterlimit:4;stroke-dasharray:none;stroke-opacity:1" />
      <rect
         ry="17.696611"
         rx="2.6481886"
         y="40.592884"
         x="-20.86886"
         height="104.4728"
         width="16.645758"
         id="rect4526"
         style="fill:#d4aa00;fill-opacity:1;stroke:#806600;stroke-width:1.30704165;stroke-miterlimit:4;stroke-dasharray:none" />
      <rect
         style="fill:#808080;stroke:#333333;stroke-width:1.30704165;stroke-miterlimit:4;stroke-dasharray:none"
         id="rect4840"
         width="16.645758"
         height="104.4728"
         x="49.580063"
         y="40.592884"
         rx="2.6481886"
         ry="17.696611" />
      <path
         inkscape:connector-curvature="0"
         id="path5119-7"
         d="m 11.16666,46.094393 c 50.097489,0 50.00624,0 50.00624,0"
         style="fill:#2b1100;stroke:#2b1100;stroke-width:0.79374999;stroke-linecap:butt;stroke-linejoin:miter;stroke-miterlimit:4;stroke-dasharray:none;stroke-opacity:1" />
      <path
         inkscape:connector-curvature="0"
         id="path5119-7-5-3"
         d="m 26.56646,50.148476 c 50.097491,0 50.006241,0 50.006241,0"
         style="fill:#2b1100;stroke:#2b1100;stroke-width:0.79374999;stroke-linecap:butt;stroke-linejoin:miter;stroke-miterlimit:4;stroke-dasharray:none;stroke-opacity:1" />
      <path
         inkscape:connector-curvature="0"
         id="path5119-7-5"
         d="m 28.89374,67.280542 c 50.097492,0 50.006243,0 50.006243,0"
         style="fill:#2b1100;stroke:#2b1100;stroke-width:0.79374999;stroke-linecap:butt;stroke-linejoin:miter;stroke-miterlimit:4;stroke-dasharray:none;stroke-opacity:1" />
      <path
         inkscape:connector-curvature="0"
         id="path5119-5-2"
         d="m 22.06855,129.52348 c 50.09748,0 50.00623,0 50.00623,0"
         style="fill:#2b1100;stroke:#2b1100;stroke-width:0.79374999;stroke-linecap:butt;stroke-linejoin:miter;stroke-miterlimit:4;stroke-dasharray:none;stroke-opacity:1" />
      <path
         inkscape:connector-curvature="0"
         id="path5119-5-2-7-0"
         d="m 29.99146,116.53178 c 50.097478,0 50.006229,0 50.006229,0"
         style="fill:#2b1100;stroke:#2b1100;stroke-width:0.79374999;stroke-linecap:butt;stroke-linejoin:miter;stroke-miterlimit:4;stroke-dasharray:none;stroke-opacity:1" />
      <rect
         ry="17.696611"
         rx="2.6481886"
         y="40.592884"
         x="49.580063"
         height="104.4728"
         width="16.645758"
         id="rect4901"
         style="fill:#d4aa00;stroke:#806600;stroke-width:1.30704165;stroke-miterlimit:4;stroke-dasharray:none" />
      <rect
         ry="2.8447936"
         rx="0.8555932"
         y="-83.577042"
         x="140.06554"
         height="122.3261"
         width="5.378015"
         id="rect4988"
         style="fill:#d4aa00;stroke:#806600;stroke-width:0.7800619;stroke-miterlimit:4;stroke-dasharray:none"
         transform="rotate(90)" />
      <path
         sodipodi:nodetypes="ssssssscss"
         inkscape:connector-curvature="0"
         id="path4822"
         d="m -21.78567,129.26454 v 12.96499 c 0,1.67594 -0.17692,3.02516 -0.39669,3.02516 h -16.26452 c -0.21978,0 -0.3967,-1.34922 -0.3967,-3.02516 v -12.96499 c 0,-1.67594 4.5433,-3.02516 4.76308,-3.02516 h 1.7837 10.11444 c 0.21977,0 0.39669,1.34922 0.39669,3.02516 z"
         style="fill:#d4aa00;fill-opacity:1;stroke:#806600;stroke-width:1.18332779;stroke-miterlimit:4;stroke-dasharray:none" />
      <rect
         transform="rotate(90)"
         style="fill:#d4aa00;stroke:#806600;stroke-width:1.37236559;stroke-miterlimit:4;stroke-dasharray:none"
         id="rect4528"
         width="16.645758"
         height="122.3261"
         x="91.756256"
         y="-83.577042"
         rx="2.6481886"
         ry="2.8447936" />
      <path
         style="fill:#aa8800;stroke:#554400;stroke-width:1.3943541;stroke-miterlimit:4;stroke-dasharray:none"
         d="m 16.75387,83.877167 h 13.23759 l 6.86331,6.863301 v 13.107152 l -6.86331,6.86331 H 16.75387 L 9.89056,103.84762 V 90.740468 Z"
         id="path4637"
         inkscape:connector-curvature="0"
         sodipodi:nodetypes="ccccccccc" />
      <path
         sodipodi:nodetypes="ccccccccc"
         inkscape:connector-curvature="0"
         id="rect4632"
         d="m 16.75387,86.523005 h 13.23759 l 6.86331,6.863313 v 13.107152 l -6.86331,6.86331 H 16.75387 L 9.89056,106.49347 V 93.386318 Z"
         style="fill:#806600;stroke:#554400;stroke-width:1.3943541;stroke-miterlimit:4;stroke-dasharray:none" />
      <path
         inkscape:transform-center-x="0.075491707"
         transform="matrix(-0.2166725,-0.00707508,0.00438039,-0.34996355,16.42811,125.83646)"
         inkscape:transform-center-y="-0.032980407"
         d="M -30.425752,88.765039 -47.524398,60.116268 -14.164512,59.632792 Z"
         inkscape:randomized="0"
         inkscape:rounded="0"
         inkscape:flatsided="true"
         sodipodi:arg2="2.6035022"
         sodipodi:arg1="1.5563046"
         sodipodi:r2="13.620546"
         sodipodi:r1="19.262362"
         sodipodi:cy="69.5047"
         sodipodi:cx="-30.704887"
         sodipodi:sides="3"
         id="path4651"
         style="fill:#2b2200;stroke:#2b2200;stroke-width:1.3943541;stroke-miterlimit:4;stroke-dasharray:none"
         sodipodi:type="star" />
      <ellipse
         ry="3.0143569"
         rx="3.0515704"
         cy="97.993874"
         cx="23.372663"
         id="path4639"
         style="fill:#2b2200;stroke:#2b2200;stroke-width:0.87615651;stroke-miterlimit:4;stroke-dasharray:none" />
      <ellipse
         ry="0.88548642"
         rx="0.88548636"
         cy="92.382111"
         cx="16.354353"
         id="path4552"
         style="fill:#554400;stroke:#2b2200;stroke-width:0.87486053;stroke-miterlimit:4;stroke-dasharray:none" />
      <ellipse
         style="fill:#554400;stroke:#2b2200;stroke-width:0.87486053;stroke-miterlimit:4;stroke-dasharray:none"
         id="ellipse4558"
         cx="31.008947"
         cy="92.382111"
         rx="0.88548636"
         ry="0.88548642" />
      <ellipse
         style="fill:#554400;stroke:#2b2200;stroke-width:0.87486053;stroke-miterlimit:4;stroke-dasharray:none"
         id="ellipse4836"
         cx="23.681646"
         cy="89.736267"
         rx="0.88548636"
         ry="0.88548642" />
      <ellipse
         transform="scale(1,-1)"
         style="fill:#554400;stroke:#2b2200;stroke-width:0.87486053;stroke-miterlimit:4;stroke-dasharray:none"
         id="ellipse4883"
         cx="16.354343"
         cy="-107.7653"
         rx="0.88548636"
         ry="0.88548642" />
      <ellipse
         transform="scale(1,-1)"
         ry="0.88548642"
         rx="0.88548636"
         cy="-107.7653"
         cx="31.008938"
         id="ellipse4885"
         style="fill:#554400;stroke:#2b2200;stroke-width:0.87486053;stroke-miterlimit:4;stroke-dasharray:none" />
      <ellipse
         transform="scale(1,-1)"
         ry="0.88548642"
         rx="0.88548636"
         cy="-110.41115"
         cx="23.681637"
         id="ellipse4891"
         style="fill:#554400;stroke:#2b2200;stroke-width:0.87486053;stroke-miterlimit:4;stroke-dasharray:none" />
      <path
         sodipodi:nodetypes="ccccccccc"
         inkscape:connector-curvature="0"
         id="path5067"
         d="m -15.61823,95.976898 h 4.0278 l 2.08834,2.09848 v 4.007542 l -2.08834,2.09847 h -4.0278 l -2.08832,-2.09847 v -4.007542 z"
         style="fill:#ff0000;stroke:#800000;stroke-width:0.924375;stroke-miterlimit:4;stroke-dasharray:none" />
      <path
         style="fill:#ffff00;stroke:#808000;stroke-width:0.924375;stroke-miterlimit:4;stroke-dasharray:none"
         d="m -1.33064,95.976898 h 4.0278 l 2.08834,2.09848 v 4.007542 l -2.08834,2.09847 h -4.0278 l -2.08832,-2.09847 v -4.007542 z"
         id="path5073"
         inkscape:connector-curvature="0"
         sodipodi:nodetypes="ccccccccc" />
      <path
         style="fill:#0055d4;stroke:#002255;stroke-width:0.924375;stroke-miterlimit:4;stroke-dasharray:none"
         d="m -30.43499,95.976898 h 4.0278 l 2.08834,2.09848 v 4.007542 l -2.08834,2.09847 h -4.0278 l -2.08832,-2.09847 v -4.007542 z"
         id="path5075"
         inkscape:connector-curvature="0"
         sodipodi:nodetypes="ccccccccc" />
      <path
         style="fill:#00d400;stroke:#008000;stroke-width:0.924375;stroke-miterlimit:4;stroke-dasharray:none"
         d="m 58.465144,95.976898 h 4.0278 l 2.08834,2.09848 v 4.007542 l -2.08834,2.09847 h -4.0278 l -2.08832,-2.09847 v -4.007542 z"
         id="path5082"
         inkscape:connector-curvature="0"
         sodipodi:nodetypes="ccccccccc" />
      <path
         sodipodi:nodetypes="ccccccccc"
         inkscape:connector-curvature="0"
         id="path5084"
         d="m 72.752734,95.976898 h 4.0278 l 2.08834,2.09848 v 4.007542 l -2.08834,2.09847 h -4.0278 l -2.08832,-2.09847 v -4.007542 z"
         style="fill:#ff00cc;stroke:#800066;stroke-width:0.924375;stroke-miterlimit:4;stroke-dasharray:none" />
      <path
         sodipodi:nodetypes="ccccccccc"
         inkscape:connector-curvature="0"
         id="path5086"
         d="m 43.648384,95.976898 h 4.0278 l 2.08834,2.09848 v 4.007542 l -2.08834,2.09847 h -4.0278 l -2.08832,-2.09847 v -4.007542 z"
         style="fill:#ff6600;stroke:#aa4400;stroke-width:0.924375;stroke-miterlimit:4;stroke-dasharray:none" />
      <path
         inkscape:connector-curvature="0"
         id="path5119-5-6"
         d="m -0.42104,134.81514 c 50.097486,0 50.006236,0 50.006236,0"
         style="fill:#2b1100;stroke:#2b1100;stroke-width:0.79374999;stroke-linecap:butt;stroke-linejoin:miter;stroke-miterlimit:4;stroke-dasharray:none;stroke-opacity:1" />
      <path
         inkscape:connector-curvature="0"
         id="path5119-7-5-36"
         d="m 11.4852,74.887018 c 26.24154,0 26.19374,0 26.19374,0"
         style="fill:#2b1100;stroke:#2b1100;stroke-width:0.72704339;stroke-linecap:butt;stroke-linejoin:miter;stroke-miterlimit:4;stroke-dasharray:none;stroke-opacity:1" />
      <path
         sodipodi:nodetypes="ccccccccc"
         inkscape:connector-curvature="0"
         id="path4846"
         d="m -14.1513,41.775838 h 3.21063 l 1.66465,1.672722 v 3.194465 l -1.66465,1.672721 h -3.21063 l -1.66464,-1.672721 V 43.44856 Z"
         style="fill:#806600;stroke:#554400;stroke-width:0.73683596;stroke-miterlimit:4;stroke-dasharray:none" />
      <path
         sodipodi:nodetypes="ccccccccc"
         inkscape:connector-curvature="0"
         id="path5017"
         d="m -14.1513,67.440439 h 3.21063 l 1.66465,1.672722 v 3.194465 l -1.66465,1.672721 h -3.21063 l -1.66464,-1.672721 v -3.194465 z"
         style="fill:#806600;stroke:#554400;stroke-width:0.73683596;stroke-miterlimit:4;stroke-dasharray:none" />
      <path
         style="fill:#806600;stroke:#554400;stroke-width:0.73683596;stroke-miterlimit:4;stroke-dasharray:none"
         d="m -14.1513,54.211264 h 3.21063 l 1.66465,1.672722 v 3.194465 l -1.66465,1.672721 h -3.21063 l -1.66464,-1.672721 v -3.194465 z"
         id="path5019"
         inkscape:connector-curvature="0"
         sodipodi:nodetypes="ccccccccc" />
      <path
         style="fill:#806600;stroke:#554400;stroke-width:0.73683596;stroke-miterlimit:4;stroke-dasharray:none"
         d="m 56.29762,41.775838 h 3.21063 l 1.66465,1.672722 v 3.194465 l -1.66465,1.672721 H 56.29762 L 54.63298,46.643025 V 43.44856 Z"
         inkscape:connector-curvature="0"
         sodipodi:nodetypes="ccccccccc"
         id="path5035" />
      <path
         sodipodi:nodetypes="ccccccccc"
         inkscape:connector-curvature="0"
         d="m 56.29762,80.934196 h 3.21063 l 1.66465,1.672722 v 3.194465 l -1.66465,1.672721 h -3.21063 l -1.66464,-1.672721 v -3.194465 z"
         style="fill:#806600;stroke:#554400;stroke-width:0.73683596;stroke-miterlimit:4;stroke-dasharray:none"
         id="path5037" />
      <path
         style="fill:#806600;stroke:#554400;stroke-width:0.73683596;stroke-miterlimit:4;stroke-dasharray:none"
         d="m 56.29762,67.440439 h 3.21063 l 1.66465,1.672722 v 3.194465 l -1.66465,1.672721 h -3.21063 l -1.66464,-1.672721 v -3.194465 z"
         inkscape:connector-curvature="0"
         sodipodi:nodetypes="ccccccccc"
         id="path5039" />
      <path
         sodipodi:nodetypes="ccccccccc"
         inkscape:connector-curvature="0"
         d="m 56.29762,54.211264 h 3.21063 l 1.66465,1.672722 v 3.194465 l -1.66465,1.672721 h -3.21063 l -1.66464,-1.672721 v -3.194465 z"
         style="fill:#806600;stroke:#554400;stroke-width:0.73683596;stroke-miterlimit:4;stroke-dasharray:none"
         id="path5041" />
      <path
         sodipodi:nodetypes="ccccccccc"
         inkscape:connector-curvature="0"
         id="path5329"
         d="m -14.1513,80.934196 h 3.21063 l 1.66465,1.672722 v 3.194465 l -1.66465,1.672721 h -3.21063 l -1.66464,-1.672721 v -3.194465 z"
         style="fill:#806600;stroke:#554400;stroke-width:0.73683596;stroke-miterlimit:4;stroke-dasharray:none" />
      <path
         style="fill:#d4aa00;fill-opacity:1;stroke:#806600;stroke-width:1.18332779;stroke-miterlimit:4;stroke-dasharray:none"
         d="m 67.14282,129.26454 v 12.96499 c 0,1.67594 0.17692,3.02516 0.39669,3.02516 h 16.26452 c 0.21978,0 0.3967,-1.34922 0.3967,-3.02516 v -12.96499 c 0,-1.67594 -4.5433,-3.02516 -4.76308,-3.02516 h -1.7837 -10.11444 c -0.21977,0 -0.39669,1.34922 -0.39669,3.02516 z"
         id="path5349"
         inkscape:connector-curvature="0"
         sodipodi:nodetypes="ssssssscss" />
    </g>
  </g>
</svg>
