<?xml version="1.0" encoding="UTF-8" standalone="no"?>
<svg
   xmlns:dc="http://purl.org/dc/elements/1.1/"
   xmlns:cc="http://creativecommons.org/ns#"
   xmlns:rdf="http://www.w3.org/1999/02/22-rdf-syntax-ns#"
   xmlns:svg="http://www.w3.org/2000/svg"
   xmlns="http://www.w3.org/2000/svg"
   xmlns:sodipodi="http://sodipodi.sourceforge.net/DTD/sodipodi-0.dtd"
   xmlns:inkscape="http://www.inkscape.org/namespaces/inkscape"
   version="1.1"
   id="Capa_1"
   x="0px"
   y="0px"
   viewBox="0 0 23.515307 24"
   xml:space="preserve"
   sodipodi:docname="revert_update_ignored.svg"
   width="23.515306"
   height="24"
   inkscape:version="1.0 (4035a4fb49, 2020-05-01)"><metadata
   id="metadata977"><rdf:RDF><cc:Work
       rdf:about=""><dc:format>image/svg+xml</dc:format><dc:type
         rdf:resource="http://purl.org/dc/dcmitype/StillImage" /><dc:title></dc:title></cc:Work></rdf:RDF></metadata><defs
   id="defs975" /><sodipodi:namedview
   inkscape:document-rotation="0"
   pagecolor="#ffffff"
   bordercolor="#666666"
   borderopacity="1"
   objecttolerance="10"
   gridtolerance="10"
   guidetolerance="10"
   inkscape:pageopacity="0"
   inkscape:pageshadow="2"
   inkscape:window-width="1600"
   inkscape:window-height="871"
   id="namedview973"
   showgrid="false"
   showborder="true"
   fit-margin-top="0"
   fit-margin-left="0"
   fit-margin-right="0"
   fit-margin-bottom="0"
   inkscape:zoom="6.7086704"
   inkscape:cx="48.469191"
   inkscape:cy="14.670878"
   inkscape:window-x="0"
   inkscape:window-y="0"
   inkscape:window-maximized="1"
   inkscape:current-layer="Capa_1" />

<g
   id="g942"
   transform="translate(-99.310818,-31.505501)">
</g>
<g
   id="g944"
   transform="translate(-99.310818,-31.505501)">
</g>
<g
   id="g946"
   transform="translate(-99.310818,-31.505501)">
</g>
<g
   id="g948"
   transform="translate(-99.310818,-31.505501)">
</g>
<g
   id="g950"
   transform="translate(-99.310818,-31.505501)">
</g>
<g
   id="g952"
   transform="translate(-99.310818,-31.505501)">
</g>
<g
   id="g954"
   transform="translate(-99.310818,-31.505501)">
</g>
<g
   id="g956"
   transform="translate(-99.310818,-31.505501)">
</g>
<g
   id="g958"
   transform="translate(-99.310818,-31.505501)">
</g>
<g
   id="g960"
   transform="translate(-99.310818,-31.505501)">
</g>
<g
   id="g962"
   transform="translate(-99.310818,-31.505501)">
</g>
<g
   id="g964"
   transform="translate(-99.310818,-31.505501)">
</g>
<g
   id="g966"
   transform="translate(-99.310818,-31.505501)">
</g>
<g
   id="g968"
   transform="translate(-99.310818,-31.505501)">
</g>
<g
   id="g970"
   transform="translate(-99.310818,-31.505501)">
</g>
<g
   transform="matrix(0.0625,0,0,0.0625,5.3383307,-186.94071)"
   id="g1607" /><g
   transform="matrix(0.0625,0,0,0.0625,5.3383307,-186.94071)"
   id="g1609" /><g
   transform="matrix(0.0625,0,0,0.0625,5.3383307,-186.94071)"
   id="g1611" /><g
   transform="matrix(0.0625,0,0,0.0625,5.3383307,-186.94071)"
   id="g1613" /><g
   transform="matrix(0.0625,0,0,0.0625,5.3383307,-186.94071)"
   id="g1615" /><g
   transform="matrix(0.0625,0,0,0.0625,5.3383307,-186.94071)"
   id="g1617" /><g
   transform="matrix(0.0625,0,0,0.0625,5.3383307,-186.94071)"
   id="g1619" /><g
   transform="matrix(0.0625,0,0,0.0625,5.3383307,-186.94071)"
   id="g1621" /><g
   transform="matrix(0.0625,0,0,0.0625,5.3383307,-186.94071)"
   id="g1623" /><g
   transform="matrix(0.0625,0,0,0.0625,5.3383307,-186.94071)"
   id="g1625" /><g
   transform="matrix(0.0625,0,0,0.0625,5.3383307,-186.94071)"
   id="g1627" /><g
   transform="matrix(0.0625,0,0,0.0625,5.3383307,-186.94071)"
   id="g1629" /><g
   transform="matrix(0.0625,0,0,0.0625,5.3383307,-186.94071)"
   id="g1631" /><g
   transform="matrix(0.0625,0,0,0.0625,5.3383307,-186.94071)"
   id="g1633" /><g
   transform="matrix(0.0625,0,0,0.0625,5.3383307,-186.94071)"
   id="g1635" /><g
   style="fill:#91a069;fill-opacity:1;stroke:#447821;stroke-width:8.06072238;stroke-miterlimit:4;stroke-dasharray:none"
   id="g3479"
   transform="matrix(0.04614971,0,0,0.04614971,-0.05664347,0.18569731)"><g
     style="fill:#91a069;fill-opacity:1;stroke:#447821;stroke-width:8.06072238;stroke-miterlimit:4;stroke-dasharray:none"
     id="g3455"><g
       style="fill:#91a069;fill-opacity:1;stroke:#447821;stroke-width:8.06072238;stroke-miterlimit:4;stroke-dasharray:none"
       id="g2828"><g
         style="fill:#91a069;fill-opacity:1;stroke:#447821;stroke-width:8.06072238;stroke-miterlimit:4;stroke-dasharray:none"
         id="g2826"><path
           style="fill:#91a069;fill-opacity:1;stroke:#447821;stroke-width:8.06072238;stroke-miterlimit:4;stroke-dasharray:none"
           d="M 508.745,246.041 C 504.171,239.784 395.188,92.835 255.997,92.835 c -139.191,0 -248.179,146.949 -252.748,153.2 -4.332,5.936 -4.332,13.987 0,19.923 4.569,6.257 113.557,153.206 252.748,153.206 139.191,0 248.174,-146.95 252.748,-153.201 4.338,-5.935 4.338,-13.992 0,-19.922 z M 255.997,385.406 c -102.529,0 -191.33,-97.533 -217.617,-129.418 26.253,-31.913 114.868,-129.395 217.617,-129.395 102.524,0 191.319,97.516 217.617,129.418 -26.253,31.912 -114.868,129.395 -217.617,129.395 z"
           id="path2824" /></g></g><g
       style="fill:#91a069;fill-opacity:1;stroke:#447821;stroke-width:8.06072238;stroke-miterlimit:4;stroke-dasharray:none"
       id="g2834"><g
         style="fill:#91a069;fill-opacity:1;stroke:#447821;stroke-width:8.06072238;stroke-miterlimit:4;stroke-dasharray:none"
         id="g2832"><path
           style="fill:#91a069;fill-opacity:1;stroke:#447821;stroke-width:8.06072238;stroke-miterlimit:4;stroke-dasharray:none"
           d="m 255.997,154.725 c -55.842,0 -101.275,45.433 -101.275,101.275 0,55.842 45.433,101.275 101.275,101.275 55.842,0 101.275,-45.433 101.275,-101.275 0,-55.842 -45.433,-101.275 -101.275,-101.275 z m 0,168.791 c -37.23,0 -67.516,-30.287 -67.516,-67.516 0,-37.229 30.287,-67.516 67.516,-67.516 37.229,0 67.516,30.287 67.516,67.516 0,37.229 -30.286,67.516 -67.516,67.516 z"
           id="path2830" /></g></g><g
       style="fill:#91a069;fill-opacity:1;stroke:#447821;stroke-width:8.06072238;stroke-miterlimit:4;stroke-dasharray:none"
       id="g2836" /><g
       style="fill:#91a069;fill-opacity:1;stroke:#447821;stroke-width:8.06072238;stroke-miterlimit:4;stroke-dasharray:none"
       id="g2838" /><g
       style="fill:#91a069;fill-opacity:1;stroke:#447821;stroke-width:8.06072238;stroke-miterlimit:4;stroke-dasharray:none"
       id="g2840" /><g
       style="fill:#91a069;fill-opacity:1;stroke:#447821;stroke-width:8.06072238;stroke-miterlimit:4;stroke-dasharray:none"
       id="g2842" /><g
       style="fill:#91a069;fill-opacity:1;stroke:#447821;stroke-width:8.06072238;stroke-miterlimit:4;stroke-dasharray:none"
       id="g2844" /><g
       style="fill:#91a069;fill-opacity:1;stroke:#447821;stroke-width:8.06072238;stroke-miterlimit:4;stroke-dasharray:none"
       id="g2846" /><g
       style="fill:#91a069;fill-opacity:1;stroke:#447821;stroke-width:8.06072238;stroke-miterlimit:4;stroke-dasharray:none"
       id="g2848" /><g
       style="fill:#91a069;fill-opacity:1;stroke:#447821;stroke-width:8.06072238;stroke-miterlimit:4;stroke-dasharray:none"
       id="g2850" /><g
       style="fill:#91a069;fill-opacity:1;stroke:#447821;stroke-width:8.06072238;stroke-miterlimit:4;stroke-dasharray:none"
       id="g2852" /><g
       style="fill:#91a069;fill-opacity:1;stroke:#447821;stroke-width:8.06072238;stroke-miterlimit:4;stroke-dasharray:none"
       id="g2854" /><g
       style="fill:#91a069;fill-opacity:1;stroke:#447821;stroke-width:8.06072238;stroke-miterlimit:4;stroke-dasharray:none"
       id="g2856" /><g
       style="fill:#91a069;fill-opacity:1;stroke:#447821;stroke-width:8.06072238;stroke-miterlimit:4;stroke-dasharray:none"
       id="g2858" /><g
       style="fill:#91a069;fill-opacity:1;stroke:#447821;stroke-width:8.06072238;stroke-miterlimit:4;stroke-dasharray:none"
       id="g2860" /><g
       style="fill:#91a069;fill-opacity:1;stroke:#447821;stroke-width:8.06072238;stroke-miterlimit:4;stroke-dasharray:none"
       id="g2862" /><g
       style="fill:#91a069;fill-opacity:1;stroke:#447821;stroke-width:8.06072238;stroke-miterlimit:4;stroke-dasharray:none"
       id="g2864" /></g></g></svg>
