<?xml version="1.0" encoding="UTF-8" standalone="no"?>
<!-- Created with Inkscape (http://www.inkscape.org/) -->

<svg
   xmlns:dc="http://purl.org/dc/elements/1.1/"
   xmlns:cc="http://creativecommons.org/ns#"
   xmlns:rdf="http://www.w3.org/1999/02/22-rdf-syntax-ns#"
   xmlns:svg="http://www.w3.org/2000/svg"
   xmlns="http://www.w3.org/2000/svg"
   xmlns:sodipodi="http://sodipodi.sourceforge.net/DTD/sodipodi-0.dtd"
   xmlns:inkscape="http://www.inkscape.org/namespaces/inkscape"
   version="1.1"
   id="svg1069"
   width="23.970758"
   height="24"
   viewBox="0 0 23.970758 24"
   sodipodi:docname="settings.svg"
   inkscape:version="0.92.5 (2060ec1f9f, 2020-04-08)">
  <metadata
     id="metadata1075">
    <rdf:RDF>
      <cc:Work
         rdf:about="">
        <dc:format>image/svg+xml</dc:format>
        <dc:type
           rdf:resource="http://purl.org/dc/dcmitype/StillImage" />
        <dc:title />
      </cc:Work>
    </rdf:RDF>
  </metadata>
  <defs
     id="defs1073" />
  <sodipodi:namedview
     pagecolor="#ffffff"
     bordercolor="#666666"
     borderopacity="1"
     objecttolerance="10"
     gridtolerance="10"
     guidetolerance="10"
     inkscape:pageopacity="0"
     inkscape:pageshadow="2"
     inkscape:window-width="1366"
     inkscape:window-height="739"
     id="namedview1071"
     showgrid="false"
     showborder="false"
     fit-margin-top="0"
     fit-margin-left="0"
     fit-margin-right="0"
     fit-margin-bottom="0"
     inkscape:zoom="5.2149125"
     inkscape:cx="-67.119176"
     inkscape:cy="16.928124"
     inkscape:window-x="0"
     inkscape:window-y="0"
     inkscape:window-maximized="1"
     inkscape:current-layer="svg1069" />
  <path
     style="opacity:0.95;fill:none;fill-opacity:1;stroke:#5eaa1a;stroke-width:1.5;stroke-linecap:round;stroke-linejoin:round;stroke-miterlimit:4;stroke-dasharray:none;stroke-opacity:1"
     d="M 12.023452,1.0181918 C 11.358796,1.0769604 10.320647,0.86045797 10.06378,1.6921566 9.98871,2.1623322 10.077758,2.7246554 9.7065373,3.0639166 9.5613597,3.2578987 9.5047704,3.6207965 9.1877693,3.6506697 8.9745088,3.8190409 8.742818,4.0662008 8.4446117,4.0007251 8.1353713,4.2095977 7.7346413,4.1324974 7.4254194,3.9886392 6.8377289,4.0574638 6.4748644,3.4620662 6.0092694,3.2187535 5.1921909,2.9524778 4.7104554,3.8861127 4.1024921,4.2386775 3.8628421,4.4613243 3.8030956,4.7716071 3.5244204,4.9713647 3.1227004,5.3913979 3.1548617,6.1275448 3.6900425,6.4196527 4.088312,6.9005027 4.2667579,7.6180871 4.1560941,8.2042959 4.0080381,8.464953 4.1119021,8.8291424 3.8248594,9.0512356 3.5796924,9.4543759 3.1682114,9.5752899 2.7858934,9.7545572 2.3267795,10.114401 1.5086059,9.7928442 1.1471381,10.306787 c -0.238589,0.889194 -0.1143633,1.868414 -0.096355,2.790867 0.046959,0.317755 0.1534993,0.702399 0.5039882,0.749413 0.3689222,0.218385 0.8444949,0.01384 1.2252447,0.256801 0.9936764,0.305938 1.5401865,1.502997 1.3014591,2.46323 -0.1506946,0.184093 -0.060706,0.429407 -0.2689051,0.59192 -0.1643303,0.242805 -0.2802528,0.514506 -0.5000764,0.740511 -0.4426458,0.598285 0.3120819,1.199855 0.6774521,1.605431 0.4990985,0.451355 0.9560997,1.057326 1.575706,1.311968 0.219879,-0.119779 0.5183288,-0.0028 0.6298967,-0.26873 0.3750915,-0.289387 0.7288723,-0.672351 1.2398427,-0.660966 0.6186052,-0.30341 1.389478,0.06615 1.8989436,0.470719 0.1447098,0.130306 0.1104691,0.368711 0.3312421,0.436198 0.4590097,0.563467 0.00636,1.483854 0.6505527,1.922393 0.807096,0.404442 1.77124,0.242981 2.64317,0.225304 0.608495,0.01301 1.074323,-0.530448 0.978588,-1.129554 0.125529,-0.847382 0.71439,-1.78908 1.639114,-1.864908 0.33558,-0.206926 0.749851,-0.05434 1.07618,0.04363 0.700382,0.01864 1.074268,0.935315 1.840175,0.807435 0.425864,-0.154837 0.722133,-0.52697 1.077784,-0.80761 0.465276,-0.445875 0.940194,-0.900246 1.186773,-1.49545 0.133404,-0.656123 -0.674172,-0.981194 -0.82116,-1.569654 -0.09317,-0.209953 -0.0045,-0.455229 -0.165977,-0.637661 -0.04312,-0.780625 0.380443,-1.530214 1.032905,-1.938577 0.28163,0.03128 0.380037,-0.344621 0.704156,-0.290797 0.545599,0.0226 1.329251,-0.09567 1.397093,-0.771842 0.05303,-0.93679 0.156565,-1.926314 -0.103112,-2.835713 C 22.574595,9.9665352 21.973826,10.157472 21.61576,9.9236624 21.400977,9.9381442 21.257337,9.7725246 21.030209,9.8024631 20.642134,9.6092688 20.333813,9.2811797 20.151171,8.9147765 19.759688,8.4209736 19.759192,7.6072468 20.037195,7.0749629 20.251204,6.8258288 20.349947,6.4944741 20.620075,6.2623709 21.080916,5.6172183 20.480565,4.8980286 20.013537,4.4651438 19.552718,4.0212064 19.134522,3.4863855 18.544468,3.2291142 17.935902,3.079951 17.636997,3.7566374 17.129033,3.9171298 17.013361,4.0386155 16.798285,3.9434235 16.707855,4.1066652 16.39885,4.0539857 16.173078,4.3268302 15.853571,4.1721685 15.224651,4.1039897 14.610627,3.6708466 14.349269,3.1244748 14.254818,2.8730989 14.028076,2.6693927 14.043495,2.3505021 14.074834,1.8727891 13.957111,1.1226466 13.352516,1.1029587 12.93809,0.95506871 12.457479,1.0412379 12.023452,1.0182657 Z m 6.78886,2.6783948 c 0.08443,-0.1259971 0.166921,-0.1257757 0,0 z m -6.808807,4.96543 c 0.361067,-0.02454 0.686544,0.120148 1.00459,0.2105333 0.572251,0.065873 1.054524,0.5454488 1.484535,0.8916107 0.30717,0.1503257 0.15287,0.5325334 0.462136,0.6520634 0.204128,0.22035 0.09012,0.535955 0.294734,0.733757 0.07018,0.977384 0.139233,2.036841 -0.564002,2.827881 -0.437341,0.581089 -1.087257,1.085326 -1.799037,1.234553 -0.331032,2.8e-5 -0.636498,0.188539 -0.994972,0.12012 -0.28329,0.03635 -0.532645,-0.134447 -0.782159,-0.148064 -0.186068,-0.109982 -0.402214,-0.04225 -0.550645,-0.242742 C 10.033336,14.859712 9.6616407,14.376861 9.333445,13.987826 9.3170784,13.700082 8.9347704,13.626478 8.929009,13.292512 8.6170073,12.50554 8.5536028,11.540529 8.9396924,10.778208 9.1669669,10.443652 9.2326714,10.030944 9.5667374,9.7417333 10.189233,9.0595665 11.099542,8.7098433 12.003503,8.6620166 Z M 10.30028,14.970561 c 6.09e-4,-0.0037 0.01203,-0.0056 0,0 z m -0.07587,0.121901 c -0.0073,-0.0179 0.04199,-0.06892 0,0 z m 1.324257,0.329592 c 0.0023,0.01098 -0.002,-0.0065 0,0 z m -7.7637056,2.333137 c -0.00276,0.0028 -0.019559,-0.0083 0,0 z m 16.5820456,1.114958 c 0.08064,0.124568 -0.179237,-0.150722 0,0 z m -4.630977,0.908339 c -0.01049,0.01734 0.0157,-0.04466 0,0 z"
     id="path1626"
     inkscape:connector-curvature="0" />
</svg>
