<?xml version="1.0" encoding="UTF-8" standalone="no"?>
<!-- Generator: Adobe Illustrator 19.0.0, SVG Export Plug-In . SVG Version: 6.00 Build 0)  -->

<svg
   xmlns:dc="http://purl.org/dc/elements/1.1/"
   xmlns:cc="http://creativecommons.org/ns#"
   xmlns:rdf="http://www.w3.org/1999/02/22-rdf-syntax-ns#"
   xmlns:svg="http://www.w3.org/2000/svg"
   xmlns="http://www.w3.org/2000/svg"
   xmlns:sodipodi="http://sodipodi.sourceforge.net/DTD/sodipodi-0.dtd"
   xmlns:inkscape="http://www.inkscape.org/namespaces/inkscape"
   version="1.1"
   id="Capa_1"
   x="0px"
   y="0px"
   viewBox="0 0 24 24.000001"
   xml:space="preserve"
   sodipodi:docname="suggestions.svg"
   inkscape:version="0.92.5 (2060ec1f9f, 2020-04-08)"
   width="24"
   height="24"><metadata
   id="metadata3871"><rdf:RDF><cc:Work
       rdf:about=""><dc:format>image/svg+xml</dc:format><dc:type
         rdf:resource="http://purl.org/dc/dcmitype/StillImage" /><dc:title></dc:title></cc:Work></rdf:RDF></metadata><defs
   id="defs3869">
	

		
	
			
			
			
			
			
			
			
			
			
		</defs><sodipodi:namedview
   pagecolor="#ffffff"
   bordercolor="#666666"
   borderopacity="1"
   objecttolerance="10"
   gridtolerance="10"
   guidetolerance="10"
   inkscape:pageopacity="0"
   inkscape:pageshadow="2"
   inkscape:window-width="1366"
   inkscape:window-height="731"
   id="namedview3867"
   showgrid="false"
   showborder="true"
   inkscape:zoom="3.3752738"
   inkscape:cx="-10.034104"
   inkscape:cy="7.9414737"
   inkscape:window-x="0"
   inkscape:window-y="0"
   inkscape:window-maximized="1"
   inkscape:current-layer="Capa_1"
   fit-margin-top="0"
   fit-margin-left="0"
   fit-margin-right="0"
   fit-margin-bottom="0" />
<g
   id="g10054"
   transform="matrix(0.5189189,0,0,0.5189189,1.0163982,0.00160744)"
   style="fill:#d4aa00;stroke:#d4aa00"><path
     style="fill:#d4aa00;stroke:#d4aa00;stroke-width:0.25"
     d="m 21.203142,10.467879 c -7.143366,0 -12.9794492,5.550416 -12.9794492,12.344126 0,3.552267 1.6341034,6.971323 4.3887352,9.280296 2.054301,1.953747 1.867546,6.12766 1.820858,6.172064 0,0.222016 0.04669,0.39963 0.233443,0.577243 0.140066,0.13321 0.373509,0.222017 0.560264,0.222017 h 11.90561 c 0.233444,0 0.420198,-0.08881 0.560264,-0.222017 0.140066,-0.13321 0.233444,-0.355227 0.233444,-0.577243 0,-0.0444 -0.233444,-4.218317 1.820858,-6.172064 0.04669,-0.0444 0.09338,-0.08881 0.140066,-0.13321 2.707942,-2.353376 4.295357,-5.683626 4.295357,-9.147086 0,-6.79371 -5.836083,-12.344126 -12.97945,-12.344126 z m 7.470187,20.469936 c -0.04669,0.0444 -0.140066,0.13321 -0.140066,0.177613 -1.820858,1.86494 -2.147678,4.92877 -2.194367,6.39408 H 16.0207 c -0.04669,-1.46531 -0.373509,-4.66235 -2.334433,-6.571693 -2.474499,-2.042554 -3.9218482,-5.017577 -3.9218482,-8.170213 0,-5.99445 5.0890652,-10.834413 11.3920352,-10.834413 6.30297,0 11.392035,4.839963 11.392035,10.834413 0,3.152636 -1.40066,6.127659 -3.87516,8.170213 z"
     id="path3812"
     inkscape:connector-curvature="0" /><path
     style="fill:#d4aa00;stroke:#d4aa00;stroke-width:0.25"
     d="m 21.156454,13.620515 c -0.420198,0 -0.793708,0.355227 -0.793708,0.754857 0,0.39963 0.37351,0.754857 0.793708,0.754857 4.715555,0 8.497337,3.641073 8.497337,8.081406 0,0.39963 0.37351,0.754857 0.793708,0.754857 0.420198,0 0.793707,-0.355227 0.793707,-0.754857 0.04669,-5.283997 -4.482112,-9.59112 -10.084752,-9.59112 z"
     id="path3814"
     inkscape:connector-curvature="0" /><path
     style="fill:#d4aa00;stroke:#d4aa00;stroke-width:0.25"
     d="m 24.79817,42.392024 h -7.283432 c -1.07384,0 -1.960924,0.843664 -1.960924,1.86494 0,1.021277 0.887084,1.86494 1.960924,1.86494 h 7.283432 c 1.073839,0 1.960924,-0.843663 1.960924,-1.86494 0,-1.06568 -0.887085,-1.86494 -1.960924,-1.86494 z m 0,2.175764 h -7.283432 c -0.186755,0 -0.37351,-0.13321 -0.37351,-0.355227 0,-0.222017 0.140066,-0.355227 0.37351,-0.355227 h 7.283432 c 0.186755,0 0.373509,0.13321 0.373509,0.355227 0,0.222017 -0.186754,0.355227 -0.373509,0.355227 z"
     id="path3818"
     inkscape:connector-curvature="0" /><path
     style="fill:#d4aa00;stroke:#d4aa00;stroke-width:0.25"
     d="m 21.156454,6.7824021 c 0.466886,0 0.793707,-0.3552266 0.793707,-0.7548566 V 0.87675898 c 0,-0.39962998 -0.373509,-0.75485664 -0.793707,-0.75485664 -0.420198,0 -0.793708,0.35522666 -0.793708,0.75485664 V 6.0275455 c 0,0.39963 0.37351,0.7548566 0.793708,0.7548566 z"
     id="path3820"
     inkscape:connector-curvature="0" /><path
     style="fill:#d4aa00;stroke:#d4aa00;stroke-width:0.25"
     d="m 34.369347,3.9405889 c -0.373509,-0.26642 -0.840396,-0.13321 -1.07384,0.1776133 l -2.988074,4.2627199 c -0.280132,0.3552266 -0.186755,0.8436633 0.186754,1.06568 0.140066,0.088807 0.280132,0.13321 0.420198,0.13321 0.280132,0 0.513576,-0.13321 0.653642,-0.3552267 L 34.556102,4.9618655 C 34.836234,4.6510422 34.742856,4.1626056 34.369347,3.9405889 Z"
     id="path3822"
     inkscape:connector-curvature="0" /><path
     style="fill:#d4aa00;stroke:#d4aa00;stroke-width:0.25"
     d="m 11.678654,9.4021987 c 0.140066,0 0.280132,-0.044403 0.420198,-0.13321 0.37351,-0.2220166 0.466887,-0.7104533 0.233444,-1.0656799 L 9.4375981,3.8961856 C 9.2041548,3.5409589 8.6905795,3.4521522 8.3170701,3.6741689 7.9435608,3.8961856 7.8501834,4.3846222 8.0836268,4.7398489 l 2.8946972,4.3071232 c 0.186755,0.26642 0.420198,0.3552266 0.70033,0.3552266 z"
     id="path3824"
     inkscape:connector-curvature="0" /><path
     style="fill:#d4aa00;stroke:#d4aa00;stroke-width:0.25"
     d="M 6.0293254,14.108952 1.3137699,11.666769 c -0.37350933,-0.177614 -0.88708468,-0.0444 -1.07383935,0.310823 -0.23344334,0.355227 -0.0933773,0.843663 0.32682068,1.021277 l 4.71555547,2.442183 c 0.140066,0.0444 0.2334433,0.08881 0.3735093,0.08881 0.280132,0 0.5602641,-0.13321 0.7003301,-0.39963 0.1867546,-0.355227 0.046689,-0.843664 -0.3268207,-1.021277 z"
     id="path3826"
     inkscape:connector-curvature="0" /><path
     style="fill:#d4aa00;stroke:#d4aa00;stroke-width:0.25"
     d="m 42.119666,11.977592 c -0.186755,-0.355227 -0.70033,-0.488437 -1.07384,-0.310823 l -4.762244,2.442183 c -0.373509,0.177613 -0.513575,0.66605 -0.32682,1.021277 0.140066,0.26642 0.420198,0.39963 0.70033,0.39963 0.140066,0 0.280132,-0.0444 0.373509,-0.08881 l 4.762244,-2.442183 c 0.373509,-0.177614 0.513575,-0.66605 0.326821,-1.021277 z"
     id="path3828"
     inkscape:connector-curvature="0" /></g>
<g
   id="g3836"
   transform="translate(-38.804984,-406.525)">
</g>
<g
   id="g3838"
   transform="translate(-38.804984,-406.525)">
</g>
<g
   id="g3840"
   transform="translate(-38.804984,-406.525)">
</g>
<g
   id="g3842"
   transform="translate(-38.804984,-406.525)">
</g>
<g
   id="g3844"
   transform="translate(-38.804984,-406.525)">
</g>
<g
   id="g3846"
   transform="translate(-38.804984,-406.525)">
</g>
<g
   id="g3848"
   transform="translate(-38.804984,-406.525)">
</g>
<g
   id="g3850"
   transform="translate(-38.804984,-406.525)">
</g>
<g
   id="g3852"
   transform="translate(-38.804984,-406.525)">
</g>
<g
   id="g3854"
   transform="translate(-38.804984,-406.525)">
</g>
<g
   id="g3856"
   transform="translate(-38.804984,-406.525)">
</g>
<g
   id="g3858"
   transform="translate(-38.804984,-406.525)">
</g>
<g
   id="g3860"
   transform="translate(-38.804984,-406.525)">
</g>
<g
   id="g3862"
   transform="translate(-38.804984,-406.525)">
</g>
<g
   id="g3864"
   transform="translate(-38.804984,-406.525)">
</g>
</svg>