<?xml version="1.0" encoding="UTF-8" standalone="no"?>
<svg
   xmlns:dc="http://purl.org/dc/elements/1.1/"
   xmlns:cc="http://creativecommons.org/ns#"
   xmlns:rdf="http://www.w3.org/1999/02/22-rdf-syntax-ns#"
   xmlns:svg="http://www.w3.org/2000/svg"
   xmlns="http://www.w3.org/2000/svg"
   xmlns:sodipodi="http://sodipodi.sourceforge.net/DTD/sodipodi-0.dtd"
   xmlns:inkscape="http://www.inkscape.org/namespaces/inkscape"
   height="24"
   viewBox="-40 0 18 18.000056"
   width="24"
   version="1.1"
   id="svg72"
   sodipodi:docname="uninstall.svg"
   inkscape:version="0.92.3 (2405546, 2018-03-11)">
  <metadata
     id="metadata78">
    <rdf:RDF>
      <cc:Work
         rdf:about="">
        <dc:format>image/svg+xml</dc:format>
        <dc:type
           rdf:resource="http://purl.org/dc/dcmitype/StillImage" />
        <dc:title></dc:title>
      </cc:Work>
    </rdf:RDF>
  </metadata>
  <defs
     id="defs76" />
  <sodipodi:namedview
     pagecolor="#ffffff"
     bordercolor="#666666"
     borderopacity="1"
     objecttolerance="10"
     gridtolerance="10"
     guidetolerance="10"
     inkscape:pageopacity="0"
     inkscape:pageshadow="2"
     inkscape:window-width="1366"
     inkscape:window-height="703"
     id="namedview74"
     showgrid="false"
     showborder="false"
     fit-margin-top="0"
     fit-margin-left="0"
     fit-margin-right="0"
     fit-margin-bottom="0"
     inkscape:zoom="5.7611241"
     inkscape:cx="40.648821"
     inkscape:cy="17.781204"
     inkscape:window-x="0"
     inkscape:window-y="260"
     inkscape:window-maximized="1"
     inkscape:current-layer="svg72"
     units="px" />
  <g
     id="g5907"
     transform="matrix(0.50000001,0,0,0.49999997,-20.000045,0)">
    <g
       transform="matrix(0.10380557,0,0,0.08430914,-35.847729,0)"
       id="g84">
      <path
         d="m 192.40098,154.70443 c -5.52344,0 -10,4.47657 -10,10 v 189 c 0,5.51954 4.47656,10 10,10 5.52343,0 10,-4.48046 10,-10 v -189 c 0,-5.52343 -4.47657,-10 -10,-10 z m 0,0"
         id="path64"
         inkscape:connector-curvature="0" />
      <path
         d="m 74.400978,154.70443 c -5.52344,0 -10,4.47657 -10,10 v 189 c 0,5.51954 4.47656,10 10,10 5.52344,0 10,-4.48046 10,-10 v -189 c 0,-5.52343 -4.47656,-10 -10,-10 z m 0,0"
         id="path66"
         inkscape:connector-curvature="0" />
      <path
         d="m -11.599024,127.1224 v 246.37891 c 0,14.5625 5.3398433,28.23828 14.6679683,38.05078 9.2851557,9.83984 22.2070317,15.42578 35.7304687,15.44922 H 228.00254 c 13.52734,-0.0234 26.44922,-5.60938 35.73047,-15.44922 9.32812,-9.8125 14.66797,-23.48828 14.66797,-38.05078 V 127.1224 C 296.94395,122.20053 308.95957,104.28647 306.4791,85.259126 303.99473,66.235689 287.7877,52.00522 268.6002,52.001314 h -51.19922 v -12.5 c 0.0586,-10.511719 -4.09766,-20.605469 -11.53907,-28.03125 -7.4414,-7.4218751 -17.55078,-11.55468758 -28.0625,-11.46875008 H 89.002538 C 78.490818,-0.08462358 68.381448,4.0481889 60.940038,11.470064 53.498632,18.895845 49.342382,28.989595 49.400976,39.501314 v 12.5 H -1.7982427 c -19.1875003,0.0039 -35.3945313,14.234375 -37.8789073,33.257812 -2.480468,19.027344 9.535157,36.941404 28.078126,41.863274 z M 228.00254,407.00131 H 38.799413 c -17.097656,0 -30.3984367,-14.6875 -30.3984367,-33.5 v -245.5 H 258.40098 v 245.5 c 0,18.8125 -13.30078,33.5 -30.39844,33.5 z M 69.400978,39.501314 c -0.0664,-5.207031 1.98047,-10.21875 5.67578,-13.894531 3.69141,-3.675781 8.71484,-5.695313 13.92578,-5.605469 h 88.796872 c 5.21094,-0.08984 10.23438,1.929688 13.92579,5.605469 3.69531,3.671875 5.74218,8.6875 5.67578,13.894531 v 12.5 H 69.400978 Z m -71.1992207,32.5 H 268.6002 c 9.9414,0 18,8.058594 18,18 0,9.941406 -8.0586,17.999996 -18,17.999996 H -1.7982427 c -9.9414073,0 -18.0000003,-8.05859 -18.0000003,-17.999996 0,-9.941406 8.058593,-18 18.0000003,-18 z m 0,0"
         id="path68"
         inkscape:connector-curvature="0" />
      <path
         d="m 133.40098,154.70443 c -5.52344,0 -10,4.47657 -10,10 v 189 c 0,5.51954 4.47656,10 10,10 5.52343,0 10,-4.48046 10,-10 v -189 c 0,-5.52343 -4.47657,-10 -10,-10 z m 0,0"
         id="path70"
         inkscape:connector-curvature="0" />
    </g>
    <path
       inkscape:connector-curvature="0"
       id="path3791"
       d="m -32.347465,34.215765 c -1.136967,-0.263564 -1.85228,-0.770702 -2.285878,-1.620623 -0.244025,-0.478328 -0.252697,-0.85963 -0.252697,-11.110455 V 10.869559 h 12.888149 12.8881497 l -0.0028,10.577396 c -0.0027,10.017853 -0.01562,10.604942 -0.243951,11.098129 -0.295923,0.639162 -0.8228787,1.147628 -1.5106647,1.457656 -0.486498,0.219295 -1.201157,0.235997 -10.870308,0.254055 -5.692267,0.01062 -10.46674,-0.0078 -10.609942,-0.04103 z m 4.983091,-3.760996 0.289334,-0.202658 v -8.369266 c 0,-8.31107 -0.0019,-8.370969 -0.270765,-8.614305 -0.358608,-0.324535 -1.182796,-0.324535 -1.541404,0 -0.268882,0.243336 -0.270765,0.303235 -0.270765,8.614305 v 8.369266 l 0.289334,0.202658 c 0.159133,0.11146 0.497593,0.202656 0.752133,0.202656 0.25454,0 0.593,-0.0912 0.752133,-0.202656 z m 6.118617,0 0.289333,-0.202658 v -8.369266 c 0,-8.31107 -0.0019,-8.370969 -0.270764,-8.614305 -0.358608,-0.324535 -1.182797,-0.324535 -1.541404,0 -0.268883,0.243336 -0.270765,0.303235 -0.270765,8.614305 v 8.369266 l 0.289333,0.202658 c 0.159134,0.11146 0.497593,0.202656 0.752133,0.202656 0.25454,0 0.593001,-0.0912 0.752134,-0.202656 z m 6.118616,0 0.289334,-0.202658 v -8.369266 c 0,-8.31107 -0.0019,-8.370969 -0.270765,-8.614305 -0.358608,-0.324535 -1.182796,-0.324535 -1.541404,0 -0.268882,0.243336 -0.270765,0.303235 -0.270765,8.614305 v 8.369266 l 0.289334,0.202658 c 0.159132,0.11146 0.497593,0.202656 0.752133,0.202656 0.254539,0 0.593,-0.0912 0.752133,-0.202656 z"
       style="fill:#b3b3b3;stroke-width:0.13018332" />
    <path
       inkscape:connector-curvature="0"
       id="path3793"
       d="m -36.877845,8.8644087 c -0.540224,-0.2384603 -0.844092,-0.6148864 -0.931583,-1.1540278 -0.06403,-0.3945707 -0.01083,-0.5268359 0.386094,-0.9599757 l 0.460354,-0.5023539 14.753284,-0.034506 c 10.894353,-0.025481 14.8480787,0.00467 15.1156987,0.115259 0.791461,0.3270622 1.121594,1.3085049 0.671312,1.9957216 -0.490508,0.7486088 0.06973,0.7229272 -15.6494407,0.7173712 -11.671083,-0.00413 -14.489515,-0.037913 -14.805719,-0.1774884 z"
       style="fill:#b3b3b3;stroke-width:0.13018332" />
    <path
       inkscape:connector-curvature="0"
       id="path3795"
       d="m -28.586127,3.581076 c 0.04302,-0.5947544 0.131512,-0.8607897 0.373651,-1.1233362 0.63458,-0.6880588 0.750066,-0.7010134 6.249312,-0.7010134 4.435032,0 5.151954,0.027404 5.540514,0.2117885 0.718185,0.3408012 0.959962,0.7509159 0.959962,1.6283345 V 4.360393 h -6.589905 -6.589904 z"
       style="fill:#b3b3b3;stroke-width:0.13018332" />
  </g>
</svg>
