<?xml version="1.0" encoding="UTF-8" standalone="no"?>
<svg
   xmlns:dc="http://purl.org/dc/elements/1.1/"
   xmlns:cc="http://creativecommons.org/ns#"
   xmlns:rdf="http://www.w3.org/1999/02/22-rdf-syntax-ns#"
   xmlns:svg="http://www.w3.org/2000/svg"
   xmlns="http://www.w3.org/2000/svg"
   xmlns:sodipodi="http://sodipodi.sourceforge.net/DTD/sodipodi-0.dtd"
   xmlns:inkscape="http://www.inkscape.org/namespaces/inkscape"
   version="1.1"
   viewBox="0 0 8.0000001 8"
   enable-background="new 0 0 26 26"
   id="svg817"
   sodipodi:docname="verified.svg"
   width="8"
   height="8"
   inkscape:version="0.92.4 5da689c313, 2019-01-14">
  <metadata
     id="metadata823">
    <rdf:RDF>
      <cc:Work
         rdf:about="">
        <dc:format>image/svg+xml</dc:format>
        <dc:type
           rdf:resource="http://purl.org/dc/dcmitype/StillImage" />
        <dc:title></dc:title>
      </cc:Work>
    </rdf:RDF>
  </metadata>
  <defs
     id="defs821" />
  <sodipodi:namedview
     pagecolor="#ffffff"
     bordercolor="#666666"
     borderopacity="1"
     objecttolerance="10"
     gridtolerance="10"
     guidetolerance="10"
     inkscape:pageopacity="0"
     inkscape:pageshadow="2"
     inkscape:window-width="1920"
     inkscape:window-height="1019"
     id="namedview819"
     showgrid="false"
     showborder="false"
     fit-margin-top="0"
     fit-margin-left="0"
     fit-margin-right="0"
     fit-margin-bottom="0"
     inkscape:zoom="1.1923077"
     inkscape:cx="-358.68351"
     inkscape:cy="156.16568"
     inkscape:window-x="0"
     inkscape:window-y="0"
     inkscape:window-maximized="1"
     inkscape:current-layer="svg817" />
  <path
     d="M 0.09230771,4.4 C 0.03076924,4.32 0,4.2 0,4.12 0,4.04 0.03076924,3.92 0.09230771,3.84 l 0.4307693,-0.56 c 0.12307694,-0.16 0.30769231,-0.16 0.43076928,0 l 0.0307687,0.04 1.69230781,2.36 c 0.061539,0.08 0.1538463,0.08 0.2153848,0 L 7.0153863,0.12 h 0.030767 v 0 c 0.1230774,-0.16 0.3076932,-0.16 0.4307692,0 L 7.907692,0.68 c 0.1230773,0.16 0.1230773,0.4 0,0.56 v 0 L 2.9846157,7.88 C 2.9230775,7.96 2.8615389,8 2.7692313,8 2.6769233,8 2.6153851,7.96 2.5538465,7.88 L 0.15384617,4.52 Z"
     id="path815"
     inkscape:connector-curvature="0"
     style="fill:#00aa00;stroke-width:0.35082322" />
</svg>
