<?xml version="1.0" encoding="UTF-8" standalone="no"?>
<svg
   xmlns:dc="http://purl.org/dc/elements/1.1/"
   xmlns:cc="http://creativecommons.org/ns#"
   xmlns:rdf="http://www.w3.org/1999/02/22-rdf-syntax-ns#"
   xmlns:svg="http://www.w3.org/2000/svg"
   xmlns="http://www.w3.org/2000/svg"
   xmlns:sodipodi="http://sodipodi.sourceforge.net/DTD/sodipodi-0.dtd"
   xmlns:inkscape="http://www.inkscape.org/namespaces/inkscape"
   version="1.1"
   viewBox="0 0 12.000003 12"
   enable-background="new 0 0 26 26"
   id="svg817"
   sodipodi:docname="verified.svg"
   width="12.000003"
   height="12"
   inkscape:version="0.92.4 5da689c313, 2019-01-14">
  <metadata
     id="metadata823">
    <rdf:RDF>
      <cc:Work
         rdf:about="">
        <dc:format>image/svg+xml</dc:format>
        <dc:type
           rdf:resource="http://purl.org/dc/dcmitype/StillImage" />
        <dc:title />
      </cc:Work>
    </rdf:RDF>
  </metadata>
  <defs
     id="defs821" />
  <sodipodi:namedview
     pagecolor="#ffffff"
     bordercolor="#666666"
     borderopacity="1"
     objecttolerance="10"
     gridtolerance="10"
     guidetolerance="10"
     inkscape:pageopacity="0"
     inkscape:pageshadow="2"
     inkscape:window-width="1920"
     inkscape:window-height="1019"
     id="namedview819"
     showgrid="false"
     showborder="false"
     fit-margin-top="0"
     fit-margin-left="0"
     fit-margin-right="0"
     fit-margin-bottom="0"
     inkscape:zoom="1.1923077"
     inkscape:cx="-358.68351"
     inkscape:cy="156.16568"
     inkscape:window-x="0"
     inkscape:window-y="0"
     inkscape:window-maximized="1"
     inkscape:current-layer="svg817" />
  <path
     d="M 0.1384616,6.6 C 0.04615387,6.48 0,6.3 0,6.18 0,6.06 0.04615387,5.88 0.1384616,5.76 L 0.78461571,4.92 C 0.96923117,4.68 1.2461543,4.68 1.4307698,4.92 l 0.046153,0.06 2.5384625,3.54 c 0.092308,0.12 0.2307694,0.12 0.3230771,0 L 10.523082,0.18 h 0.04615 v 0 c 0.184616,-0.24 0.46154,-0.24 0.646154,0 l 0.646155,0.84 c 0.184616,0.24 0.184616,0.6 0,0.84 v 0 L 4.4769248,11.82 C 4.3846172,11.94 4.2923094,12 4.153848,12 4.0153861,12 3.9230786,11.94 3.8307707,11.82 L 0.23076932,6.78 Z"
     id="path815"
     inkscape:connector-curvature="0"
     style="fill:#00aa00;stroke-width:0.52623492" />
</svg>
