<?xml version="1.0" encoding="UTF-8" standalone="no"?>
<svg
   xmlns:dc="http://purl.org/dc/elements/1.1/"
   xmlns:cc="http://creativecommons.org/ns#"
   xmlns:rdf="http://www.w3.org/1999/02/22-rdf-syntax-ns#"
   xmlns:svg="http://www.w3.org/2000/svg"
   xmlns="http://www.w3.org/2000/svg"
   xmlns:sodipodi="http://sodipodi.sourceforge.net/DTD/sodipodi-0.dtd"
   xmlns:inkscape="http://www.inkscape.org/namespaces/inkscape"
   version="1.1"
   id="Capa_1"
   x="0px"
   y="0px"
   width="512"
   height="512"
   viewBox="0 0 512 512"
   xml:space="preserve"
   sodipodi:docname="help.svg"
   inkscape:version="1.0.1 (3bc2e813f5, 2020-09-07)"><metadata
   id="metadata933"><rdf:RDF><cc:Work
       rdf:about=""><dc:format>image/svg+xml</dc:format><dc:type
         rdf:resource="http://purl.org/dc/dcmitype/StillImage" /><dc:title></dc:title></cc:Work></rdf:RDF></metadata><defs
   id="defs931">
	
</defs><sodipodi:namedview
   pagecolor="#ffffff"
   bordercolor="#666666"
   borderopacity="1"
   objecttolerance="10"
   gridtolerance="10"
   guidetolerance="10"
   inkscape:pageopacity="0"
   inkscape:pageshadow="2"
   inkscape:window-width="1366"
   inkscape:window-height="739"
   id="namedview929"
   showgrid="false"
   showborder="true"
   fit-margin-top="0"
   fit-margin-left="0"
   fit-margin-right="0"
   fit-margin-bottom="0"
   inkscape:zoom="0.70710679"
   inkscape:cx="406.89771"
   inkscape:cy="275.80808"
   inkscape:window-x="0"
   inkscape:window-y="0"
   inkscape:window-maximized="1"
   inkscape:current-layer="Capa_1"
   inkscape:document-rotation="0" />

<g
   id="g898"
   transform="translate(239.5083,-10.347359)">
</g>
<g
   id="g900"
   transform="translate(239.5083,-10.347359)">
</g>
<g
   id="g902"
   transform="translate(239.5083,-10.347359)">
</g>
<g
   id="g904"
   transform="translate(239.5083,-10.347359)">
</g>
<g
   id="g906"
   transform="translate(239.5083,-10.347359)">
</g>
<g
   id="g908"
   transform="translate(239.5083,-10.347359)">
</g>
<g
   id="g910"
   transform="translate(239.5083,-10.347359)">
</g>
<g
   id="g912"
   transform="translate(239.5083,-10.347359)">
</g>
<g
   id="g914"
   transform="translate(239.5083,-10.347359)">
</g>
<g
   id="g916"
   transform="translate(239.5083,-10.347359)">
</g>
<g
   id="g918"
   transform="translate(239.5083,-10.347359)">
</g>
<g
   id="g920"
   transform="translate(239.5083,-10.347359)">
</g>
<g
   id="g922"
   transform="translate(239.5083,-10.347359)">
</g>
<g
   id="g924"
   transform="translate(239.5083,-10.347359)">
</g>
<g
   id="g926"
   transform="translate(239.5083,-10.347359)">
</g>
<path
   id="path939"
   style="fill:#3592c4;fill-opacity:1;stroke:#3592c4;stroke-width:1.88256;stroke-miterlimit:4;stroke-dasharray:none;stroke-opacity:1"
   d="M 255.87109 2.9414062 A 252.84608 253.05907 0 0 0 3.1542969 256 A 252.84608 253.05907 0 0 0 256 509.05859 A 252.84608 253.05907 0 0 0 508.8457 256 A 252.84608 253.05907 0 0 0 256 2.9414062 A 252.84608 253.05907 0 0 0 255.87109 2.9414062 z M 252.38672 122.42188 C 298.55766 122.42188 344.01367 143.70333 344.01367 194.60742 C 344.01367 241.54994 290.26733 259.60406 278.72461 276.56641 C 270.05905 289.1838 272.95161 306.91211 249.14258 306.91211 C 233.63311 306.91211 226.05859 294.28684 226.05859 282.73438 C 226.05859 239.74492 289.16797 230.01576 289.16797 194.61719 C 289.16797 175.13307 276.21203 163.58008 254.55664 163.58008 C 208.3857 163.58008 226.41598 211.2207 191.44727 211.2207 C 178.82347 211.2207 167.98633 203.63908 167.98633 189.20703 C 167.97733 153.79994 208.3694 122.42188 252.38672 122.42188 z M 250.58984 330.34961 C 266.79735 330.34961 280.16992 343.69063 280.16992 359.96289 C 280.16992 376.23515 266.82288 389.57812 250.58984 389.57812 C 234.35681 389.57812 221.00195 376.2522 221.00195 359.96289 C 221.00195 343.69914 234.35681 330.34961 250.58984 330.34961 z " /></svg>
