<?xml version="1.0" encoding="UTF-8" standalone="no"?>
<svg
   xmlns:dc="http://purl.org/dc/elements/1.1/"
   xmlns:cc="http://creativecommons.org/ns#"
   xmlns:rdf="http://www.w3.org/1999/02/22-rdf-syntax-ns#"
   xmlns:svg="http://www.w3.org/2000/svg"
   xmlns="http://www.w3.org/2000/svg"
   xmlns:sodipodi="http://sodipodi.sourceforge.net/DTD/sodipodi-0.dtd"
   xmlns:inkscape="http://www.inkscape.org/namespaces/inkscape"
   id="Layer_1"
   enable-background="new 0 0 512 512"
   height="512"
   viewBox="0 0 512 512"
   width="512"
   version="1.1"
   sodipodi:docname="installed.svg"
   inkscape:version="1.0.1 (3bc2e813f5, 2020-09-07)">
  <metadata
     id="metadata19">
    <rdf:RDF>
      <cc:Work
         rdf:about="">
        <dc:format>image/svg+xml</dc:format>
        <dc:type
           rdf:resource="http://purl.org/dc/dcmitype/StillImage" />
        <dc:title></dc:title>
      </cc:Work>
    </rdf:RDF>
  </metadata>
  <defs
     id="defs17" />
  <sodipodi:namedview
     pagecolor="#ffffff"
     bordercolor="#666666"
     borderopacity="1"
     objecttolerance="10"
     gridtolerance="10"
     guidetolerance="10"
     inkscape:pageopacity="0"
     inkscape:pageshadow="2"
     inkscape:window-width="1366"
     inkscape:window-height="739"
     id="namedview15"
     showgrid="false"
     inkscape:zoom="0.79135193"
     inkscape:cx="136.26698"
     inkscape:cy="280.61282"
     inkscape:window-x="0"
     inkscape:window-y="0"
     inkscape:window-maximized="1"
     inkscape:current-layer="Layer_1"
     inkscape:document-rotation="0" />
  <g
     id="g12"
     transform="matrix(0.99070052,0,0,0.99070052,2.3806669,2.3807133)"
     style="fill:#8888c6;fill-opacity:1">
    <path
       d=""
       style="fill:#8888c6;fill-opacity:1;stroke:#000000;stroke-width:32;stroke-linecap:round;stroke-linejoin:round;stroke-miterlimit:10"
       id="path2" />
    <path
       d=""
       style="fill:#8888c6;fill-opacity:1;stroke:#000000;stroke-width:32;stroke-linecap:round;stroke-linejoin:round;stroke-miterlimit:10"
       id="path4" />
    <path
       d="M 236.94,237.109 6.94,140.267 C 3.645,138.879 0,141.299 0,144.875 v 258.899 c 0,6.542 3.983,12.426 10.058,14.855 l 223.085,89.234 c 3.284,1.314 6.857,-1.105 6.857,-4.642 V 241.717 c 0,-2.012 -1.206,-3.827 -3.06,-4.608 z"
       id="path6"
       style="fill:#8888c6;fill-opacity:1" />
    <path
       d="M 257.94,209.596 480.255,115.99 c 3.996,-1.682 4.103,-7.306 0.174,-9.139 L 262.766,5.275 c -4.289,-2.001 -9.243,-2.001 -13.532,0 L 31.571,106.851 c -3.929,1.833 -3.822,7.457 0.174,9.139 l 222.315,93.606 c 1.24,0.523 2.64,0.523 3.88,0 z"
       id="path8"
       style="fill:#8888c6;fill-opacity:1" />
    <path
       d="m 272,241.717 v 261.504 c 0,3.537 3.573,5.956 6.857,4.642 L 501.942,418.629 C 508.016,416.199 512,410.316 512,403.774 V 144.875 c 0,-3.576 -3.645,-5.996 -6.94,-4.608 l -230,96.842 c -1.854,0.781 -3.06,2.596 -3.06,4.608 z"
       id="path10"
       style="fill:#8888c6;fill-opacity:1" />
  </g>
</svg>
