<?xml version="1.0" encoding="UTF-8" standalone="no"?>
<svg
   xmlns:dc="http://purl.org/dc/elements/1.1/"
   xmlns:cc="http://creativecommons.org/ns#"
   xmlns:rdf="http://www.w3.org/1999/02/22-rdf-syntax-ns#"
   xmlns:svg="http://www.w3.org/2000/svg"
   xmlns="http://www.w3.org/2000/svg"
   xmlns:sodipodi="http://sodipodi.sourceforge.net/DTD/sodipodi-0.dtd"
   xmlns:inkscape="http://www.inkscape.org/namespaces/inkscape"
   version="1.1"
   id="Capa_1"
   x="0px"
   y="0px"
   viewBox="0 0 512 512.00002"
   xml:space="preserve"
   sodipodi:docname="suggestions.svg"
   inkscape:version="1.0.1 (3bc2e813f5, 2020-09-07)"
   width="512"
   height="512"><metadata
   id="metadata3871"><rdf:RDF><cc:Work
       rdf:about=""><dc:format>image/svg+xml</dc:format><dc:type
         rdf:resource="http://purl.org/dc/dcmitype/StillImage" /><dc:title></dc:title></cc:Work></rdf:RDF></metadata><defs
   id="defs3869">
	

		
	
			
			
			
			
			
			
			
			
			
		</defs><sodipodi:namedview
   pagecolor="#ffffff"
   bordercolor="#666666"
   borderopacity="1"
   objecttolerance="10"
   gridtolerance="10"
   guidetolerance="10"
   inkscape:pageopacity="0"
   inkscape:pageshadow="2"
   inkscape:window-width="1366"
   inkscape:window-height="739"
   id="namedview3867"
   showgrid="false"
   showborder="true"
   inkscape:zoom="0.42190923"
   inkscape:cx="312.48671"
   inkscape:cy="404.82957"
   inkscape:window-x="0"
   inkscape:window-y="0"
   inkscape:window-maximized="1"
   inkscape:current-layer="Capa_1"
   fit-margin-top="0"
   fit-margin-left="0"
   fit-margin-right="0"
   fit-margin-bottom="0"
   inkscape:document-rotation="0" />

<g
   id="g3836"
   transform="translate(-38.804984,-406.525)">
</g>
<g
   id="g3838"
   transform="translate(-38.804984,-406.525)">
</g>
<g
   id="g3840"
   transform="translate(-38.804984,-406.525)">
</g>
<g
   id="g3842"
   transform="translate(-38.804984,-406.525)">
</g>
<g
   id="g3844"
   transform="translate(-38.804984,-406.525)">
</g>
<g
   id="g3846"
   transform="translate(-38.804984,-406.525)">
</g>
<g
   id="g3848"
   transform="translate(-38.804984,-406.525)">
</g>
<g
   id="g3850"
   transform="translate(-38.804984,-406.525)">
</g>
<g
   id="g3852"
   transform="translate(-38.804984,-406.525)">
</g>
<g
   id="g3854"
   transform="translate(-38.804984,-406.525)">
</g>
<g
   id="g3856"
   transform="translate(-38.804984,-406.525)">
</g>
<g
   id="g3858"
   transform="translate(-38.804984,-406.525)">
</g>
<g
   id="g3860"
   transform="translate(-38.804984,-406.525)">
</g>
<g
   id="g3862"
   transform="translate(-38.804984,-406.525)">
</g>
<g
   id="g3864"
   transform="translate(-38.804984,-406.525)">
</g>
<g
   id="g1560"><path
     style="fill:#8888c6;fill-opacity:1;stroke:#8888c6;stroke-width:25;stroke-miterlimit:4;stroke-dasharray:none;stroke-opacity:1"
     d="m 256.00003,16.916451 c -94.96346,0 -172.547989,73.786887 -172.547989,164.102049 0,47.2236 21.723669,92.67633 58.343579,123.37168 27.30975,25.97299 24.82703,81.46074 24.20637,82.05105 0,2.95145 0.62068,5.31264 3.10338,7.67382 1.86203,1.77075 4.9654,2.95149 7.44811,2.95149 h 158.27245 c 3.10338,0 5.58607,-1.18077 7.4481,-2.95149 1.86195,-1.77075 3.1034,-4.72237 3.1034,-7.67382 0,-0.59025 -3.1034,-56.07806 24.20636,-82.05105 0.62074,-0.59025 1.24147,-1.18076 1.86195,-1.77075 35.99923,-31.28563 57.10222,-75.55778 57.10222,-121.60081 0,-90.315153 -77.58454,-164.102041 -172.54801,-164.102041 z M 355.30824,289.0425 c -0.62073,0.59025 -1.86195,1.77101 -1.86195,2.36126 -24.20638,24.79241 -28.5511,65.52277 -29.17179,85.00251 H 187.10497 c -0.62069,-19.47982 -4.9654,-61.98105 -31.03381,-87.36377 -32.89583,-27.15359 -52.1368,-66.70333 -52.1368,-108.61431 0,-79.68983 67.65372,-144.031999 151.44501,-144.031999 83.79128,0 151.44499,64.342169 151.44499,144.031999 0,41.91098 -18.62028,81.46072 -51.51612,108.61431 z"
     id="path3812"
     inkscape:connector-curvature="0" /><path
     style="fill:#6e6e6e;fill-opacity:1;stroke:#8888c6;stroke-width:25;stroke-miterlimit:4;stroke-dasharray:none;stroke-opacity:1"
     d="m 303.79211,445.49876 h -96.82549 c -14.27556,0 -26.0684,11.21561 -26.0684,24.79241 0,13.57677 11.79284,24.79238 26.0684,24.79238 h 96.82549 c 14.27556,0 26.06841,-11.21561 26.06841,-24.79238 0,-14.1671 -11.79285,-24.79241 -26.06841,-24.79241 z m 0,28.92447 h -96.82549 c -2.48268,0 -4.96542,-1.77076 -4.96542,-4.72237 0,-2.95147 1.86203,-4.72236 4.96542,-4.72236 h 96.82549 c 2.48268,0 4.96541,1.77075 4.96541,4.72236 0,2.95149 -2.4827,4.72237 -4.96541,4.72237 z"
     id="path3818"
     inkscape:connector-curvature="0" /><path
     style="fill:#8888c6;fill-opacity:1;stroke:#8888c6;stroke-width:13.356;stroke-miterlimit:4;stroke-dasharray:none;stroke-opacity:1"
     d="m 229.00434,88.827447 c -4.96865,0 -9.38524,4.200401 -9.38524,8.925851 0,4.725452 4.41659,8.925862 9.38524,8.925862 55.7594,0 100.47733,43.05411 100.47733,95.55912 0,4.72545 4.4166,8.92585 9.38525,8.92585 4.96866,0 9.38526,-4.2004 9.38526,-8.92585 0.5521,-62.48097 -52.99905,-113.410833 -119.24784,-113.410833 z"
     id="path3814"
     inkscape:connector-curvature="0" /></g></svg>
