<?xml version="1.0" encoding="UTF-8" standalone="no"?>
<svg
   xmlns:dc="http://purl.org/dc/elements/1.1/"
   xmlns:cc="http://creativecommons.org/ns#"
   xmlns:rdf="http://www.w3.org/1999/02/22-rdf-syntax-ns#"
   xmlns:svg="http://www.w3.org/2000/svg"
   xmlns="http://www.w3.org/2000/svg"
   xmlns:sodipodi="http://sodipodi.sourceforge.net/DTD/sodipodi-0.dtd"
   xmlns:inkscape="http://www.inkscape.org/namespaces/inkscape"
   version="1.1"
   id="Capa_1"
   x="0px"
   y="0px"
   viewBox="0 0 512.00002 512.00002"
   xml:space="preserve"
   sodipodi:docname="filter.svg"
   width="512"
   height="512"
   inkscape:version="1.0.1 (3bc2e813f5, 2020-09-07)"><metadata
   id="metadata1717"><rdf:RDF><cc:Work
       rdf:about=""><dc:format>image/svg+xml</dc:format><dc:type
         rdf:resource="http://purl.org/dc/dcmitype/StillImage" /><dc:title /></cc:Work></rdf:RDF></metadata><defs
   id="defs1715" /><sodipodi:namedview
   pagecolor="#ffffff"
   bordercolor="#666666"
   borderopacity="1"
   objecttolerance="10"
   gridtolerance="10"
   guidetolerance="10"
   inkscape:pageopacity="0"
   inkscape:pageshadow="2"
   inkscape:window-width="1366"
   inkscape:window-height="739"
   id="namedview1713"
   showgrid="false"
   inkscape:zoom="0.67994117"
   inkscape:cx="416.65942"
   inkscape:cy="286.29615"
   inkscape:window-x="0"
   inkscape:window-y="0"
   inkscape:window-maximized="1"
   inkscape:current-layer="Capa_1"
   inkscape:document-rotation="0" />
<path
   d="m 496.67267,76.836285 c 0,-24.97369 -25.79215,-43.560542 -78.85493,-56.826244 C 374.3748,9.1493067 316.90773,3.1681057 256.00119,3.1681057 c -60.9041,0 -118.3736,5.981201 -161.816529,16.8419353 C 41.121868,33.275743 15.32733,51.862595 15.32733,76.836285 c 0,9.240624 3.542636,17.605195 10.680722,25.151305 L 189.80713,300.66582 v 190.16485 c 0,6.22842 3.2186,12.01282 8.51098,15.29624 2.89698,1.79771 6.18761,2.70498 9.49023,2.70498 2.73138,0 5.46758,-0.62164 7.99495,-1.87212 l 96.18649,-47.67442 c 6.12041,-3.03381 9.99668,-9.27184 10.00628,-16.1051 l 0.1848,-142.50242 163.82069,-198.70225 c 7.13328,-7.543708 10.67112,-15.901074 10.67112,-25.139295 z M 111.03139,53.012277 c 39.6675,-8.926207 91.15097,-13.841734 144.9698,-13.841734 53.81885,0 105.30474,4.915527 144.96741,13.841734 43.80295,9.857468 56.11578,20.451778 59.06078,23.824008 -2.94738,3.37223 -15.25783,13.96654 -59.06078,23.824005 -39.66267,8.92622 -91.15096,13.84174 -144.96741,13.84174 -53.81643,0 -105.3023,-4.91552 -144.9698,-13.83933 C 67.230834,90.80523 54.915609,80.210909 51.970602,76.838689 54.915609,73.464055 67.230834,62.869745 111.03139,53.012277 Z M 290.30192,282.7534 c -2.65217,3.21862 -4.10668,7.25569 -4.11148,11.42719 l -0.18001,137.8005 -60.19847,29.83882 V 294.20458 c 0,-4.17868 -1.4521,-8.22776 -4.11148,-11.45118 L 99.909045,135.02822 c 42.708495,9.98948 97.811415,15.47865 156.092145,15.47865 58.28314,0 113.38367,-5.48917 156.09217,-15.47865 z"
   id="path1680"
   style="stroke-width:2.4;stroke-miterlimit:4;stroke-dasharray:none;fill:#afb1b3;fill-opacity:1" />
<g
   id="g1682"
   style="fill:#a9abac;fill-opacity:1">
</g>
<g
   id="g1684"
   style="fill:#a9abac;fill-opacity:1">
</g>
<g
   id="g1686"
   style="fill:#a9abac;fill-opacity:1">
</g>
<g
   id="g1688"
   style="fill:#a9abac;fill-opacity:1">
</g>
<g
   id="g1690"
   style="fill:#a9abac;fill-opacity:1">
</g>
<g
   id="g1692"
   style="fill:#a9abac;fill-opacity:1">
</g>
<g
   id="g1694"
   style="fill:#a9abac;fill-opacity:1">
</g>
<g
   id="g1696"
   style="fill:#a9abac;fill-opacity:1">
</g>
<g
   id="g1698"
   style="fill:#a9abac;fill-opacity:1">
</g>
<g
   id="g1700"
   style="fill:#a9abac;fill-opacity:1">
</g>
<g
   id="g1702"
   style="fill:#a9abac;fill-opacity:1">
</g>
<g
   id="g1704"
   style="fill:#a9abac;fill-opacity:1">
</g>
<g
   id="g1706"
   style="fill:#a9abac;fill-opacity:1">
</g>
<g
   id="g1708"
   style="fill:#a9abac;fill-opacity:1">
</g>
<g
   id="g1710"
   style="fill:#a9abac;fill-opacity:1">
</g>
</svg>
