<?xml version="1.0" encoding="UTF-8" standalone="no"?>
<svg
   xmlns:dc="http://purl.org/dc/elements/1.1/"
   xmlns:cc="http://creativecommons.org/ns#"
   xmlns:rdf="http://www.w3.org/1999/02/22-rdf-syntax-ns#"
   xmlns:svg="http://www.w3.org/2000/svg"
   xmlns="http://www.w3.org/2000/svg"
   xmlns:sodipodi="http://sodipodi.sourceforge.net/DTD/sodipodi-0.dtd"
   xmlns:inkscape="http://www.inkscape.org/namespaces/inkscape"
   version="1.1"
   id="Capa_1"
   x="0px"
   y="0px"
   width="512"
   height="512"
   viewBox="0 0 512 512"
   xml:space="preserve"
   sodipodi:docname="help.svg"
   inkscape:version="1.0.1 (3bc2e813f5, 2020-09-07)"><metadata
   id="metadata933"><rdf:RDF><cc:Work
       rdf:about=""><dc:format>image/svg+xml</dc:format><dc:type
         rdf:resource="http://purl.org/dc/dcmitype/StillImage" /><dc:title /></cc:Work></rdf:RDF></metadata><defs
   id="defs931">
	
</defs><sodipodi:namedview
   pagecolor="#ffffff"
   bordercolor="#666666"
   borderopacity="1"
   objecttolerance="10"
   gridtolerance="10"
   guidetolerance="10"
   inkscape:pageopacity="0"
   inkscape:pageshadow="2"
   inkscape:window-width="1366"
   inkscape:window-height="739"
   id="namedview929"
   showgrid="false"
   showborder="true"
   fit-margin-top="0"
   fit-margin-left="0"
   fit-margin-right="0"
   fit-margin-bottom="0"
   inkscape:zoom="0.70710679"
   inkscape:cx="352.36566"
   inkscape:cy="275.80808"
   inkscape:window-x="0"
   inkscape:window-y="0"
   inkscape:window-maximized="1"
   inkscape:current-layer="Capa_1"
   inkscape:document-rotation="0" />
















<g
   id="g4570"><g
     id="g898"
     transform="translate(239.5083,-10.347359)">
</g><g
     id="g900"
     transform="translate(239.5083,-10.347359)">
</g><g
     id="g902"
     transform="translate(239.5083,-10.347359)">
</g><g
     id="g904"
     transform="translate(239.5083,-10.347359)">
</g><g
     id="g906"
     transform="translate(239.5083,-10.347359)">
</g><g
     id="g908"
     transform="translate(239.5083,-10.347359)">
</g><g
     id="g910"
     transform="translate(239.5083,-10.347359)">
</g><g
     id="g912"
     transform="translate(239.5083,-10.347359)">
</g><g
     id="g914"
     transform="translate(239.5083,-10.347359)">
</g><g
     id="g916"
     transform="translate(239.5083,-10.347359)">
</g><g
     id="g918"
     transform="translate(239.5083,-10.347359)">
</g><g
     id="g920"
     transform="translate(239.5083,-10.347359)">
</g><g
     id="g922"
     transform="translate(239.5083,-10.347359)">
</g><g
     id="g924"
     transform="translate(239.5083,-10.347359)">
</g><g
     id="g926"
     transform="translate(239.5083,-10.347359)">
</g><ellipse
     style="fill:none;stroke:#6e6e6e;stroke-width:36.1559"
     id="path9773"
     cx="270.94653"
     cy="252.39122"
     rx="213.86691"
     ry="206.0806" /><path
     id="path939"
     style="fill:#67d8ef;fill-opacity:1;stroke:#67d8ef;stroke-width:1.88256;stroke-miterlimit:4;stroke-dasharray:none;stroke-opacity:1"
     d="M 255.87109,2.9414062 A 252.84608,253.05907 0 0 0 3.1542969,256 252.84608,253.05907 0 0 0 256,509.05859 252.84608,253.05907 0 0 0 508.8457,256 252.84608,253.05907 0 0 0 256,2.9414062 a 252.84608,253.05907 0 0 0 -0.12891,0 z M 252.38672,122.42188 c 46.17094,0 91.62695,21.28145 91.62695,72.18554 0,46.94252 -53.74634,64.99664 -65.28906,81.95899 -8.66556,12.61739 -5.773,30.3457 -29.58203,30.3457 -15.50947,0 -23.08399,-12.62527 -23.08399,-24.17773 0,-42.98946 63.10938,-52.71862 63.10938,-88.11719 0,-19.48412 -12.95594,-31.03711 -34.61133,-31.03711 -46.17094,0 -28.14066,47.64062 -63.10937,47.64062 -12.6238,0 -23.46094,-7.58162 -23.46094,-22.01367 -0.009,-35.40709 40.38307,-66.78515 84.40039,-66.78515 z m -1.79688,207.92773 c 16.20751,0 29.58008,13.34102 29.58008,29.61328 0,16.27226 -13.34704,29.61523 -29.58008,29.61523 -16.23303,0 -29.58789,-13.32592 -29.58789,-29.61523 0,-16.26375 13.35486,-29.61328 29.58789,-29.61328 z" /></g></svg>
