<?xml version="1.0" encoding="UTF-8" standalone="no"?>
<svg
   xmlns:dc="http://purl.org/dc/elements/1.1/"
   xmlns:cc="http://creativecommons.org/ns#"
   xmlns:rdf="http://www.w3.org/1999/02/22-rdf-syntax-ns#"
   xmlns:svg="http://www.w3.org/2000/svg"
   xmlns="http://www.w3.org/2000/svg"
   xmlns:sodipodi="http://sodipodi.sourceforge.net/DTD/sodipodi-0.dtd"
   xmlns:inkscape="http://www.inkscape.org/namespaces/inkscape"
   version="1.1"
   id="Capa_1"
   x="0px"
   y="0px"
   viewBox="0 0 512 512"
   xml:space="preserve"
   sodipodi:docname="search_focused.svg"
   inkscape:version="1.0.1 (3bc2e813f5, 2020-09-07)"
   width="512"
   height="512"><metadata
   id="metadata126"><rdf:RDF><cc:Work
       rdf:about=""><dc:format>image/svg+xml</dc:format><dc:type
         rdf:resource="http://purl.org/dc/dcmitype/StillImage" /><dc:title /></cc:Work></rdf:RDF></metadata><defs
   id="defs124" /><sodipodi:namedview
   pagecolor="#ffffff"
   bordercolor="#666666"
   borderopacity="1"
   objecttolerance="10"
   gridtolerance="10"
   guidetolerance="10"
   inkscape:pageopacity="0"
   inkscape:pageshadow="2"
   inkscape:window-width="1366"
   inkscape:window-height="739"
   id="namedview122"
   showgrid="false"
   showborder="true"
   inkscape:zoom="0.45254834"
   inkscape:cx="67.686957"
   inkscape:cy="197.98638"
   inkscape:window-x="0"
   inkscape:window-y="0"
   inkscape:window-maximized="1"
   inkscape:current-layer="Capa_1"
   fit-margin-top="0"
   fit-margin-left="0"
   fit-margin-right="0"
   fit-margin-bottom="0"
   inkscape:document-rotation="0" />
<g
   id="Search"
   transform="matrix(2.0004545,0,0,2.0004545,5.6311166,5.6311166)"
   style="fill:#d8d773;fill-opacity:1">
	<path
   style="clip-rule:evenodd;fill:#d8d773;fill-opacity:1;fill-rule:evenodd"
   d="m 244.186,214.604 -54.379,-54.378 c -0.289,-0.289 -0.628,-0.491 -0.93,-0.76 10.7,-16.231 16.945,-35.66 16.945,-56.554 C 205.822,46.075 159.747,0 102.911,0 46.075,0 0,46.075 0,102.911 c 0,56.835 46.074,102.911 102.91,102.911 20.895,0 40.323,-6.245 56.554,-16.945 0.269,0.301 0.47,0.64 0.759,0.929 l 54.38,54.38 c 8.169,8.168 21.413,8.168 29.583,0 8.168,-8.169 8.168,-21.413 0,-29.582 z M 102.911,170.146 c -37.134,0 -67.236,-30.102 -67.236,-67.235 0,-37.134 30.103,-67.236 67.236,-67.236 37.132,0 67.235,30.103 67.235,67.236 0,37.133 -30.103,67.235 -67.235,67.235 z"
   id="path88"
   inkscape:connector-curvature="0" />
</g>
<g
   id="g91"
   transform="translate(0,-238.312)">
</g>
<g
   id="g93"
   transform="translate(0,-238.312)">
</g>
<g
   id="g95"
   transform="translate(0,-238.312)">
</g>
<g
   id="g97"
   transform="translate(0,-238.312)">
</g>
<g
   id="g99"
   transform="translate(0,-238.312)">
</g>
<g
   id="g101"
   transform="translate(0,-238.312)">
</g>
<g
   id="g103"
   transform="translate(0,-238.312)">
</g>
<g
   id="g105"
   transform="translate(0,-238.312)">
</g>
<g
   id="g107"
   transform="translate(0,-238.312)">
</g>
<g
   id="g109"
   transform="translate(0,-238.312)">
</g>
<g
   id="g111"
   transform="translate(0,-238.312)">
</g>
<g
   id="g113"
   transform="translate(0,-238.312)">
</g>
<g
   id="g115"
   transform="translate(0,-238.312)">
</g>
<g
   id="g117"
   transform="translate(0,-238.312)">
</g>
<g
   id="g119"
   transform="translate(0,-238.312)">
</g>
</svg>
