<?xml version="1.0" encoding="UTF-8" standalone="no"?>
<svg
   xmlns:dc="http://purl.org/dc/elements/1.1/"
   xmlns:cc="http://creativecommons.org/ns#"
   xmlns:rdf="http://www.w3.org/1999/02/22-rdf-syntax-ns#"
   xmlns:svg="http://www.w3.org/2000/svg"
   xmlns="http://www.w3.org/2000/svg"
   xmlns:sodipodi="http://sodipodi.sourceforge.net/DTD/sodipodi-0.dtd"
   xmlns:inkscape="http://www.inkscape.org/namespaces/inkscape"
   version="1.1"
   viewBox="0 0 512.00001 512"
   enable-background="new 0 0 26 26"
   id="svg817"
   sodipodi:docname="verified.svg"
   width="512"
   height="512"
   inkscape:version="1.0.1 (3bc2e813f5, 2020-09-07)">
  <metadata
     id="metadata823">
    <rdf:RDF>
      <cc:Work
         rdf:about="">
        <dc:format>image/svg+xml</dc:format>
        <dc:type
           rdf:resource="http://purl.org/dc/dcmitype/StillImage" />
        <dc:title />
      </cc:Work>
    </rdf:RDF>
  </metadata>
  <defs
     id="defs821" />
  <sodipodi:namedview
     pagecolor="#ffffff"
     bordercolor="#666666"
     borderopacity="1"
     objecttolerance="10"
     gridtolerance="10"
     guidetolerance="10"
     inkscape:pageopacity="0"
     inkscape:pageshadow="2"
     inkscape:window-width="1366"
     inkscape:window-height="739"
     id="namedview819"
     showgrid="false"
     showborder="true"
     fit-margin-top="0"
     fit-margin-left="0"
     fit-margin-right="0"
     fit-margin-bottom="0"
     inkscape:zoom="0.84308888"
     inkscape:cx="364.16486"
     inkscape:cy="281.60119"
     inkscape:window-x="0"
     inkscape:window-y="0"
     inkscape:window-maximized="1"
     inkscape:current-layer="svg817"
     inkscape:document-rotation="0" />
  <path
     d="m 7.1896424,281.46877 c -3.9182273,-5.09374 -5.8774013,-12.73441 -5.8774013,-17.82813 0,-5.09374 1.959072,-12.73441 5.8776223,-17.82815 l 27.4278676,-35.6563 c 7.836472,-10.18747 19.591293,-10.18747 27.427884,0 l 1.959055,2.54694 107.75243,150.2657 c 3.91834,5.09374 9.79575,5.09374 13.71398,0 L 447.99541,8.952986 h 1.95907 v 0 c 7.8367,-10.187467 19.59149,-10.187467 27.42797,0 l 27.42788,35.656297 c 7.83657,10.187468 7.83657,25.468796 0,35.65628 v 0 L 191.34838,503.04705 c -3.91834,5.09364 -7.83648,7.64056 -13.71388,7.64056 -5.87762,0 -9.79575,-2.54692 -13.71399,-7.64056 L 11.107887,289.10934 Z"
     id="path815"
     inkscape:connector-curvature="0"
     style="fill:#a6e22c;fill-opacity:1;stroke-width:22.3376" />
</svg>
